<svg xmlns="http://www.w3.org/2000/svg" xmlns:xlink="http://www.w3.org/1999/xlink" width="153" height="153" viewBox="0 0 153 153">
  <defs>
    <filter id="Elipse_4754" x="0" y="0" width="153" height="153" filterUnits="userSpaceOnUse">
      <feOffset dy="3" input="SourceAlpha"/>
      <feGaussianBlur stdDeviation="3" result="blur"/>
      <feFlood flood-opacity="0.161"/>
      <feComposite operator="in" in2="blur"/>
      <feComposite in="SourceGraphic"/>
    </filter>
  </defs>
  <g id="Grupo_880824" data-name="Grupo 880824" transform="translate(3929 9868)">
    <g transform="matrix(1, 0, 0, 1, -3929, -9868)" filter="url(#Elipse_4754)">
      <g id="Elipse_4754-2" data-name="Elipse 4754" transform="translate(9 6)" fill="#fff" stroke="#fecb2f" stroke-width="3">
        <circle cx="67.5" cy="67.5" r="67.5" stroke="none"/>
        <circle cx="67.5" cy="67.5" r="66" fill="none"/>
      </g>
    </g>
    <g id="Grupo_873678" data-name="Grupo 873678" transform="translate(-4653.176 -11773.043)">
      <g id="Grupo_873677" data-name="Grupo 873677" transform="translate(611.339 1494.038)">
        <path id="Trazado_599770" data-name="Trazado 599770" d="M203.782,603.06a1.6,1.6,0,0,0,1.138.1c.489-3,.842-3.25,5.12-3.607.421-2.188.872-4.4,1.268-6.626.53-2.975,2.223-4.9,4.75-5.325a6.206,6.206,0,0,1,6.663,3.574.664.664,0,0,0,.121.141c.3.14.5-.051.73-.1a2.415,2.415,0,0,1,3.06,2.761q-1.132,8.962-2.322,17.917a2.373,2.373,0,0,1-2.586,2.277c-1.433.021-2.867,0-4.274,0a1.956,1.956,0,0,0-.192,1.327c-.014,3.2-.056,6.394.017,9.589.027,1.186-.391,1.559-1.523,1.477a23.752,23.752,0,0,0-3.234,0c-1.042.066-1.407-.313-1.39-1.37.053-3.235.019-6.472.018-9.709,0-.392,0-.783,0-1.249-1.092-.18-2.227.173-3.141-.623a2.913,2.913,0,0,1-.738-2.981H203.93a2.676,2.676,0,0,0-.146,1.351c-.008,4.355,0,8.711-.019,13.066,0,.53.32,1.407-.592,1.426s-.644-.845-.645-1.387q-.022-11.507-.009-23.015c0-3.22-.107-3.216-3.426-3.335-4.146-.149-8.29.019-12.434-.092-2.818-.075-5.641,0-8.461.008-1.337,0-1.774.435-1.807,1.763-.2,8.067-.035,16.136-.09,24.2,0,.28,0,.559,0,.839-.005.489.015,1.057-.669,1.037s-.608-.619-.609-1.087c-.005-4.475,0-8.95-.008-13.425a2.71,2.71,0,0,0-.139-1.353h-3.506c.233,2.756-.172,3.144-3.863,3.671q0,5.174,0,10.381c0,1.859,0,1.859-1.916,1.862-1,0-2-.034-3,.013-.892.042-1.178-.324-1.168-1.2.037-3.476.016-6.952.014-10.428,0-.2-.017-.39-.035-.756-1.449,0-2.869.006-4.289,0a2.492,2.492,0,0,1-2.855-2.526q-1.1-8.552-2.19-17.1c-.343-2.665.949-3.828,3.639-3.165a11.817,11.817,0,0,1,.9-1.47,5.937,5.937,0,0,1,6.191-2.23,5.609,5.609,0,0,1,4.416,4.674c.521,2.37.927,4.758,1.251,7.151,1.275.319,2.614-.315,3.685.469a3.436,3.436,0,0,1,1.441,3.1,1.86,1.86,0,0,0,1.393.012,15.79,15.79,0,0,0-.017-2.224,2.72,2.72,0,0,1,2.745-3.442c.35-.023.7,0,1.2,0,0-1.532-.015-2.96,0-4.387a9.359,9.359,0,0,1,.987-4.635,7.217,7.217,0,0,1,6.457-3.874q3.295-.076,6.592,0A7.4,7.4,0,0,1,200.282,592c.016,1.753,0,3.506,0,5.337C204.7,597.3,203.734,600.534,203.782,603.06Zm-38.162-3.524c1.3.293,1.5-.257,1.277-1.292-.2-.934-.246-1.9-.409-2.844a30.021,30.021,0,0,0-.709-3.515,4.412,4.412,0,0,0-5.428-2.934c-2.3.56-3.877,2.589-3.566,4.576.61,3.89,1.231,7.779,1.82,11.672.423,2.8,1.932,4.132,4.776,4.135q5.272.007,10.544-.008c.338,0,.716.138,1.05-.184V604.6c-.994-.132-1.907-.29-2.7.532a2.267,2.267,0,0,1-1.674.544c-2.356.014-4.714.045-7.069-.01a3.108,3.108,0,0,1-3.1-2.511c-.17-.613-.336-1.229-.458-1.852-.389-2-.759-4-1.128-6a.638.638,0,0,1,.487-.825c.466-.129.658.171.789.521a4.841,4.841,0,0,1,.2.81c.413,2.233.816,4.467,1.232,6.7a2.038,2.038,0,0,0,2.08,1.925c2.276.028,4.553.035,6.829,0a1.7,1.7,0,0,0,1.832-1.782,1.586,1.586,0,0,0-1.763-1.669,47.48,47.48,0,0,0-5.125-.083c-.545.074-1-.088-1.087-.666-.322-2.121-.8-4.207-1.27-6.3-.1-.448-.212-1.034.489-1.122.6-.075.644.453.773.875A55.91,55.91,0,0,1,165.62,599.536Zm38.208,9.792c4.123,0,8.116.054,12.106-.022a4.075,4.075,0,0,0,4.011-3.741c.6-3.851,1.052-7.723,1.778-11.556a4.3,4.3,0,0,0-3.676-5.118,4.422,4.422,0,0,0-5.279,3.206c-.308,1.153-.46,2.348-.688,3.523a20.581,20.581,0,0,0-.45,3.8c.98.451,1.356.075,1.519-.759a42.471,42.471,0,0,1,1.116-5.012c.134-.412.263-.8.771-.727.537.082.479.559.484.95a2.45,2.45,0,0,1-.074.711,27.869,27.869,0,0,0-1.111,5.378c-.045.5-.208.891-.879.89-1.713,0-3.427.087-5.14.1-1.246.007-1.972.562-2.016,1.637a1.742,1.742,0,0,0,1.884,1.86c2.236.034,4.474.022,6.711.005A2.021,2.021,0,0,0,217,602.7c.108-.466.177-.941.269-1.411.385-1.985.755-3.973,1.172-5.951.093-.442.235-1.031.92-.82.558.172.478.65.385,1.1-.492,2.383-.97,4.769-1.47,7.15a3.282,3.282,0,0,1-3.515,2.923c-2.157.026-4.314,0-6.471,0a2.727,2.727,0,0,1-2.018-.6,2.388,2.388,0,0,0-2.445-.471ZM183,594.74c0-.776,0-1.406,0-2.036,0-.445-.021-.973.57-1.01.678-.042.694.506.693,1.006,0,1.5,0,3.009,0,4.712,3.469,0,6.756,0,10.044,0,.676,0,.607-.485.62-.919.037-1.274.076-2.548.1-3.822.01-.455.011-.972.6-.985s.622.484.637.952a3.258,3.258,0,0,0,.275,1.933h2.26a6.642,6.642,0,0,0,.193-2.78,5.964,5.964,0,0,0-5.827-5.962c-2.349-.1-4.708-.081-7.058,0-3.875.134-6.942,3.737-5.536,8.77Zm32.744,18.2c1.835,0,3.673-.047,5.506.017a1.546,1.546,0,0,0,1.869-1.607q1.007-8.657,2.144-17.3c.116-.869.038-1.469-.839-1.625-.9-.159-1.307.425-1.366,1.265a42.9,42.9,0,0,1-.621,4.416c-.439,2.511-.785,5.037-1.217,7.549a5.434,5.434,0,0,1-5.661,4.913c-1.716.017-3.432,0-5.148,0-.881,0-1.939-.132-1.948,1.152-.01,1.361,1.092,1.215,2.013,1.215Zm-52.865,0c1.915,0,3.83-.01,5.745,0,.868.006,1.541-.229,1.525-1.236-.015-.949-.679-1.147-1.487-1.142-1.875.011-3.75.018-5.625,0a5.3,5.3,0,0,1-5.615-4.923c-.236-2.135-.689-4.243-.944-6.374-.213-1.773-.507-3.637-.9-5.435-.187-.847-.374-1.526-1.353-1.415-.935.106-1.038.824-.937,1.622.331,2.611.633,5.227.968,7.837.411,3.2.862,6.4,1.259,9.6.125,1.008.571,1.491,1.624,1.47C159.049,612.911,160.964,612.938,162.879,612.938Zm3.321,12.3V614.255h-3.438v10.983Zm46.244-.01h3.475v-10.96h-3.475Zm-13.51-29.174a10.822,10.822,0,0,0-1.784-.29c-.384,0-.9.107-.877.71.023.531.2.907.86.85.583-.05,1.173-.011,1.763-.011A1.915,1.915,0,0,0,198.934,596.052Zm-18.684-.009c.108.522-.143.961.217,1.331h2.406a2.509,2.509,0,0,0,.009-1.331Z" transform="translate(0 -104.547)" fill="#0c1d30"/>
        <path id="Trazado_599771" data-name="Trazado 599771" d="M362.247,491.016c-1.528-.117-3.413.215-5.273-.158a8.092,8.092,0,1,1,9.3-5.495,2.24,2.24,0,0,0,.334,2.377,16.637,16.637,0,0,1,1.221,1.917c.583,1,.383,1.339-.8,1.354C365.545,491.03,364.067,491.016,362.247,491.016Zm4.064-1.235a3.213,3.213,0,0,0-.257-.557,4.774,4.774,0,0,1-.875-4.862c1.128-3.747-1.709-7.618-5.531-8.173a6.837,6.837,0,1,0-1.043,13.589C361.117,489.789,363.629,489.781,366.311,489.781Z" transform="translate(-150.883 -21.18)" fill="#0c1d30"/>
        <path id="Trazado_599772" data-name="Trazado 599772" d="M196.416,491.064c-1.517,0-3.034.019-4.551-.007-1.01-.017-1.34-.487-.732-1.239,1.513-1.87,1.723-3.746,1.345-6.182a7.754,7.754,0,0,1,7.6-8.734,8.088,8.088,0,1,1,.165,16.167c-1.277-.011-2.555,0-3.832,0Zm-3.706-1.234c2.684,0,5.231.013,7.778,0a6.838,6.838,0,1,0-1.112-13.595c-3.83.543-6.729,4.447-5.549,8.15a4.873,4.873,0,0,1-.924,4.963A2.648,2.648,0,0,0,192.71,489.83Z" transform="translate(-29.508 -21.226)" fill="#0c1d30"/>
        <path id="Trazado_599773" data-name="Trazado 599773" d="M275.383,459.058c0-1.357,0-2.714,0-4.07a8.03,8.03,0,0,1,5.532-7.608,8.1,8.1,0,0,1,9.07,12.494,7.98,7.98,0,0,1-8.94,2.892,2.215,2.215,0,0,0-2.382.346,17.026,17.026,0,0,1-1.823,1.144c-1.081.642-1.429.46-1.442-.769-.015-1.476,0-2.953,0-4.429Zm1.313,3.613a1.366,1.366,0,0,0,.984-.454,3.8,3.8,0,0,1,4-.63,6.615,6.615,0,0,0,8.438-4.956,6.852,6.852,0,0,0-5.329-8.287,6.713,6.713,0,0,0-8.032,5.65C276.466,456.858,276.7,459.772,276.7,462.671Z" transform="translate(-93.791)" fill="#0c1d30"/>
        <path id="Trazado_599774" data-name="Trazado 599774" d="M163.437,552.939a5.48,5.48,0,1,1,5.44,5.519A5.5,5.5,0,0,1,163.437,552.939Zm9.679-.013a4.206,4.206,0,1,0-4.22,4.263A4.19,4.19,0,0,0,173.116,552.926Z" transform="translate(-8.683 -76.42)" fill="#0c1d30"/>
        <path id="Trazado_599775" data-name="Trazado 599775" d="M290.562,543.73a5.476,5.476,0,0,1-5.474-5.595,5.538,5.538,0,0,1,5.534-5.441,5.612,5.612,0,0,1,5.506,5.5A5.539,5.539,0,0,1,290.562,543.73Zm.076-1.271a4.237,4.237,0,1,0-4.284-4.183A4.164,4.164,0,0,0,290.638,542.46Z" transform="translate(-101.169 -65.169)" fill="#0c1d30"/>
        <path id="Trazado_599776" data-name="Trazado 599776" d="M416.964,552.781a5.468,5.468,0,1,1-10.936.008,5.468,5.468,0,0,1,10.936-.008Zm-5.464-4.224a4.19,4.19,0,0,0-4.2,4.271,4.206,4.206,0,0,0,8.411.014A4.224,4.224,0,0,0,411.5,548.557Z" transform="translate(-193.117 -76.292)" fill="#0c1d30"/>
        <path id="Trazado_599777" data-name="Trazado 599777" d="M180.618,613.222a55.906,55.906,0,0,0-1.3-5.843c-.129-.422-.176-.949-.773-.875-.7.088-.59.674-.489,1.122.468,2.091.947,4.177,1.27,6.3.088.578.542.74,1.087.666a47.48,47.48,0,0,1,5.125.083,1.586,1.586,0,0,1,1.763,1.669,1.7,1.7,0,0,1-1.832,1.782c-2.276.035-4.553.028-6.829,0a2.038,2.038,0,0,1-2.08-1.925c-.415-2.232-.819-4.467-1.232-6.7a4.838,4.838,0,0,0-.2-.81c-.131-.35-.323-.649-.789-.521a.638.638,0,0,0-.487.825c.369,2,.74,4,1.128,6,.122.624.288,1.24.458,1.852a3.108,3.108,0,0,0,3.1,2.511c2.355.055,4.712.024,7.069.01a2.267,2.267,0,0,0,1.674-.544c.79-.822,1.7-.664,2.7-.532v4.539c-.334.322-.712.183-1.05.184q-5.272.019-10.544.008c-2.845,0-4.354-1.338-4.777-4.135-.588-3.893-1.209-7.782-1.82-11.672-.312-1.987,1.266-4.016,3.566-4.576a4.412,4.412,0,0,1,5.428,2.934,30.021,30.021,0,0,1,.709,3.515c.163.944.208,1.91.409,2.844C182.118,612.965,181.923,613.516,180.618,613.222Z" transform="translate(-14.998 -118.234)" fill="#fefefe"/>
        <path id="Trazado_599778" data-name="Trazado 599778" d="M368.141,622.958v-4.706a2.388,2.388,0,0,1,2.445.471,2.727,2.727,0,0,0,2.018.6c2.157,0,4.314.021,6.471,0a3.282,3.282,0,0,0,3.515-2.923c.5-2.381.979-4.767,1.47-7.15.093-.451.173-.929-.385-1.1-.685-.211-.827.378-.92.82-.416,1.978-.786,3.966-1.172,5.951-.091.47-.161.945-.269,1.411a2.022,2.022,0,0,1-2.107,1.751c-2.237.017-4.474.029-6.711-.005a1.742,1.742,0,0,1-1.884-1.86c.044-1.074.77-1.63,2.016-1.637,1.713-.009,3.427-.1,5.14-.1.671,0,.834-.39.879-.89a27.87,27.87,0,0,1,1.111-5.378,2.449,2.449,0,0,0,.074-.711c0-.391.053-.868-.484-.95-.508-.078-.637.315-.771.727a42.474,42.474,0,0,0-1.116,5.012c-.163.834-.539,1.211-1.519.759a20.582,20.582,0,0,1,.45-3.8c.228-1.175.38-2.369.688-3.523a4.422,4.422,0,0,1,5.279-3.206,4.3,4.3,0,0,1,3.676,5.118c-.726,3.833-1.177,7.706-1.778,11.556a4.075,4.075,0,0,1-4.011,3.741C376.257,623.012,372.263,622.958,368.141,622.958Z" transform="translate(-164.312 -118.177)" fill="#fefefe"/>
        <path id="Trazado_599779" data-name="Trazado 599779" d="M272.468,598.779l-2.425-.139c-1.405-5.032,1.661-8.636,5.536-8.77,2.35-.081,4.71-.1,7.058,0a5.964,5.964,0,0,1,5.827,5.962,6.642,6.642,0,0,1-.193,2.78h-2.26a3.258,3.258,0,0,1-.275-1.933c-.015-.468-.054-.964-.637-.952s-.589.53-.6.985c-.029,1.274-.067,2.548-.1,3.822-.012.435.057.92-.62.919-3.287,0-6.574,0-10.044,0,0-1.7,0-3.208,0-4.712,0-.5-.016-1.049-.693-1.006-.591.037-.568.565-.57,1.01C272.466,597.373,272.468,598,272.468,598.779Z" transform="translate(-89.468 -108.586)" fill="#fefefe"/>
        <path id="Trazado_599780" data-name="Trazado 599780" d="M394.754,638.016h-5.267c-.921,0-2.022.145-2.013-1.215.009-1.284,1.067-1.151,1.948-1.152,1.716,0,3.432.013,5.148,0a5.434,5.434,0,0,0,5.661-4.913c.431-2.512.777-5.038,1.217-7.549a42.9,42.9,0,0,0,.621-4.416c.058-.84.47-1.424,1.366-1.265.877.155.955.756.839,1.625q-1.152,8.639-2.144,17.3a1.546,1.546,0,0,1-1.869,1.607C398.427,637.969,396.589,638.016,394.754,638.016Z" transform="translate(-179.01 -129.626)" fill="#fefefe"/>
        <path id="Trazado_599781" data-name="Trazado 599781" d="M166.8,638.042c-1.915,0-3.83-.028-5.744.011-1.054.021-1.5-.462-1.624-1.47-.4-3.2-.847-6.4-1.259-9.6-.335-2.611-.637-5.226-.968-7.837-.1-.8,0-1.516.937-1.622.979-.111,1.166.568,1.353,1.415.4,1.8.691,3.662.9,5.435.256,2.131.708,4.239.944,6.374a5.3,5.3,0,0,0,5.615,4.923c1.875.019,3.75.012,5.625,0,.808,0,1.472.193,1.487,1.142.016,1.006-.657,1.242-1.525,1.236C170.631,638.032,168.716,638.042,166.8,638.042Z" transform="translate(-3.922 -129.651)" fill="#fefefe"/>
        <path id="Trazado_599782" data-name="Trazado 599782" d="M200.281,719.63h-3.438V708.647h3.438Z" transform="translate(-34.081 -198.94)" fill="#fefefe"/>
        <path id="Trazado_599783" data-name="Trazado 599783" d="M404.078,719.658V708.7h3.475v10.96Z" transform="translate(-191.634 -198.978)" fill="#fefefe"/>
        <path id="Trazado_599784" data-name="Trazado 599784" d="M339.283,631.8a1.916,1.916,0,0,1-.038,1.259c-.591,0-1.181-.04-1.763.01-.663.057-.838-.319-.86-.85-.026-.6.494-.71.877-.71A10.828,10.828,0,0,1,339.283,631.8Z" transform="translate(-140.348 -140.295)" fill="#fefefe"/>
        <path id="Trazado_599785" data-name="Trazado 599785" d="M269.789,632.683h2.633a2.509,2.509,0,0,1-.009,1.331h-2.406C269.646,633.644,269.9,633.205,269.789,632.683Z" transform="translate(-89.539 -141.187)" fill="#fefefe"/>
        <path id="Trazado_599786" data-name="Trazado 599786" d="M370.291,493.838c-2.681,0-5.193.009-7.705,0a6.837,6.837,0,1,1,1.043-13.589c3.822.555,6.659,4.426,5.531,8.173a4.774,4.774,0,0,0,.875,4.862A3.214,3.214,0,0,1,370.291,493.838Zm-7.839-6.334c.8.829,1.494,1.547,2.19,2.26.325.333.7.628,1.121.193.438-.454.063-.8-.261-1.106-.721-.672-1.458-1.326-2.328-2.115.945-.892,1.67-1.568,2.384-2.255.3-.286.594-.629.235-1.029-.4-.441-.789-.209-1.126.134-.719.731-1.432,1.466-2.211,2.266-.765-.781-1.429-1.466-2.1-2.144-.346-.349-.756-.754-1.211-.266s.019.873.36,1.193c.689.647,1.4,1.27,2.258,2.043-.951.873-1.686,1.54-2.411,2.217-.307.287-.58.649-.228,1.033.388.424.794.207,1.133-.143C360.947,489.068,361.637,488.35,362.452,487.5Z" transform="translate(-154.864 -25.237)" fill="#fefefe"/>
        <path id="Trazado_599787" data-name="Trazado 599787" d="M198.676,493.841a2.646,2.646,0,0,1,.194-.484,4.873,4.873,0,0,0,.924-4.963c-1.181-3.7,1.718-7.607,5.549-8.15a6.838,6.838,0,1,1,1.112,13.595C203.907,493.854,201.36,493.841,198.676,493.841Zm7.125-4.9c-.831-.951-1.558-1.788-2.292-2.618-.256-.29-.561-.491-.933-.2a.6.6,0,0,0-.058.946q1.388,1.651,2.808,3.275a.628.628,0,0,0,1.1-.051c1.308-2.054,2.589-4.126,3.868-6.2a.581.581,0,0,0-.161-.847c-.39-.273-.681-.062-.913.249-.191.255-.354.532-.523.8C207.752,485.811,206.806,487.326,205.8,488.937Z" transform="translate(-35.474 -25.237)" fill="#fefefe"/>
        <path id="Trazado_599788" data-name="Trazado 599788" d="M280.589,466.616c0-2.9-.23-5.814.057-8.676a6.713,6.713,0,0,1,8.032-5.65,6.852,6.852,0,0,1,5.329,8.287,6.615,6.615,0,0,1-8.438,4.956,3.8,3.8,0,0,0-4,.63A1.366,1.366,0,0,1,280.589,466.616Zm6.324-5.492c-.8-.937-1.5-1.751-2.2-2.567-.28-.328-.612-.59-1.019-.283-.485.365-.241.769.062,1.124q1.16,1.363,2.331,2.716c.828.956,1.107.949,1.765-.095q1.653-2.624,3.269-5.271c.256-.417.756-.917.118-1.335s-.888.241-1.151.654C289.045,457.708,288.018,459.359,286.912,461.123Z" transform="translate(-97.683 -3.944)" fill="#fefefe"/>
        <path id="Trazado_599789" data-name="Trazado 599789" d="M177.132,556.851a4.206,4.206,0,1,1-8.412.081,4.206,4.206,0,1,1,8.412-.081Z" transform="translate(-12.7 -80.345)" fill="#fefefe"/>
        <path id="Trazado_599790" data-name="Trazado 599790" d="M294.654,546.554a4.237,4.237,0,1,1,4.184-4.284A4.166,4.166,0,0,1,294.654,546.554Z" transform="translate(-105.186 -69.263)" fill="#fefefe"/>
        <path id="Trazado_599791" data-name="Trazado 599791" d="M415.519,552.462a4.224,4.224,0,0,1,4.206,4.285,4.206,4.206,0,1,1-4.206-4.285Z" transform="translate(-197.136 -80.198)" fill="#fefefe"/>
        <path id="Trazado_599792" data-name="Trazado 599792" d="M372.725,497.136c-.816.846-1.505,1.564-2.2,2.279-.339.35-.745.567-1.133.143-.352-.384-.079-.746.228-1.033.725-.678,1.461-1.345,2.411-2.217-.858-.773-1.569-1.4-2.258-2.043-.341-.32-.824-.7-.36-1.193s.865-.083,1.211.266c.671.678,1.336,1.363,2.1,2.144.779-.8,1.493-1.535,2.211-2.266.337-.343.731-.575,1.126-.134.359.4.061.744-.235,1.029-.714.688-1.439,1.363-2.384,2.255.87.789,1.607,1.443,2.328,2.115.324.3.7.652.261,1.106-.421.435-.8.14-1.121-.193C374.219,498.683,373.528,497.965,372.725,497.136Z" transform="translate(-165.137 -34.87)" fill="#0c1d30"/>
        <path id="Trazado_599793" data-name="Trazado 599793" d="M217.339,498.285c1.006-1.61,1.952-3.126,2.9-4.641.169-.271.333-.547.523-.8.233-.312.523-.523.913-.249a.581.581,0,0,1,.161.847c-1.279,2.072-2.56,4.144-3.868,6.2a.628.628,0,0,1-1.1.051q-1.423-1.621-2.808-3.275a.6.6,0,0,1,.058-.946c.372-.291.677-.09.933.2C215.781,496.5,216.508,497.334,217.339,498.285Z" transform="translate(-47.013 -34.585)" fill="#0c1d30"/>
        <path id="Trazado_599794" data-name="Trazado 599794" d="M296.159,471c1.106-1.764,2.132-3.415,3.175-5.056.263-.414.5-1.08,1.151-.654s.137.917-.118,1.335q-1.62,2.645-3.269,5.271c-.658,1.044-.937,1.051-1.765.095q-1.172-1.353-2.331-2.716c-.3-.356-.547-.759-.062-1.124.408-.307.74-.045,1.019.283C294.656,469.246,295.356,470.059,296.159,471Z" transform="translate(-106.93 -13.817)" fill="#0c1d30"/>
      </g>
    </g>
  </g>
</svg>
