<svg xmlns="http://www.w3.org/2000/svg" width="250.708" height="250.708" viewBox="0 0 250.708 250.708">
  <g id="Grupo_880507" data-name="Grupo 880507" transform="translate(-813.086 -2169.085)">
    <g id="Grupo_880506" data-name="Grupo 880506" transform="translate(813.086 2169.085)">
      <g id="Grupo_880320" data-name="Grupo 880320" transform="translate(0 0)">
        <circle id="Elipse_5201" data-name="Elipse 5201" cx="88.639" cy="88.639" r="88.639" transform="translate(0 125.354) rotate(-45)" fill="#ffd55a"/>
      </g>
      <g id="Grupo_880329" data-name="Grupo 880329" transform="translate(70.841 74.08)">
        <g id="Grupo_880321" data-name="Grupo 880321" transform="translate(53.185 2.691)">
          <rect id="Rectángulo_296860" data-name="Rectángulo 296860" width="40.152" height="1.212" fill="#7eb9e7"/>
        </g>
        <g id="Grupo_880322" data-name="Grupo 880322" transform="translate(6.594 2.691)">
          <rect id="Rectángulo_296861" data-name="Rectángulo 296861" width="38.866" height="1.212" fill="#7eb9e7"/>
        </g>
        <g id="Grupo_880323" data-name="Grupo 880323" transform="translate(52.688 2.867)">
          <path id="Trazado_605095" data-name="Trazado 605095" d="M147.94,321.75h-1.212a47.161,47.161,0,0,0-43.739-46.926l.084-1.209A48.379,48.379,0,0,1,147.94,321.75Z" transform="translate(-102.989 -273.615)" fill="#7eb9e7"/>
        </g>
        <g id="Grupo_880324" data-name="Grupo 880324" transform="translate(1.135 2.876)">
          <path id="Trazado_605096" data-name="Trazado 605096" d="M61.653,321.749H60.441a48.4,48.4,0,0,1,44.741-48.127l.087,1.209A47.184,47.184,0,0,0,61.653,321.749Z" transform="translate(-60.441 -273.622)" fill="#7eb9e7"/>
        </g>
        <g id="Grupo_880325" data-name="Grupo 880325">
          <circle id="Elipse_5202" data-name="Elipse 5202" cx="3.297" cy="3.297" r="3.297" fill="#7eb9e7"/>
        </g>
        <g id="Grupo_880326" data-name="Grupo 880326" transform="translate(38.051 86.211)">
          <rect id="Rectángulo_296862" data-name="Rectángulo 296862" width="22.718" height="7.844" fill="#7eb9e7"/>
        </g>
        <g id="Grupo_880327" data-name="Grupo 880327" transform="translate(25.573 23.184)">
          <path id="Trazado_605097" data-name="Trazado 605097" d="M105.828,290.383v33.552a3.584,3.584,0,1,1-2.807,0V290.383L80.61,329.2l.138.236A16.825,16.825,0,0,1,93.1,350.667h22.48a16.81,16.81,0,0,1,12.545-21.281l.108-.187Z" transform="translate(-80.61 -290.383)" fill="#7eb9e7"/>
        </g>
        <g id="Grupo_880328" data-name="Grupo 880328" transform="translate(46.219 0.129)">
          <rect id="Rectángulo_296863" data-name="Rectángulo 296863" width="6.336" height="6.336" fill="#7eb9e7"/>
        </g>
      </g>
      <g id="Grupo_880330" data-name="Grupo 880330" transform="translate(186.143 68.318)">
        <path id="Trazado_605098" data-name="Trazado 605098" d="M162.148,266.493v8.423l.254.321h-7.736v55.377h44.52v-8.824h7.482v-55.3Z" transform="translate(-154.666 -266.493)" fill="#7eb9e7"/>
      </g>
      <g id="Grupo_880336" data-name="Grupo 880336" transform="translate(156.226 151.792)">
        <g id="Grupo_880331" data-name="Grupo 880331" transform="translate(4.561 13.694)">
          <path id="Trazado_605099" data-name="Trazado 605099" d="M133.738,357.5h15.955V365.7a2.218,2.218,0,1,0-4.436,0v7.339c0,4.3,4.436,5.136,4.436,5.136v3.666h-1.156v2.09l20.059.036v-2.126h-1.157V365.855a2.213,2.213,0,0,0-4.286-.783H163a2.212,2.212,0,0,0-4.422,0h-.007v-.8a2.218,2.218,0,0,0-4.436,0V357.5h16.386V346.688H133.738Z" transform="translate(-133.738 -346.688)" fill="#7eb9e7"/>
        </g>
        <g id="Grupo_880332" data-name="Grupo 880332" transform="translate(18.257 51.125)">
          <rect id="Rectángulo_296864" data-name="Rectángulo 296864" width="22.264" height="5.925" fill="#7eb9e7"/>
        </g>
        <g id="Grupo_880333" data-name="Grupo 880333" transform="translate(17.084)">
          <rect id="Rectángulo_296865" data-name="Rectángulo 296865" width="36.778" height="10.814" fill="#7eb9e7"/>
        </g>
        <g id="Grupo_880334" data-name="Grupo 880334" transform="translate(44.967 3.809)">
          <path id="Trazado_605100" data-name="Trazado 605100" d="M181.038,340.127a1.6,1.6,0,1,0-2.2,1.476v12.836h-9.511l-.022-1.452-2.215,1.94,2.278,2.172-.022-1.449h10.7V341.6A1.6,1.6,0,0,0,181.038,340.127Z" transform="translate(-167.086 -338.53)" fill="#7eb9e7"/>
        </g>
        <g id="Grupo_880335" data-name="Grupo 880335" transform="translate(0 2.463)">
          <path id="Trazado_605101" data-name="Trazado 605101" d="M131.572,353.1h.606V340.081h8.959l.023,1.45,2.214-1.94-2.278-2.172.023,1.45H130.966V353.1h.6a1.6,1.6,0,1,0,1.6,1.6A1.6,1.6,0,0,0,131.571,353.1Z" transform="translate(-129.974 -337.419)" fill="#7eb9e7"/>
        </g>
      </g>
      <g id="Grupo_880337" data-name="Grupo 880337" transform="translate(16.739 135.511)">
        <path id="Trazado_605102" data-name="Trazado 605102" d="M59.794,321.948v1.175H25.344v9.521H14.853v17.19H25.344v23.33H36.667v5H76.639V354.351H67.608v-7.659H79.953V321.948Z" transform="translate(-14.853 -321.948)" fill="#7eb9e7"/>
      </g>
      <g id="Grupo_880476" data-name="Grupo 880476" transform="translate(20.254 72.124)">
        <g id="Grupo_880347" data-name="Grupo 880347" transform="translate(53.038 2.964)">
          <g id="Grupo_880338" data-name="Grupo 880338" transform="translate(53.79 3.297)">
            <rect id="Rectángulo_296866" data-name="Rectángulo 296866" width="40.152" height="1.212"/>
          </g>
          <g id="Grupo_880339" data-name="Grupo 880339" transform="translate(7.2 3.297)">
            <rect id="Rectángulo_296867" data-name="Rectángulo 296867" width="38.866" height="1.212"/>
          </g>
          <g id="Grupo_880340" data-name="Grupo 880340" transform="translate(53.294 3.473)">
            <path id="Trazado_605103" data-name="Trazado 605103" d="M150.463,323.082h-1.212a47.162,47.162,0,0,0-43.739-46.927l.084-1.209A48.379,48.379,0,0,1,150.463,323.082Z" transform="translate(-105.512 -274.946)"/>
          </g>
          <g id="Grupo_880341" data-name="Grupo 880341" transform="translate(1.74 3.481)">
            <path id="Trazado_605104" data-name="Trazado 605104" d="M64.175,323.081H62.963a48.4,48.4,0,0,1,44.743-48.128l.086,1.209A47.185,47.185,0,0,0,64.175,323.081Z" transform="translate(-62.963 -274.953)"/>
          </g>
          <g id="Grupo_880342" data-name="Grupo 880342">
            <path id="Trazado_605105" data-name="Trazado 605105" d="M65.43,279.887a3.9,3.9,0,1,1,3.9-3.9A3.908,3.908,0,0,1,65.43,279.887Zm0-6.6a2.692,2.692,0,1,0,2.692,2.691A2.694,2.694,0,0,0,65.43,273.292Z" transform="translate(-61.527 -272.08)"/>
          </g>
          <g id="Grupo_880343" data-name="Grupo 880343" transform="translate(93.167)">
            <path id="Trazado_605106" data-name="Trazado 605106" d="M142.324,279.887a3.9,3.9,0,1,1,3.9-3.9A3.909,3.909,0,0,1,142.324,279.887Zm0-6.6a2.692,2.692,0,1,0,2.691,2.691A2.695,2.695,0,0,0,142.324,273.292Z" transform="translate(-138.42 -272.08)"/>
          </g>
          <g id="Grupo_880344" data-name="Grupo 880344" transform="translate(38.051 86.21)">
            <path id="Trazado_605107" data-name="Trazado 605107" d="M116.861,352.287H92.931v-9.056h23.93Zm-22.718-1.212h21.507v-6.633H94.143Z" transform="translate(-92.931 -343.231)"/>
          </g>
          <g id="Grupo_880345" data-name="Grupo 880345" transform="translate(25.479 21.53)">
            <path id="Trazado_605108" data-name="Trazado 605108" d="M119.043,353H94.936l.233-.779a16.219,16.219,0,0,0-11.912-20.467L83,331.693l-.445-.767,23.717-41.077v36.213l-.368.156a2.9,2.9,0,0,0-.928.623,2.98,2.98,0,1,0,3.259-.623l-.367-.158V289.849l23.716,41.077-.419.721-.262.057a16.2,16.2,0,0,0-12.092,20.514Zm-22.5-1.212h20.891a17.346,17.346,0,0,1-.526-4.219,17.548,17.548,0,0,1,13.125-16.9l-20.954-36.294v30.912a4.169,4.169,0,0,1,.941,6.6,4.173,4.173,0,0,1-5.9-5.9,4.034,4.034,0,0,1,.941-.7v-30.91L84.08,330.707a17.432,17.432,0,0,1,12.463,21.08Z" transform="translate(-82.555 -289.849)"/>
          </g>
          <g id="Grupo_880346" data-name="Grupo 880346" transform="translate(46.218 0.128)">
            <path id="Trazado_605109" data-name="Trazado 605109" d="M107.221,279.735H99.672v-7.549h7.549Zm-6.337-1.212h5.125V273.4h-5.125Z" transform="translate(-99.672 -272.186)"/>
          </g>
        </g>
        <g id="Grupo_880348" data-name="Grupo 880348" transform="translate(175.366)">
          <path id="Trazado_605110" data-name="Trazado 605110" d="M208.219,326.142h-8.088v-1.212h6.876V270.845H163.7v7.818h-1.212v-9.029h45.732Z" transform="translate(-162.487 -269.634)"/>
        </g>
        <g id="Grupo_880349" data-name="Grupo 880349" transform="translate(175.366 0.321)">
          <path id="Trazado_605111" data-name="Trazado 605111" d="M208.218,277.3H162.487V269.9h45.731Zm-44.52-1.212h43.308v-4.982H163.7Z" transform="translate(-162.487 -269.899)"/>
        </g>
        <g id="Grupo_880350" data-name="Grupo 880350" transform="translate(167.884 8.823)">
          <path id="Trazado_605112" data-name="Trazado 605112" d="M202.043,333.425H156.312V276.916h45.731Zm-44.52-1.212h43.308V278.128H157.524Z" transform="translate(-156.312 -276.916)"/>
        </g>
        <g id="Grupo_880351" data-name="Grupo 880351" transform="translate(167.884 8.745)">
          <path id="Trazado_605113" data-name="Trazado 605113" d="M202.043,284.017H156.312v-7.166h45.731Zm-44.52-1.212h43.308v-4.742H157.524Z" transform="translate(-156.312 -276.851)"/>
        </g>
        <g id="Grupo_880352" data-name="Grupo 880352" transform="translate(170.829 23.441)">
          <path id="Trazado_605114" data-name="Trazado 605114" d="M185.6,304.143H158.743V288.98H185.6Zm-25.646-1.212h24.434V290.192H159.955Z" transform="translate(-158.743 -288.98)"/>
        </g>
        <g id="Grupo_880353" data-name="Grupo 880353" transform="translate(198.5 23.441)">
          <path id="Trazado_605115" data-name="Trazado 605115" d="M192.2,293.811H181.58V288.98H192.2Zm-9.413-1.212h8.2v-2.408h-8.2Z" transform="translate(-181.58 -288.98)"/>
        </g>
        <g id="Grupo_880354" data-name="Grupo 880354" transform="translate(170.931 11.374)">
          <path id="Trazado_605116" data-name="Trazado 605116" d="M160.732,279.973a.952.952,0,1,1-.952-.952A.952.952,0,0,1,160.732,279.973Z" transform="translate(-158.827 -279.021)"/>
        </g>
        <g id="Grupo_880355" data-name="Grupo 880355" transform="translate(173.953 11.374)">
          <path id="Trazado_605117" data-name="Trazado 605117" d="M163.226,279.973a.952.952,0,1,1-.952-.952A.952.952,0,0,1,163.226,279.973Z" transform="translate(-161.321 -279.021)"/>
        </g>
        <g id="Grupo_880356" data-name="Grupo 880356" transform="translate(179.962 18.714)">
          <rect id="Rectángulo_296868" data-name="Rectángulo 296868" width="28.778" height="1.212"/>
        </g>
        <g id="Grupo_880357" data-name="Grupo 880357" transform="translate(170.989 16.08)">
          <path id="Trazado_605118" data-name="Trazado 605118" d="M162.115,289.384l-3.24-3.239,3.24-3.24,3.239,3.24Zm-1.527-3.239,1.527,1.526,1.525-1.526-1.525-1.527Z" transform="translate(-158.875 -282.905)"/>
        </g>
        <g id="Grupo_880361" data-name="Grupo 880361" transform="translate(181.094 35.697)">
          <g id="Grupo_880358" data-name="Grupo 880358">
            <path id="Trazado_605119" data-name="Trazado 605119" d="M168.572,299.774a.679.679,0,1,1-.679-.678A.678.678,0,0,1,168.572,299.774Z" transform="translate(-167.215 -299.095)"/>
          </g>
          <g id="Grupo_880359" data-name="Grupo 880359" transform="translate(2.485 0)">
            <circle id="Elipse_5203" data-name="Elipse 5203" cx="0.679" cy="0.679" r="0.679"/>
          </g>
          <g id="Grupo_880360" data-name="Grupo 880360" transform="translate(4.969 0)">
            <circle id="Elipse_5204" data-name="Elipse 5204" cx="0.679" cy="0.679" r="0.679"/>
          </g>
        </g>
        <g id="Grupo_880362" data-name="Grupo 880362" transform="translate(171.435 54.703)">
          <rect id="Rectángulo_296869" data-name="Rectángulo 296869" width="16.485" height="1.212"/>
        </g>
        <g id="Grupo_880363" data-name="Grupo 880363" transform="translate(171.435 57.527)">
          <rect id="Rectángulo_296870" data-name="Rectángulo 296870" width="16.485" height="1.212"/>
        </g>
        <g id="Grupo_880364" data-name="Grupo 880364" transform="translate(171.435 60.121)">
          <rect id="Rectángulo_296871" data-name="Rectángulo 296871" width="12.345" height="1.212"/>
        </g>
        <g id="Grupo_880365" data-name="Grupo 880365" transform="translate(190.342 54.178)">
          <path id="Trazado_605120" data-name="Trazado 605120" d="M194.135,322.553H174.847v-8.205h19.288Zm-18.077-1.212h16.865V315.56H176.059Z" transform="translate(-174.847 -314.348)"/>
        </g>
        <g id="Grupo_880366" data-name="Grupo 880366" transform="translate(178.419 3.072)">
          <path id="Trazado_605121" data-name="Trazado 605121" d="M166.912,273.121a.952.952,0,1,1-.952-.952A.952.952,0,0,1,166.912,273.121Z" transform="translate(-165.007 -272.169)"/>
        </g>
        <g id="Grupo_880367" data-name="Grupo 880367" transform="translate(181.44 3.072)">
          <path id="Trazado_605122" data-name="Trazado 605122" d="M169.4,273.121a.952.952,0,1,1-.952-.952A.952.952,0,0,1,169.4,273.121Z" transform="translate(-167.5 -272.169)"/>
        </g>
        <g id="Grupo_880368" data-name="Grupo 880368" transform="translate(171.147 23.601)">
          <rect id="Rectángulo_296872" data-name="Rectángulo 296872" width="1.211" height="29.153" transform="translate(0 1.065) rotate(-61.604)"/>
        </g>
        <g id="Grupo_880369" data-name="Grupo 880369" transform="translate(171.141 23.521)">
          <rect id="Rectángulo_296873" data-name="Rectángulo 296873" width="29.195" height="1.212" transform="translate(0 13.937) rotate(-28.515)"/>
        </g>
        <g id="Grupo_880376" data-name="Grupo 880376" transform="translate(170.741 40.611)">
          <g id="Grupo_880372" data-name="Grupo 880372">
            <g id="Grupo_880370" data-name="Grupo 880370">
              <path id="Trazado_605123" data-name="Trazado 605123" d="M162.626,311.062a3.955,3.955,0,1,1,3.956-3.955A3.96,3.96,0,0,1,162.626,311.062Zm0-6.7a2.744,2.744,0,1,0,2.744,2.744A2.747,2.747,0,0,0,162.626,304.363Z" transform="translate(-158.67 -303.151)"/>
            </g>
            <g id="Grupo_880371" data-name="Grupo 880371" transform="translate(0.923 9.427)">
              <rect id="Rectángulo_296874" data-name="Rectángulo 296874" width="5.931" height="1.212"/>
            </g>
          </g>
          <g id="Grupo_880375" data-name="Grupo 880375" transform="translate(0.994 1.235)">
            <g id="Grupo_880373" data-name="Grupo 880373" transform="translate(0.017 0.092)">
              <rect id="Rectángulo_296875" data-name="Rectángulo 296875" width="1.212" height="6.779" transform="matrix(0.645, -0.764, 0.764, 0.645, 0, 0.926)"/>
            </g>
            <g id="Grupo_880374" data-name="Grupo 880374" transform="translate(0 0)">
              <rect id="Rectángulo_296876" data-name="Rectángulo 296876" width="6.802" height="1.211" transform="translate(0 4.599) rotate(-42.543)"/>
            </g>
          </g>
        </g>
        <g id="Grupo_880377" data-name="Grupo 880377" transform="translate(190.729 54.218)">
          <rect id="Rectángulo_296877" data-name="Rectángulo 296877" width="1.213" height="19.382" transform="matrix(0.361, -0.933, 0.933, 0.361, 0, 1.131)"/>
        </g>
        <g id="Grupo_880378" data-name="Grupo 880378" transform="translate(190.727 54.221)">
          <rect id="Rectángulo_296878" data-name="Rectángulo 296878" width="19.382" height="1.213" transform="translate(0 6.987) rotate(-21.13)"/>
        </g>
        <g id="Grupo_880384" data-name="Grupo 880384" transform="translate(181.013 40.611)">
          <g id="Grupo_880381" data-name="Grupo 880381">
            <g id="Grupo_880379" data-name="Grupo 880379">
              <path id="Trazado_605124" data-name="Trazado 605124" d="M171.1,311.062a3.955,3.955,0,1,1,3.956-3.955A3.959,3.959,0,0,1,171.1,311.062Zm0-6.7a2.744,2.744,0,1,0,2.744,2.744A2.747,2.747,0,0,0,171.1,304.363Z" transform="translate(-167.148 -303.151)"/>
            </g>
            <g id="Grupo_880380" data-name="Grupo 880380" transform="translate(0.922 9.427)">
              <rect id="Rectángulo_296879" data-name="Rectángulo 296879" width="5.931" height="1.212"/>
            </g>
          </g>
          <g id="Grupo_880382" data-name="Grupo 880382" transform="translate(1.01 1.328)">
            <rect id="Rectángulo_296880" data-name="Rectángulo 296880" width="1.212" height="6.779" transform="translate(0 0.926) rotate(-49.822)"/>
          </g>
          <g id="Grupo_880383" data-name="Grupo 880383" transform="translate(0.993 1.236)">
            <rect id="Rectángulo_296881" data-name="Rectángulo 296881" width="6.801" height="1.211" transform="translate(0 4.599) rotate(-42.543)"/>
          </g>
        </g>
        <g id="Grupo_880390" data-name="Grupo 880390" transform="translate(191.284 40.611)">
          <g id="Grupo_880387" data-name="Grupo 880387">
            <g id="Grupo_880385" data-name="Grupo 880385">
              <path id="Trazado_605125" data-name="Trazado 605125" d="M179.58,311.062a3.955,3.955,0,1,1,3.956-3.955A3.959,3.959,0,0,1,179.58,311.062Zm0-6.7a2.744,2.744,0,1,0,2.744,2.744A2.747,2.747,0,0,0,179.58,304.363Z" transform="translate(-175.625 -303.151)"/>
            </g>
            <g id="Grupo_880386" data-name="Grupo 880386" transform="translate(0.922 9.427)">
              <rect id="Rectángulo_296882" data-name="Rectángulo 296882" width="5.931" height="1.212"/>
            </g>
          </g>
          <g id="Grupo_880388" data-name="Grupo 880388" transform="translate(1.01 1.328)">
            <rect id="Rectángulo_296883" data-name="Rectángulo 296883" width="1.212" height="6.779" transform="matrix(0.645, -0.764, 0.764, 0.645, 0, 0.926)"/>
          </g>
          <g id="Grupo_880389" data-name="Grupo 880389" transform="translate(0.993 1.236)">
            <rect id="Rectángulo_296884" data-name="Rectángulo 296884" width="6.801" height="1.211" transform="matrix(0.737, -0.676, 0.676, 0.737, 0, 4.598)"/>
          </g>
        </g>
        <g id="Grupo_880396" data-name="Grupo 880396" transform="translate(201.556 40.611)">
          <g id="Grupo_880393" data-name="Grupo 880393">
            <g id="Grupo_880391" data-name="Grupo 880391">
              <path id="Trazado_605126" data-name="Trazado 605126" d="M188.057,311.062a3.955,3.955,0,1,1,3.956-3.955A3.959,3.959,0,0,1,188.057,311.062Zm0-6.7a2.744,2.744,0,1,0,2.744,2.744A2.747,2.747,0,0,0,188.057,304.363Z" transform="translate(-184.102 -303.151)"/>
            </g>
            <g id="Grupo_880392" data-name="Grupo 880392" transform="translate(0.922 9.427)">
              <rect id="Rectángulo_296885" data-name="Rectángulo 296885" width="5.931" height="1.212"/>
            </g>
          </g>
          <g id="Grupo_880394" data-name="Grupo 880394" transform="translate(1.01 1.328)">
            <rect id="Rectángulo_296886" data-name="Rectángulo 296886" width="1.212" height="6.779" transform="translate(0 0.926) rotate(-49.822)"/>
          </g>
          <g id="Grupo_880395" data-name="Grupo 880395" transform="translate(0.993 1.236)">
            <rect id="Rectángulo_296887" data-name="Rectángulo 296887" width="6.801" height="1.211" transform="translate(0 4.599) rotate(-42.543)"/>
          </g>
        </g>
        <g id="Grupo_880397" data-name="Grupo 880397" transform="translate(198.5 28.606)">
          <path id="Trazado_605127" data-name="Trazado 605127" d="M192.2,298.074H181.58v-4.831H192.2Zm-9.413-1.212h8.2v-2.408h-8.2Z" transform="translate(-181.58 -293.243)"/>
        </g>
        <g id="Grupo_880398" data-name="Grupo 880398" transform="translate(198.5 33.773)">
          <path id="Trazado_605128" data-name="Trazado 605128" d="M192.2,302.338H181.58v-4.831H192.2Zm-9.413-1.212h8.2v-2.408h-8.2Z" transform="translate(-181.58 -297.507)"/>
        </g>
        <g id="Grupo_880453" data-name="Grupo 880453" transform="translate(0 63.002)">
          <g id="Grupo_880399" data-name="Grupo 880399" transform="translate(10.492 28.493)">
            <path id="Trazado_605129" data-name="Trazado 605129" d="M37.719,368.69H26.413V345.147h1.212v22.331H37.719Z" transform="translate(-26.413 -345.147)"/>
          </g>
          <g id="Grupo_880400" data-name="Grupo 880400" transform="translate(10.492 1.175)">
            <path id="Trazado_605130" data-name="Trazado 605130" d="M27.625,332.728H26.413V322.6H60.984v1.212H27.625Z" transform="translate(-26.413 -322.601)"/>
          </g>
          <g id="Grupo_880401" data-name="Grupo 880401" transform="translate(10.492 1.175)">
            <path id="Trazado_605131" data-name="Trazado 605131" d="M62.074,329.373H26.413V322.6H62.074Zm-34.45-1.212H60.863v-4.349H27.625Z" transform="translate(-26.413 -322.601)"/>
          </g>
          <g id="Grupo_880402" data-name="Grupo 880402" transform="translate(13.294 3.707)">
            <circle id="Elipse_5205" data-name="Elipse 5205" cx="0.855" cy="0.855" r="0.855"/>
          </g>
          <g id="Grupo_880403" data-name="Grupo 880403" transform="translate(16.007 3.707)">
            <circle id="Elipse_5206" data-name="Elipse 5206" cx="0.855" cy="0.855" r="0.855"/>
          </g>
          <g id="Grupo_880404" data-name="Grupo 880404" transform="translate(0 10.696)">
            <path id="Trazado_605132" data-name="Trazado 605132" d="M58.938,348.86H17.754v-18.4H58.938Zm-39.972-1.212H57.726V331.671H18.966Z" transform="translate(-17.754 -330.459)"/>
          </g>
          <g id="Grupo_880405" data-name="Grupo 880405" transform="translate(0 10.696)">
            <path id="Trazado_605133" data-name="Trazado 605133" d="M58.938,337.355H17.754v-6.9H58.938Zm-39.972-1.212H57.726v-4.472H18.966Z" transform="translate(-17.754 -330.459)"/>
          </g>
          <g id="Grupo_880408" data-name="Grupo 880408" transform="translate(2.798 13.289)">
            <g id="Grupo_880406" data-name="Grupo 880406">
              <circle id="Elipse_5207" data-name="Elipse 5207" cx="0.855" cy="0.855" r="0.855"/>
            </g>
            <g id="Grupo_880407" data-name="Grupo 880407" transform="translate(2.713 0)">
              <path id="Trazado_605134" data-name="Trazado 605134" d="M24.012,333.454a.855.855,0,1,1-.854-.855A.855.855,0,0,1,24.012,333.454Z" transform="translate(-22.302 -332.599)"/>
            </g>
          </g>
          <g id="Grupo_880409" data-name="Grupo 880409" transform="translate(3.195 18.378)">
            <path id="Trazado_605135" data-name="Trazado 605135" d="M24.269,344.556a3.878,3.878,0,1,1,3.877-3.878A3.883,3.883,0,0,1,24.269,344.556Zm0-6.545a2.667,2.667,0,1,0,2.666,2.667A2.669,2.669,0,0,0,24.269,338.011Z" transform="translate(-20.391 -336.799)"/>
          </g>
          <g id="Grupo_880413" data-name="Grupo 880413" transform="translate(13 19.419)">
            <g id="Grupo_880410" data-name="Grupo 880410">
              <rect id="Rectángulo_296888" data-name="Rectángulo 296888" width="13.971" height="1.212"/>
            </g>
            <g id="Grupo_880411" data-name="Grupo 880411" transform="translate(0 2.232)">
              <rect id="Rectángulo_296889" data-name="Rectángulo 296889" width="13.971" height="1.212"/>
            </g>
            <g id="Grupo_880412" data-name="Grupo 880412" transform="translate(0 4.462)">
              <rect id="Rectángulo_296890" data-name="Rectángulo 296890" width="6.482" height="1.212"/>
            </g>
          </g>
          <g id="Grupo_880438" data-name="Grupo 880438" transform="translate(21.813 32.403)">
            <g id="Grupo_880414" data-name="Grupo 880414">
              <path id="Trazado_605136" data-name="Trazado 605136" d="M76.942,373.4H35.757V348.374H76.942Zm-39.974-1.212H75.731v-22.6H36.969Z" transform="translate(-35.757 -348.374)"/>
            </g>
            <g id="Grupo_880415" data-name="Grupo 880415">
              <path id="Trazado_605137" data-name="Trazado 605137" d="M76.942,354.931H35.757v-6.557H76.942ZM36.969,353.72H75.731v-4.134H36.969Z" transform="translate(-35.757 -348.374)"/>
            </g>
            <g id="Grupo_880416" data-name="Grupo 880416" transform="translate(2.799 2.558)">
              <path id="Trazado_605138" data-name="Trazado 605138" d="M39.777,351.34a.855.855,0,1,1-.854-.855A.855.855,0,0,1,39.777,351.34Z" transform="translate(-38.067 -350.485)"/>
            </g>
            <g id="Grupo_880417" data-name="Grupo 880417" transform="translate(5.512 2.558)">
              <path id="Trazado_605139" data-name="Trazado 605139" d="M42.016,351.34a.855.855,0,1,1-.855-.855A.855.855,0,0,1,42.016,351.34Z" transform="translate(-40.306 -350.485)"/>
            </g>
            <g id="Grupo_880422" data-name="Grupo 880422" transform="translate(1.59 7.022)">
              <g id="Grupo_880420" data-name="Grupo 880420" transform="translate(8.829 2.028)">
                <g id="Grupo_880418" data-name="Grupo 880418">
                  <rect id="Rectángulo_296891" data-name="Rectángulo 296891" width="8.539" height="1.212"/>
                </g>
                <g id="Grupo_880419" data-name="Grupo 880419" transform="translate(0 1.92)">
                  <rect id="Rectángulo_296892" data-name="Rectángulo 296892" width="8.539" height="1.212"/>
                </g>
              </g>
              <g id="Grupo_880421" data-name="Grupo 880421">
                <path id="Trazado_605140" data-name="Trazado 605140" d="M40.681,361.392l-3.612-3.612,3.612-3.611,3.612,3.611Zm-1.9-3.612,1.9,1.9,1.9-1.9-1.9-1.9Z" transform="translate(-37.069 -354.169)"/>
              </g>
            </g>
            <g id="Grupo_880427" data-name="Grupo 880427" transform="translate(20.579 7.022)">
              <g id="Grupo_880425" data-name="Grupo 880425" transform="translate(8.828 2.028)">
                <g id="Grupo_880423" data-name="Grupo 880423">
                  <rect id="Rectángulo_296893" data-name="Rectángulo 296893" width="8.539" height="1.212"/>
                </g>
                <g id="Grupo_880424" data-name="Grupo 880424" transform="translate(0 1.92)">
                  <rect id="Rectángulo_296894" data-name="Rectángulo 296894" width="8.539" height="1.212"/>
                </g>
              </g>
              <g id="Grupo_880426" data-name="Grupo 880426">
                <path id="Trazado_605141" data-name="Trazado 605141" d="M56.352,361.392l-3.611-3.612,3.611-3.611,3.612,3.611Zm-1.9-3.612,1.9,1.9,1.9-1.9-1.9-1.9Z" transform="translate(-52.741 -354.169)"/>
              </g>
            </g>
            <g id="Grupo_880432" data-name="Grupo 880432" transform="translate(1.59 15.808)">
              <g id="Grupo_880430" data-name="Grupo 880430" transform="translate(8.829 2.027)">
                <g id="Grupo_880428" data-name="Grupo 880428">
                  <rect id="Rectángulo_296895" data-name="Rectángulo 296895" width="8.539" height="1.212"/>
                </g>
                <g id="Grupo_880429" data-name="Grupo 880429" transform="translate(0 1.922)">
                  <rect id="Rectángulo_296896" data-name="Rectángulo 296896" width="8.539" height="1.212"/>
                </g>
              </g>
              <g id="Grupo_880431" data-name="Grupo 880431">
                <path id="Trazado_605142" data-name="Trazado 605142" d="M40.681,368.644l-3.612-3.612,3.612-3.611,3.612,3.611Zm-1.9-3.612,1.9,1.9,1.9-1.9-1.9-1.9Z" transform="translate(-37.069 -361.421)"/>
              </g>
            </g>
            <g id="Grupo_880437" data-name="Grupo 880437" transform="translate(20.579 15.808)">
              <g id="Grupo_880435" data-name="Grupo 880435" transform="translate(8.828 2.027)">
                <g id="Grupo_880433" data-name="Grupo 880433">
                  <rect id="Rectángulo_296897" data-name="Rectángulo 296897" width="8.539" height="1.212"/>
                </g>
                <g id="Grupo_880434" data-name="Grupo 880434" transform="translate(0 1.922)">
                  <rect id="Rectángulo_296898" data-name="Rectángulo 296898" width="8.539" height="1.212"/>
                </g>
              </g>
              <g id="Grupo_880436" data-name="Grupo 880436">
                <path id="Trazado_605143" data-name="Trazado 605143" d="M56.352,368.644l-3.611-3.612,3.611-3.611,3.612,3.611Zm-1.9-3.612,1.9,1.9,1.9-1.9-1.9-1.9Z" transform="translate(-52.741 -361.421)"/>
              </g>
            </g>
          </g>
          <g id="Grupo_880439" data-name="Grupo 880439" transform="translate(29.687 18.988)">
            <path id="Trazado_605144" data-name="Trazado 605144" d="M50.779,340.872H42.255V337.3h8.524Zm-7.312-1.212h6.1v-1.146h-6.1Z" transform="translate(-42.255 -337.302)"/>
          </g>
          <g id="Grupo_880452" data-name="Grupo 880452" transform="translate(44.941)">
            <g id="Grupo_880440" data-name="Grupo 880440">
              <path id="Trazado_605145" data-name="Trazado 605145" d="M76.216,347.587H54.845V321.631H76.216Zm-20.159-1.212H75V322.843H56.057Z" transform="translate(-54.845 -321.631)"/>
            </g>
            <g id="Grupo_880441" data-name="Grupo 880441">
              <path id="Trazado_605146" data-name="Trazado 605146" d="M76.216,327.972H54.845v-6.341H76.216ZM56.057,326.76H75v-3.917H56.057Z" transform="translate(-54.845 -321.631)"/>
            </g>
            <g id="Grupo_880444" data-name="Grupo 880444" transform="translate(2.799 2.315)">
              <g id="Grupo_880442" data-name="Grupo 880442">
                <path id="Trazado_605147" data-name="Trazado 605147" d="M58.865,324.4a.855.855,0,1,1-.855-.855A.855.855,0,0,1,58.865,324.4Z" transform="translate(-57.155 -323.542)"/>
              </g>
              <g id="Grupo_880443" data-name="Grupo 880443" transform="translate(2.712)">
                <path id="Trazado_605148" data-name="Trazado 605148" d="M61.1,324.4a.855.855,0,1,1-.855-.855A.855.855,0,0,1,61.1,324.4Z" transform="translate(-59.393 -323.542)"/>
              </g>
            </g>
            <g id="Grupo_880448" data-name="Grupo 880448" transform="translate(3.633 16.951)">
              <g id="Grupo_880445" data-name="Grupo 880445">
                <rect id="Rectángulo_296899" data-name="Rectángulo 296899" width="14.363" height="1.212"/>
              </g>
              <g id="Grupo_880446" data-name="Grupo 880446" transform="translate(0 2.232)">
                <rect id="Rectángulo_296900" data-name="Rectángulo 296900" width="14.363" height="1.212"/>
              </g>
              <g id="Grupo_880447" data-name="Grupo 880447" transform="translate(0 4.462)">
                <rect id="Rectángulo_296901" data-name="Rectángulo 296901" width="4.787" height="1.212"/>
              </g>
            </g>
            <g id="Grupo_880449" data-name="Grupo 880449" transform="translate(2.75 7.38)">
              <path id="Trazado_605149" data-name="Trazado 605149" d="M72.967,336.36H57.115v-8.638H72.967Zm-14.64-1.212H71.755v-6.215H58.327Z" transform="translate(-57.115 -327.722)"/>
            </g>
            <g id="Grupo_880450" data-name="Grupo 880450" transform="translate(14.116 9.327)">
              <path id="Trazado_605150" data-name="Trazado 605150" d="M68.47,330.317a.987.987,0,1,1-.987-.988A.988.988,0,0,1,68.47,330.317Z" transform="translate(-66.495 -329.329)"/>
            </g>
            <g id="Grupo_880451" data-name="Grupo 880451" transform="translate(2.76 11.69)">
              <path id="Trazado_605151" data-name="Trazado 605151" d="M72.974,335.607H57.123V331.77l.46-.113c3.254-.8,6.285-.167,8.961.393a15.713,15.713,0,0,0,5.717.525l.1.55h.614ZM58.335,334.4H71.762v-.534a19.117,19.117,0,0,1-5.465-.625,19.27,19.27,0,0,0-7.963-.505Z" transform="translate(-57.123 -331.279)"/>
            </g>
          </g>
        </g>
        <g id="Grupo_880454" data-name="Grupo 880454" transform="translate(51.557 88.77)">
          <rect id="Rectángulo_296902" data-name="Rectángulo 296902" width="1.212" height="7.241"/>
        </g>
        <g id="Grupo_880475" data-name="Grupo 880475" transform="translate(137.654 81.04)">
          <g id="Grupo_880455" data-name="Grupo 880455" transform="translate(4.561 13.693)">
            <path id="Trazado_605152" data-name="Trazado 605152" d="M173.117,359.845H156.435v-1.212h15.47v-9.6H136.339v9.6h15.3v1.212H135.127V347.819h37.99Z" transform="translate(-135.127 -347.819)"/>
          </g>
          <g id="Grupo_880456" data-name="Grupo 880456" transform="translate(11.351 19.1)">
            <rect id="Rectángulo_296903" data-name="Rectángulo 296903" width="9.771" height="1.212"/>
          </g>
          <g id="Grupo_880457" data-name="Grupo 880457" transform="translate(1.598 4.518)">
            <path id="Trazado_605153" data-name="Trazado 605153" d="M133.893,354.488l-1.212-.026.3-14.214h12.111v1.212H134.165Z" transform="translate(-132.682 -340.247)"/>
          </g>
          <g id="Grupo_880458" data-name="Grupo 880458" transform="translate(11.31 2.63)">
            <path id="Trazado_605154" data-name="Trazado 605154" d="M141.578,343.694l-.8-.911,1.716-1.5-1.8-1.716.837-.876,2.756,2.629Z" transform="translate(-140.697 -338.689)"/>
          </g>
          <g id="Grupo_880459" data-name="Grupo 880459" transform="translate(19.359 48.842)">
            <path id="Trazado_605155" data-name="Trazado 605155" d="M168.611,379.56H167.4V378.04H148.552v1.484h-1.212v-2.7h21.27Z" transform="translate(-147.341 -376.828)"/>
          </g>
          <g id="Grupo_880460" data-name="Grupo 880460" transform="translate(16.08 17.476)">
            <path id="Trazado_605156" data-name="Trazado 605156" d="M168.027,383.519H149.07v-3.8a5.845,5.845,0,0,1-4.436-5.611v-7.34a2.823,2.823,0,0,1,4.436-2.317v-10.69a2.824,2.824,0,0,1,5.649,0v9.267a2.823,2.823,0,0,1,4.162,1.1,2.8,2.8,0,0,1,1.887-.738,2.842,2.842,0,0,1,2.486,1.506,2.815,2.815,0,0,1,4.774,2.031Zm-17.746-1.212h16.534V366.932a1.607,1.607,0,0,0-3.113-.568l-.149.39h-1.162l-.019-.585a1.606,1.606,0,0,0-3.211,0l-.019.585H157.95l-.006-1.407a1.613,1.613,0,0,0-3.225,0h-1.212V353.764a1.613,1.613,0,0,0-3.225,0v13.007H149.07a1.612,1.612,0,0,0-3.224,0v7.34c0,3.753,3.782,4.509,3.943,4.539l.493.095Z" transform="translate(-144.634 -350.941)"/>
          </g>
          <g id="Grupo_880461" data-name="Grupo 880461" transform="translate(18.257 51.124)">
            <path id="Trazado_605157" data-name="Trazado 605157" d="M169.907,385.849H146.431v-7.137h23.476Zm-22.264-1.212H168.7v-4.713H147.643Z" transform="translate(-146.431 -378.712)"/>
          </g>
          <g id="Grupo_880462" data-name="Grupo 880462" transform="translate(20.516 45.175)">
            <path id="Trazado_605158" data-name="Trazado 605158" d="M167.252,378.68H148.3V373.8h18.957Zm-17.746-1.212h16.534v-2.455H149.507Z" transform="translate(-148.295 -373.802)"/>
          </g>
          <g id="Grupo_880463" data-name="Grupo 880463" transform="translate(17.084)">
            <path id="Trazado_605159" data-name="Trazado 605159" d="M183.453,348.541h-37.99V336.518h37.99Zm-36.778-1.212h35.567v-9.6H146.675Z" transform="translate(-145.463 -336.518)"/>
          </g>
          <g id="Grupo_880464" data-name="Grupo 880464" transform="translate(46.026 7.179)">
            <path id="Trazado_605160" data-name="Trazado 605160" d="M181.856,356.8H169.35v-1.212h11.295V342.443h1.212Z" transform="translate(-169.35 -342.443)"/>
          </g>
          <g id="Grupo_880465" data-name="Grupo 880465" transform="translate(26.616 5.406)">
            <rect id="Rectángulo_296904" data-name="Rectángulo 296904" width="20.994" height="1.212"/>
          </g>
          <g id="Grupo_880466" data-name="Grupo 880466" transform="translate(22.176 51.73)">
            <rect id="Rectángulo_296905" data-name="Rectángulo 296905" width="1.212" height="5.925"/>
          </g>
          <g id="Grupo_880467" data-name="Grupo 880467" transform="translate(25.924 51.73)">
            <rect id="Rectángulo_296906" data-name="Rectángulo 296906" width="1.212" height="5.925"/>
          </g>
          <g id="Grupo_880468" data-name="Grupo 880468" transform="translate(33.418 51.73)">
            <rect id="Rectángulo_296907" data-name="Rectángulo 296907" width="1.212" height="5.925"/>
          </g>
          <g id="Grupo_880469" data-name="Grupo 880469" transform="translate(37.165 51.73)">
            <rect id="Rectángulo_296908" data-name="Rectángulo 296908" width="1.212" height="5.925"/>
          </g>
          <g id="Grupo_880470" data-name="Grupo 880470" transform="translate(29.671 51.73)">
            <rect id="Rectángulo_296909" data-name="Rectángulo 296909" width="1.212" height="5.925"/>
          </g>
          <g id="Grupo_880471" data-name="Grupo 880471" transform="translate(44.676 18.417)">
            <path id="Trazado_605161" data-name="Trazado 605161" d="M170.991,356.723l-2.756-2.629,2.712-2.376.8.911-1.716,1.5,1.8,1.716Z" transform="translate(-168.235 -351.718)"/>
          </g>
          <g id="Grupo_880472" data-name="Grupo 880472" transform="translate(55.723 3.808)">
            <path id="Trazado_605162" data-name="Trazado 605162" d="M179.556,344.068a2.2,2.2,0,1,1,2.2-2.2A2.206,2.206,0,0,1,179.556,344.068Zm0-3.2a.992.992,0,1,0,.992.992A.994.994,0,0,0,179.556,340.873Z" transform="translate(-177.352 -339.661)"/>
          </g>
          <g id="Grupo_880473" data-name="Grupo 880473" transform="translate(0 18.14)">
            <path id="Trazado_605163" data-name="Trazado 605163" d="M133.567,355.9a2.2,2.2,0,1,1,2.2-2.2A2.206,2.206,0,0,1,133.567,355.9Zm0-3.2a.992.992,0,1,0,.991.992A.993.993,0,0,0,133.567,352.7Z" transform="translate(-131.363 -351.489)"/>
          </g>
          <g id="Grupo_880474" data-name="Grupo 880474" transform="translate(25.869 19.1)">
            <rect id="Rectángulo_296910" data-name="Rectángulo 296910" width="9.771" height="1.212"/>
          </g>
        </g>
      </g>
      <g id="Grupo_880479" data-name="Grupo 880479" transform="translate(129.103 184.841)">
        <g id="Grupo_880477" data-name="Grupo 880477">
          <rect id="Rectángulo_296911" data-name="Rectángulo 296911" width="15.168" height="1.212"/>
        </g>
        <g id="Grupo_880478" data-name="Grupo 880478" transform="translate(7.241 3.003)">
          <rect id="Rectángulo_296912" data-name="Rectángulo 296912" width="15.169" height="1.212"/>
        </g>
      </g>
      <g id="Grupo_880482" data-name="Grupo 880482" transform="translate(24.054 122.976)">
        <g id="Grupo_880480" data-name="Grupo 880480">
          <rect id="Rectángulo_296913" data-name="Rectángulo 296913" width="15.168" height="1.212"/>
        </g>
        <g id="Grupo_880481" data-name="Grupo 880481" transform="translate(7.241 3.002)">
          <rect id="Rectángulo_296914" data-name="Rectángulo 296914" width="15.168" height="1.212"/>
        </g>
      </g>
      <g id="Grupo_880485" data-name="Grupo 880485" transform="translate(71.997 203.772)">
        <g id="Grupo_880483" data-name="Grupo 880483">
          <rect id="Rectángulo_296915" data-name="Rectángulo 296915" width="15.168" height="1.212"/>
        </g>
        <g id="Grupo_880484" data-name="Grupo 880484" transform="translate(7.241 3.003)">
          <rect id="Rectángulo_296916" data-name="Rectángulo 296916" width="15.168" height="1.212"/>
        </g>
      </g>
      <g id="Grupo_880488" data-name="Grupo 880488" transform="translate(147.309 58.633)">
        <g id="Grupo_880486" data-name="Grupo 880486">
          <rect id="Rectángulo_296917" data-name="Rectángulo 296917" width="15.169" height="1.212"/>
        </g>
        <g id="Grupo_880487" data-name="Grupo 880487" transform="translate(7.241 3.003)">
          <rect id="Rectángulo_296918" data-name="Rectángulo 296918" width="15.169" height="1.212"/>
        </g>
      </g>
      <g id="Grupo_880491" data-name="Grupo 880491" transform="translate(51.455 57.132)">
        <g id="Grupo_880489" data-name="Grupo 880489">
          <rect id="Rectángulo_296919" data-name="Rectángulo 296919" width="15.169" height="1.212"/>
        </g>
        <g id="Grupo_880490" data-name="Grupo 880490" transform="translate(7.241 3.003)">
          <rect id="Rectángulo_296920" data-name="Rectángulo 296920" width="15.169" height="1.212"/>
        </g>
      </g>
      <g id="Grupo_880492" data-name="Grupo 880492" transform="translate(94.653 177.671)">
        <path id="Trazado_605164" data-name="Trazado 605164" d="M82.231,362.891a3.073,3.073,0,1,1,3.074-3.074A3.076,3.076,0,0,1,82.231,362.891Zm0-4.935a1.862,1.862,0,1,0,1.862,1.861A1.865,1.865,0,0,0,82.231,357.956Z" transform="translate(-79.157 -356.744)"/>
      </g>
      <g id="Grupo_880493" data-name="Grupo 880493" transform="translate(162.939 137.469)">
        <path id="Trazado_605165" data-name="Trazado 605165" d="M138.589,329.713a3.074,3.074,0,1,1,3.074-3.074A3.077,3.077,0,0,1,138.589,329.713Zm0-4.936a1.862,1.862,0,1,0,1.862,1.862A1.864,1.864,0,0,0,138.589,324.777Z" transform="translate(-135.515 -323.565)"/>
      </g>
      <g id="Grupo_880494" data-name="Grupo 880494" transform="translate(45.503 101.881)">
        <path id="Trazado_605166" data-name="Trazado 605166" d="M41.666,300.342a3.075,3.075,0,1,1,3.074-3.075A3.078,3.078,0,0,1,41.666,300.342Zm0-4.937a1.863,1.863,0,1,0,1.862,1.862A1.865,1.865,0,0,0,41.666,295.4Z" transform="translate(-38.592 -294.193)"/>
      </g>
      <g id="Grupo_880495" data-name="Grupo 880495" transform="translate(101.669 54.664)">
        <path id="Trazado_605167" data-name="Trazado 605167" d="M88.021,261.372a3.074,3.074,0,1,1,3.074-3.074A3.077,3.077,0,0,1,88.021,261.372Zm0-4.936a1.862,1.862,0,1,0,1.862,1.862A1.864,1.864,0,0,0,88.021,256.436Z" transform="translate(-84.947 -255.224)"/>
      </g>
      <g id="Grupo_880496" data-name="Grupo 880496" transform="translate(127.105 198.339)">
        <path id="Trazado_605168" data-name="Trazado 605168" d="M109.014,379.95a3.074,3.074,0,1,1,3.075-3.074A3.078,3.078,0,0,1,109.014,379.95Zm0-4.936a1.862,1.862,0,1,0,1.864,1.862A1.864,1.864,0,0,0,109.014,375.014Z" transform="translate(-105.94 -373.802)"/>
      </g>
      <g id="Grupo_880498" data-name="Grupo 880498" transform="translate(31.525 87.902)">
        <g id="Grupo_880497" data-name="Grupo 880497">
          <path id="Trazado_605169" data-name="Trazado 605169" d="M59.164,283.868H56.136v-1.212h3.028Zm-6.663,0H48.866v-1.212H52.5Zm-7.27,0H41.6v-1.212h3.635Zm-7.27,0H34.326v-1.212h3.635Zm-7.27,0H27.056v-1.212h3.635Z" transform="translate(-27.056 -282.656)"/>
        </g>
      </g>
      <g id="Grupo_880500" data-name="Grupo 880500" transform="translate(126.453 51.566)">
        <g id="Grupo_880499" data-name="Grupo 880499">
          <path id="Trazado_605170" data-name="Trazado 605170" d="M137.51,253.879h-3.028v-1.212h3.028Zm-6.663,0h-3.635v-1.212h3.635Zm-7.27,0h-3.635v-1.212h3.635Zm-7.27,0h-3.635v-1.212h3.635Zm-7.27,0H105.4v-1.212h3.635Z" transform="translate(-105.402 -252.667)"/>
        </g>
      </g>
      <g id="Grupo_880502" data-name="Grupo 880502" transform="translate(103.764 191.342)">
        <g id="Grupo_880501" data-name="Grupo 880501">
          <path id="Trazado_605171" data-name="Trazado 605171" d="M118.784,369.239h-3.028v-1.212h3.028Zm-6.663,0h-3.635v-1.212h3.635Zm-7.27,0h-3.635v-1.212h3.635Zm-7.27,0H93.946v-1.212h3.635Zm-7.27,0H86.676v-1.212h3.635Z" transform="translate(-86.676 -368.027)"/>
        </g>
      </g>
      <g id="Grupo_880504" data-name="Grupo 880504" transform="translate(199.476 142.506)">
        <g id="Grupo_880503" data-name="Grupo 880503">
          <path id="Trazado_605172" data-name="Trazado 605172" d="M197.777,328.934h-3.028v-1.212h3.028Zm-6.663,0h-3.635v-1.212h3.635Zm-7.27,0h-3.635v-1.212h3.635Zm-7.27,0h-3.635v-1.212h3.635Zm-7.27,0h-3.635v-1.212H169.3Z" transform="translate(-165.669 -327.722)"/>
        </g>
      </g>
      <g id="Grupo_880505" data-name="Grupo 880505" transform="translate(142.707 104.349)">
        <path id="Trazado_605173" data-name="Trazado 605173" d="M121.891,302.379a3.075,3.075,0,1,1,3.075-3.074A3.078,3.078,0,0,1,121.891,302.379Zm0-4.937a1.863,1.863,0,1,0,1.864,1.864A1.865,1.865,0,0,0,121.891,297.442Z" transform="translate(-118.817 -296.23)"/>
      </g>
    </g>
  </g>
</svg>
