<svg xmlns="http://www.w3.org/2000/svg" width="604.728" height="627.443" viewBox="0 0 604.728 627.443">
  <g id="Grupo_880850" data-name="Grupo 880850" transform="translate(-521.302 -2981.166)">
    <path id="Trazado_601420" data-name="Trazado 601420" d="M593.028,196.948C541.755,104.8,443.719,42.257,330.986,41.4c-.78-.005-1.557-.03-2.339-.03-112.883,0-211.3,61.868-263.241,153.534a302.619,302.619,0,0,0,3.928,304.4c52.877,87.95,149.217,146.8,259.313,146.8.782,0,1.558-.023,2.339-.029,109.952-.836,205.924-60.349,258.163-148.782a302.588,302.588,0,0,0,3.879-300.342Z" transform="translate(495.019 2962.509)" fill="#e6e7e8" style="mix-blend-mode: multiply;isolation: isolate"/>
    <path id="Trazado_601421" data-name="Trazado 601421" d="M320.587,24.724c-.78-.005-1.557-.03-2.339-.03-112.883,0-211.3,61.868-263.241,153.534L320.587,331.561Z" transform="translate(505.417 2956.472)" fill="#0a5997"/>
    <path id="Trazado_601422" data-name="Trazado 601422" d="M65.406,137.421a302.619,302.619,0,0,0,3.928,304.4L330.986,290.754Z" transform="translate(495.019 2997.279)" fill="#8c9eac"/>
    <path id="Trazado_601423" data-name="Trazado 601423" d="M512.042,180.263C460.77,88.113,362.733,25.573,250,24.716V331.553Z" transform="translate(576.005 2956.479)" fill="#ed3c79"/>
    <path id="Trazado_601424" data-name="Trazado 601424" d="M57.892,401.064c52.877,87.95,149.217,146.8,259.313,146.8.782,0,1.558-.023,2.339-.029V250Z" transform="translate(506.461 3038.032)" fill="#acd036"/>
    <path id="Trazado_601425" data-name="Trazado 601425" d="M250,547.833C359.952,547,455.924,487.484,508.163,399.051L250,250Z" transform="translate(576.005 3038.032)" fill="#22c9ac"/>
    <path id="Trazado_601426" data-name="Trazado 601426" d="M512.042,138.921,250,290.211,508.163,439.261a302.585,302.585,0,0,0,3.879-300.34Z" transform="translate(576.005 2997.822)" fill="#fbc92f"/>
    <path id="Trazado_605622" data-name="Trazado 605622" d="M133.538,0A133.538,133.538,0,1,1,0,133.538,133.538,133.538,0,0,1,133.538,0Z" transform="translate(690.127 3149.992)" fill="#fff"/>
    <path id="Trazado_601427" data-name="Trazado 601427" d="M283.776,178.335A133.551,133.551,0,0,1,416.488,297.029a133.538,133.538,0,1,0-265.425,0A133.551,133.551,0,0,1,283.776,178.335Z" transform="translate(539.89 3001.344)" fill="#e6e7e8" style="mix-blend-mode: multiply;isolation: isolate"/>
    <path id="Trazado_601428" data-name="Trazado 601428" d="M250,24.716,312.129,109.1,250,193.481Z" transform="translate(576.004 2956.479)" fill="#ed3c79" opacity="0.6" style="isolation: isolate"/>
    <path id="Trazado_601429" data-name="Trazado 601429" d="M250,24.716,300.438,109.1,250,193.481Z" transform="translate(576.004 2956.479)" fill="#0a5997" opacity="0.6" style="isolation: isolate"/>
    <path id="Trazado_601430" data-name="Trazado 601430" d="M266.085,513.528l-60.52-85.449,60.52-83.317Z" transform="translate(559.919 3072.337)" fill="#9fc032"/>
    <path id="Trazado_601431" data-name="Trazado 601431" d="M263.406,513.528l-50.438-84.383,50.438-84.383Z" transform="translate(562.599 3072.337)" fill="#147967"/>
    <path id="Trazado_601432" data-name="Trazado 601432" d="M55.008,140.132l104.226-10.187,41.929,94.57Z" transform="translate(505.417 2994.572)" fill="#083760" opacity="0.8" style="isolation: isolate"/>
    <path id="Trazado_601433" data-name="Trazado 601433" d="M55.008,137.82l98.3-1.49L201.163,222.2Z" transform="translate(505.417 2996.884)" fill="#a6b4c5"/>
    <path id="Trazado_601434" data-name="Trazado 601434" d="M478.393,381.846,374.18,391.983l-41.943-94.521Z" transform="translate(605.775 3055.214)" fill="#22c9ac" opacity="0.15" style="isolation: isolate"/>
    <path id="Trazado_601435" data-name="Trazado 601435" d="M478.393,381.846l-98.3,1.49-47.858-85.872Z" transform="translate(605.775 3055.214)" fill="#97791c"/>
    <path id="Trazado_601436" data-name="Trazado 601436" d="M57.893,386.242l42.753-95.3,103.4,10.915Z" transform="translate(506.462 3052.854)" fill="#7c8c99"/>
    <path id="Trazado_601437" data-name="Trazado 601437" d="M57.893,383.737l47.858-85.872,98.3,1.49Z" transform="translate(506.462 3055.359)" fill="#d3de3e"/>
    <path id="Trazado_601438" data-name="Trazado 601438" d="M481.241,138.921l-43.4,95.032L335.086,223.3Z" transform="translate(606.806 2997.822)" fill="#f6981e"/>
    <path id="Trazado_601439" data-name="Trazado 601439" d="M481.241,138.921l-47.858,85.872-98.3-1.489Z" transform="translate(606.806 2997.822)" fill="#8e2449"/>
    <path id="Trazado_605623" data-name="Trazado 605623" d="M3,0H106.407a3,3,0,0,1,3,3V24.24a3,3,0,0,1-3,3H3a3,3,0,0,1-3-3V3A3,3,0,0,1,3,0Z" transform="translate(896.163 3087.122)" fill="#fff"/>
    <path id="Trazado_605624" data-name="Trazado 605624" d="M-20.164-4.973a5.283,5.283,0,0,1-1.779,3.794A6.248,6.248,0,0,1-26.173.205,5.618,5.618,0,0,1-30.69-1.728a7.925,7.925,0,0,1-1.646-5.306v-.913a8.95,8.95,0,0,1,.759-3.794,5.686,5.686,0,0,1,2.169-2.517,6.075,6.075,0,0,1,3.276-.877,6.087,6.087,0,0,1,4.163,1.384,5.677,5.677,0,0,1,1.825,3.886H-23.22a3.118,3.118,0,0,0-.8-2.1,2.981,2.981,0,0,0-2.107-.651,2.614,2.614,0,0,0-2.3,1.1,6.178,6.178,0,0,0-.784,3.42v1.128a6.612,6.612,0,0,0,.733,3.538,2.565,2.565,0,0,0,2.312,1.118,3.037,3.037,0,0,0,2.128-.651,2.941,2.941,0,0,0,.8-2.015ZM-15.212,0h-2.974V-15.75h2.974Zm5.568,0h-2.974V-11.095h2.974Zm-3.148-13.966a1.459,1.459,0,0,1,.446-1.1,1.676,1.676,0,0,1,1.215-.431,1.679,1.679,0,0,1,1.21.431,1.451,1.451,0,0,1,.451,1.1,1.455,1.455,0,0,1-.456,1.107,1.684,1.684,0,0,1-1.2.431,1.684,1.684,0,0,1-1.2-.431A1.455,1.455,0,0,1-12.792-13.966ZM-2.1.205a5.447,5.447,0,0,1-3.973-1.5A5.321,5.321,0,0,1-7.6-5.281v-.287a6.7,6.7,0,0,1,.646-2.989,4.741,4.741,0,0,1,1.83-2.03,5.137,5.137,0,0,1,2.7-.713A4.6,4.6,0,0,1,1.159-9.864,5.833,5.833,0,0,1,2.466-5.793v1.21H-4.6A2.753,2.753,0,0,0-3.732-2.84a2.619,2.619,0,0,0,1.83.656A3.2,3.2,0,0,0,.774-3.425L2.23-1.794A4.449,4.449,0,0,1,.426-.323,5.921,5.921,0,0,1-2.1.205Zm-.338-9.116a1.852,1.852,0,0,0-1.43.6,3.093,3.093,0,0,0-.7,1.71H-.446V-6.84A2.206,2.206,0,0,0-.979-8.37,1.91,1.91,0,0,0-2.435-8.911Zm9.311-2.184.092,1.282A3.874,3.874,0,0,1,10.156-11.3a3.219,3.219,0,0,1,2.625,1.036,4.832,4.832,0,0,1,.882,3.1V0H10.7V-7.112a1.93,1.93,0,0,0-.41-1.372,1.833,1.833,0,0,0-1.364-.426A2.038,2.038,0,0,0,7.05-7.842V0H4.086V-11.095Zm12.582-2.728v2.728h1.9v2.174h-1.9v5.537a1.322,1.322,0,0,0,.236.882,1.184,1.184,0,0,0,.9.267,4.726,4.726,0,0,0,.872-.072V-.062a6.1,6.1,0,0,1-1.794.267q-3.117,0-3.179-3.148V-8.921h-1.62v-2.174h1.62v-2.728ZM28.111.205a5.447,5.447,0,0,1-3.973-1.5A5.321,5.321,0,0,1,22.6-5.281v-.287a6.7,6.7,0,0,1,.646-2.989,4.741,4.741,0,0,1,1.83-2.03,5.137,5.137,0,0,1,2.7-.713,4.6,4.6,0,0,1,3.584,1.436,5.833,5.833,0,0,1,1.307,4.071v1.21H25.609a2.753,2.753,0,0,0,.866,1.743,2.619,2.619,0,0,0,1.83.656,3.2,3.2,0,0,0,2.676-1.241l1.456,1.63a4.449,4.449,0,0,1-1.8,1.471A5.921,5.921,0,0,1,28.111.205Zm-.338-9.116a1.852,1.852,0,0,0-1.43.6,3.093,3.093,0,0,0-.7,1.71h4.122V-6.84a2.206,2.206,0,0,0-.533-1.529A1.91,1.91,0,0,0,27.773-8.911Z" transform="translate(949.817 3105.299)" fill="#e7313c"/>
    <path id="Trazado_605625" data-name="Trazado 605625" d="M3,0H106.407a3,3,0,0,1,3,3V24.24a3,3,0,0,1-3,3H3a3,3,0,0,1-3-3V3A3,3,0,0,1,3,0Z" transform="translate(982.98 3288.033)" fill="#fff"/>
    <path id="Trazado_605626" data-name="Trazado 605626" d="M-19.575-2.471h6.532V0h-9.608V-14.93h3.076ZM-8.275,0h-2.963V-11.095h2.963Zm-.872-15.6h3.23l-2.84,3.179h-2.41Zm2.963,9.967A6.686,6.686,0,0,1-5.019-9.762,3.776,3.776,0,0,1-1.835-11.3,3.4,3.4,0,0,1,.841-10.09v-5.66H3.814V0H1.138L.995-1.179A3.487,3.487,0,0,1-1.856.205,3.766,3.766,0,0,1-5-1.338,6.9,6.9,0,0,1-6.183-5.629Zm2.963.211a4.4,4.4,0,0,0,.543,2.4A1.769,1.769,0,0,0-1.1-2.184,1.982,1.982,0,0,0,.841-3.348v-4.4A1.954,1.954,0,0,0-1.077-8.911Q-3.22-8.911-3.22-5.419ZM11.218.205a5.447,5.447,0,0,1-3.973-1.5A5.321,5.321,0,0,1,5.711-5.281v-.287a6.7,6.7,0,0,1,.646-2.989,4.741,4.741,0,0,1,1.83-2.03,5.137,5.137,0,0,1,2.7-.713,4.6,4.6,0,0,1,3.584,1.436,5.833,5.833,0,0,1,1.307,4.071v1.21H8.716A2.753,2.753,0,0,0,9.582-2.84a2.619,2.619,0,0,0,1.83.656,3.2,3.2,0,0,0,2.676-1.241l1.456,1.63a4.449,4.449,0,0,1-1.8,1.471A5.921,5.921,0,0,1,11.218.205Zm-.338-9.116a1.852,1.852,0,0,0-1.43.6,3.093,3.093,0,0,0-.7,1.71h4.122V-6.84a2.206,2.206,0,0,0-.533-1.529A1.91,1.91,0,0,0,10.879-8.911ZM23.7-8.316A8.051,8.051,0,0,0,22.63-8.4a2.171,2.171,0,0,0-2.2,1.138V0H17.462V-11.095h2.8l.082,1.323A2.746,2.746,0,0,1,22.815-11.3a3.105,3.105,0,0,1,.923.133Z" transform="translate(1037.167 3306.209)" fill="#c9a126"/>
    <path id="Trazado_605627" data-name="Trazado 605627" d="M3,0H106.195a3,3,0,0,1,3,3V51.48a3,3,0,0,1-3,3H3a3,3,0,0,1-3-3V3A3,3,0,0,1,3,0Z" transform="translate(856.917 3454.6)" fill="#fff"/>
    <path id="Trazado_605628" data-name="Trazado 605628" d="M-36.14-6.491h-5.906v4.02h6.932V0H-45.122V-14.93h9.987v2.492h-6.911V-8.88h5.906Zm1.979.841A6.632,6.632,0,0,1-33-9.782,3.8,3.8,0,0,1-29.8-11.3a3.406,3.406,0,0,1,2.84,1.364l.195-1.159h2.6V4.266h-2.974V-.954A3.416,3.416,0,0,1-29.823.205a3.777,3.777,0,0,1-3.158-1.538A6.957,6.957,0,0,1-34.161-5.65Zm2.963.21a4.35,4.35,0,0,0,.559,2.424,1.789,1.789,0,0,0,1.574.832,1.993,1.993,0,0,0,1.928-1.089V-7.863a1.976,1.976,0,0,0-1.907-1.048,1.811,1.811,0,0,0-1.589.832A4.8,4.8,0,0,0-31.2-5.44Zm16.006,4.312A3.716,3.716,0,0,1-18.226.205,3.5,3.5,0,0,1-20.949-.82a4.377,4.377,0,0,1-.959-3v-7.27h2.963v7.176q0,1.735,1.579,1.735a2.14,2.14,0,0,0,2.071-1.047v-7.863h2.974V0h-2.789ZM-6.957,0H-9.931V-11.095h2.974Zm-3.148-13.966a1.459,1.459,0,0,1,.446-1.1,1.676,1.676,0,0,1,1.215-.431,1.679,1.679,0,0,1,1.21.431,1.451,1.451,0,0,1,.451,1.1,1.455,1.455,0,0,1-.456,1.107,1.684,1.684,0,0,1-1.2.431,1.684,1.684,0,0,1-1.2-.431A1.455,1.455,0,0,1-10.105-13.966ZM5.47-5.445A6.654,6.654,0,0,1,4.307-1.338,3.731,3.731,0,0,1,1.164.205,3.456,3.456,0,0,1-1.553-.964V4.266H-4.517v-15.36h2.748l.1,1.087A3.483,3.483,0,0,1,1.143-11.3,3.757,3.757,0,0,1,4.332-9.782,6.834,6.834,0,0,1,5.47-5.6ZM2.507-5.671a4.391,4.391,0,0,0-.549-2.4A1.785,1.785,0,0,0,.364-8.911a1.94,1.94,0,0,0-1.917,1.07v4.556a1.972,1.972,0,0,0,1.938,1.1Q2.507-2.184,2.507-5.671Zm4.337.021A6.58,6.58,0,0,1,7.48-8.593a4.654,4.654,0,0,1,1.83-2,5.34,5.34,0,0,1,2.774-.708A5.052,5.052,0,0,1,15.75-9.926a5.514,5.514,0,0,1,1.584,3.732l.021.759a5.8,5.8,0,0,1-1.425,4.1A4.954,4.954,0,0,1,12.1.205a4.979,4.979,0,0,1-3.83-1.538,5.9,5.9,0,0,1-1.43-4.184Zm2.963.21A4.147,4.147,0,0,0,10.4-3.021a1.962,1.962,0,0,0,1.7.837,1.966,1.966,0,0,0,1.682-.827,4.538,4.538,0,0,0,.6-2.644,4.106,4.106,0,0,0-.6-2.4,1.967,1.967,0,0,0-1.7-.852,1.934,1.934,0,0,0-1.682.847A4.614,4.614,0,0,0,9.808-5.44Zm14.14-.19a6.686,6.686,0,0,1,1.164-4.132A3.776,3.776,0,0,1,28.3-11.3a3.4,3.4,0,0,1,2.676,1.21v-5.66h2.974V0H31.269l-.144-1.179A3.487,3.487,0,0,1,28.275.205a3.766,3.766,0,0,1-3.143-1.543A6.9,6.9,0,0,1,23.948-5.629Zm2.963.211a4.4,4.4,0,0,0,.543,2.4,1.769,1.769,0,0,0,1.579.834,1.982,1.982,0,0,0,1.938-1.164v-4.4a1.954,1.954,0,0,0-1.917-1.164Q26.911-8.911,26.911-5.419ZM41.349.205a5.447,5.447,0,0,1-3.973-1.5,5.321,5.321,0,0,1-1.533-3.989v-.287a6.7,6.7,0,0,1,.646-2.989,4.741,4.741,0,0,1,1.83-2.03,5.137,5.137,0,0,1,2.7-.713A4.6,4.6,0,0,1,44.6-9.864a5.833,5.833,0,0,1,1.307,4.071v1.21H38.847a2.753,2.753,0,0,0,.866,1.743,2.619,2.619,0,0,0,1.83.656A3.2,3.2,0,0,0,44.22-3.425l1.456,1.63a4.449,4.449,0,0,1-1.8,1.471A5.921,5.921,0,0,1,41.349.205ZM41.01-8.911a1.852,1.852,0,0,0-1.43.6,3.093,3.093,0,0,0-.7,1.71H43V-6.84a2.206,2.206,0,0,0-.533-1.529A1.91,1.91,0,0,0,41.01-8.911ZM-46.86,19.371A6.686,6.686,0,0,1-45.7,15.238,3.776,3.776,0,0,1-42.513,13.7a3.4,3.4,0,0,1,2.676,1.21V9.25h2.974V25h-2.676l-.144-1.179a3.487,3.487,0,0,1-2.851,1.384,3.766,3.766,0,0,1-3.143-1.543A6.9,6.9,0,0,1-46.86,19.371Zm2.963.211a4.4,4.4,0,0,0,.543,2.4,1.769,1.769,0,0,0,1.579.834,1.982,1.982,0,0,0,1.938-1.164v-4.4a1.954,1.954,0,0,0-1.917-1.164Q-43.9,16.089-43.9,19.581Zm14.438,5.624a5.447,5.447,0,0,1-3.973-1.5,5.321,5.321,0,0,1-1.533-3.989v-.287a6.7,6.7,0,0,1,.646-2.989,4.741,4.741,0,0,1,1.83-2.03,5.137,5.137,0,0,1,2.7-.713A4.6,4.6,0,0,1-26.2,15.136,5.833,5.833,0,0,1-24.9,19.207v1.21h-7.065a2.753,2.753,0,0,0,.866,1.743,2.619,2.619,0,0,0,1.83.656,3.2,3.2,0,0,0,2.676-1.241l1.456,1.63a4.449,4.449,0,0,1-1.8,1.471A5.921,5.921,0,0,1-29.459,25.205Zm-.338-9.116a1.852,1.852,0,0,0-1.43.6,3.093,3.093,0,0,0-.7,1.71h4.122V18.16a2.206,2.206,0,0,0-.533-1.529A1.91,1.91,0,0,0-29.8,16.089Zm12.592,5.845a.955.955,0,0,0-.538-.856,6.115,6.115,0,0,0-1.728-.559q-3.958-.831-3.958-3.363A3.049,3.049,0,0,1-22.2,14.69,4.943,4.943,0,0,1-19,13.7a5.32,5.32,0,0,1,3.379.995,3.135,3.135,0,0,1,1.266,2.584h-2.963a1.434,1.434,0,0,0-.41-1.051,1.736,1.736,0,0,0-1.282-.415,1.774,1.774,0,0,0-1.159.338,1.068,1.068,0,0,0-.41.861.913.913,0,0,0,.467.795,4.8,4.8,0,0,0,1.574.523,12.856,12.856,0,0,1,1.866.5,3.066,3.066,0,0,1,2.348,2.984,2.894,2.894,0,0,1-1.3,2.456,5.618,5.618,0,0,1-3.363.938,5.867,5.867,0,0,1-2.476-.5,4.155,4.155,0,0,1-1.7-1.364,3.169,3.169,0,0,1-.615-1.871h2.81a1.547,1.547,0,0,0,.584,1.21,2.318,2.318,0,0,0,1.456.42,2.146,2.146,0,0,0,1.287-.323A1,1,0,0,0-17.206,21.934ZM-5.988,25a3.291,3.291,0,0,1-.3-.995,3.586,3.586,0,0,1-2.8,1.2,3.939,3.939,0,0,1-2.7-.943,3.034,3.034,0,0,1-1.072-2.379,3.135,3.135,0,0,1,1.307-2.707,6.451,6.451,0,0,1,3.779-.954h1.364v-.636a1.828,1.828,0,0,0-.395-1.23,1.553,1.553,0,0,0-1.246-.461,1.766,1.766,0,0,0-1.174.359,1.219,1.219,0,0,0-.426.984h-2.963a2.977,2.977,0,0,1,.595-1.784,3.931,3.931,0,0,1,1.682-1.287A6.129,6.129,0,0,1-7.9,13.7,4.842,4.842,0,0,1-4.64,14.731a3.605,3.605,0,0,1,1.2,2.9v4.809a5.3,5.3,0,0,0,.441,2.389V25Zm-2.451-2.061a2.552,2.552,0,0,0,1.21-.292,1.919,1.919,0,0,0,.82-.784V19.955H-7.516q-2.225,0-2.369,1.538l-.01.174a1.186,1.186,0,0,0,.39.913A1.514,1.514,0,0,0-8.439,22.939ZM5.076,16.684A8.051,8.051,0,0,0,4.009,16.6,2.171,2.171,0,0,0,1.8,17.74V25H-1.159V13.905h2.8l.082,1.323A2.746,2.746,0,0,1,4.194,13.7a3.105,3.105,0,0,1,.923.133Zm7.66,0a8.051,8.051,0,0,0-1.066-.082,2.171,2.171,0,0,0-2.2,1.138V25H6.5V13.905H9.3l.082,1.323A2.746,2.746,0,0,1,11.854,13.7a3.105,3.105,0,0,1,.923.133Zm.595,2.666a6.58,6.58,0,0,1,.636-2.943,4.654,4.654,0,0,1,1.83-2A5.34,5.34,0,0,1,18.57,13.7a5.052,5.052,0,0,1,3.666,1.374,5.514,5.514,0,0,1,1.584,3.732l.021.759a5.8,5.8,0,0,1-1.425,4.1,4.954,4.954,0,0,1-3.825,1.543,4.979,4.979,0,0,1-3.83-1.538,5.9,5.9,0,0,1-1.43-4.184Zm2.963.21a4.147,4.147,0,0,0,.595,2.418,2.137,2.137,0,0,0,3.384.01,4.538,4.538,0,0,0,.6-2.644,4.106,4.106,0,0,0-.6-2.4,1.967,1.967,0,0,0-1.7-.852,1.934,1.934,0,0,0-1.682.847A4.614,4.614,0,0,0,16.293,19.56ZM28.793,25H25.819V9.25h2.974Zm5.568,0H31.387V9.25h2.974Zm1.979-5.65a6.58,6.58,0,0,1,.636-2.943,4.654,4.654,0,0,1,1.83-2A5.34,5.34,0,0,1,41.58,13.7a5.052,5.052,0,0,1,3.666,1.374,5.514,5.514,0,0,1,1.584,3.732l.021.759a5.8,5.8,0,0,1-1.425,4.1A4.954,4.954,0,0,1,41.6,25.205a4.979,4.979,0,0,1-3.83-1.538,5.9,5.9,0,0,1-1.43-4.184Zm2.963.21a4.147,4.147,0,0,0,.595,2.418,2.137,2.137,0,0,0,3.384.01,4.538,4.538,0,0,0,.6-2.644,4.106,4.106,0,0,0-.6-2.4,1.967,1.967,0,0,0-1.7-.852,1.934,1.934,0,0,0-1.682.847A4.614,4.614,0,0,0,39.3,19.56Z" transform="translate(910.482 3473.979)" fill="#00a6af"/>
    <path id="Trazado_605629" data-name="Trazado 605629" d="M3.232,0H106.174a3.232,3.232,0,0,1,3.232,3.233V24.007a3.233,3.233,0,0,1-3.233,3.233H3.232A3.232,3.232,0,0,1,0,24.008V3.232A3.232,3.232,0,0,1,3.232,0Z" transform="translate(629.541 3449.975)" fill="#fff"/>
    <path id="Trazado_605630" data-name="Trazado 605630" d="M-28.711-3.076H-34.1L-35.13,0H-38.4l5.558-14.93h2.851L-24.4,0h-3.271Zm-4.563-2.492h3.732l-1.876-5.588Zm12.3-5.527.092,1.282A3.874,3.874,0,0,1-17.688-11.3a3.219,3.219,0,0,1,2.625,1.036,4.832,4.832,0,0,1,.882,3.1V0h-2.963V-7.112a1.93,1.93,0,0,0-.41-1.372,1.833,1.833,0,0,0-1.364-.426,2.038,2.038,0,0,0-1.876,1.069V0h-2.963V-11.095ZM-5.506,0a3.291,3.291,0,0,1-.3-.995A3.586,3.586,0,0,1-8.6.205a3.939,3.939,0,0,1-2.7-.943,3.034,3.034,0,0,1-1.072-2.379,3.135,3.135,0,0,1,1.307-2.707,6.451,6.451,0,0,1,3.779-.954h1.364v-.636a1.828,1.828,0,0,0-.395-1.23,1.553,1.553,0,0,0-1.246-.461,1.766,1.766,0,0,0-1.174.359,1.219,1.219,0,0,0-.426.984H-12.13a2.977,2.977,0,0,1,.595-1.784,3.931,3.931,0,0,1,1.682-1.287,6.129,6.129,0,0,1,2.44-.467,4.842,4.842,0,0,1,3.256,1.031,3.605,3.605,0,0,1,1.2,2.9v4.809A5.3,5.3,0,0,0-2.512-.174V0ZM-7.957-2.061a2.552,2.552,0,0,0,1.21-.292,1.919,1.919,0,0,0,.82-.784V-5.045H-7.034q-2.225,0-2.369,1.538l-.01.174a1.186,1.186,0,0,0,.39.913A1.514,1.514,0,0,0-7.957-2.061ZM2.451,0H-.523V-15.75H2.451ZM8.019,0H5.045V-11.095H8.019ZM4.871-13.966a1.459,1.459,0,0,1,.446-1.1,1.676,1.676,0,0,1,1.215-.431,1.679,1.679,0,0,1,1.21.431,1.451,1.451,0,0,1,.451,1.1,1.455,1.455,0,0,1-.456,1.107,1.684,1.684,0,0,1-1.2.431,1.684,1.684,0,0,1-1.2-.431A1.455,1.455,0,0,1,4.871-13.966Zm11.6,10.9a.955.955,0,0,0-.538-.856A6.115,6.115,0,0,0,14.2-4.481q-3.958-.831-3.958-3.363a3.049,3.049,0,0,1,1.225-2.466,4.943,4.943,0,0,1,3.2-.99,5.32,5.32,0,0,1,3.379.995,3.135,3.135,0,0,1,1.266,2.584H16.355a1.434,1.434,0,0,0-.41-1.051,1.736,1.736,0,0,0-1.282-.415,1.774,1.774,0,0,0-1.159.338,1.068,1.068,0,0,0-.41.861.913.913,0,0,0,.467.795,4.8,4.8,0,0,0,1.574.523,12.856,12.856,0,0,1,1.866.5,3.066,3.066,0,0,1,2.348,2.984,2.894,2.894,0,0,1-1.3,2.456,5.618,5.618,0,0,1-3.363.938,5.867,5.867,0,0,1-2.476-.5,4.155,4.155,0,0,1-1.7-1.364A3.169,3.169,0,0,1,9.9-3.527H12.7a1.547,1.547,0,0,0,.584,1.21,2.318,2.318,0,0,0,1.456.42,2.146,2.146,0,0,0,1.287-.323A1,1,0,0,0,16.468-3.066ZM24.8-13.822v2.728h1.9v2.174H24.8v5.537a1.322,1.322,0,0,0,.236.882,1.184,1.184,0,0,0,.9.267,4.726,4.726,0,0,0,.872-.072V-.062A6.1,6.1,0,0,1,25.02.205q-3.117,0-3.179-3.148V-8.921h-1.62v-2.174h1.62v-2.728ZM34.781,0a3.291,3.291,0,0,1-.3-.995,3.586,3.586,0,0,1-2.8,1.2,3.939,3.939,0,0,1-2.7-.943,3.034,3.034,0,0,1-1.072-2.379,3.135,3.135,0,0,1,1.307-2.707A6.451,6.451,0,0,1,33-6.778h1.364v-.636a1.828,1.828,0,0,0-.395-1.23,1.553,1.553,0,0,0-1.246-.461,1.766,1.766,0,0,0-1.174.359,1.219,1.219,0,0,0-.426.984H28.157a2.977,2.977,0,0,1,.595-1.784,3.931,3.931,0,0,1,1.682-1.287,6.129,6.129,0,0,1,2.44-.467,4.842,4.842,0,0,1,3.256,1.031,3.605,3.605,0,0,1,1.2,2.9v4.809a5.3,5.3,0,0,0,.441,2.389V0ZM32.331-2.061a2.552,2.552,0,0,0,1.21-.292,1.919,1.919,0,0,0,.82-.784V-5.045H33.253q-2.225,0-2.369,1.538l-.01.174a1.186,1.186,0,0,0,.39.913A1.514,1.514,0,0,0,32.331-2.061Z" transform="translate(682.746 3468.81)" fill="#acd036"/>
    <path id="Trazado_605631" data-name="Trazado 605631" d="M3.232,0H106.174a3.233,3.233,0,0,1,3.233,3.233V24.008a3.232,3.232,0,0,1-3.232,3.233H3.232A3.232,3.232,0,0,1,0,24.008V3.232A3.232,3.232,0,0,1,3.232,0Z" transform="translate(551.907 3248.728)" fill="#fff"/>
    <path id="Trazado_605632" data-name="Trazado 605632" d="M-23.733-14.93V-5.1A5.035,5.035,0,0,1-25.266-1.22,5.91,5.91,0,0,1-29.454.205a5.976,5.976,0,0,1-4.153-1.384,4.949,4.949,0,0,1-1.569-3.8V-14.93H-32.1v9.854a2.845,2.845,0,0,0,.7,2.138,2.7,2.7,0,0,0,1.943.672q2.594,0,2.635-2.728V-14.93ZM-15.4-3.066a.955.955,0,0,0-.538-.856,6.115,6.115,0,0,0-1.728-.559q-3.958-.831-3.958-3.363A3.049,3.049,0,0,1-20.4-10.31a4.943,4.943,0,0,1,3.2-.99,5.32,5.32,0,0,1,3.379.995,3.135,3.135,0,0,1,1.266,2.584h-2.963a1.434,1.434,0,0,0-.41-1.051A1.736,1.736,0,0,0-17.2-9.187a1.774,1.774,0,0,0-1.159.338,1.068,1.068,0,0,0-.41.861.913.913,0,0,0,.467.795,4.8,4.8,0,0,0,1.574.523,12.856,12.856,0,0,1,1.866.5,3.066,3.066,0,0,1,2.348,2.984,2.894,2.894,0,0,1-1.3,2.456A5.618,5.618,0,0,1-17.18.205a5.867,5.867,0,0,1-2.476-.5,4.155,4.155,0,0,1-1.7-1.364,3.169,3.169,0,0,1-.615-1.871h2.81a1.547,1.547,0,0,0,.584,1.21,2.318,2.318,0,0,0,1.456.42,2.146,2.146,0,0,0,1.287-.323A1,1,0,0,0-15.4-3.066ZM-3.963-1.128A3.716,3.716,0,0,1-7,.205,3.5,3.5,0,0,1-9.721-.82a4.377,4.377,0,0,1-.959-3v-7.27h2.963v7.176q0,1.735,1.579,1.735A2.14,2.14,0,0,0-4.066-3.231v-7.863h2.974V0H-3.881ZM7.573,0a3.291,3.291,0,0,1-.3-.995,3.586,3.586,0,0,1-2.8,1.2,3.939,3.939,0,0,1-2.7-.943A3.034,3.034,0,0,1,.7-3.117,3.135,3.135,0,0,1,2.01-5.824a6.451,6.451,0,0,1,3.779-.954H7.152v-.636a1.828,1.828,0,0,0-.395-1.23,1.553,1.553,0,0,0-1.246-.461,1.766,1.766,0,0,0-1.174.359,1.219,1.219,0,0,0-.426.984H.948a2.977,2.977,0,0,1,.595-1.784,3.931,3.931,0,0,1,1.682-1.287,6.129,6.129,0,0,1,2.44-.467,4.842,4.842,0,0,1,3.256,1.031,3.605,3.605,0,0,1,1.2,2.9v4.809a5.3,5.3,0,0,0,.441,2.389V0ZM5.122-2.061a2.552,2.552,0,0,0,1.21-.292,1.919,1.919,0,0,0,.82-.784V-5.045H6.045q-2.225,0-2.369,1.538l-.01.174a1.186,1.186,0,0,0,.39.913A1.514,1.514,0,0,0,5.122-2.061ZM18.636-8.316A8.051,8.051,0,0,0,17.57-8.4a2.171,2.171,0,0,0-2.2,1.138V0H12.4V-11.095h2.8l.082,1.323A2.746,2.746,0,0,1,17.755-11.3a3.105,3.105,0,0,1,.923.133ZM23.189,0H20.216V-11.095h2.974ZM20.041-13.966a1.459,1.459,0,0,1,.446-1.1,1.676,1.676,0,0,1,1.215-.431,1.679,1.679,0,0,1,1.21.431,1.451,1.451,0,0,1,.451,1.1,1.455,1.455,0,0,1-.456,1.107,1.684,1.684,0,0,1-1.2.431,1.684,1.684,0,0,1-1.2-.431A1.455,1.455,0,0,1,20.041-13.966ZM25.168-5.65A6.58,6.58,0,0,1,25.8-8.593a4.654,4.654,0,0,1,1.83-2,5.34,5.34,0,0,1,2.774-.708,5.052,5.052,0,0,1,3.666,1.374,5.514,5.514,0,0,1,1.584,3.732l.021.759a5.8,5.8,0,0,1-1.425,4.1A4.954,4.954,0,0,1,30.428.205,4.979,4.979,0,0,1,26.6-1.333a5.9,5.9,0,0,1-1.43-4.184Zm2.963.21a4.147,4.147,0,0,0,.595,2.418,1.962,1.962,0,0,0,1.7.837,1.966,1.966,0,0,0,1.682-.827,4.538,4.538,0,0,0,.6-2.644,4.106,4.106,0,0,0-.6-2.4,1.967,1.967,0,0,0-1.7-.852,1.934,1.934,0,0,0-1.682.847A4.614,4.614,0,0,0,28.132-5.44Z" transform="translate(604.474 3266.904)" fill="#8c9eac"/>
    <path id="Trazado_605633" data-name="Trazado 605633" d="M3.233,0H132.968A3.233,3.233,0,0,1,136.2,3.233V24.008a3.232,3.232,0,0,1-3.232,3.233H3.233A3.232,3.232,0,0,1,0,24.008V3.233A3.232,3.232,0,0,1,3.233,0Z" transform="translate(658.628 3070.85)" fill="#fff"/>
    <path id="Trazado_605634" data-name="Trazado 605634" d="M-47.363-3.989q.215-1.22-1.2-1.866l-1.979-.79q-3.445-1.538-3.271-4.235a3.89,3.89,0,0,1,.82-2.215,4.932,4.932,0,0,1,2.1-1.512,7.442,7.442,0,0,1,2.922-.528,5.063,5.063,0,0,1,3.5,1.287,4.288,4.288,0,0,1,1.313,3.338h-2.994a2.136,2.136,0,0,0-.446-1.579,2.009,2.009,0,0,0-1.543-.584,3.111,3.111,0,0,0-1.784.467,1.914,1.914,0,0,0-.9,1.338q-.195,1.118,1.5,1.774l1.354.513.779.359q3.025,1.5,2.83,4.2a4.056,4.056,0,0,1-.846,2.281A4.769,4.769,0,0,1-47.265-.267a7.3,7.3,0,0,1-2.856.482,6.4,6.4,0,0,1-2.83-.667,4.4,4.4,0,0,1-1.887-1.794A4.647,4.647,0,0,1-55.4-4.707l3,.01q-.144,2.43,2.389,2.471a3.139,3.139,0,0,0,1.8-.482A1.877,1.877,0,0,0-47.363-3.989Zm10.09-9.833-.482,2.728h1.846l-.379,2.174h-1.846l-.943,5.558a1.413,1.413,0,0,0,.082.8q.144.277.7.3.164.01.882-.051l-.205,2.266a4.864,4.864,0,0,1-1.661.236,2.606,2.606,0,0,1-2.123-.892,3.223,3.223,0,0,1-.574-2.358l.954-5.855h-1.569l.379-2.174h1.569l.472-2.728ZM-29.736,0a2.993,2.993,0,0,1-.113-1,3.758,3.758,0,0,1-2.83,1.21,3.405,3.405,0,0,1-2.415-.948,2.87,2.87,0,0,1-.9-2.292,3.317,3.317,0,0,1,1.523-2.784,6.912,6.912,0,0,1,3.891-.969l1.354.021.144-.667a2.315,2.315,0,0,0,.031-.646,1.11,1.11,0,0,0-.364-.754,1.254,1.254,0,0,0-.825-.282,1.766,1.766,0,0,0-1.148.333,1.615,1.615,0,0,0-.6,1.02l-2.9.01a3.225,3.225,0,0,1,1.461-2.579A5.659,5.659,0,0,1-30-11.3a4.091,4.091,0,0,1,2.953,1.123,3.285,3.285,0,0,1,.892,2.784l-.851,5.312-.051.656a3.166,3.166,0,0,0,.174,1.23L-26.9,0Zm-2.225-2.041a2.648,2.648,0,0,0,2.184-1.087l.359-1.917-1-.01a2.807,2.807,0,0,0-2.307.974,1.7,1.7,0,0,0-.318.831.984.984,0,0,0,.231.877A1.169,1.169,0,0,0-31.961-2.041Zm11.628-2.379L-21.677-3.25-22.241,0h-2.892L-22.4-15.75h2.9L-21-7.2l.564-.6,3.292-3.292h3.712l-4.85,4.768L-15.2,0h-3.168ZM-8.88.205a4.827,4.827,0,0,1-2.579-.713,4.321,4.321,0,0,1-1.677-1.928,5.373,5.373,0,0,1-.431-2.7l.031-.41a7.173,7.173,0,0,1,.943-2.974,5.7,5.7,0,0,1,2.03-2.087A5.023,5.023,0,0,1-7.813-11.3,3.838,3.838,0,0,1-4.568-9.723a5.4,5.4,0,0,1,.836,3.887L-3.9-4.573h-6.8a2.381,2.381,0,0,0,.523,1.723,2,2,0,0,0,1.538.667,3.548,3.548,0,0,0,2.769-1.23l1.323,1.641A4.115,4.115,0,0,1-6.347-.3,5.9,5.9,0,0,1-8.88.205Zm.923-9.116a2.055,2.055,0,0,0-1.42.5A4.414,4.414,0,0,0-10.49-6.593h3.979l.062-.267a2.718,2.718,0,0,0,.01-.779,1.488,1.488,0,0,0-.5-.928A1.575,1.575,0,0,0-7.957-8.911Zm9.331-.954a3.867,3.867,0,0,1,3-1.436A2.813,2.813,0,0,1,6.8-10.115a4.656,4.656,0,0,1,.579,3.122L6.214,0H3.322L4.5-7.032a3.408,3.408,0,0,0,.021-.739A1.162,1.162,0,0,0,3.23-8.911,2.5,2.5,0,0,0,1.179-7.9L-.215,0H-3.107L-.379-15.75h2.9ZM14.817-11.3a4.45,4.45,0,0,1,2.528.754A4.244,4.244,0,0,1,18.9-8.526a6.25,6.25,0,0,1,.354,2.856,6.751,6.751,0,0,1-1.841,4.281A5.2,5.2,0,0,1,13.453.205a4.437,4.437,0,0,1-2.5-.743,4.228,4.228,0,0,1-1.559-2,6.112,6.112,0,0,1-.359-2.83A6.95,6.95,0,0,1,10.9-9.741,5.09,5.09,0,0,1,14.817-11.3ZM11.895-4.324a2.56,2.56,0,0,0,.461,1.551,1.533,1.533,0,0,0,1.241.589,2.248,2.248,0,0,0,2.092-1.223A6.1,6.1,0,0,0,16.4-6.73,2.785,2.785,0,0,0,15.919-8.3a1.508,1.508,0,0,0-1.246-.609A2.25,2.25,0,0,0,12.607-7.7,6.035,6.035,0,0,0,11.895-4.324ZM23.143,0H20.231l2.738-15.75h2.9ZM31.1-11.31a3.157,3.157,0,0,1,2.5,1.241l1.087-5.681h2.9L34.863,0H32.279l.164-1.189a3.591,3.591,0,0,1-2.892,1.4,3.194,3.194,0,0,1-1.815-.543,3.422,3.422,0,0,1-1.2-1.533,6.174,6.174,0,0,1-.467-2.23A8.4,8.4,0,0,1,26.1-5.342l.062-.461A8.881,8.881,0,0,1,27.106-8.8a4.943,4.943,0,0,1,1.723-1.917A4.062,4.062,0,0,1,31.1-11.31ZM29-5.342a8.3,8.3,0,0,0-.051,1.313q.1,1.8,1.456,1.835a2.475,2.475,0,0,0,2.123-1.148l.79-4.409a1.638,1.638,0,0,0-1.6-1.148,2.107,2.107,0,0,0-1.759.815A5.481,5.481,0,0,0,29-5.342ZM42.441.205a4.827,4.827,0,0,1-2.579-.713,4.321,4.321,0,0,1-1.677-1.928,5.373,5.373,0,0,1-.431-2.7l.031-.41a7.173,7.173,0,0,1,.943-2.974,5.7,5.7,0,0,1,2.03-2.087,5.023,5.023,0,0,1,2.748-.692,3.838,3.838,0,0,1,3.245,1.576,5.4,5.4,0,0,1,.836,3.887l-.164,1.263h-6.8a2.381,2.381,0,0,0,.523,1.723,2,2,0,0,0,1.538.667,3.548,3.548,0,0,0,2.769-1.23l1.323,1.641A4.115,4.115,0,0,1,44.974-.3,5.9,5.9,0,0,1,42.441.205Zm.923-9.116a2.055,2.055,0,0,0-1.42.5,4.414,4.414,0,0,0-1.113,1.815H44.81l.062-.267a2.718,2.718,0,0,0,.01-.779,1.488,1.488,0,0,0-.5-.928A1.575,1.575,0,0,0,43.364-8.911Zm12.52.595a5.97,5.97,0,0,0-.974-.1A2.8,2.8,0,0,0,52.459-7.26L51.177,0H48.286l1.928-11.095,2.717-.01-.267,1.354a3.051,3.051,0,0,1,2.584-1.569,4.218,4.218,0,0,1,1,.144Z" transform="translate(725.161 3089.026)" fill="#0a5997"/>
  </g>
</svg>
