<svg xmlns="http://www.w3.org/2000/svg" width="255" height="236" viewBox="0 0 255 236">
  <g id="Grupo_880822" data-name="Grupo 880822" transform="translate(-462.666 -2877)">
    <g id="Grupo_880679" data-name="Grupo 880679" transform="translate(-695.334 679.415)">
      <g id="Grupo_880678" data-name="Grupo 880678" transform="translate(1158 2197.585)">
        <g id="Grupo_880510" data-name="Grupo 880510" transform="translate(0 0)">
          <circle id="Elipse_5208" data-name="Elipse 5208" cx="78.729" cy="78.729" r="78.729" transform="translate(0 111.339) rotate(-45)" fill="#ffd55a"/>
        </g>
        <g id="Grupo_880511" data-name="Grupo 880511" transform="translate(41.418 56.003)">
          <path id="Trazado_605176" data-name="Trazado 605176" d="M167.793,723.425v-78.5H105.529v4.809H39.523v67.65H78.069v10.2H63.109v5.852h55.648V727.59H102.2v-10.2h3.329v6.037Z" transform="translate(-39.523 -644.929)" fill="#7eb9e7"/>
        </g>
        <g id="Grupo_880562" data-name="Grupo 880562" transform="translate(46.965 58.185)">
          <g id="Grupo_880512" data-name="Grupo 880512" transform="translate(0 5.344)">
            <path id="Trazado_605177" data-name="Trazado 605177" d="M111.76,719.037H44.678V651.923H111.76Zm-66.006-1.076h64.93V653H45.754Z" transform="translate(-44.678 -651.923)"/>
          </g>
          <g id="Grupo_880513" data-name="Grupo 880513" transform="translate(0 4.81)">
            <path id="Trazado_605178" data-name="Trazado 605178" d="M111.76,710.022H44.678v-58.6H111.76Zm-66.006-1.076h64.93V652.5H45.754Z" transform="translate(-44.678 -651.426)"/>
          </g>
          <g id="Grupo_880514" data-name="Grupo 880514" transform="translate(5.419 10.2)">
            <path id="Trazado_605179" data-name="Trazado 605179" d="M111.376,704.3H49.713V656.435h61.663Zm-60.587-1.076H110.3V657.511H50.789Z" transform="translate(-49.713 -656.435)"/>
          </g>
          <g id="Grupo_880515" data-name="Grupo 880515" transform="translate(23.586 82.662)">
            <path id="Trazado_605180" data-name="Trazado 605180" d="M122.242,729.617H66.594v-5.85h55.648ZM67.67,728.541h53.5v-3.7H67.67Z" transform="translate(-66.594 -723.767)"/>
          </g>
          <g id="Grupo_880516" data-name="Grupo 880516" transform="translate(38.546 71.921)">
            <path id="Trazado_605181" data-name="Trazado 605181" d="M104.626,725.6H80.5V713.786h1.076v10.741H103.55V713.786h1.076Z" transform="translate(-80.495 -713.786)"/>
          </g>
          <g id="Grupo_880517" data-name="Grupo 880517" transform="translate(47.673 64.213)">
            <path id="Trazado_605182" data-name="Trazado 605182" d="M91.656,711.986a2.681,2.681,0,1,1,2.682-2.681A2.683,2.683,0,0,1,91.656,711.986Zm0-4.285a1.6,1.6,0,1,0,1.606,1.6A1.606,1.606,0,0,0,91.656,707.7Z" transform="translate(-88.976 -706.624)"/>
          </g>
          <g id="Grupo_880518" data-name="Grupo 880518" transform="translate(10.142 14.706)">
            <path id="Trazado_605183" data-name="Trazado 605183" d="M76.808,676.021H54.1v-15.4H76.808Zm-21.63-1.076H75.732V661.7H55.178Z" transform="translate(-54.102 -660.622)"/>
          </g>
          <g id="Grupo_880519" data-name="Grupo 880519" transform="translate(38.136 14.706)">
            <rect id="Rectángulo_296926" data-name="Rectángulo 296926" width="28.389" height="1.076"/>
          </g>
          <g id="Grupo_880520" data-name="Grupo 880520" transform="translate(38.136 28.093)">
            <rect id="Rectángulo_296927" data-name="Rectángulo 296927" width="28.389" height="1.076"/>
          </g>
          <g id="Grupo_880521" data-name="Grupo 880521" transform="translate(66.006)">
            <path id="Trazado_605184" data-name="Trazado 605184" d="M168.275,725.453H106.011v-78.5h62.264Zm-61.188-1.076H167.2V648.033H107.087Z" transform="translate(-106.011 -646.957)"/>
          </g>
          <g id="Grupo_880522" data-name="Grupo 880522" transform="translate(72.092 10.003)">
            <path id="Trazado_605185" data-name="Trazado 605185" d="M164.063,721.01h-52.4v-4.144h1.076v3.068h50.245V657.328h-2.869v-1.076h3.945Z" transform="translate(-111.666 -656.252)"/>
          </g>
          <g id="Grupo_880523" data-name="Grupo 880523" transform="translate(70.188 7.902)">
            <path id="Trazado_605186" data-name="Trazado 605186" d="M160.79,717.555H109.9V654.3H160.79Zm-49.817-1.076h48.741v-61.1H110.973Z" transform="translate(-109.897 -654.3)"/>
          </g>
          <g id="Grupo_880524" data-name="Grupo 880524" transform="translate(78.999 3.498)">
            <path id="Trazado_605187" data-name="Trazado 605187" d="M142.694,662.086H128.812l.007-2.506H118.084v-9.374h5.233v1.076H119.16V658.5H129.9l-.007,2.505h11.726V658.5h11.669v-7.221H149.13v-1.076h5.233v9.374H142.694Z" transform="translate(-118.084 -650.207)"/>
          </g>
          <g id="Grupo_880525" data-name="Grupo 880525" transform="translate(83.694 0.679)">
            <path id="Trazado_605188" data-name="Trazado 605188" d="M149.336,655.888H122.447v-8.3h26.889Zm-25.812-1.076h24.736v-6.147H123.523Z" transform="translate(-122.447 -647.588)"/>
          </g>
          <g id="Grupo_880532" data-name="Grupo 880532" transform="translate(74.837 18.193)">
            <g id="Grupo_880530" data-name="Grupo 880530">
              <g id="Grupo_880526" data-name="Grupo 880526" transform="translate(14.711 3.229)">
                <rect id="Rectángulo_296928" data-name="Rectángulo 296928" width="26.506" height="1.076"/>
              </g>
              <g id="Grupo_880529" data-name="Grupo 880529">
                <g id="Grupo_880527" data-name="Grupo 880527">
                  <path id="Trazado_605189" data-name="Trazado 605189" d="M119.486,674.4a5.27,5.27,0,1,1,5.27-5.269A5.275,5.275,0,0,1,119.486,674.4Zm0-9.463a4.193,4.193,0,1,0,4.194,4.194A4.2,4.2,0,0,0,119.486,664.938Z" transform="translate(-114.217 -663.862)"/>
                </g>
                <g id="Grupo_880528" data-name="Grupo 880528" transform="translate(2.422 2.806)">
                  <path id="Trazado_605190" data-name="Trazado 605190" d="M119.35,671.308l-2.883-2.848.757-.765,2,1.972,2.349-3.2.867.637Z" transform="translate(-116.467 -666.47)"/>
                </g>
              </g>
            </g>
            <g id="Grupo_880531" data-name="Grupo 880531" transform="translate(14.711 6.732)">
              <rect id="Rectángulo_296929" data-name="Rectángulo 296929" width="18.988" height="1.076"/>
            </g>
          </g>
          <g id="Grupo_880539" data-name="Grupo 880539" transform="translate(74.837 52.687)">
            <g id="Grupo_880535" data-name="Grupo 880535">
              <g id="Grupo_880533" data-name="Grupo 880533">
                <path id="Trazado_605191" data-name="Trazado 605191" d="M119.486,706.453a5.27,5.27,0,1,1,5.27-5.27A5.275,5.275,0,0,1,119.486,706.453Zm0-9.463a4.193,4.193,0,1,0,4.194,4.193A4.2,4.2,0,0,0,119.486,696.99Z" transform="translate(-114.217 -695.914)"/>
              </g>
              <g id="Grupo_880534" data-name="Grupo 880534" transform="translate(2.422 2.806)">
                <path id="Trazado_605192" data-name="Trazado 605192" d="M119.35,703.36l-2.882-2.849.757-.765,2,1.973,2.349-3.2.867.637Z" transform="translate(-116.467 -698.521)"/>
              </g>
            </g>
            <g id="Grupo_880538" data-name="Grupo 880538" transform="translate(14.711 3.163)">
              <g id="Grupo_880536" data-name="Grupo 880536">
                <rect id="Rectángulo_296930" data-name="Rectángulo 296930" width="26.506" height="1.076"/>
              </g>
              <g id="Grupo_880537" data-name="Grupo 880537" transform="translate(0 3.717)">
                <rect id="Rectángulo_296931" data-name="Rectángulo 296931" width="18.988" height="1.076"/>
              </g>
            </g>
          </g>
          <g id="Grupo_880546" data-name="Grupo 880546" transform="translate(74.837 36.361)">
            <g id="Grupo_880544" data-name="Grupo 880544">
              <g id="Grupo_880540" data-name="Grupo 880540" transform="translate(14.711 3.228)">
                <rect id="Rectángulo_296932" data-name="Rectángulo 296932" width="26.506" height="1.076"/>
              </g>
              <g id="Grupo_880543" data-name="Grupo 880543">
                <g id="Grupo_880541" data-name="Grupo 880541">
                  <path id="Trazado_605193" data-name="Trazado 605193" d="M119.486,691.283a5.27,5.27,0,1,1,5.27-5.269A5.275,5.275,0,0,1,119.486,691.283Zm0-9.463a4.193,4.193,0,1,0,4.194,4.194A4.2,4.2,0,0,0,119.486,681.82Z" transform="translate(-114.217 -680.744)"/>
                </g>
                <g id="Grupo_880542" data-name="Grupo 880542" transform="translate(2.422 2.806)">
                  <path id="Trazado_605194" data-name="Trazado 605194" d="M119.35,688.19l-2.882-2.849.757-.765,2,1.973,2.349-3.2.867.637Z" transform="translate(-116.467 -683.352)"/>
                </g>
              </g>
            </g>
            <g id="Grupo_880545" data-name="Grupo 880545" transform="translate(14.711 6.73)">
              <rect id="Rectángulo_296933" data-name="Rectángulo 296933" width="18.988" height="1.076"/>
            </g>
          </g>
          <g id="Grupo_880547" data-name="Grupo 880547" transform="translate(16.985 18.288)">
            <path id="Trazado_605195" data-name="Trazado 605195" d="M64.994,673.017a4.533,4.533,0,1,1,4.533-4.533A4.539,4.539,0,0,1,64.994,673.017Zm0-7.991a3.457,3.457,0,1,0,3.457,3.458A3.462,3.462,0,0,0,64.994,665.026Z" transform="translate(-60.461 -663.95)"/>
          </g>
          <g id="Grupo_880553" data-name="Grupo 880553" transform="translate(10.142 33.631)">
            <g id="Grupo_880548" data-name="Grupo 880548">
              <path id="Trazado_605196" data-name="Trazado 605196" d="M76.808,698.194H54.1V678.207H76.808Zm-21.63-1.076H75.732V679.283H55.178Z" transform="translate(-54.102 -678.207)"/>
            </g>
            <g id="Grupo_880549" data-name="Grupo 880549">
              <path id="Trazado_605197" data-name="Trazado 605197" d="M76.808,684.776H54.1v-6.569H76.808ZM55.178,683.7H75.732v-4.417H55.178Z" transform="translate(-54.102 -678.207)"/>
            </g>
            <g id="Grupo_880552" data-name="Grupo 880552" transform="translate(4.352 10.519)">
              <g id="Grupo_880550" data-name="Grupo 880550">
                <rect id="Rectángulo_296934" data-name="Rectángulo 296934" width="14.08" height="1.076"/>
              </g>
              <g id="Grupo_880551" data-name="Grupo 880551" transform="translate(0 3.769)">
                <rect id="Rectángulo_296935" data-name="Rectángulo 296935" width="14.08" height="1.076"/>
              </g>
            </g>
          </g>
          <g id="Grupo_880554" data-name="Grupo 880554" transform="translate(38.136 19.169)">
            <rect id="Rectángulo_296936" data-name="Rectángulo 296936" width="28.389" height="1.076"/>
          </g>
          <g id="Grupo_880555" data-name="Grupo 880555" transform="translate(38.136 23.631)">
            <rect id="Rectángulo_296937" data-name="Rectángulo 296937" width="28.389" height="1.076"/>
          </g>
          <g id="Grupo_880561" data-name="Grupo 880561" transform="translate(37.598 33.631)">
            <g id="Grupo_880556" data-name="Grupo 880556">
              <path id="Trazado_605198" data-name="Trazado 605198" d="M102.32,698.194H79.614V678.207H102.32Zm-21.63-1.076h20.554V679.283H80.69Z" transform="translate(-79.614 -678.207)"/>
            </g>
            <g id="Grupo_880557" data-name="Grupo 880557">
              <path id="Trazado_605199" data-name="Trazado 605199" d="M102.32,684.776H79.614v-6.569H102.32ZM80.69,683.7h20.554v-4.417H80.69Z" transform="translate(-79.614 -678.207)"/>
            </g>
            <g id="Grupo_880560" data-name="Grupo 880560" transform="translate(4.352 10.519)">
              <g id="Grupo_880558" data-name="Grupo 880558">
                <rect id="Rectángulo_296938" data-name="Rectángulo 296938" width="14.08" height="1.076"/>
              </g>
              <g id="Grupo_880559" data-name="Grupo 880559" transform="translate(0 3.769)">
                <rect id="Rectángulo_296939" data-name="Rectángulo 296939" width="14.08" height="1.076"/>
              </g>
            </g>
          </g>
        </g>
        <g id="Grupo_880563" data-name="Grupo 880563" transform="translate(22.577 141.561)">
          <rect id="Rectángulo_296940" data-name="Rectángulo 296940" width="36.84" height="45.864" fill="#7eb9e7"/>
        </g>
        <g id="Grupo_880572" data-name="Grupo 880572" transform="translate(25.719 143.008)">
          <g id="Grupo_880564" data-name="Grupo 880564">
            <path id="Trazado_605200" data-name="Trazado 605200" d="M62.166,773.911H24.936V725.775h37.23Zm-36.153-1.076H61.089V726.851H26.012Z" transform="translate(-24.936 -725.775)"/>
          </g>
          <g id="Grupo_880565" data-name="Grupo 880565" transform="translate(4.87 21.739)">
            <path id="Trazado_605201" data-name="Trazado 605201" d="M56.95,752.128H29.461v-6.153H56.95Zm-26.413-1.076H55.874v-4H30.537Z" transform="translate(-29.461 -745.975)"/>
          </g>
          <g id="Grupo_880566" data-name="Grupo 880566" transform="translate(4.87 29.545)">
            <path id="Trazado_605202" data-name="Trazado 605202" d="M56.95,759.381H29.461v-6.153H56.95ZM30.537,758.3H55.874v-4H30.537Z" transform="translate(-29.461 -753.228)"/>
          </g>
          <g id="Grupo_880567" data-name="Grupo 880567" transform="translate(4.688 37.202)">
            <path id="Trazado_605203" data-name="Trazado 605203" d="M56.963,767.425H29.292v-7.082H56.963Zm-26.595-1.076H55.887v-4.93H30.368Z" transform="translate(-29.292 -760.343)"/>
          </g>
          <g id="Grupo_880568" data-name="Grupo 880568" transform="translate(10.323 4.677)">
            <rect id="Rectángulo_296941" data-name="Rectángulo 296941" width="16.479" height="1.076"/>
          </g>
          <g id="Grupo_880569" data-name="Grupo 880569" transform="translate(30.164)">
            <path id="Trazado_605204" data-name="Trazado 605204" d="M60.03,732.84H52.965v-7.065H60.03Zm-5.989-1.076h4.913v-4.913H54.041Z" transform="translate(-52.965 -725.775)"/>
          </g>
          <g id="Grupo_880570" data-name="Grupo 880570" transform="translate(13.013 7.667)">
            <path id="Trazado_605205" data-name="Trazado 605205" d="M42.8,744.445a5.773,5.773,0,1,1,5.773-5.773A5.779,5.779,0,0,1,42.8,744.445Zm0-10.47a4.7,4.7,0,1,0,4.7,4.7A4.7,4.7,0,0,0,42.8,733.975Z" transform="translate(-37.028 -732.899)"/>
          </g>
          <g id="Grupo_880571" data-name="Grupo 880571" transform="translate(12.599 40.205)">
            <rect id="Rectángulo_296942" data-name="Rectángulo 296942" width="12.642" height="1.076"/>
          </g>
        </g>
        <g id="Grupo_880576" data-name="Grupo 880576" transform="translate(173.474 27.34)">
          <g id="Grupo_880573" data-name="Grupo 880573" transform="translate(38.059)">
            <rect id="Rectángulo_296943" data-name="Rectángulo 296943" width="1.076" height="52.357" fill="#7eb9e7"/>
          </g>
          <g id="Grupo_880574" data-name="Grupo 880574" transform="translate(40.752 2.865)">
            <path id="Trazado_605206" data-name="Trazado 605206" d="M230.176,638.436V620.958H200.1v45.255h30.078V652.1a6.835,6.835,0,0,0,0-13.662Z" transform="translate(-200.098 -620.958)" fill="#7eb9e7"/>
          </g>
          <g id="Grupo_880575" data-name="Grupo 880575" transform="translate(0 2.831)">
            <path id="Trazado_605207" data-name="Trazado 605207" d="M168.594,620.926v17.525a6.835,6.835,0,0,0,0,13.637v14.127h30.078V620.926H168.594Z" transform="translate(-162.231 -620.926)" fill="#7eb9e7"/>
          </g>
        </g>
        <g id="Grupo_880601" data-name="Grupo 880601" transform="translate(176.823 29.202)">
          <g id="Grupo_880577" data-name="Grupo 880577" transform="translate(6.364 33.481)">
            <path id="Trazado_605208" data-name="Trazado 605208" d="M200.656,665.776h-29.4V651.137h1.076V664.7h28.324Z" transform="translate(-171.256 -651.137)"/>
          </g>
          <g id="Grupo_880578" data-name="Grupo 880578" transform="translate(41.29 33.899)">
            <path id="Trazado_605209" data-name="Trazado 605209" d="M233.25,665.746H203.71V664.67h28.464V651.525h1.076Z" transform="translate(-203.71 -651.525)"/>
          </g>
          <g id="Grupo_880579" data-name="Grupo 880579" transform="translate(40.752 2.866)">
            <path id="Trazado_605210" data-name="Trazado 605210" d="M204.286,667.4H203.21V622.69h30.079v17.462h-1.076V623.766H204.286Z" transform="translate(-203.21 -622.69)"/>
          </g>
          <g id="Grupo_880580" data-name="Grupo 880580" transform="translate(6.364 2.832)">
            <path id="Trazado_605211" data-name="Trazado 605211" d="M172.332,640.66h-1.076v-18h29v1.076H172.332Z" transform="translate(-171.256 -622.657)"/>
          </g>
          <g id="Grupo_880581" data-name="Grupo 880581" transform="translate(9.013 5.086)">
            <path id="Trazado_605212" data-name="Trazado 605212" d="M174.541,624.752a.823.823,0,1,0,.823.823.823.823,0,0,0-.823-.823Z" transform="translate(-173.718 -624.752)"/>
          </g>
          <g id="Grupo_880582" data-name="Grupo 880582" transform="translate(11.626 5.086)">
            <path id="Trazado_605213" data-name="Trazado 605213" d="M176.969,624.752a.823.823,0,1,0,.823.823.823.823,0,0,0-.823-.823Z" transform="translate(-176.146 -624.752)"/>
          </g>
          <g id="Grupo_880583" data-name="Grupo 880583" transform="translate(18.359 18.205)">
            <path id="Trazado_605214" data-name="Trazado 605214" d="M184.831,636.942h2.551l2.429,7.974h-2.232l-.393-1.694h-2.233l-.392,1.694H182.4Zm.5,4.65h1.472l-.136-.552c-.2-.761-.393-1.729-.589-2.528h-.05c-.171.81-.367,1.767-.564,2.528Z" transform="translate(-182.402 -636.942)"/>
          </g>
          <g id="Grupo_880584" data-name="Grupo 880584" transform="translate(15.792 31.41)">
            <path id="Trazado_605215" data-name="Trazado 605215" d="M181.849,650.357h-1.832v-.97h3.056v.715a4.774,4.774,0,0,0-1.171,3.554h-1.158A5.475,5.475,0,0,1,181.849,650.357Z" transform="translate(-180.017 -649.199)"/>
            <path id="Trazado_605216" data-name="Trazado 605216" d="M183.351,653c1.011-.929,1.791-1.642,1.791-2.221a.5.5,0,0,0-.525-.566,1.052,1.052,0,0,0-.7.4L183.3,650a1.849,1.849,0,0,1,1.481-.686,1.361,1.361,0,0,1,1.469,1.4,3.537,3.537,0,0,1-1.226,2.034,6.892,6.892,0,0,1,.714-.054h.714v.969h-3.1Z" transform="translate(-179.767 -649.204)"/>
            <path id="Trazado_605217" data-name="Trazado 605217" d="M186.64,650.6c0-.875.484-1.387,1.131-1.387s1.131.512,1.131,1.387-.485,1.4-1.131,1.4S186.64,651.475,186.64,650.6Zm1.468,0c0-.593-.161-.754-.337-.754s-.337.161-.337.754.161.767.337.767S188.108,651.191,188.108,650.6Zm2.169-1.387h.646l-2.343,4.538h-.647Zm-.337,3.137c0-.874.484-1.386,1.13-1.386s1.132.512,1.132,1.386-.485,1.4-1.132,1.4S189.94,653.224,189.94,652.349Zm1.467,0c0-.592-.161-.753-.337-.753s-.336.161-.336.753.161.768.336.768S191.406,652.942,191.406,652.349Z" transform="translate(-179.512 -649.212)"/>
          </g>
          <g id="Grupo_880587" data-name="Grupo 880587" transform="translate(0 20.331)">
            <g id="Grupo_880585" data-name="Grupo 880585">
              <path id="Trazado_605218" data-name="Trazado 605218" d="M172.188,652.606a6.844,6.844,0,1,1,6.842-6.845A6.852,6.852,0,0,1,172.188,652.606Zm0-12.612a5.768,5.768,0,1,0,5.766,5.767A5.775,5.775,0,0,0,172.188,639.994Z" transform="translate(-165.343 -638.918)"/>
            </g>
            <g id="Grupo_880586" data-name="Grupo 880586" transform="translate(3.175 3.667)">
              <path id="Trazado_605219" data-name="Trazado 605219" d="M171.988,648.394l-3.695-3.65.757-.765,2.808,2.774,3.253-4.428.867.637Z" transform="translate(-168.293 -642.325)"/>
            </g>
          </g>
          <g id="Grupo_880588" data-name="Grupo 880588" transform="translate(52.683 18.205)">
            <path id="Trazado_605220" data-name="Trazado 605220" d="M214.3,636.942h2.87c1.669,0,3.019.418,3.019,1.988a1.9,1.9,0,0,1-1.006,1.718v.049a1.815,1.815,0,0,1,1.373,1.864c0,1.643-1.423,2.356-3.14,2.356H214.3Zm2.822,3.117c.687,0,1.005-.32,1.005-.809s-.319-.688-1.005-.688h-.711v1.5Zm.147,3.238c.834,0,1.226-.295,1.226-.884s-.392-.809-1.226-.809h-.859V643.3Z" transform="translate(-214.296 -636.942)"/>
          </g>
          <g id="Grupo_880589" data-name="Grupo 880589" transform="translate(49.43 31.409)">
            <path id="Trazado_605221" data-name="Trazado 605221" d="M211.274,652.725h.916v-2.207h-.808V649.8a3.026,3.026,0,0,0,1.118-.418h.848v3.339h.768v.93h-2.842Z" transform="translate(-211.274 -649.198)"/>
            <path id="Trazado_605222" data-name="Trazado 605222" d="M214.471,653c1.009-.929,1.791-1.642,1.791-2.221a.5.5,0,0,0-.525-.566,1.05,1.05,0,0,0-.7.4l-.62-.619a1.85,1.85,0,0,1,1.481-.687,1.361,1.361,0,0,1,1.468,1.4,3.539,3.539,0,0,1-1.225,2.034,6.867,6.867,0,0,1,.714-.055h.714v.971h-3.1Z" transform="translate(-211.035 -649.203)"/>
            <path id="Trazado_605223" data-name="Trazado 605223" d="M217.76,650.6c0-.876.484-1.387,1.13-1.387s1.132.511,1.132,1.387-.485,1.4-1.132,1.4S217.76,651.474,217.76,650.6Zm1.467,0c0-.593-.161-.754-.337-.754s-.336.161-.336.754.161.767.336.767S219.227,651.191,219.227,650.6Zm2.169-1.387h.647l-2.344,4.538h-.646Zm-.337,3.137c0-.874.485-1.386,1.131-1.386s1.131.512,1.131,1.386-.484,1.4-1.131,1.4S221.059,653.224,221.059,652.348Zm1.468,0c0-.592-.161-.753-.337-.753s-.337.161-.337.753.161.768.337.768S222.526,652.941,222.526,652.348Z" transform="translate(-210.78 -649.211)"/>
          </g>
          <g id="Grupo_880590" data-name="Grupo 880590" transform="translate(35.366 3.37)">
            <rect id="Rectángulo_296944" data-name="Rectángulo 296944" width="1.076" height="44.247"/>
          </g>
          <g id="Grupo_880591" data-name="Grupo 880591" transform="translate(38.059)">
            <path id="Trazado_605224" data-name="Trazado 605224" d="M201.784,672.385h-1.076v-.7h1.076Zm0-1.778h-1.076v-2.152h1.076Zm0-3.229h-1.076v-2.152h1.076Zm0-3.229h-1.076V662h1.076Zm0-3.229h-1.076v-2.152h1.076Zm0-3.229h-1.076V655.54h1.076Zm0-3.229h-1.076v-2.152h1.076Zm0-3.229h-1.076v-2.152h1.076Zm0-3.229h-1.076v-2.152h1.076Zm0-3.229h-1.076v-2.152h1.076Zm0-3.229h-1.076V639.4h1.076Zm0-3.229h-1.076v-2.152h1.076Zm0-3.229h-1.076V632.94h1.076Zm0-3.229h-1.076v-2.152h1.076Zm0-3.229h-1.076v-2.152h1.076Zm0-3.229h-1.076v-2.152h1.076Zm0-3.229h-1.076v-2.152h1.076Z" transform="translate(-200.708 -620.026)"/>
          </g>
          <g id="Grupo_880596" data-name="Grupo 880596" transform="translate(63.744 20.331)">
            <g id="Grupo_880592" data-name="Grupo 880592">
              <path id="Trazado_605225" data-name="Trazado 605225" d="M231.417,652.606a6.844,6.844,0,1,1,6.843-6.845A6.852,6.852,0,0,1,231.417,652.606Zm0-12.612a5.768,5.768,0,1,0,5.767,5.767A5.773,5.773,0,0,0,231.417,639.994Z" transform="translate(-224.574 -638.918)"/>
            </g>
            <g id="Grupo_880595" data-name="Grupo 880595" transform="translate(4.379 4.227)">
              <g id="Grupo_880593" data-name="Grupo 880593" transform="translate(0)">
                <rect id="Rectángulo_296945" data-name="Rectángulo 296945" width="6.117" height="1.076" transform="matrix(0.676, -0.737, 0.737, 0.676, 0, 4.507)"/>
              </g>
              <g id="Grupo_880594" data-name="Grupo 880594" transform="translate(0 0)">
                <rect id="Rectángulo_296946" data-name="Rectángulo 296946" width="1.076" height="6.117" transform="translate(0 0.727) rotate(-42.549)"/>
              </g>
            </g>
          </g>
          <g id="Grupo_880597" data-name="Grupo 880597" transform="translate(44.363 5.086)">
            <circle id="Elipse_5209" data-name="Elipse 5209" cx="0.823" cy="0.823" r="0.823"/>
          </g>
          <g id="Grupo_880598" data-name="Grupo 880598" transform="translate(46.975 5.086)">
            <circle id="Elipse_5210" data-name="Elipse 5210" cx="0.823" cy="0.823" r="0.823"/>
          </g>
          <g id="Grupo_880599" data-name="Grupo 880599" transform="translate(40.752 2.867)">
            <path id="Trazado_605226" data-name="Trazado 605226" d="M233.288,628.844H203.21V622.69h30.078Zm-29-1.076h27.926v-4H204.286Z" transform="translate(-203.21 -622.69)"/>
          </g>
          <g id="Grupo_880600" data-name="Grupo 880600" transform="translate(6.363 2.831)">
            <path id="Trazado_605227" data-name="Trazado 605227" d="M201.335,628.812H171.256v-6.155h30.079Zm-29-1.076h27.927v-4H172.332Z" transform="translate(-171.256 -622.657)"/>
          </g>
        </g>
        <g id="Grupo_880603" data-name="Grupo 880603" transform="translate(94.845 163.586)">
          <g id="Grupo_880602" data-name="Grupo 880602">
            <path id="Trazado_605228" data-name="Trazado 605228" d="M117.686,745.972H115V744.9h2.689Zm-5.918,0h-3.229V744.9h3.229Zm-6.457,0h-3.229V744.9h3.229Zm-6.457,0H95.625V744.9h3.229Zm-6.457,0H89.168V744.9H92.4Z" transform="translate(-89.168 -744.896)"/>
          </g>
        </g>
        <g id="Grupo_880604" data-name="Grupo 880604" transform="translate(147.053 131.046)">
          <path id="Trazado_605229" data-name="Trazado 605229" d="M219.573,758.452l0,0-9.437-11.325h7.326V714.66h-46.67v10.916h-17.8V736.7H137.68V768.06h46.67V758.045h15.306v-9.619a15.467,15.467,0,0,0,3.221-1.835h.105l2.224,2.879-.969.807,10.3,12.365,0,0,2.836,3.4,5.033-4.193Z" transform="translate(-137.68 -714.66)" fill="#7eb9e7"/>
        </g>
        <g id="Grupo_880654" data-name="Grupo 880654" transform="translate(149.2 132.192)">
          <g id="Grupo_880619" data-name="Grupo 880619" transform="translate(0 22.038)">
            <g id="Grupo_880615" data-name="Grupo 880615">
              <g id="Grupo_880613" data-name="Grupo 880613">
                <g id="Grupo_880609" data-name="Grupo 880609">
                  <g id="Grupo_880605" data-name="Grupo 880605" transform="translate(0 0.082)">
                    <path id="Trazado_605230" data-name="Trazado 605230" d="M186.345,767.559h-46.67V736.278h15.844v1.076H140.751v29.129h44.518v-9.12h1.076Z" transform="translate(-139.675 -736.278)"/>
                  </g>
                  <g id="Grupo_880606" data-name="Grupo 880606" transform="translate(0)">
                    <path id="Trazado_605231" data-name="Trazado 605231" d="M156.057,743.376H139.675V736.2h16.382ZM140.751,742.3h14.229v-5.021H140.751Z" transform="translate(-139.675 -736.202)"/>
                  </g>
                  <g id="Grupo_880607" data-name="Grupo 880607" transform="translate(3.038 2.612)">
                    <path id="Trazado_605232" data-name="Trazado 605232" d="M144.449,739.6a.976.976,0,1,1-.975-.975A.976.976,0,0,1,144.449,739.6Z" transform="translate(-142.498 -738.629)"/>
                  </g>
                  <g id="Grupo_880608" data-name="Grupo 880608" transform="translate(6.132 2.612)">
                    <path id="Trazado_605233" data-name="Trazado 605233" d="M147.324,739.6a.976.976,0,1,1-.975-.975A.976.976,0,0,1,147.324,739.6Z" transform="translate(-145.373 -738.629)"/>
                  </g>
                </g>
                <g id="Grupo_880610" data-name="Grupo 880610" transform="translate(4.878 10.346)">
                  <rect id="Rectángulo_296947" data-name="Rectángulo 296947" width="10.967" height="1.076"/>
                </g>
                <g id="Grupo_880611" data-name="Grupo 880611" transform="translate(4.878 17.856)">
                  <rect id="Rectángulo_296948" data-name="Rectángulo 296948" width="11.434" height="1.076"/>
                </g>
                <g id="Grupo_880612" data-name="Grupo 880612" transform="translate(4.975 14.101)">
                  <rect id="Rectángulo_296949" data-name="Rectángulo 296949" width="6.793" height="1.076"/>
                </g>
              </g>
              <g id="Grupo_880614" data-name="Grupo 880614" transform="translate(4.878 21.835)">
                <rect id="Rectángulo_296950" data-name="Rectángulo 296950" width="17.258" height="1.076"/>
              </g>
            </g>
            <g id="Grupo_880616" data-name="Grupo 880616" transform="translate(4.878 25.74)">
              <rect id="Rectángulo_296951" data-name="Rectángulo 296951" width="8.232" height="1.076"/>
            </g>
            <g id="Grupo_880617" data-name="Grupo 880617" transform="translate(16.05 25.74)">
              <rect id="Rectángulo_296952" data-name="Rectángulo 296952" width="5.515" height="1.076"/>
            </g>
            <g id="Grupo_880618" data-name="Grupo 880618" transform="translate(23.563 25.74)">
              <rect id="Rectángulo_296953" data-name="Rectángulo 296953" width="11.746" height="1.076"/>
            </g>
          </g>
          <g id="Grupo_880625" data-name="Grupo 880625" transform="translate(33.109)">
            <g id="Grupo_880624" data-name="Grupo 880624">
              <g id="Grupo_880620" data-name="Grupo 880620" transform="translate(0 0.082)">
                <path id="Trazado_605234" data-name="Trazado 605234" d="M217.11,748.188H207.026v-1.076h9.008V716.877H171.516v30.235h13.677v1.076H170.44V715.8h46.67Z" transform="translate(-170.44 -715.801)"/>
              </g>
              <g id="Grupo_880621" data-name="Grupo 880621">
                <path id="Trazado_605235" data-name="Trazado 605235" d="M217.11,722.9H201.356v-1.076h14.678V716.8H171.516v5.023h14.106V722.9H170.44v-7.175h46.67Z" transform="translate(-170.44 -715.725)"/>
              </g>
              <g id="Grupo_880622" data-name="Grupo 880622" transform="translate(3.039 2.612)">
                <path id="Trazado_605236" data-name="Trazado 605236" d="M175.214,719.127a.975.975,0,1,1-.975-.975A.974.974,0,0,1,175.214,719.127Z" transform="translate(-173.264 -718.152)"/>
              </g>
              <g id="Grupo_880623" data-name="Grupo 880623" transform="translate(6.133 2.612)">
                <path id="Trazado_605237" data-name="Trazado 605237" d="M178.089,719.127a.975.975,0,1,1-.975-.975A.974.974,0,0,1,178.089,719.127Z" transform="translate(-176.139 -718.152)"/>
              </g>
            </g>
          </g>
          <g id="Grupo_880639" data-name="Grupo 880639" transform="translate(15.306 10.916)">
            <g id="Grupo_880637" data-name="Grupo 880637">
              <g id="Grupo_880630" data-name="Grupo 880630">
                <g id="Grupo_880626" data-name="Grupo 880626" transform="translate(0.001 0.082)">
                  <path id="Trazado_605238" data-name="Trazado 605238" d="M200.568,758.331H153.9V725.944h18.341v1.076H154.974v30.234h44.518v-8.611h1.076Z" transform="translate(-153.897 -725.944)"/>
                </g>
                <g id="Grupo_880627" data-name="Grupo 880627">
                  <path id="Trazado_605239" data-name="Trazado 605239" d="M172.777,733.042H153.9v-7.174h18.88Zm-17.8-1.076H171.7v-5.022H154.973Z" transform="translate(-153.897 -725.868)"/>
                </g>
                <g id="Grupo_880628" data-name="Grupo 880628" transform="translate(3.039 2.612)">
                  <path id="Trazado_605240" data-name="Trazado 605240" d="M158.672,729.27a.976.976,0,1,1-.976-.975A.975.975,0,0,1,158.672,729.27Z" transform="translate(-156.721 -728.295)"/>
                </g>
                <g id="Grupo_880629" data-name="Grupo 880629" transform="translate(6.133 2.612)">
                  <path id="Trazado_605241" data-name="Trazado 605241" d="M161.547,729.27a.976.976,0,1,1-.976-.975A.975.975,0,0,1,161.547,729.27Z" transform="translate(-159.596 -728.295)"/>
                </g>
              </g>
              <g id="Grupo_880631" data-name="Grupo 880631" transform="translate(4.878 10.345)">
                <rect id="Rectángulo_296954" data-name="Rectángulo 296954" width="13.198" height="1.076"/>
              </g>
              <g id="Grupo_880632" data-name="Grupo 880632" transform="translate(4.878 17.856)">
                <rect id="Rectángulo_296955" data-name="Rectángulo 296955" width="11.434" height="1.076"/>
              </g>
              <g id="Grupo_880633" data-name="Grupo 880633" transform="translate(4.878 21.611)">
                <rect id="Rectángulo_296956" data-name="Rectángulo 296956" width="7.722" height="1.076"/>
              </g>
              <g id="Grupo_880634" data-name="Grupo 880634" transform="translate(4.878 25.367)">
                <rect id="Rectángulo_296957" data-name="Rectángulo 296957" width="12.155" height="1.076"/>
              </g>
              <g id="Grupo_880635" data-name="Grupo 880635" transform="translate(18.076 25.367)">
                <rect id="Rectángulo_296958" data-name="Rectángulo 296958" width="4.742" height="1.076"/>
              </g>
              <g id="Grupo_880636" data-name="Grupo 880636" transform="translate(5.229 14.101)">
                <rect id="Rectángulo_296959" data-name="Rectángulo 296959" width="6.793" height="1.076"/>
              </g>
            </g>
            <g id="Grupo_880638" data-name="Grupo 880638" transform="translate(23.904 25.367)">
              <rect id="Rectángulo_296960" data-name="Rectángulo 296960" width="17.349" height="1.076"/>
            </g>
          </g>
          <g id="Grupo_880640" data-name="Grupo 880640" transform="translate(40.654 4.092)">
            <path id="Trazado_605242" data-name="Trazado 605242" d="M192.876,750.377A15.425,15.425,0,1,1,208.3,734.952,15.442,15.442,0,0,1,192.876,750.377Zm0-29.774a14.349,14.349,0,1,0,14.349,14.349A14.366,14.366,0,0,0,192.876,720.6Z" transform="translate(-177.451 -719.527)"/>
          </g>
          <g id="Grupo_880641" data-name="Grupo 880641" transform="translate(64.803 28.787)">
            <path id="Trazado_605243" data-name="Trazado 605243" d="M203.258,749.333l-3.368-4.363,3-2.5,3.368,4.359Zm-1.882-4.2,2.052,2.657,1.342-1.119-2.051-2.657Z" transform="translate(-199.89 -742.474)"/>
          </g>
          <g id="Grupo_880642" data-name="Grupo 880642" transform="translate(76.828 43.754)">
            <path id="Trazado_605244" data-name="Trazado 605244" d="M213.9,763.978l-2.836-3.4,5.033-4.193,2.836,3.4Zm-1.32-3.265,1.458,1.75,3.38-2.816-1.458-1.75Z" transform="translate(-211.064 -756.381)"/>
          </g>
          <g id="Grupo_880652" data-name="Grupo 880652" transform="translate(47.651 10.307)">
            <g id="Grupo_880643" data-name="Grupo 880643" transform="translate(13.863 8.655)">
              <rect id="Rectángulo_296961" data-name="Rectángulo 296961" width="3.723" height="1.076"/>
            </g>
            <g id="Grupo_880644" data-name="Grupo 880644" transform="translate(0 8.655)">
              <rect id="Rectángulo_296962" data-name="Rectángulo 296962" width="4.194" height="1.076"/>
            </g>
            <g id="Grupo_880645" data-name="Grupo 880645" transform="translate(5.933)">
              <path id="Trazado_605245" data-name="Trazado 605245" d="M189.6,729.072a2.9,2.9,0,1,1,5.549,0l-1.028-.318a1.865,1.865,0,0,0,.082-.544,1.829,1.829,0,1,0-3.576.542Z" transform="translate(-189.466 -725.302)"/>
            </g>
            <g id="Grupo_880646" data-name="Grupo 880646" transform="translate(12.553 3.585)">
              <rect id="Rectángulo_296963" data-name="Rectángulo 296963" width="4.006" height="1.076" transform="translate(0 1.076) rotate(-15.586)"/>
            </g>
            <g id="Grupo_880647" data-name="Grupo 880647" transform="translate(0.977 3.585)">
              <rect id="Rectángulo_296964" data-name="Rectángulo 296964" width="1.076" height="4.006" transform="translate(0 1.036) rotate(-74.416)"/>
            </g>
            <g id="Grupo_880648" data-name="Grupo 880648" transform="translate(0.869 12.251)">
              <rect id="Rectángulo_296965" data-name="Rectángulo 296965" width="3.983" height="1.075" transform="translate(0 1.538) rotate(-22.705)"/>
            </g>
            <g id="Grupo_880649" data-name="Grupo 880649" transform="translate(12.67 12.269)">
              <rect id="Rectángulo_296966" data-name="Rectángulo 296966" width="1.075" height="3.938" transform="matrix(0.386, -0.923, 0.923, 0.386, 0, 0.992)"/>
            </g>
            <g id="Grupo_880650" data-name="Grupo 880650" transform="translate(3.656 2.263)">
              <path id="Trazado_605246" data-name="Trazado 605246" d="M192.533,741.265c-2.858,0-5.183-3.108-5.183-6.93s2.325-6.931,5.183-6.931,5.183,3.109,5.183,6.931S195.39,741.265,192.533,741.265Zm0-12.784c-2.265,0-4.107,2.627-4.107,5.854s1.841,5.853,4.107,5.853,4.107-2.626,4.107-5.853S194.8,728.481,192.533,728.481Z" transform="translate(-187.35 -727.405)"/>
            </g>
            <g id="Grupo_880651" data-name="Grupo 880651" transform="translate(8.255 2.519)">
              <rect id="Rectángulo_296967" data-name="Rectángulo 296967" width="1.076" height="13.067"/>
            </g>
          </g>
          <g id="Grupo_880653" data-name="Grupo 880653" transform="translate(66.558 31.428)">
            <path id="Trazado_605247" data-name="Trazado 605247" d="M212.544,762.346l-11.023-13.229,5.028-4.19,11.023,13.23Zm-9.507-13.09,9.645,11.574,3.375-2.812-9.646-11.575Z" transform="translate(-201.521 -744.928)"/>
          </g>
        </g>
        <g id="Grupo_880655" data-name="Grupo 880655" transform="translate(181.778 108.534)">
          <path id="Trazado_605248" data-name="Trazado 605248" d="M172.677,699.2a2.73,2.73,0,1,1,2.73-2.73A2.733,2.733,0,0,1,172.677,699.2Zm0-4.384a1.654,1.654,0,1,0,1.654,1.654A1.657,1.657,0,0,0,172.677,694.818Z" transform="translate(-169.947 -693.742)"/>
        </g>
        <g id="Grupo_880656" data-name="Grupo 880656" transform="translate(24.165 128.316)">
          <path id="Trazado_605249" data-name="Trazado 605249" d="M26.222,717.584a2.73,2.73,0,1,1,2.73-2.73A2.733,2.733,0,0,1,26.222,717.584Zm0-4.384a1.654,1.654,0,1,0,1.654,1.654A1.656,1.656,0,0,0,26.222,713.2Z" transform="translate(-23.492 -712.123)"/>
        </g>
        <g id="Grupo_880657" data-name="Grupo 880657" transform="translate(133.782 153.284)">
          <path id="Trazado_605250" data-name="Trazado 605250" d="M128.079,740.784a2.73,2.73,0,1,1,2.73-2.729A2.732,2.732,0,0,1,128.079,740.784Zm0-4.383a1.654,1.654,0,1,0,1.654,1.654A1.657,1.657,0,0,0,128.079,736.4Z" transform="translate(-125.349 -735.324)"/>
        </g>
        <g id="Grupo_880658" data-name="Grupo 880658" transform="translate(162.781 38.574)">
          <path id="Trazado_605251" data-name="Trazado 605251" d="M155.025,634.2a2.731,2.731,0,1,1,2.73-2.73A2.733,2.733,0,0,1,155.025,634.2Zm0-4.385a1.655,1.655,0,1,0,1.654,1.655A1.656,1.656,0,0,0,155.025,629.81Z" transform="translate(-152.295 -628.734)"/>
        </g>
        <g id="Grupo_880659" data-name="Grupo 880659" transform="translate(70.891 161.392)">
          <path id="Trazado_605252" data-name="Trazado 605252" d="M69.64,748.32a2.731,2.731,0,1,1,2.73-2.73A2.733,2.733,0,0,1,69.64,748.32Zm0-4.385a1.655,1.655,0,1,0,1.654,1.655A1.656,1.656,0,0,0,69.64,743.934Z" transform="translate(-66.91 -742.858)"/>
        </g>
        <g id="Grupo_880661" data-name="Grupo 880661" transform="translate(29.088 49.534)">
          <g id="Grupo_880660" data-name="Grupo 880660">
            <path id="Trazado_605253" data-name="Trazado 605253" d="M56.584,639.994H53.895v-1.076h2.689Zm-5.918,0H47.437v-1.076h3.229Zm-6.457,0H40.98v-1.076h3.229Zm-6.457,0H34.523v-1.076h3.229Zm-6.457,0H28.066v-1.076h3.229Z" transform="translate(-28.066 -638.918)"/>
          </g>
        </g>
        <g id="Grupo_880663" data-name="Grupo 880663" transform="translate(175.013 96.548)">
          <g id="Grupo_880662" data-name="Grupo 880662">
            <path id="Trazado_605254" data-name="Trazado 605254" d="M192.179,683.68H189.49V682.6h2.689Zm-5.918,0h-3.229V682.6h3.229Zm-6.457,0h-3.229V682.6H179.8Zm-6.457,0h-3.229V682.6h3.229Zm-6.457,0h-3.229V682.6h3.229Z" transform="translate(-163.661 -682.604)"/>
          </g>
        </g>
        <g id="Grupo_880665" data-name="Grupo 880665" transform="translate(92.473 42.959)">
          <g id="Grupo_880664" data-name="Grupo 880664">
            <path id="Trazado_605255" data-name="Trazado 605255" d="M115.482,633.885h-2.689v-1.076h2.689Zm-5.918,0h-3.229v-1.076h3.229Zm-6.457,0H99.878v-1.076h3.229Zm-6.457,0H93.421v-1.076H96.65Zm-6.457,0H86.964v-1.076h3.229Z" transform="translate(-86.964 -632.809)"/>
          </g>
        </g>
        <g id="Grupo_880668" data-name="Grupo 880668" transform="translate(185.352 119.181)">
          <g id="Grupo_880666" data-name="Grupo 880666">
            <rect id="Rectángulo_296968" data-name="Rectángulo 296968" width="13.473" height="1.076"/>
          </g>
          <g id="Grupo_880667" data-name="Grupo 880667" transform="translate(6.432 2.667)">
            <rect id="Rectángulo_296969" data-name="Rectángulo 296969" width="13.472" height="1.076"/>
          </g>
        </g>
        <g id="Grupo_880671" data-name="Grupo 880671" transform="translate(61.137 35.78)">
          <g id="Grupo_880669" data-name="Grupo 880669">
            <rect id="Rectángulo_296970" data-name="Rectángulo 296970" width="13.473" height="1.076"/>
          </g>
          <g id="Grupo_880670" data-name="Grupo 880670" transform="translate(6.431 2.666)">
            <rect id="Rectángulo_296971" data-name="Rectángulo 296971" width="13.473" height="1.076"/>
          </g>
        </g>
        <g id="Grupo_880674" data-name="Grupo 880674" transform="translate(114.65 174.731)">
          <g id="Grupo_880672" data-name="Grupo 880672">
            <rect id="Rectángulo_296972" data-name="Rectángulo 296972" width="13.473" height="1.076"/>
          </g>
          <g id="Grupo_880673" data-name="Grupo 880673" transform="translate(6.431 2.667)">
            <rect id="Rectángulo_296973" data-name="Rectángulo 296973" width="13.473" height="1.076"/>
          </g>
        </g>
        <g id="Grupo_880677" data-name="Grupo 880677" transform="translate(16.943 95.562)">
          <g id="Grupo_880675" data-name="Grupo 880675">
            <rect id="Rectángulo_296974" data-name="Rectángulo 296974" width="13.473" height="1.076"/>
          </g>
          <g id="Grupo_880676" data-name="Grupo 880676" transform="translate(6.431 2.666)">
            <rect id="Rectángulo_296975" data-name="Rectángulo 296975" width="13.473" height="1.076"/>
          </g>
        </g>
      </g>
    </g>
    <text id="Requerimientos_no_funcionales" data-name="Requerimientos no funcionales" transform="translate(590.666 3108)" fill="#12263f" font-size="18" font-family="Roboto-Black, Roboto" font-weight="800"><tspan x="-126.576" y="0">Requerimientos no funcionales</tspan></text>
  </g>
</svg>
