<svg xmlns="http://www.w3.org/2000/svg" width="251" height="180.324" viewBox="0 0 251 180.324">
  <g id="Grupo_879919" data-name="Grupo 879919" transform="translate(-400.666 -2244)">
    <g id="Grupo_879918" data-name="Grupo 879918" transform="translate(400.666 2244)">
      <g id="Grupo_879756" data-name="Grupo 879756" transform="translate(43.763 15.651)">
        <circle id="Elipse_5196" data-name="Elipse 5196" cx="82.336" cy="82.336" r="82.336" fill="#ffd55a"/>
      </g>
      <g id="Grupo_879759" data-name="Grupo 879759" transform="translate(70.389 42.563)">
        <g id="Grupo_879757" data-name="Grupo 879757" transform="translate(26.361)">
          <path id="Trazado_604864" data-name="Trazado 604864" d="M307.232,464.2h26.357v4.635l10.385-5.257-10.385-5.127v4.624H307.232v-4.923l-10.384,5.257,10.384,5.127Z" transform="translate(-296.848 -458.151)" fill="#7eb9e7"/>
        </g>
        <g id="Grupo_879758" data-name="Grupo 879758" transform="translate(0 15.204)">
          <path id="Trazado_604865" data-name="Trazado 604865" d="M377.146,503.694V471.66H273.426v68.256H312.3v10.248H297.21v5.94h46.408v5.2h39.811V503.694Zm-40.479,43.632v-7.41h6.95v10.248h-6.95Z" transform="translate(-273.426 -471.66)" fill="#7eb9e7"/>
        </g>
      </g>
      <g id="Grupo_879788" data-name="Grupo 879788" transform="translate(77.841 45.386)">
        <g id="Grupo_879760" data-name="Grupo 879760" transform="translate(0 15.744)">
          <path id="Trazado_604866" data-name="Trazado 604866" d="M350.382,542.364H280.047V474.647H383.768v30.941h-1.126V475.773H281.172v65.466h69.209Z" transform="translate(-280.047 -474.647)"/>
        </g>
        <g id="Grupo_879761" data-name="Grupo 879761" transform="translate(0 15.204)">
          <path id="Trazado_604867" data-name="Trazado 604867" d="M350.8,533.3H280.047V474.168H383.768v32.6h-1.126V475.294H281.172v56.877H350.8Z" transform="translate(-280.047 -474.168)"/>
        </g>
        <g id="Grupo_879762" data-name="Grupo 879762" transform="translate(5.163 20.616)">
          <path id="Trazado_604868" data-name="Trazado 604868" d="M350.225,527.281H284.634v-48.3h92.791V505.55H376.3V480.1h-90.54v46.053h64.466Z" transform="translate(-284.634 -478.977)"/>
        </g>
        <g id="Grupo_879763" data-name="Grupo 879763" transform="translate(9.476 24.824)">
          <path id="Trazado_604869" data-name="Trazado 604869" d="M372.884,501.48H288.466V482.715h84.418Zm-83.293-1.125h82.167V483.84H289.591Z" transform="translate(-288.466 -482.715)"/>
        </g>
        <g id="Grupo_879764" data-name="Grupo 879764" transform="translate(9.476 47.238)">
          <path id="Trazado_604870" data-name="Trazado 604870" d="M310.453,520.184H288.466V502.63h21.987Zm-20.861-1.125h19.736v-15.3H289.591Z" transform="translate(-288.466 -502.63)"/>
        </g>
        <g id="Grupo_879765" data-name="Grupo 879765" transform="translate(39.504 47.238)">
          <path id="Trazado_604871" data-name="Trazado 604871" d="M337.134,520.184H315.146V502.63h21.988Zm-20.862-1.125h19.737v-15.3H316.271Z" transform="translate(-315.146 -502.63)"/>
        </g>
        <g id="Grupo_879766" data-name="Grupo 879766" transform="translate(23.783 93.708)">
          <path id="Trazado_604872" data-name="Trazado 604872" d="M348.711,549.858H301.178v-5.94h47.533ZM302.3,548.733h45.282v-3.689H302.3Z" transform="translate(-301.178 -543.918)"/>
        </g>
        <g id="Grupo_879767" data-name="Grupo 879767" transform="translate(38.868 82.898)">
          <path id="Trazado_604873" data-name="Trazado 604873" d="M338.955,546.249H314.581V534.313h1.125v10.81H337.83v-10.81h1.125Z" transform="translate(-314.581 -534.313)"/>
        </g>
        <g id="Grupo_879768" data-name="Grupo 879768" transform="translate(38.868 82.335)">
          <path id="Trazado_604874" data-name="Trazado 604874" d="M338.955,542.35H337.83v-7.411H315.707v7.411h-1.125v-8.537h24.374Z" transform="translate(-314.581 -533.813)"/>
        </g>
        <g id="Grupo_879769" data-name="Grupo 879769" transform="translate(48.071 75.106)">
          <path id="Trazado_604875" data-name="Trazado 604875" d="M325.482,532.836a2.723,2.723,0,1,1,2.724-2.723A2.726,2.726,0,0,1,325.482,532.836Zm0-4.321a1.6,1.6,0,1,0,1.6,1.6A1.6,1.6,0,0,0,325.482,528.515Z" transform="translate(-322.758 -527.39)"/>
        </g>
        <g id="Grupo_879770" data-name="Grupo 879770" transform="translate(36.182 4.924)">
          <rect id="Rectángulo_296644" data-name="Rectángulo 296644" width="27.482" height="1.125"/>
        </g>
        <g id="Grupo_879771" data-name="Grupo 879771" transform="translate(26.36)">
          <path id="Trazado_604876" data-name="Trazado 604876" d="M313.852,471.044l-10.384-5.127,10.384-5.258Zm-7.867-5.14,6.742,3.328V462.49Z" transform="translate(-303.468 -460.659)"/>
        </g>
        <g id="Grupo_879772" data-name="Grupo 879772" transform="translate(63.101 0.299)">
          <path id="Trazado_604877" data-name="Trazado 604877" d="M336.112,471.309V460.925l10.385,5.127Zm1.125-8.573v6.742l6.742-3.413Z" transform="translate(-336.112 -460.925)"/>
        </g>
        <g id="Grupo_879773" data-name="Grupo 879773" transform="translate(70.191 47.238)">
          <path id="Trazado_604878" data-name="Trazado 604878" d="M382.222,560.242H342.411V502.63h39.811Zm-38.686-1.125H381.1V503.755h-37.56Z" transform="translate(-342.411 -502.63)"/>
        </g>
        <g id="Grupo_879774" data-name="Grupo 879774" transform="translate(73.591 50.893)">
          <path id="Trazado_604879" data-name="Trazado 604879" d="M378.445,551.035H345.432V505.877h33.013Zm-31.888-1.125H377.32V507H346.557Z" transform="translate(-345.432 -505.877)"/>
        </g>
        <g id="Grupo_879775" data-name="Grupo 879775" transform="translate(73.591 50.893)">
          <path id="Trazado_604880" data-name="Trazado 604880" d="M378.445,520.251H345.432V505.877h33.013Zm-31.888-1.125H377.32V507H346.557Z" transform="translate(-345.432 -505.877)"/>
        </g>
        <g id="Grupo_879776" data-name="Grupo 879776" transform="translate(77.767 69.244)">
          <rect id="Rectángulo_296645" data-name="Rectángulo 296645" width="5.846" height="1.125"/>
        </g>
        <g id="Grupo_879777" data-name="Grupo 879777" transform="translate(96.766 69.244)">
          <rect id="Rectángulo_296646" data-name="Rectángulo 296646" width="5.846" height="1.125"/>
        </g>
        <g id="Grupo_879778" data-name="Grupo 879778" transform="translate(87.267 69.244)">
          <rect id="Rectángulo_296647" data-name="Rectángulo 296647" width="5.846" height="1.125"/>
        </g>
        <g id="Grupo_879779" data-name="Grupo 879779" transform="translate(77.205 73.966)">
          <path id="Trazado_604881" data-name="Trazado 604881" d="M374.613,534.9h-25.97v-8.526h25.97Zm-24.844-1.126h23.719V527.5H349.768Z" transform="translate(-348.643 -526.377)"/>
        </g>
        <g id="Grupo_879780" data-name="Grupo 879780" transform="translate(77.127 85.023)">
          <path id="Trazado_604882" data-name="Trazado 604882" d="M352.136,543.325a3.562,3.562,0,1,1,3.563-3.562A3.566,3.566,0,0,1,352.136,543.325Zm0-6a2.437,2.437,0,1,0,2.438,2.437A2.441,2.441,0,0,0,352.136,537.326Z" transform="translate(-348.574 -536.201)"/>
        </g>
        <g id="Grupo_879781" data-name="Grupo 879781" transform="translate(86.628 85.023)">
          <path id="Trazado_604883" data-name="Trazado 604883" d="M360.577,543.325a3.562,3.562,0,1,1,3.562-3.562A3.566,3.566,0,0,1,360.577,543.325Zm0-6a2.437,2.437,0,1,0,2.437,2.437A2.44,2.44,0,0,0,360.577,537.326Z" transform="translate(-357.015 -536.201)"/>
        </g>
        <g id="Grupo_879782" data-name="Grupo 879782" transform="translate(96.127 85.023)">
          <path id="Trazado_604884" data-name="Trazado 604884" d="M369.017,543.325a3.562,3.562,0,1,1,3.562-3.562A3.566,3.566,0,0,1,369.017,543.325Zm0-6a2.437,2.437,0,1,0,2.437,2.437A2.441,2.441,0,0,0,369.017,537.326Z" transform="translate(-365.455 -536.201)"/>
        </g>
        <g id="Grupo_879783" data-name="Grupo 879783" transform="translate(87.501 96.82)">
          <path id="Trazado_604885" data-name="Trazado 604885" d="M360.388,551.875a2.6,2.6,0,1,1,2.6-2.6A2.6,2.6,0,0,1,360.388,551.875Zm0-4.066a1.47,1.47,0,1,0,1.47,1.47A1.472,1.472,0,0,0,360.388,547.809Z" transform="translate(-357.791 -546.683)"/>
        </g>
        <g id="Grupo_879784" data-name="Grupo 879784" transform="translate(9.922 24.836)">
          <rect id="Rectángulo_296648" data-name="Rectángulo 296648" width="1.126" height="85.14" transform="translate(0 1.101) rotate(-78.042)"/>
        </g>
        <g id="Grupo_879785" data-name="Grupo 879785" transform="translate(9.92 24.846)">
          <rect id="Rectángulo_296649" data-name="Rectángulo 296649" width="85.14" height="1.126" transform="translate(0 17.619) rotate(-11.944)"/>
        </g>
        <g id="Grupo_879786" data-name="Grupo 879786" transform="translate(74.745 51.719)">
          <rect id="Rectángulo_296650" data-name="Rectángulo 296650" width="1.126" height="32.557" transform="translate(0 1.051) rotate(-68.963)"/>
        </g>
        <g id="Grupo_879787" data-name="Grupo 879787" transform="translate(74.747 51.646)">
          <rect id="Rectángulo_296651" data-name="Rectángulo 296651" width="32.403" height="1.125" transform="translate(0 11.773) rotate(-21.305)"/>
        </g>
      </g>
      <g id="Grupo_879802" data-name="Grupo 879802" transform="translate(0 0)">
        <g id="Grupo_879789" data-name="Grupo 879789" transform="translate(12.685)">
          <path id="Trazado_604886" data-name="Trazado 604886" d="M276.955,427.612v-7.278H228.513v13.809h-6.356v31.4h6.356v13.811h48.442V465.545h5.98v-31.4h-5.98Z" transform="translate(-222.157 -420.334)" fill="#7eb9e7"/>
        </g>
        <g id="Grupo_879790" data-name="Grupo 879790" transform="translate(7.372 39.57)">
          <path id="Trazado_604887" data-name="Trazado 604887" d="M219.065,455.492a1.629,1.629,0,1,0,1.627,1.629A1.63,1.63,0,0,0,219.065,455.492Z" transform="translate(-217.436 -455.492)" fill="#7eb9e7"/>
        </g>
        <g id="Grupo_879791" data-name="Grupo 879791" transform="translate(8.539 31.776)">
          <rect id="Rectángulo_296652" data-name="Rectángulo 296652" width="0.923" height="6.26" fill="#7eb9e7"/>
        </g>
        <g id="Grupo_879792" data-name="Grupo 879792" transform="translate(0 32.351)">
          <path id="Trazado_604888" data-name="Trazado 604888" d="M212.515,449.078a1.629,1.629,0,1,0,1.63,1.629A1.63,1.63,0,0,0,212.515,449.078Z" transform="translate(-210.886 -449.078)" fill="#7eb9e7"/>
        </g>
        <g id="Grupo_879793" data-name="Grupo 879793" transform="translate(1.168 25.6)">
          <rect id="Rectángulo_296653" data-name="Rectángulo 296653" width="0.923" height="5.216" fill="#7eb9e7"/>
        </g>
        <g id="Grupo_879794" data-name="Grupo 879794" transform="translate(4.256 21.399)">
          <path id="Trazado_604889" data-name="Trazado 604889" d="M216.3,439.347a1.629,1.629,0,1,0,1.629,1.629A1.632,1.632,0,0,0,216.3,439.347Z" transform="translate(-214.667 -439.347)" fill="#7eb9e7"/>
        </g>
        <g id="Grupo_879795" data-name="Grupo 879795" transform="translate(5.424 14.648)">
          <rect id="Rectángulo_296654" data-name="Rectángulo 296654" width="0.923" height="5.216" fill="#7eb9e7"/>
        </g>
        <g id="Grupo_879796" data-name="Grupo 879796" transform="translate(76.948 40.613)">
          <circle id="Elipse_5197" data-name="Elipse 5197" cx="1.629" cy="1.629" r="1.629" fill="#7eb9e7"/>
        </g>
        <g id="Grupo_879797" data-name="Grupo 879797" transform="translate(78.115 32.819)">
          <rect id="Rectángulo_296655" data-name="Rectángulo 296655" width="0.922" height="6.26" fill="#7eb9e7"/>
        </g>
        <g id="Grupo_879798" data-name="Grupo 879798" transform="translate(84.319 33.395)">
          <path id="Trazado_604890" data-name="Trazado 604890" d="M287.432,450a1.629,1.629,0,1,0,1.629,1.629A1.63,1.63,0,0,0,287.432,450Z" transform="translate(-285.803 -450.005)" fill="#7eb9e7"/>
        </g>
        <g id="Grupo_879799" data-name="Grupo 879799" transform="translate(85.487 26.644)">
          <rect id="Rectángulo_296656" data-name="Rectángulo 296656" width="0.923" height="5.216" fill="#7eb9e7"/>
        </g>
        <g id="Grupo_879800" data-name="Grupo 879800" transform="translate(80.064 22.442)">
          <path id="Trazado_604891" data-name="Trazado 604891" d="M283.651,440.274a1.629,1.629,0,1,0,1.629,1.629A1.631,1.631,0,0,0,283.651,440.274Z" transform="translate(-282.022 -440.274)" fill="#7eb9e7"/>
        </g>
        <g id="Grupo_879801" data-name="Grupo 879801" transform="translate(81.231 15.691)">
          <rect id="Rectángulo_296657" data-name="Rectángulo 296657" width="0.923" height="5.216" fill="#7eb9e7"/>
        </g>
      </g>
      <g id="Grupo_879848" data-name="Grupo 879848" transform="translate(1.599 1.759)">
        <g id="Grupo_879803" data-name="Grupo 879803" transform="translate(19.042 48.087)">
          <path id="Trazado_604892" data-name="Trazado 604892" d="M277.869,476.767H229.226V464.623h1.126v11.019h46.393v-11.02h1.125Z" transform="translate(-229.226 -464.622)"/>
        </g>
        <g id="Grupo_879804" data-name="Grupo 879804" transform="translate(19.042 0.085)">
          <path id="Trazado_604893" data-name="Trazado 604893" d="M230.351,436.636h-1.126V421.973h48.644v13.87h-1.125V423.1H230.351Z" transform="translate(-229.226 -421.973)"/>
        </g>
        <g id="Grupo_879805" data-name="Grupo 879805" transform="translate(19.042)">
          <path id="Trazado_604894" data-name="Trazado 604894" d="M277.869,429.377H229.226V421.9h48.643Zm-47.517-1.125h46.392v-5.229H230.352Z" transform="translate(-229.226 -421.897)"/>
        </g>
        <g id="Grupo_879806" data-name="Grupo 879806" transform="translate(21.648 2.16)">
          <path id="Trazado_604895" data-name="Trazado 604895" d="M233.12,426.975a1.58,1.58,0,1,1,1.58-1.579A1.582,1.582,0,0,1,233.12,426.975Zm0-2.034a.454.454,0,1,0,.455.455A.455.455,0,0,0,233.12,424.941Z" transform="translate(-231.541 -423.816)"/>
        </g>
        <g id="Grupo_879807" data-name="Grupo 879807" transform="translate(24.872 2.16)">
          <path id="Trazado_604896" data-name="Trazado 604896" d="M235.986,426.975a1.58,1.58,0,1,1,1.579-1.579A1.582,1.582,0,0,1,235.986,426.975Zm0-2.034a.454.454,0,1,0,.454.455A.455.455,0,0,0,235.986,424.941Z" transform="translate(-234.406 -423.816)"/>
        </g>
        <g id="Grupo_879808" data-name="Grupo 879808" transform="translate(31.85 10.96)">
          <rect id="Rectángulo_296658" data-name="Rectángulo 296658" width="30.716" height="1.125"/>
        </g>
        <g id="Grupo_879809" data-name="Grupo 879809" transform="translate(22.897 8.086)">
          <path id="Trazado_604897" data-name="Trazado 604897" d="M235.751,435.279l-3.1-3.1,3.1-3.1,3.1,3.1Zm-1.508-3.1,1.508,1.507,1.507-1.507-1.507-1.508Z" transform="translate(-232.651 -429.081)"/>
        </g>
        <g id="Grupo_879810" data-name="Grupo 879810" transform="translate(22.748 49.054)">
          <rect id="Rectángulo_296659" data-name="Rectángulo 296659" width="17.596" height="1.125"/>
        </g>
        <g id="Grupo_879811" data-name="Grupo 879811" transform="translate(22.748 52.068)">
          <rect id="Rectángulo_296660" data-name="Rectángulo 296660" width="17.596" height="1.125"/>
        </g>
        <g id="Grupo_879812" data-name="Grupo 879812" transform="translate(22.748 54.837)">
          <rect id="Rectángulo_296661" data-name="Rectángulo 296661" width="13.176" height="1.125"/>
        </g>
        <g id="Grupo_879813" data-name="Grupo 879813" transform="translate(43.012 48.492)">
          <path id="Trazado_604898" data-name="Trazado 604898" d="M270.943,473.574h-20.42v-8.592h20.42Zm-19.294-1.125h18.169v-6.341H251.648Z" transform="translate(-250.523 -464.982)"/>
        </g>
        <g id="Grupo_879825" data-name="Grupo 879825" transform="translate(12.686 14.815)">
          <g id="Grupo_879814" data-name="Grupo 879814">
            <path id="Trazado_604899" data-name="Trazado 604899" d="M284.56,466.665H223.578V435.06H284.56ZM224.7,465.54h58.731V436.185H224.7Z" transform="translate(-223.578 -435.06)"/>
          </g>
          <g id="Grupo_879815" data-name="Grupo 879815">
            <path id="Trazado_604900" data-name="Trazado 604900" d="M284.56,442.542H223.578V435.06H284.56ZM224.7,441.417h58.731v-5.231H224.7Z" transform="translate(-223.578 -435.06)"/>
          </g>
          <g id="Grupo_879818" data-name="Grupo 879818" transform="translate(3.169 2.725)">
            <g id="Grupo_879816" data-name="Grupo 879816">
              <circle id="Elipse_5198" data-name="Elipse 5198" cx="1.016" cy="1.016" r="1.016"/>
            </g>
            <g id="Grupo_879817" data-name="Grupo 879817" transform="translate(3.225)">
              <circle id="Elipse_5199" data-name="Elipse 5199" cx="1.016" cy="1.016" r="1.016"/>
            </g>
          </g>
          <g id="Grupo_879819" data-name="Grupo 879819" transform="translate(31.435 18.051)">
            <rect id="Rectángulo_296662" data-name="Rectángulo 296662" width="22.164" height="1.125"/>
          </g>
          <g id="Grupo_879820" data-name="Grupo 879820" transform="translate(31.435 20.998)">
            <rect id="Rectángulo_296663" data-name="Rectángulo 296663" width="22.164" height="1.125"/>
          </g>
          <g id="Grupo_879821" data-name="Grupo 879821" transform="translate(6.493 9.221)">
            <path id="Trazado_604901" data-name="Trazado 604901" d="M250.786,460.2H229.347l10.719-16.944Zm-19.395-1.126h17.351l-8.675-13.713Z" transform="translate(-229.347 -443.253)"/>
          </g>
          <g id="Grupo_879823" data-name="Grupo 879823" transform="translate(31.435 12.975)">
            <g id="Grupo_879822" data-name="Grupo 879822">
              <rect id="Rectángulo_296664" data-name="Rectángulo 296664" width="16.609" height="1.125"/>
            </g>
          </g>
          <g id="Grupo_879824" data-name="Grupo 879824" transform="translate(31.435 23.945)">
            <rect id="Rectángulo_296665" data-name="Rectángulo 296665" width="7.512" height="1.125"/>
          </g>
        </g>
        <g id="Grupo_879826" data-name="Grupo 879826" transform="translate(19.042 45.294)">
          <path id="Trazado_604902" data-name="Trazado 604902" d="M277.869,471.677h-1.125v-8.411H230.351v8.411h-1.126v-9.536h48.644Z" transform="translate(-229.226 -462.141)"/>
        </g>
        <g id="Grupo_879829" data-name="Grupo 879829" transform="translate(7.371 32.884)">
          <g id="Grupo_879827" data-name="Grupo 879827" transform="translate(0 7.692)">
            <path id="Trazado_604903" data-name="Trazado 604903" d="M220.587,461.41a1.73,1.73,0,1,1,1.73-1.731A1.733,1.733,0,0,1,220.587,461.41Zm0-2.335a.6.6,0,1,0,.6.6A.605.605,0,0,0,220.587,459.074Z" transform="translate(-218.856 -457.949)"/>
          </g>
          <g id="Grupo_879828" data-name="Grupo 879828" transform="translate(1.168)">
            <rect id="Rectángulo_296666" data-name="Rectángulo 296666" width="1.125" height="6.259"/>
          </g>
        </g>
        <g id="Grupo_879832" data-name="Grupo 879832" transform="translate(0 26.709)">
          <g id="Grupo_879830" data-name="Grupo 879830" transform="translate(0 6.65)">
            <path id="Trazado_604904" data-name="Trazado 604904" d="M214.038,455a1.73,1.73,0,1,1,1.73-1.73A1.732,1.732,0,0,1,214.038,455Zm0-2.334a.6.6,0,1,0,.6.6A.605.605,0,0,0,214.038,452.661Z" transform="translate(-212.307 -451.536)"/>
          </g>
          <g id="Grupo_879831" data-name="Grupo 879831" transform="translate(1.168)">
            <rect id="Rectángulo_296667" data-name="Rectángulo 296667" width="1.125" height="5.216"/>
          </g>
        </g>
        <g id="Grupo_879835" data-name="Grupo 879835" transform="translate(28.168 28.572)">
          <g id="Grupo_879833" data-name="Grupo 879833" transform="translate(0 6.65)">
            <path id="Trazado_604905" data-name="Trazado 604905" d="M239.064,456.653a1.73,1.73,0,1,1,1.73-1.731A1.732,1.732,0,0,1,239.064,456.653Zm0-2.335a.6.6,0,1,0,.6.6A.606.606,0,0,0,239.064,454.317Z" transform="translate(-237.334 -453.192)"/>
          </g>
          <g id="Grupo_879834" data-name="Grupo 879834" transform="translate(1.167)">
            <rect id="Rectángulo_296668" data-name="Rectángulo 296668" width="1.125" height="5.216"/>
          </g>
        </g>
        <g id="Grupo_879838" data-name="Grupo 879838" transform="translate(4.256 15.756)">
          <g id="Grupo_879836" data-name="Grupo 879836" transform="translate(0 6.65)">
            <path id="Trazado_604906" data-name="Trazado 604906" d="M217.819,445.265a1.73,1.73,0,1,1,1.73-1.73A1.732,1.732,0,0,1,217.819,445.265Zm0-2.334a.6.6,0,1,0,.6.6A.606.606,0,0,0,217.819,442.93Z" transform="translate(-216.088 -441.805)"/>
          </g>
          <g id="Grupo_879837" data-name="Grupo 879837" transform="translate(1.168)">
            <rect id="Rectángulo_296669" data-name="Rectángulo 296669" width="1.125" height="5.216"/>
          </g>
        </g>
        <g id="Grupo_879841" data-name="Grupo 879841" transform="translate(76.948 33.927)">
          <g id="Grupo_879839" data-name="Grupo 879839" transform="translate(0 7.693)">
            <path id="Trazado_604907" data-name="Trazado 604907" d="M282.4,462.337a1.73,1.73,0,1,1,1.731-1.73A1.731,1.731,0,0,1,282.4,462.337Zm0-2.335a.6.6,0,1,0,.605.605A.605.605,0,0,0,282.4,460Z" transform="translate(-280.675 -458.876)"/>
          </g>
          <g id="Grupo_879840" data-name="Grupo 879840" transform="translate(1.167)">
            <rect id="Rectángulo_296670" data-name="Rectángulo 296670" width="1.125" height="6.259"/>
          </g>
        </g>
        <g id="Grupo_879844" data-name="Grupo 879844" transform="translate(84.319 27.752)">
          <g id="Grupo_879842" data-name="Grupo 879842" transform="translate(0 6.65)">
            <path id="Trazado_604908" data-name="Trazado 604908" d="M288.955,455.923a1.73,1.73,0,1,1,1.73-1.73A1.732,1.732,0,0,1,288.955,455.923Zm0-2.334a.6.6,0,1,0,.6.6A.605.605,0,0,0,288.955,453.589Z" transform="translate(-287.224 -452.463)"/>
          </g>
          <g id="Grupo_879843" data-name="Grupo 879843" transform="translate(1.168)">
            <rect id="Rectángulo_296671" data-name="Rectángulo 296671" width="1.125" height="5.216"/>
          </g>
        </g>
        <g id="Grupo_879847" data-name="Grupo 879847" transform="translate(80.062 16.799)">
          <g id="Grupo_879845" data-name="Grupo 879845" transform="translate(0 6.649)">
            <path id="Trazado_604909" data-name="Trazado 604909" d="M285.173,446.193a1.731,1.731,0,1,1,1.731-1.731A1.735,1.735,0,0,1,285.173,446.193Zm0-2.337a.606.606,0,1,0,.605.606A.607.607,0,0,0,285.173,443.856Z" transform="translate(-283.442 -442.731)"/>
          </g>
          <g id="Grupo_879846" data-name="Grupo 879846" transform="translate(1.169)">
            <rect id="Rectángulo_296672" data-name="Rectángulo 296672" width="1.125" height="5.216"/>
          </g>
        </g>
      </g>
      <g id="Grupo_879851" data-name="Grupo 879851" transform="translate(161.643 33.616)">
        <g id="Grupo_879849" data-name="Grupo 879849">
          <rect id="Rectángulo_296673" data-name="Rectángulo 296673" width="14.09" height="1.125"/>
        </g>
        <g id="Grupo_879850" data-name="Grupo 879850" transform="translate(6.727 2.79)">
          <rect id="Rectángulo_296674" data-name="Rectángulo 296674" width="14.09" height="1.125"/>
        </g>
      </g>
      <g id="Grupo_879854" data-name="Grupo 879854" transform="translate(33.355 112.969)">
        <g id="Grupo_879852" data-name="Grupo 879852">
          <rect id="Rectángulo_296675" data-name="Rectángulo 296675" width="14.091" height="1.125"/>
        </g>
        <g id="Grupo_879853" data-name="Grupo 879853" transform="translate(6.727 2.79)">
          <rect id="Rectángulo_296676" data-name="Rectángulo 296676" width="14.09" height="1.125"/>
        </g>
      </g>
      <g id="Grupo_879857" data-name="Grupo 879857" transform="translate(164.122 161.721)">
        <g id="Grupo_879855" data-name="Grupo 879855">
          <rect id="Rectángulo_296677" data-name="Rectángulo 296677" width="14.091" height="1.125"/>
        </g>
        <g id="Grupo_879856" data-name="Grupo 879856" transform="translate(6.727 2.79)">
          <rect id="Rectángulo_296678" data-name="Rectángulo 296678" width="14.09" height="1.125"/>
        </g>
      </g>
      <g id="Grupo_879858" data-name="Grupo 879858" transform="translate(199.519 120.823)">
        <path id="Trazado_604910" data-name="Trazado 604910" d="M391.012,533.4a2.855,2.855,0,1,1,2.855-2.855A2.858,2.858,0,0,1,391.012,533.4Zm0-4.585a1.73,1.73,0,1,0,1.73,1.73A1.732,1.732,0,0,0,391.012,528.81Z" transform="translate(-388.157 -527.685)"/>
      </g>
      <g id="Grupo_879859" data-name="Grupo 879859" transform="translate(70.608 141.616)">
        <path id="Trazado_604911" data-name="Trazado 604911" d="M276.476,551.87a2.855,2.855,0,1,1,2.855-2.855A2.858,2.858,0,0,1,276.476,551.87Zm0-4.585a1.73,1.73,0,1,0,1.73,1.73A1.732,1.732,0,0,0,276.476,547.284Z" transform="translate(-273.621 -546.159)"/>
      </g>
      <g id="Grupo_879860" data-name="Grupo 879860" transform="translate(115.842 25.613)">
        <path id="Trazado_604912" data-name="Trazado 604912" d="M316.668,448.8a2.855,2.855,0,1,1,2.854-2.854A2.859,2.859,0,0,1,316.668,448.8Zm0-4.584a1.729,1.729,0,1,0,1.729,1.73A1.732,1.732,0,0,0,316.668,444.216Z" transform="translate(-313.811 -443.091)"/>
      </g>
      <g id="Grupo_879861" data-name="Grupo 879861" transform="translate(106.885 153.949)">
        <path id="Trazado_604913" data-name="Trazado 604913" d="M308.71,562.828a2.855,2.855,0,1,1,2.855-2.855A2.858,2.858,0,0,1,308.71,562.828Zm0-4.585a1.73,1.73,0,1,0,1.73,1.73A1.733,1.733,0,0,0,308.71,558.242Z" transform="translate(-305.853 -557.117)"/>
      </g>
      <g id="Grupo_879863" data-name="Grupo 879863" transform="translate(26.282 76.382)">
        <g id="Grupo_879862" data-name="Grupo 879862">
          <path id="Trazado_604914" data-name="Trazado 604914" d="M264.062,489.324h-2.813V488.2h2.813Zm-6.189,0H254.5V488.2h3.377Zm-6.753,0h-3.376V488.2h3.376Zm-6.753,0H240.99V488.2h3.377Zm-6.753,0h-3.377V488.2h3.377Z" transform="translate(-234.237 -488.199)"/>
        </g>
      </g>
      <g id="Grupo_879865" data-name="Grupo 879865" transform="translate(52.972 152.344)">
        <g id="Grupo_879864" data-name="Grupo 879864">
          <path id="Trazado_604915" data-name="Trazado 604915" d="M287.775,556.816h-2.812v-1.125h2.812Zm-6.188,0H278.21v-1.125h3.376Zm-6.753,0h-3.376v-1.125h3.376Zm-6.753,0H264.7v-1.125h3.376Zm-6.753,0h-3.377v-1.125h3.377Z" transform="translate(-257.951 -555.691)"/>
        </g>
      </g>
      <g id="Grupo_879867" data-name="Grupo 879867" transform="translate(108.74 164.511)">
        <g id="Grupo_879866" data-name="Grupo 879866">
          <path id="Trazado_604916" data-name="Trazado 604916" d="M337.326,567.626h-2.813V566.5h2.813Zm-6.189,0H327.76V566.5h3.376Zm-6.753,0h-3.376V566.5h3.376Zm-6.753,0h-3.377V566.5h3.377Zm-6.753,0H307.5V566.5h3.376Z" transform="translate(-307.501 -566.501)"/>
        </g>
      </g>
      <g id="Grupo_879869" data-name="Grupo 879869" transform="translate(137.081 26.081)">
        <g id="Grupo_879868" data-name="Grupo 879868">
          <path id="Trazado_604917" data-name="Trazado 604917" d="M362.507,444.632h-2.813v-1.125h2.813Zm-6.189,0h-3.377v-1.125h3.377Zm-6.753,0h-3.376v-1.125h3.376Zm-6.753,0h-3.377v-1.125h3.377Zm-6.753,0h-3.376v-1.125h3.376Z" transform="translate(-332.682 -443.507)"/>
        </g>
      </g>
      <g id="Grupo_879870" data-name="Grupo 879870" transform="translate(191.368 36.771)">
        <path id="Trazado_604918" data-name="Trazado 604918" d="M434.942,472.4l.627.754,3.005-2.658-4.457-5.355-3.006,2.658.693.833-1.739,1.446a15.748,15.748,0,0,0-6.612-3.04v-.814h.8v-2.249h2.766v-.563a7.063,7.063,0,0,0-5.7-6.92v-3.415h-.6l-39.8-.072v49.982h40.4v-4.649a15.8,15.8,0,0,0,12.122-24.687Zm-14.188-5.649v-.527h1.573v.642A15.757,15.757,0,0,0,420.754,466.751Z" transform="translate(-380.915 -453.005)" fill="#7eb9e7"/>
      </g>
      <g id="Grupo_879916" data-name="Grupo 879916" transform="translate(193.341 40.068)">
        <g id="Grupo_879875" data-name="Grupo 879875">
          <g id="Grupo_879871" data-name="Grupo 879871" transform="translate(0 0.072)">
            <path id="Trazado_604919" data-name="Trazado 604919" d="M423.07,505.909h-40.4V456h40.4v3.847h-1.125v-2.721H383.793v47.659h38.152v-3.623h1.125Z" transform="translate(-382.668 -455.999)"/>
          </g>
          <g id="Grupo_879872" data-name="Grupo 879872">
            <path id="Trazado_604920" data-name="Trazado 604920" d="M416.9,462.315H382.668v-6.38l40.4.074v2.861h-1.125v-1.738l-38.152-.069v4.127h33.1Z" transform="translate(-382.668 -455.935)"/>
          </g>
          <g id="Grupo_879873" data-name="Grupo 879873" transform="translate(2.717 2.351)">
            <path id="Trazado_604921" data-name="Trazado 604921" d="M386.762,458.864a.84.84,0,1,1-.841-.841A.84.84,0,0,1,386.762,458.864Z" transform="translate(-385.082 -458.023)"/>
          </g>
          <g id="Grupo_879874" data-name="Grupo 879874" transform="translate(5.382 2.351)">
            <path id="Trazado_604922" data-name="Trazado 604922" d="M389.13,458.864a.84.84,0,1,1-.841-.841A.84.84,0,0,1,389.13,458.864Z" transform="translate(-387.45 -458.023)"/>
          </g>
        </g>
        <g id="Grupo_879876" data-name="Grupo 879876" transform="translate(4.301 8.913)">
          <rect id="Rectángulo_296679" data-name="Rectángulo 296679" width="24.452" height="1.125"/>
        </g>
        <g id="Grupo_879877" data-name="Grupo 879877" transform="translate(4.301 15.383)">
          <rect id="Rectángulo_296680" data-name="Rectángulo 296680" width="9.85" height="1.125"/>
        </g>
        <g id="Grupo_879878" data-name="Grupo 879878" transform="translate(4.301 18.619)">
          <rect id="Rectángulo_296681" data-name="Rectángulo 296681" width="14.485" height="1.125"/>
        </g>
        <g id="Grupo_879879" data-name="Grupo 879879" transform="translate(12.263 25.09)">
          <rect id="Rectángulo_296682" data-name="Rectángulo 296682" width="12.268" height="1.125"/>
        </g>
        <g id="Grupo_879880" data-name="Grupo 879880" transform="translate(8.009 21.854)">
          <rect id="Rectángulo_296683" data-name="Rectángulo 296683" width="7.243" height="1.125"/>
        </g>
        <g id="Grupo_879881" data-name="Grupo 879881" transform="translate(16.614 21.854)">
          <rect id="Rectángulo_296684" data-name="Rectángulo 296684" width="4.084" height="1.125"/>
        </g>
        <g id="Grupo_879882" data-name="Grupo 879882" transform="translate(10.259 12.149)">
          <rect id="Rectángulo_296685" data-name="Rectángulo 296685" width="5.853" height="1.125"/>
        </g>
        <g id="Grupo_879883" data-name="Grupo 879883" transform="translate(4.33 12.179)">
          <rect id="Rectángulo_296686" data-name="Rectángulo 296686" width="4.085" height="1.125"/>
        </g>
        <g id="Grupo_879884" data-name="Grupo 879884" transform="translate(4.62 28.739)">
          <rect id="Rectángulo_296687" data-name="Rectángulo 296687" width="19.566" height="1.125"/>
        </g>
        <g id="Grupo_879885" data-name="Grupo 879885" transform="translate(4.62 35.209)">
          <rect id="Rectángulo_296688" data-name="Rectángulo 296688" width="9.85" height="1.125"/>
        </g>
        <g id="Grupo_879886" data-name="Grupo 879886" transform="translate(4.62 38.445)">
          <rect id="Rectángulo_296689" data-name="Rectángulo 296689" width="14.485" height="1.125"/>
        </g>
        <g id="Grupo_879887" data-name="Grupo 879887" transform="translate(4.706 44.914)">
          <rect id="Rectángulo_296690" data-name="Rectángulo 296690" width="24.452" height="1.125"/>
        </g>
        <g id="Grupo_879888" data-name="Grupo 879888" transform="translate(8.328 41.68)">
          <rect id="Rectángulo_296691" data-name="Rectángulo 296691" width="7.243" height="1.125"/>
        </g>
        <g id="Grupo_879889" data-name="Grupo 879889" transform="translate(16.932 41.68)">
          <rect id="Rectángulo_296692" data-name="Rectángulo 296692" width="4.085" height="1.125"/>
        </g>
        <g id="Grupo_879890" data-name="Grupo 879890" transform="translate(10.578 31.975)">
          <rect id="Rectángulo_296693" data-name="Rectángulo 296693" width="5.853" height="1.125"/>
        </g>
        <g id="Grupo_879891" data-name="Grupo 879891" transform="translate(4.649 32.005)">
          <rect id="Rectángulo_296694" data-name="Rectángulo 296694" width="4.085" height="1.125"/>
        </g>
        <g id="Grupo_879892" data-name="Grupo 879892" transform="translate(4.62 25.09)">
          <rect id="Rectángulo_296695" data-name="Rectángulo 296695" width="5.958" height="1.125"/>
        </g>
        <g id="Grupo_879915" data-name="Grupo 879915" transform="translate(20.984 3.356)">
          <g id="Grupo_879893" data-name="Grupo 879893" transform="translate(20.43 9.025)">
            <rect id="Rectángulo_296696" data-name="Rectángulo 296696" width="1.125" height="2.143"/>
          </g>
          <g id="Grupo_879894" data-name="Grupo 879894" transform="translate(14.778 9.606)">
            <rect id="Rectángulo_296697" data-name="Rectángulo 296697" width="1.125" height="1.562"/>
          </g>
          <g id="Grupo_879895" data-name="Grupo 879895" transform="translate(13.652 4.332)">
            <path id="Trazado_604923" data-name="Trazado 604923" d="M422.141,468.3h-8.7v-5.532h8.7Zm-7.574-1.125h6.448V463.89h-6.448Z" transform="translate(-413.442 -462.765)"/>
          </g>
          <g id="Grupo_879896" data-name="Grupo 879896" transform="translate(11.015)">
            <path id="Trazado_604924" data-name="Trazado 604924" d="M425.2,466.531h-3.33v-1.125h2.178a5.926,5.926,0,0,0-11.8,0h1.927v1.125H411.1v-.563a7.051,7.051,0,1,1,14.1,0Z" transform="translate(-411.099 -458.916)"/>
          </g>
          <g id="Grupo_879897" data-name="Grupo 879897" transform="translate(2.639 10.37)">
            <path id="Trazado_604925" data-name="Trazado 604925" d="M419.486,499.786a15.828,15.828,0,1,1,15.827-15.828A15.847,15.847,0,0,1,419.486,499.786Zm0-30.53a14.7,14.7,0,1,0,14.7,14.7A14.72,14.72,0,0,0,419.486,469.255Z" transform="translate(-403.657 -468.13)"/>
          </g>
          <g id="Grupo_879898" data-name="Grupo 879898" transform="translate(17.905 12.586)">
            <rect id="Rectángulo_296698" data-name="Rectángulo 296698" width="1.125" height="3.507"/>
          </g>
          <g id="Grupo_879899" data-name="Grupo 879899" transform="translate(17.905 36.216)">
            <rect id="Rectángulo_296699" data-name="Rectángulo 296699" width="1.125" height="3.507"/>
          </g>
          <g id="Grupo_879900" data-name="Grupo 879900" transform="translate(28.528 25.592)">
            <rect id="Rectángulo_296700" data-name="Rectángulo 296700" width="3.507" height="1.125"/>
          </g>
          <g id="Grupo_879901" data-name="Grupo 879901" transform="translate(4.899 25.592)">
            <rect id="Rectángulo_296701" data-name="Rectángulo 296701" width="3.507" height="1.125"/>
          </g>
          <g id="Grupo_879902" data-name="Grupo 879902" transform="translate(10.036 17.557)">
            <path id="Trazado_604926" data-name="Trazado 604926" d="M411.792,475.3a.782.782,0,1,1-.781-.781A.782.782,0,0,1,411.792,475.3Z" transform="translate(-410.229 -474.515)"/>
          </g>
          <g id="Grupo_879903" data-name="Grupo 879903" transform="translate(11.342 19.208)">
            <path id="Trazado_604927" data-name="Trazado 604927" d="M418.44,490.087a7.052,7.052,0,1,1,7.054-7.052A7.06,7.06,0,0,1,418.44,490.087Zm0-12.979a5.927,5.927,0,1,0,5.928,5.927A5.934,5.934,0,0,0,418.44,477.107Z" transform="translate(-411.389 -475.982)"/>
          </g>
          <g id="Grupo_879904" data-name="Grupo 879904" transform="translate(18.199 19.651)">
            <rect id="Rectángulo_296702" data-name="Rectángulo 296702" width="12.657" height="1.126" transform="translate(0 6.053) rotate(-28.571)"/>
          </g>
          <g id="Grupo_879905" data-name="Grupo 879905" transform="translate(14.823 22.555)">
            <path id="Trazado_604928" data-name="Trazado 604928" d="M418.128,486.244a3.644,3.644,0,1,1,3.643-3.644A3.649,3.649,0,0,1,418.128,486.244Zm0-6.162a2.518,2.518,0,1,0,2.518,2.518A2.522,2.522,0,0,0,418.128,480.082Z" transform="translate(-414.482 -478.956)"/>
          </g>
          <g id="Grupo_879908" data-name="Grupo 879908" transform="translate(0 8.792)">
            <g id="Grupo_879906" data-name="Grupo 879906" transform="translate(2.793 2.77)">
              <path id="Trazado_604929" data-name="Trazado 604929" d="M406.815,475.473l-3.021-2.516,3.137-3.768,3.022,2.516Zm-1.436-2.661,1.292,1.076,1.7-2.038-1.291-1.076Z" transform="translate(-403.794 -469.189)"/>
            </g>
            <g id="Grupo_879907" data-name="Grupo 879907">
              <path id="Trazado_604930" data-name="Trazado 604930" d="M404.411,474.663l-3.1-2.58,4.458-5.355,3.1,2.58Zm-1.513-2.725,1.368,1.14,3.019-3.626-1.369-1.138Z" transform="translate(-401.312 -466.728)"/>
            </g>
          </g>
          <g id="Grupo_879911" data-name="Grupo 879911" transform="translate(27.736 8.78)">
            <g id="Grupo_879909" data-name="Grupo 879909" transform="translate(0 2.782)">
              <path id="Trazado_604931" data-name="Trazado 604931" d="M429.093,475.473l-3.138-3.768,3.022-2.516,3.138,3.768Zm-1.553-3.623,1.7,2.038,1.291-1.076-1.7-2.038Z" transform="translate(-425.955 -469.189)"/>
            </g>
            <g id="Grupo_879910" data-name="Grupo 879910" transform="translate(1.478)">
              <path id="Trazado_604932" data-name="Trazado 604932" d="M431.725,474.731l-4.457-5.355,3.005-2.658,4.457,5.355Zm-2.895-5.236,3.019,3.624,1.319-1.166-3.017-3.625Z" transform="translate(-427.268 -466.717)"/>
            </g>
          </g>
          <g id="Grupo_879912" data-name="Grupo 879912" transform="translate(24.883 17.409)">
            <path id="Trazado_604933" data-name="Trazado 604933" d="M424.983,475.165a.782.782,0,1,1-.781-.781A.782.782,0,0,1,424.983,475.165Z" transform="translate(-423.42 -474.384)"/>
          </g>
          <g id="Grupo_879913" data-name="Grupo 879913" transform="translate(10.036 32.849)">
            <path id="Trazado_604934" data-name="Trazado 604934" d="M411.792,488.883a.782.782,0,1,1-.781-.781A.782.782,0,0,1,411.792,488.883Z" transform="translate(-410.229 -488.102)"/>
          </g>
          <g id="Grupo_879914" data-name="Grupo 879914" transform="translate(24.883 32.7)">
            <path id="Trazado_604935" data-name="Trazado 604935" d="M424.983,488.751a.782.782,0,1,1-.781-.781A.782.782,0,0,1,424.983,488.751Z" transform="translate(-423.42 -487.97)"/>
          </g>
        </g>
      </g>
      <g id="Grupo_879917" data-name="Grupo 879917" transform="translate(48.245 102.88)">
        <path id="Trazado_604936" data-name="Trazado 604936" d="M256.606,517.452a2.855,2.855,0,1,1,2.855-2.855A2.858,2.858,0,0,1,256.606,517.452Zm0-4.584a1.729,1.729,0,1,0,1.73,1.729A1.732,1.732,0,0,0,256.606,512.868Z" transform="translate(-253.751 -511.742)"/>
      </g>
    </g>
  </g>
</svg>
