<svg xmlns="http://www.w3.org/2000/svg" width="182.049" height="175.008" viewBox="0 0 182.049 175.008">
  <g id="Grupo_880826" data-name="Grupo 880826" transform="translate(1562.614 8781.983)">
    <g id="Grupo_880508" data-name="Grupo 880508" transform="translate(-1789.561 -11645.611)">
      <g id="Grupo_879851" data-name="Grupo 879851" transform="translate(362.309 2906.615)">
        <g id="Grupo_879849" data-name="Grupo 879849">
          <rect id="Rectángulo_296673" data-name="Rectángulo 296673" width="14.09" height="1.125"/>
        </g>
        <g id="Grupo_879850" data-name="Grupo 879850" transform="translate(6.727 2.79)">
          <rect id="Rectángulo_296674" data-name="Rectángulo 296674" width="14.09" height="1.125"/>
        </g>
      </g>
      <g id="Grupo_879854" data-name="Grupo 879854" transform="translate(234.021 2985.969)">
        <g id="Grupo_879852" data-name="Grupo 879852">
          <rect id="Rectángulo_296675" data-name="Rectángulo 296675" width="14.091" height="1.125"/>
        </g>
        <g id="Grupo_879853" data-name="Grupo 879853" transform="translate(6.727 2.79)">
          <rect id="Rectángulo_296676" data-name="Rectángulo 296676" width="14.09" height="1.125"/>
        </g>
      </g>
      <g id="Grupo_879857" data-name="Grupo 879857" transform="translate(364.787 3034.721)">
        <g id="Grupo_879855" data-name="Grupo 879855">
          <rect id="Rectángulo_296677" data-name="Rectángulo 296677" width="14.091" height="1.125"/>
        </g>
        <g id="Grupo_879856" data-name="Grupo 879856" transform="translate(6.727 2.79)">
          <rect id="Rectángulo_296678" data-name="Rectángulo 296678" width="14.09" height="1.125"/>
        </g>
      </g>
      <g id="Grupo_879858" data-name="Grupo 879858" transform="translate(400.184 2993.822)">
        <path id="Trazado_604910" data-name="Trazado 604910" d="M391.012,533.4a2.855,2.855,0,1,1,2.855-2.855A2.858,2.858,0,0,1,391.012,533.4Zm0-4.585a1.73,1.73,0,1,0,1.73,1.73A1.732,1.732,0,0,0,391.012,528.81Z" transform="translate(-388.157 -527.685)"/>
      </g>
      <g id="Grupo_879859" data-name="Grupo 879859" transform="translate(271.274 3014.615)">
        <path id="Trazado_604911" data-name="Trazado 604911" d="M276.476,551.87a2.855,2.855,0,1,1,2.855-2.855A2.858,2.858,0,0,1,276.476,551.87Zm0-4.585a1.73,1.73,0,1,0,1.73,1.73A1.732,1.732,0,0,0,276.476,547.284Z" transform="translate(-273.621 -546.159)"/>
      </g>
      <g id="Grupo_879860" data-name="Grupo 879860" transform="translate(316.508 2898.611)">
        <path id="Trazado_604912" data-name="Trazado 604912" d="M316.668,448.8a2.855,2.855,0,1,1,2.854-2.854A2.859,2.859,0,0,1,316.668,448.8Zm0-4.584a1.729,1.729,0,1,0,1.729,1.73A1.732,1.732,0,0,0,316.668,444.216Z" transform="translate(-313.811 -443.091)"/>
      </g>
      <g id="Grupo_879861" data-name="Grupo 879861" transform="translate(307.551 3026.949)">
        <path id="Trazado_604913" data-name="Trazado 604913" d="M308.71,562.828a2.855,2.855,0,1,1,2.855-2.855A2.858,2.858,0,0,1,308.71,562.828Zm0-4.585a1.73,1.73,0,1,0,1.73,1.73A1.733,1.733,0,0,0,308.71,558.242Z" transform="translate(-305.853 -557.117)"/>
      </g>
      <g id="Grupo_879863" data-name="Grupo 879863" transform="translate(226.948 2949.381)">
        <g id="Grupo_879862" data-name="Grupo 879862">
          <path id="Trazado_604914" data-name="Trazado 604914" d="M264.062,489.324h-2.813V488.2h2.813Zm-6.189,0H254.5V488.2h3.377Zm-6.753,0h-3.376V488.2h3.376Zm-6.753,0H240.99V488.2h3.377Zm-6.753,0h-3.377V488.2h3.377Z" transform="translate(-234.237 -488.199)"/>
        </g>
      </g>
      <g id="Grupo_879865" data-name="Grupo 879865" transform="translate(253.638 3025.344)">
        <g id="Grupo_879864" data-name="Grupo 879864">
          <path id="Trazado_604915" data-name="Trazado 604915" d="M287.775,556.816h-2.812v-1.125h2.812Zm-6.188,0H278.21v-1.125h3.376Zm-6.753,0h-3.376v-1.125h3.376Zm-6.753,0H264.7v-1.125h3.376Zm-6.753,0h-3.377v-1.125h3.377Z" transform="translate(-257.951 -555.691)"/>
        </g>
      </g>
      <g id="Grupo_879867" data-name="Grupo 879867" transform="translate(309.406 3037.51)">
        <g id="Grupo_879866" data-name="Grupo 879866">
          <path id="Trazado_604916" data-name="Trazado 604916" d="M337.326,567.626h-2.813V566.5h2.813Zm-6.189,0H327.76V566.5h3.376Zm-6.753,0h-3.376V566.5h3.376Zm-6.753,0h-3.377V566.5h3.377Zm-6.753,0H307.5V566.5h3.376Z" transform="translate(-307.501 -566.501)"/>
        </g>
      </g>
      <g id="Grupo_879869" data-name="Grupo 879869" transform="translate(337.747 2899.08)">
        <g id="Grupo_879868" data-name="Grupo 879868">
          <path id="Trazado_604917" data-name="Trazado 604917" d="M362.507,444.632h-2.813v-1.125h2.813Zm-6.189,0h-3.377v-1.125h3.377Zm-6.753,0h-3.376v-1.125h3.376Zm-6.753,0h-3.377v-1.125h3.377Zm-6.753,0h-3.376v-1.125h3.376Z" transform="translate(-332.682 -443.507)"/>
        </g>
      </g>
      <g id="Grupo_879917" data-name="Grupo 879917" transform="translate(248.91 2975.879)">
        <path id="Trazado_604936" data-name="Trazado 604936" d="M256.606,517.452a2.855,2.855,0,1,1,2.855-2.855A2.858,2.858,0,0,1,256.606,517.452Zm0-4.584a1.729,1.729,0,1,0,1.73,1.729A1.732,1.732,0,0,0,256.606,512.868Z" transform="translate(-253.751 -511.742)"/>
      </g>
    </g>
    <g id="Grupo_879756" data-name="Grupo 879756" transform="translate(-1545.237 -8775.673)">
      <circle id="Elipse_5196" data-name="Elipse 5196" cx="82.336" cy="82.336" r="82.336" fill="#ffd55a"/>
    </g>
    <g id="Grupo_880509" data-name="Grupo 880509" transform="translate(-2136.865 -11692.438)">
      <path id="Trazado_603278" data-name="Trazado 603278" d="M2888.53,46.67h48.809v2.9h-44.551a.789.789,0,0,0-.789.789v65.419h-3.469V46.67Z" transform="translate(-2217.552 2918.674)" fill="#7eb9e7"/>
      <path id="Trazado_603279" data-name="Trazado 603279" d="M2787.3,1318.807V1298.4h1.844v21.382H2787.3Z" transform="translate(-2119.743 1709.247)" fill="#7eb9e7"/>
      <path id="Trazado_603280" data-name="Trazado 603280" d="M1100.057,710.7v4.537a3.749,3.749,0,0,1-7.5,0V676.68h28.647V688.1h-16.1a5.06,5.06,0,0,0-5.055,5.054V710.7Z" transform="translate(-482.277 2309.956)" fill="#7eb9e7"/>
      <path id="Trazado_603281" data-name="Trazado 603281" d="M2155.7,1236.23l.743,2.77-2.77.742a.79.79,0,0,0-.511.428l-1.212,2.6-2.6-1.212a.788.788,0,0,0-.667,0l-2.6,1.212-1.212-2.6a.79.79,0,0,0-.511-.428l-2.77-.742.742-2.77a.788.788,0,0,0-.116-.656l-1.645-2.349,2.349-1.645a.786.786,0,0,0,.333-.577l.25-2.857,2.856.25a.79.79,0,0,0,.626-.228l2.027-2.028,2.028,2.028a.788.788,0,0,0,.626.228l2.857-.25.25,2.857a.788.788,0,0,0,.333.577l2.349,1.645-1.645,2.349A.788.788,0,0,0,2155.7,1236.23Z" transform="translate(-1494.879 1779.065)" fill="#7eb9e7"/>
      <path id="Trazado_603282" data-name="Trazado 603282" d="M46.67,750.658A2.33,2.33,0,0,1,49,748.33H70.176a2.331,2.331,0,0,1,2.328,2.328v1.832H46.67Z" transform="translate(592.087 2178.999)" fill="#7eb9e7"/>
      <path id="Trazado_603283" data-name="Trazado 603283" d="M387.852,2148.24h2.364a.212.212,0,0,1,.212.212v2.364a.212.212,0,0,1-.212.212h-2.364a.212.212,0,0,1-.212-.212v-2.364a.212.212,0,0,1,.212-.212Z" transform="translate(262.64 826.4)" fill="#7eb9e7"/>
      <path id="Trazado_603284" data-name="Trazado 603284" d="M2292.272,1385.143a3.432,3.432,0,1,1,3.432-3.432A3.436,3.436,0,0,1,2292.272,1385.143Z" transform="translate(-1638.129 1632.067)" fill="#fff"/>
      <path id="Trazado_605175" data-name="Trazado 605175" d="M0,0H3.329V3.208H0Z" transform="translate(711.002 3004.231) rotate(-50.45)" fill="#7eb9e7"/>
      <path id="Trazado_605174" data-name="Trazado 605174" d="M0,0H15.534V3.208H0Z" transform="translate(714.129 3000.45) rotate(-50.45)" fill="#7eb9e7"/>
      <path id="Trazado_603285" data-name="Trazado 603285" d="M4491.573,459.6l2.659-3.221,2.475,2.043-6.652,8.056-2.474-2.043,3.993-4.835Z" transform="translate(-3762.562 2522.811)" fill="#7eb9e7"/>
      <path id="Trazado_603286" data-name="Trazado 603286" d="M4697.509,1237.512l2.011-2.858a.574.574,0,0,1,1.042.321l.053,3.494a2.145,2.145,0,0,0,1.517,2.023l3.339,1.029a.573.573,0,0,1,.017,1.091l-3.307,1.13a2.146,2.146,0,0,0-1.455,2.068l.053,3.494a.573.573,0,0,1-1.032.353l-2.1-2.8a2.144,2.144,0,0,0-2.416-.745l-3.307,1.13a.573.573,0,0,1-.654-.873l2.011-2.858a2.145,2.145,0,0,0-.038-2.528l-2.1-2.8a.573.573,0,0,1,.628-.892l3.339,1.03A2.146,2.146,0,0,0,4697.509,1237.512Z" transform="translate(-3959.136 1771.076)" fill="#7eb9e7"/>
      <g id="Grupo_879284" data-name="Grupo 879284" transform="translate(608.706 2985.058)">
        <path id="Trazado_603287" data-name="Trazado 603287" d="M1730.4,2055.281h-28.5a.788.788,0,1,1,0-1.577,3.752,3.752,0,0,0,3.748-3.749v-4.537a.789.789,0,0,1,.789-.789h29.005a.788.788,0,0,1,.789.789v4.029A5.84,5.84,0,0,1,1730.4,2055.281Zm-24.718-1.577H1730.4a4.261,4.261,0,0,0,4.256-4.256v-3.24h-27.428v3.749a5.309,5.309,0,0,1-1.546,3.749Z" transform="translate(-1678.967 -1996.822)"/>
        <path id="Trazado_603288" data-name="Trazado 603288" d="M1450.215,1060.187a5.223,5.223,0,0,1-3.676-1.524,5.529,5.529,0,0,1-1.653-3.92v-34.958a3.481,3.481,0,0,0-3.478-3.478.788.788,0,1,1,0-1.577h30.224a5.061,5.061,0,0,1,5.055,5.054v3.508a.789.789,0,0,1-1.577,0v-3.508a3.481,3.481,0,0,0-3.478-3.478h-26.559a5.037,5.037,0,0,1,1.39,3.478v34.958a3.942,3.942,0,0,0,1.181,2.795,3.653,3.653,0,0,0,2.64,1.072,3.767,3.767,0,0,0,3.676-3.748v-4.537a.788.788,0,0,1,.789-.788h20.362v-4.542a.789.789,0,0,1,1.577,0v5.331a.789.789,0,0,1-.788.788h-20.362v3.748a5.351,5.351,0,0,1-5.224,5.324h-.1Z" transform="translate(-1427.28 -1001.728)"/>
        <path id="Trazado_603289" data-name="Trazado 603289" d="M1051.225,675.457a5.331,5.331,0,0,1-5.325-5.325V630.789a.789.789,0,0,1,.788-.789h30.224a.789.789,0,0,1,.789.789v13a.788.788,0,0,1-1.577,0V631.577h-28.647v38.554a3.749,3.749,0,0,0,7.5,0v-4.537a.788.788,0,1,1,1.577,0v4.537a5.331,5.331,0,0,1-5.325,5.325Z" transform="translate(-1045.9 -630)"/>
        <path id="Trazado_603290" data-name="Trazado 603290" d="M1194.008,1047.176h-13.069a.789.789,0,0,1,0-1.577,3.753,3.753,0,0,0,3.749-3.749v-22.075a5.055,5.055,0,0,1,10.109,0v26.612A.789.789,0,0,1,1194.008,1047.176Zm-9.29-1.577h8.5v-25.824a3.477,3.477,0,1,0-6.955,0v22.075A5.309,5.309,0,0,1,1184.718,1045.6Z" transform="translate(-1175.613 -1001.718)"/>
        <path id="Trazado_603291" data-name="Trazado 603291" d="M2091.759,1190.18a.788.788,0,0,1-.715-.456l-1.39-2.98-3.177-.851a.789.789,0,0,1-.557-.966l.851-3.177-1.887-2.694a.789.789,0,0,1,.194-1.1l2.694-1.886.287-3.276a.789.789,0,0,1,.854-.717l3.276.286,2.325-2.325a.788.788,0,0,1,1.115,0l2.325,2.325,3.276-.286a.789.789,0,0,1,.854.717l.287,3.276,2.693,1.886a.789.789,0,0,1,.194,1.1l-1.886,2.694.851,3.177a.788.788,0,0,1-.558.966l-3.176.851-1.39,2.98a.788.788,0,0,1-1.048.381l-2.98-1.39-2.98,1.39a.781.781,0,0,1-.333.074Zm3.313-3.122a.785.785,0,0,1,.333.074l2.6,1.212,1.212-2.6a.788.788,0,0,1,.511-.429l2.77-.742-.742-2.77a.787.787,0,0,1,.116-.656l1.645-2.349-2.349-1.645a.789.789,0,0,1-.333-.577l-.25-2.857-2.857.25a.789.789,0,0,1-.626-.228l-2.028-2.028-2.028,2.028a.789.789,0,0,1-.626.228l-2.857-.25-.25,2.857a.788.788,0,0,1-.333.577l-2.349,1.645,1.645,2.349a.786.786,0,0,1,.115.656l-.742,2.77,2.77.742a.79.79,0,0,1,.51.429l1.212,2.6,2.6-1.212A.784.784,0,0,1,2095.072,1187.057Z" transform="translate(-2049.634 -1151.567)"/>
        <path id="Trazado_603292" data-name="Trazado 603292" d="M2247.179,1341.618a5.009,5.009,0,1,1,5.009-5.009A5.015,5.015,0,0,1,2247.179,1341.618Zm0-8.441a3.432,3.432,0,1,0,3.432,3.432A3.436,3.436,0,0,0,2247.179,1333.177Z" transform="translate(-2201.742 -1307.889)"/>
        <path id="Trazado_603293" data-name="Trazado 603293" d="M2179.41,1677.493a2.136,2.136,0,0,1-2.012-2.8l2.113-6.424a.789.789,0,1,1,1.5.493l-2.113,6.424a.55.55,0,0,0,.765.666l4.48-2.2a.788.788,0,0,1,.7,0l4.48,2.2a.55.55,0,0,0,.765-.666l-2.113-6.423a.789.789,0,1,1,1.5-.493l2.113,6.423a2.127,2.127,0,0,1-2.958,2.574l-4.133-2.03-4.132,2.03a2.145,2.145,0,0,1-.947.224Z" transform="translate(-2139.052 -1632.658)"/>
        <path id="Trazado_603294" data-name="Trazado 603294" d="M1725.2,1235.857a1.806,1.806,0,0,1-.308-.026,2.4,2.4,0,0,1-1.6-1.252.788.788,0,1,1,1.339-.832c.191.308.389.506.528.53.27.047.825-.4,1.231-.728a3.271,3.271,0,0,1,2.484-1.054,2.4,2.4,0,0,1,1.6,1.252c.191.308.389.506.528.53.27.047.825-.4,1.231-.728a3.443,3.443,0,0,1,2.352-1.071.789.789,0,1,1-.148,1.57c-.277-.025-.8.393-1.216.73a3.258,3.258,0,0,1-2.485,1.054,2.4,2.4,0,0,1-1.6-1.252c-.192-.308-.389-.506-.528-.53-.27-.044-.825.4-1.231.728a3.708,3.708,0,0,1-2.176,1.08Z" transform="translate(-1700.282 -1212.109)"/>
        <path id="Trazado_603295" data-name="Trazado 603295" d="M1725.2,1441.4a1.871,1.871,0,0,1-.308-.026,2.4,2.4,0,0,1-1.6-1.252.788.788,0,1,1,1.339-.832c.192.308.389.506.528.53.27.044.825-.4,1.231-.728a3.264,3.264,0,0,1,2.484-1.054,2.4,2.4,0,0,1,1.6,1.252c.191.307.388.5.526.53.25.046.761-.355.954-.506a.789.789,0,1,1,.971,1.243,2.834,2.834,0,0,1-2.2.815,2.41,2.41,0,0,1-1.59-1.25c-.192-.308-.389-.506-.528-.53-.269-.044-.825.4-1.231.728a3.71,3.71,0,0,1-2.176,1.08Z" transform="translate(-1700.282 -1410.705)"/>
        <path id="Trazado_603296" data-name="Trazado 603296" d="M1725.191,1646.959a1.855,1.855,0,0,1-.308-.026,2.4,2.4,0,0,1-1.6-1.252.788.788,0,0,1,1.339-.832c.192.308.389.506.528.53.27.045.825-.4,1.231-.728a3.265,3.265,0,0,1,2.484-1.053,2.4,2.4,0,0,1,1.6,1.252c.191.308.389.506.528.53.27.045.825-.4,1.231-.728a3.439,3.439,0,0,1,2.352-1.071.789.789,0,1,1-.148,1.57c-.276-.027-.8.393-1.216.73a3.26,3.26,0,0,1-2.484,1.053,2.4,2.4,0,0,1-1.6-1.252c-.192-.308-.389-.506-.528-.53-.269-.046-.825.4-1.231.728A3.709,3.709,0,0,1,1725.191,1646.959Z" transform="translate(-1700.273 -1609.317)"/>
        <path id="Trazado_603297" data-name="Trazado 603297" d="M1731.057,1852.535a1.855,1.855,0,0,1-.308-.026,2.4,2.4,0,0,1-1.6-1.252c-.192-.308-.389-.506-.528-.53-.269-.045-.825.4-1.231.728a3.268,3.268,0,0,1-2.484,1.054,2.4,2.4,0,0,1-1.6-1.252.788.788,0,1,1,1.339-.832c.192.308.389.506.528.53.27.046.825-.4,1.231-.728a3.267,3.267,0,0,1,2.484-1.054,2.4,2.4,0,0,1,1.6,1.252c.191.308.389.506.528.529.268.046.825-.4,1.231-.728a3.438,3.438,0,0,1,2.353-1.071.789.789,0,0,1-.148,1.57c-.276-.025-.8.393-1.216.73a3.71,3.71,0,0,1-2.176,1.08Z" transform="translate(-1700.292 -1807.946)"/>
      </g>
      <g id="Grupo_879295" data-name="Grupo 879295" transform="translate(669.401 2963.768)">
        <g id="Grupo_879294" data-name="Grupo 879294" transform="translate(16.051 12.441)">
          <g id="Grupo_879285" data-name="Grupo 879285" transform="translate(11.961 28.028)">
            <path id="Trazado_603298" data-name="Trazado 603298" d="M3684.607,1203.432h-8.556a.631.631,0,1,1,0-1.262h8.556a.631.631,0,0,1,0,1.262Z" transform="translate(-3675.262 -1202.012)"/>
            <path id="Trazado_603299" data-name="Trazado 603299" d="M3680.094,1199.077h-8.556a.789.789,0,0,1,0-1.577h8.556a.789.789,0,1,1,0,1.577Zm-8.556-1.262a.473.473,0,0,0,0,.946h8.556a.473.473,0,1,0,0-.946Z" transform="translate(-3670.75 -1197.5)"/>
          </g>
          <g id="Grupo_879286" data-name="Grupo 879286" transform="translate(15.463 28.028)">
            <path id="Trazado_603300" data-name="Trazado 603300" d="M3797.237,1215.637h-17.555a.631.631,0,1,1,0-1.262h17.555a1.837,1.837,0,0,0,1.835-1.835v-7.264a1.837,1.837,0,0,0-1.835-1.835.631.631,0,1,1,0-1.262,3.1,3.1,0,0,1,3.1,3.1v7.264a3.1,3.1,0,0,1-3.1,3.1Z" transform="translate(-3778.893 -1202.021)"/>
            <path id="Trazado_603301" data-name="Trazado 603301" d="M3792.734,1211.274h-17.555a.789.789,0,1,1,0-1.577h17.555a1.679,1.679,0,0,0,1.677-1.677v-7.264a1.679,1.679,0,0,0-1.677-1.677.789.789,0,1,1,0-1.577,3.258,3.258,0,0,1,3.254,3.254v7.264a3.258,3.258,0,0,1-3.254,3.254Zm-17.555-1.261a.473.473,0,1,0,0,.946h17.555a2.943,2.943,0,0,0,2.939-2.939v-7.264a2.943,2.943,0,0,0-2.939-2.939.473.473,0,0,0,0,.946,2,2,0,0,1,1.993,1.993v7.264a2,2,0,0,1-1.993,1.993Z" transform="translate(-3774.39 -1197.5)"/>
          </g>
          <g id="Grupo_879287" data-name="Grupo 879287" transform="translate(0 28.029)">
            <path id="Trazado_603302" data-name="Trazado 603302" d="M3324.587,1215.628a3.1,3.1,0,0,1-3.1-3.1v-7.264a3.1,3.1,0,0,1,3.1-3.1h4.067a.631.631,0,0,1,0,1.261h-4.067a1.837,1.837,0,0,0-1.835,1.835v7.264a1.837,1.837,0,0,0,1.835,1.835.631.631,0,1,1,0,1.261Z" transform="translate(-3321.333 -1202.013)"/>
            <path id="Trazado_603303" data-name="Trazado 603303" d="M3320.084,1211.283a3.258,3.258,0,0,1-3.254-3.255v-7.264a3.258,3.258,0,0,1,3.254-3.255h4.067a.789.789,0,1,1,0,1.577h-4.067a1.68,1.68,0,0,0-1.678,1.677v7.264a1.68,1.68,0,0,0,1.678,1.678.789.789,0,0,1,0,1.577Zm0-13.458a2.943,2.943,0,0,0-2.939,2.939v7.264a2.942,2.942,0,0,0,2.939,2.939.473.473,0,1,0,0-.946,2,2,0,0,1-1.993-1.993v-7.264a2,2,0,0,1,1.993-1.993h4.067a.473.473,0,0,0,0-.946Z" transform="translate(-3316.83 -1197.51)"/>
          </g>
          <g id="Grupo_879288" data-name="Grupo 879288" transform="translate(23.648 1.334)">
            <path id="Trazado_603304" data-name="Trazado 603304" d="M4025.559,442.607a.627.627,0,0,1-.4-.144l-3.69-3.047a.632.632,0,0,1-.085-.888l21.284-25.778a1.247,1.247,0,0,1,1.753-.167l2.742,2.264a1.246,1.246,0,0,1,.167,1.753l-21.284,25.777a.63.63,0,0,1-.487.229Zm-2.8-3.762,2.717,2.244,20.872-25.278-2.717-2.244-20.871,25.278Z" transform="translate(-4021.082 -412.14)"/>
            <path id="Trazado_603305" data-name="Trazado 603305" d="M4021.06,438.25a.788.788,0,0,1-.5-.181l-3.69-3.046a.79.79,0,0,1-.106-1.111l21.284-25.777a1.4,1.4,0,0,1,1.976-.188l2.742,2.264a1.4,1.4,0,0,1,.188,1.975l-21.284,25.777A.787.787,0,0,1,4021.06,438.25Zm18.071-30.309c-.035,0-.07,0-.106.005a1.078,1.078,0,0,0-.735.39l-21.284,25.777a.474.474,0,0,0,.063.666l3.69,3.046a.485.485,0,0,0,.666-.064l21.284-25.777a1.088,1.088,0,0,0-.146-1.532l-2.742-2.264a1.08,1.08,0,0,0-.69-.249ZM4021,436.8l-2.961-2.444,21.073-25.522,2.961,2.444Zm-2.516-2.487,2.474,2.043,20.671-25.035-2.474-2.043Z" transform="translate(-4016.582 -407.626)"/>
          </g>
          <g id="Grupo_879289" data-name="Grupo 879289" transform="translate(37.666 10.356)">
            <path id="Trazado_603306" data-name="Trazado 603306" d="M4440.379,683.548a.625.625,0,0,1-.4-.145l-3.69-3.047a.631.631,0,1,1,.8-.973l3.69,3.047a.631.631,0,0,1-.4,1.117Z" transform="translate(-4435.9 -679.081)"/>
            <path id="Trazado_603307" data-name="Trazado 603307" d="M4435.861,679.2a.789.789,0,0,1-.5-.181l-3.69-3.047a.789.789,0,0,1,1-1.216l3.69,3.047a.789.789,0,0,1-.5,1.4Zm-3.689-4.308a.493.493,0,0,0-.365.172.472.472,0,0,0,.063.666l3.69,3.047a.486.486,0,0,0,.666-.064.473.473,0,0,0-.064-.666l-3.69-3.047a.469.469,0,0,0-.3-.108Z" transform="translate(-4431.383 -674.577)"/>
          </g>
          <g id="Grupo_879290" data-name="Grupo 879290" transform="translate(31.628 4.282)">
            <path id="Trazado_603308" data-name="Trazado 603308" d="M4258.009,509.811a.631.631,0,0,1-.486-1.033l6.644-8.047a3.4,3.4,0,0,1,4.777-.456.631.631,0,1,1-.8.973,2.134,2.134,0,0,0-3,.287l-6.645,8.047a.628.628,0,0,1-.487.229Z" transform="translate(-4257.22 -499.342)"/>
            <path id="Trazado_603309" data-name="Trazado 603309" d="M4253.491,505.458a.789.789,0,0,1-.608-1.291l6.645-8.047a3.554,3.554,0,0,1,5-.478.789.789,0,1,1-1,1.216,1.976,1.976,0,0,0-2.778.266l-6.644,8.047a.785.785,0,0,1-.608.286Zm8.781-10.311c-.1,0-.209.005-.314.015a3.214,3.214,0,0,0-2.187,1.16l-6.645,8.047a.475.475,0,0,0-.105.346.47.47,0,0,0,.17.32.486.486,0,0,0,.666-.064l6.644-8.047a2.293,2.293,0,0,1,3.223-.308.464.464,0,0,0,.346.106.474.474,0,0,0,.257-.836A3.21,3.21,0,0,0,4262.272,495.147Z" transform="translate(-4252.703 -494.831)"/>
          </g>
          <g id="Grupo_879291" data-name="Grupo 879291" transform="translate(21.663 27.335)">
            <path id="Trazado_603310" data-name="Trazado 603310" d="M3963.144,1189.072a.631.631,0,0,1-.6-.824l1.984-6.161a.631.631,0,0,1,1-.293l3.69,3.047a.631.631,0,0,1-.1,1.039l-5.675,3.115a.624.624,0,0,1-.3.078Zm2.3-5.714-1.213,3.767,3.469-1.9Z" transform="translate(-3962.355 -1181.492)"/>
            <path id="Trazado_603311" data-name="Trazado 603311" d="M3958.625,1184.725a.789.789,0,0,1-.751-1.03l1.984-6.161a.789.789,0,0,1,1.253-.366l3.69,3.047a.788.788,0,0,1-.123,1.3l-5.674,3.115a.794.794,0,0,1-.38.1Zm1.984-7.423a.474.474,0,0,0-.45.328l-1.985,6.161a.472.472,0,0,0,.15.51.482.482,0,0,0,.529.05l5.674-3.115a.473.473,0,0,0,.073-.78l-3.69-3.047a.473.473,0,0,0-.3-.109Zm-1.169,5.647,1.406-4.365,2.614,2.158-4.02,2.207Zm1.563-3.826-1.02,3.168,2.917-1.6Z" transform="translate(-3957.836 -1176.987)"/>
          </g>
          <g id="Grupo_879292" data-name="Grupo 879292" transform="translate(26.773 23.551)">
            <path id="Trazado_603312" data-name="Trazado 603312" d="M4118.009,1074a.63.63,0,0,1-.4-.144l-3.689-3.047a.631.631,0,0,1,.8-.973l3.69,3.047a.631.631,0,0,1-.4,1.117Z" transform="translate(-4113.531 -1069.531)"/>
            <path id="Trazado_603313" data-name="Trazado 603313" d="M4113.51,1069.646a.792.792,0,0,1-.5-.181l-3.689-3.047a.789.789,0,0,1,1-1.217l3.69,3.047a.789.789,0,0,1-.5,1.4Zm-3.689-4.308a.473.473,0,0,0-.3.838l3.69,3.047a.486.486,0,0,0,.666-.063.474.474,0,0,0-.063-.666l-3.69-3.047A.471.471,0,0,0,4109.82,1065.337Z" transform="translate(-4109.032 -1065.022)"/>
          </g>
          <g id="Grupo_879293" data-name="Grupo 879293" transform="translate(45.797)">
            <path id="Trazado_603314" data-name="Trazado 603314" d="M4680.006,377.8a.625.625,0,0,1-.4-.144l-2.743-2.264a.63.63,0,0,1-.064-.911l.818-.9a2.408,2.408,0,1,1,3.558,3.245l-.7.767a.629.629,0,0,1-.466.206Zm-1.829-2.959,1.768,1.46.3-.325a1.145,1.145,0,0,0-.139-1.675,1.15,1.15,0,0,0-1.554.13l-.373.409Z" transform="translate(-4676.476 -372.645)"/>
            <path id="Trazado_603315" data-name="Trazado 603315" d="M4675.5,373.455a.787.787,0,0,1-.5-.181l-2.742-2.264a.789.789,0,0,1-.081-1.139l.818-.9a2.565,2.565,0,1,1,3.79,3.458l-.7.768A.793.793,0,0,1,4675.5,373.455Zm-.607-5a2.25,2.25,0,0,0-1.667.731l-.818.9a.472.472,0,0,0,.048.683l2.742,2.264a.487.487,0,0,0,.651-.046l.7-.768a2.246,2.246,0,0,0-1.658-3.764Zm.562,3.561-2.012-1.661.483-.531a1.309,1.309,0,0,1,1.768-.148,1.3,1.3,0,0,1,.158,1.9Zm-1.556-1.693,1.525,1.259.2-.214a.988.988,0,0,0-.12-1.444.992.992,0,0,0-1.34.112Z" transform="translate(-4671.973 -368.139)"/>
          </g>
          <path id="Trazado_603316" data-name="Trazado 603316" d="M3472.678,1132.974a10.466,10.466,0,0,1-.346,7.9c-1.132,2.4-3.581,4.351-3.442,7.222a2.951,2.951,0,0,0,1.584,2.677c1.16.5,2.516-.126,3.566-.632a11.58,11.58,0,0,0,5.352-5.052,2.976,2.976,0,0,0-.3-3.194,7.988,7.988,0,0,0-7.351-1.932,3.157,3.157,0,0,0-1.9,2.477,2.619,2.619,0,0,0,1.638,2.574,5.713,5.713,0,0,0,3.854-.063,14.029,14.029,0,0,0,6.761-3.931c.79-.924,1.145-2.492,0-3.317a1.991,1.991,0,0,0-2.771.637,2.522,2.522,0,0,0,.781,3.191,4.975,4.975,0,0,0,4.3.52.71.71,0,0,0-.377-1.369,3.838,3.838,0,0,1-2.859-.137,1.322,1.322,0,0,1-.715-1.022c-.014-.363.252-.866.705-.72.964.311-.552,1.707-.833,1.947a14.23,14.23,0,0,1-4.99,2.722,5.881,5.881,0,0,1-2.879.383c-.833-.189-1.5-.913-1.056-1.767a2.5,2.5,0,0,1,2.725-.987c1.408.2,4.656.968,4.138,2.989a5.859,5.859,0,0,1-1.392,2.141,11.063,11.063,0,0,1-1.862,1.688c-1.023.728-4.005,2.716-4.615.709-.549-1.807.936-3.612,1.9-4.978a12.052,12.052,0,0,0,1.747-11.058c-.3-.856-1.672-.488-1.369.377h0Z" transform="translate(-3463.745 -1106.292)"/>
        </g>
        <path id="Trazado_603317" data-name="Trazado 603317" d="M3265.844,1882.577h-47.956a.789.789,0,0,1,0-1.577,6.854,6.854,0,0,0,6.847-6.846v-7.635a.789.789,0,0,1,.788-.789h48.811a.788.788,0,0,1,.789.789v6.78a9.289,9.289,0,0,1-9.279,9.279ZM3222.791,1881h43.053a7.71,7.71,0,0,0,7.7-7.7v-5.991h-47.234v6.847a8.42,8.42,0,0,1-3.521,6.846Z" transform="translate(-3204.419 -1802.677)"/>
        <path id="Trazado_603318" data-name="Trazado 603318" d="M2999.6,208a8.433,8.433,0,0,1-8.423-8.423V133.369a.789.789,0,0,1,.789-.789h50.862a.788.788,0,0,1,.788.789v4.745a.789.789,0,1,1-1.577,0v-3.957h-49.285v65.419a6.846,6.846,0,0,0,13.693,0v-7.635a.789.789,0,0,1,.789-.789h34.8V163.663a.789.789,0,0,1,1.577,0v28.278a.788.788,0,0,1-.788.788h-34.8v6.847A8.433,8.433,0,0,1,2999.6,208Z" transform="translate(-2986.134 -128.099)"/>
        <path id="Trazado_603319" data-name="Trazado 603319" d="M2847.7,72.265h-5.046a.788.788,0,0,1-.789-.788V.788a.789.789,0,0,1,.789-.788h50.386a.788.788,0,0,1,.789.788V5.269a.789.789,0,0,1-.789.788h-44.551V71.477A.789.789,0,0,1,2847.7,72.265Zm-4.258-1.577h3.469V5.269a.789.789,0,0,1,.789-.789h44.551v-2.9h-48.809V70.688Z" transform="translate(-2841.87)"/>
        <path id="Trazado_603320" data-name="Trazado 603320" d="M3514.807,306.467h-16.648a.789.789,0,0,1,0-1.577h16.648a.789.789,0,0,1,0,1.577Z" transform="translate(-3475.217 -294.586)"/>
        <path id="Trazado_603321" data-name="Trazado 603321" d="M3255.067,454.647h-37.179a.789.789,0,0,1,0-1.577h37.179a.789.789,0,0,1,0,1.577Z" transform="translate(-3204.419 -437.758)"/>
        <path id="Trazado_603322" data-name="Trazado 603322" d="M3251.7,602.837h-33.815a.789.789,0,0,1,0-1.577H3251.7a.789.789,0,0,1,0,1.577Z" transform="translate(-3204.419 -580.94)"/>
        <path id="Trazado_603323" data-name="Trazado 603323" d="M3246.733,751.027h-28.844a.789.789,0,0,1,0-1.577h28.844a.789.789,0,0,1,0,1.577Z" transform="translate(-3204.419 -724.122)"/>
        <path id="Trazado_603324" data-name="Trazado 603324" d="M3245.185,899.217h-27.3a.789.789,0,1,1,0-1.577h27.3a.789.789,0,1,1,0,1.577Z" transform="translate(-3204.419 -867.304)"/>
      </g>
      <path id="Trazado_603325" data-name="Trazado 603325" d="M4655.046,1206.315a2.116,2.116,0,0,1-1.7-.865l-2.1-2.8a.573.573,0,0,0-.645-.2l-3.307,1.13a2.151,2.151,0,0,1-2.454-3.273l2.011-2.858a.573.573,0,0,0-.01-.674l-2.1-2.8a2.151,2.151,0,0,1,2.354-3.345l3.34,1.029a.572.572,0,0,0,.638-.218l2.011-2.858A2.15,2.15,0,0,1,4657,1189.8l.053,3.494a.572.572,0,0,0,.4.539l3.34,1.03a2.151,2.151,0,0,1,.062,4.09l-3.307,1.13a.57.57,0,0,0-.388.551l.053,3.495a2.119,2.119,0,0,1-1.455,2.068,2.2,2.2,0,0,1-.713.12Zm-4.255-5.468a2.145,2.145,0,0,1,1.718.861l2.1,2.8a.574.574,0,0,0,1.032-.353l-.053-3.494a2.146,2.146,0,0,1,1.455-2.068l3.307-1.13a.573.573,0,0,0-.017-1.091l-3.339-1.029a2.145,2.145,0,0,1-1.517-2.023l-.052-3.494a.574.574,0,0,0-1.043-.321l-2.011,2.858a2.146,2.146,0,0,1-2.392.818l-3.34-1.03a.573.573,0,0,0-.627.892l2.1,2.8a2.145,2.145,0,0,1,.038,2.528l-2.011,2.858a.573.573,0,0,0,.654.873l3.307-1.13a2.158,2.158,0,0,1,.7-.117Z" transform="translate(-3913.995 1816.228)"/>
      <g id="Grupo_879296" data-name="Grupo 879296" transform="translate(637.18 2925.753)">
        <path id="Trazado_603326" data-name="Trazado 603326" d="M25.083,757.847H3.905A3.909,3.909,0,0,1,0,753.942V705.565a3.909,3.909,0,0,1,3.905-3.905H25.083a3.909,3.909,0,0,1,3.905,3.905v2.621a.789.789,0,1,1-1.577,0v-2.621a2.331,2.331,0,0,0-2.328-2.328H3.905a2.33,2.33,0,0,0-2.328,2.328v48.377a2.33,2.33,0,0,0,2.328,2.328H25.083a2.331,2.331,0,0,0,2.328-2.328v-7.313a.789.789,0,1,1,1.577,0v7.313a3.91,3.91,0,0,1-3.905,3.9Z" transform="translate(0 -701.66)"/>
        <path id="Trazado_603327" data-name="Trazado 603327" d="M28.2,911.45H.788A.788.788,0,0,1,0,910.662V872.219a.788.788,0,0,1,.788-.788H28.2a.788.788,0,0,1,.788.788V876.8a.789.789,0,0,1-1.577,0v-3.79H1.577v36.866H27.411V906.5a.789.789,0,1,1,1.577,0v4.16a.788.788,0,0,1-.788.788Z" transform="translate(0 -865.693)"/>
        <path id="Trazado_603328" data-name="Trazado 603328" d="M285.247,788.117h-8.778a.789.789,0,0,1,0-1.577h8.779a.789.789,0,0,1,0,1.577Z" transform="translate(-266.363 -783.671)"/>
        <path id="Trazado_603329" data-name="Trazado 603329" d="M345.123,2107.522h-2.364a1.791,1.791,0,0,1-1.789-1.789v-2.365a1.791,1.791,0,0,1,1.789-1.789h2.364a1.791,1.791,0,0,1,1.789,1.789v2.365A1.791,1.791,0,0,1,345.123,2107.522Zm-2.364-4.365a.212.212,0,0,0-.212.212v2.365a.212.212,0,0,0,.212.212h2.364a.212.212,0,0,0,.212-.212v-2.365a.212.212,0,0,0-.212-.212Z" transform="translate(-329.447 -2054.27)"/>
        <path id="Trazado_603330" data-name="Trazado 603330" d="M170.121,1068.132a14.331,14.331,0,1,1,14.331-14.331A14.347,14.347,0,0,1,170.121,1068.132Zm0-27.085a12.754,12.754,0,1,0,12.754,12.754A12.769,12.769,0,0,0,170.121,1041.047Z" transform="translate(-150.525 -1028.054)"/>
        <path id="Trazado_603331" data-name="Trazado 603331" d="M360.405,1068.132c-4.3,0-7.675-6.295-7.675-14.331s3.371-14.331,7.675-14.331,7.675,6.295,7.675,14.331S364.709,1068.132,360.405,1068.132Zm0-27.085c-3.305,0-6.1,5.841-6.1,12.754s2.793,12.754,6.1,12.754,6.1-5.841,6.1-12.754S363.711,1041.047,360.405,1041.047Z" transform="translate(-340.809 -1028.054)"/>
        <path id="Trazado_603332" data-name="Trazado 603332" d="M170.121,1251.771c-8.036,0-14.331-3.371-14.331-7.675s6.3-7.675,14.331-7.675,14.331,3.371,14.331,7.675S178.157,1251.771,170.121,1251.771Zm0-13.773c-6.913,0-12.754,2.792-12.754,6.1s5.84,6.1,12.754,6.1,12.754-2.792,12.754-6.1S177.034,1238,170.121,1238Z" transform="translate(-150.525 -1218.348)"/>
        <path id="Trazado_603333" data-name="Trazado 603333" d="M183.664,1441.777H156.578a.788.788,0,1,1,0-1.577h27.085a.788.788,0,1,1,0,1.577Z" transform="translate(-150.525 -1415.241)"/>
        <path id="Trazado_603334" data-name="Trazado 603334" d="M557.3,1068.132a.788.788,0,0,1-.788-.789v-27.085a.789.789,0,0,1,1.577,0v27.085A.788.788,0,0,1,557.3,1068.132Z" transform="translate(-537.703 -1028.054)"/>
      </g>
      <g id="Grupo_879297" data-name="Grupo 879297" transform="translate(643.161 2910.454)">
        <path id="Trazado_603335" data-name="Trazado 603335" d="M366.1,371.024a.789.789,0,0,1-.694-.413l-.46-.848a.789.789,0,1,1,1.386-.752l.46.848a.789.789,0,0,1-.692,1.165Z" transform="translate(-358.506 -364.557)"/>
        <path id="Trazado_603336" data-name="Trazado 603336" d="M195.189,263.258a.789.789,0,0,1-.723-1.1,8.3,8.3,0,1,0-15.373-.371.789.789,0,1,1-1.475.559,9.873,9.873,0,1,1,18.3.439.789.789,0,0,1-.724.476Z" transform="translate(-176.984 -248.986)"/>
        <path id="Trazado_603337" data-name="Trazado 603337" d="M345.157,393.4a.788.788,0,0,1-.642-1.245,1.582,1.582,0,0,0,.146-1.676,1.69,1.69,0,0,0-2.314-.56,3.422,3.422,0,0,1-2.5.318,3.061,3.061,0,0,1-2.157-3.978,3.475,3.475,0,0,1,4.123-2.236,3.07,3.07,0,0,1,1.957,1.512.789.789,0,1,1-1.387.752,1.51,1.51,0,0,0-.967-.738,1.9,1.9,0,0,0-2.232,1.21,1.485,1.485,0,0,0,1.058,1.95,1.846,1.846,0,0,0,1.347-.178,3.266,3.266,0,0,1,4.453,1.195,3.148,3.148,0,0,1-.246,3.341.788.788,0,0,1-.643.332Z" transform="translate(-332.1 -379.356)"/>
      </g>
      <g id="Grupo_879298" data-name="Grupo 879298" transform="translate(614.419 2974.07)">
        <path id="Trazado_603338" data-name="Trazado 603338" d="M1458.539,390.8a.789.789,0,0,1-.748-1.04l.238-.707a.789.789,0,1,1,1.495.5l-.237.707A.789.789,0,0,1,1458.539,390.8Z" transform="translate(-1449.545 -385.682)"/>
        <path id="Trazado_603339" data-name="Trazado 603339" d="M1215.847,314.654a.788.788,0,0,1-.776-.653,7.819,7.819,0,1,1,15.417-.064.789.789,0,1,1-1.556-.26,6.242,6.242,0,1,0-12.308.052.79.79,0,0,1-.778.925Z" transform="translate(-1214.956 -304.835)"/>
        <path id="Trazado_603340" data-name="Trazado 603340" d="M1385.763,413.084a.789.789,0,0,1-.786-.74,1.2,1.2,0,0,0-.839-1.02,2.637,2.637,0,1,1,1.677-4.994,2.826,2.826,0,0,1,1.6,1.33,2.554,2.554,0,0,1,.188,2.048.789.789,0,1,1-1.495-.5.994.994,0,0,0-.08-.795,1.254,1.254,0,0,0-.711-.585,1.064,1.064,0,1,0-.673,2,2.783,2.783,0,0,1,1.911,2.418.788.788,0,0,1-.739.835h-.049Z" transform="translate(-1376.57 -402.755)"/>
      </g>
    </g>
  </g>
</svg>
