<svg xmlns="http://www.w3.org/2000/svg" xmlns:xlink="http://www.w3.org/1999/xlink" width="174.945" height="157.842" viewBox="0 0 174.945 157.842">
  <defs>
    <linearGradient id="linear-gradient" x1="0.593" y1="1.339" x2="0.43" y2="-0.14" gradientUnits="objectBoundingBox">
      <stop offset="0.067" stop-color="#005bc3"/>
      <stop offset="0.27" stop-color="#1f75d0"/>
      <stop offset="0.714" stop-color="#6fb7f4"/>
      <stop offset="0.818" stop-color="#83c8fd"/>
    </linearGradient>
    <linearGradient id="linear-gradient-2" x1="0.305" y1="0.042" x2="0.705" y2="0.977" gradientUnits="objectBoundingBox">
      <stop offset="0" stop-color="#f2f9ff"/>
      <stop offset="0.227" stop-color="#edf1ff"/>
      <stop offset="0.576" stop-color="#e1dbff"/>
      <stop offset="0.997" stop-color="#ceb9ff"/>
    </linearGradient>
    <linearGradient id="linear-gradient-3" x1="0.459" y1="-0.02" x2="0.537" y2="0.972" gradientUnits="objectBoundingBox">
      <stop offset="0.076" stop-color="#fff"/>
      <stop offset="1" stop-color="#fff" stop-opacity="0"/>
    </linearGradient>
    <clipPath id="clip-path">
      <path id="Trazado_370" data-name="Trazado 370" d="M597.593,346.464l.887,2.015a.849.849,0,0,0-.389-.288,1.209,1.209,0,0,0-1.418.526l-.887-2.015a1.208,1.208,0,0,1,1.418-.525A.843.843,0,0,1,597.593,346.464Z" fill="none"/>
    </clipPath>
    <clipPath id="clip-path-2">
      <path id="Trazado_382" data-name="Trazado 382" d="M571.661,351.925c-4.008,7.009-4.637,14.469-2.415,20.865l-.887-2.015c-2.222-6.4-1.593-13.856,2.415-20.864,8.013-14.01,26.51-20.91,41.3-15.408a24.135,24.135,0,0,1,14.042,12.8l.887,2.015a24.14,24.14,0,0,0-14.042-12.8C598.17,331.015,579.673,337.915,571.661,351.925Z" fill="none"/>
    </clipPath>
    <clipPath id="clip-path-3">
      <path id="Trazado_384" data-name="Trazado 384" d="M569.246,372.79q.3.855.661,1.683l-.886-2.015q-.364-.828-.662-1.683l.1.236.11.249.114.259.116.263C568.95,372.118,569.112,372.448,569.246,372.79Z" fill="none"/>
    </clipPath>
    <clipPath id="clip-path-4">
      <path id="Trazado_389" data-name="Trazado 389" d="M584.873,369.349a.843.843,0,0,0-.06.77l-.887-2.015a.843.843,0,0,1,.061-.77Z" fill="none"/>
    </clipPath>
    <clipPath id="clip-path-5">
      <path id="Trazado_391" data-name="Trazado 391" d="M584.813,370.119l-.887-2.015a.833.833,0,0,0,.481.443,1.074,1.074,0,0,0,.528.05l.887,2.015a1.073,1.073,0,0,1-.528-.05A.833.833,0,0,1,584.813,370.119Z" fill="none"/>
    </clipPath>
    <clipPath id="clip-path-6">
      <path id="Trazado_394" data-name="Trazado 394" d="M610.655,363.952l.887,2.015a.755.755,0,0,0-.09-.154l-.887-2.015A.755.755,0,0,1,610.655,363.952Z" fill="none"/>
    </clipPath>
    <clipPath id="clip-path-7">
      <path id="Trazado_407" data-name="Trazado 407" d="M610.655,363.952l.887,2.015a1.063,1.063,0,0,1-.954,1.355l-.886-2.014A1.064,1.064,0,0,0,610.655,363.952Z" fill="none"/>
    </clipPath>
    <linearGradient id="linear-gradient-4" x1="0.145" y1="0.954" x2="0.975" y2="0.155" gradientUnits="objectBoundingBox">
      <stop offset="0" stop-color="#a81c69"/>
      <stop offset="0.077" stop-color="#891159"/>
      <stop offset="0.128" stop-color="#7a0d52"/>
      <stop offset="0.284" stop-color="#700d52"/>
      <stop offset="0.584" stop-color="#610d52"/>
      <stop offset="0.66" stop-color="#660d53"/>
      <stop offset="0.756" stop-color="#761057"/>
      <stop offset="0.864" stop-color="#90145d"/>
      <stop offset="0.978" stop-color="#b41a67"/>
      <stop offset="1" stop-color="#bc1c69"/>
    </linearGradient>
    <radialGradient id="radial-gradient" cx="0.617" cy="1.655" r="1.807" gradientTransform="translate(0.053) scale(0.895 1)" gradientUnits="objectBoundingBox">
      <stop offset="0.342" stop-color="#da334f"/>
      <stop offset="0.676" stop-color="#ff597d"/>
      <stop offset="0.989" stop-color="#ffa19a"/>
    </radialGradient>
    <linearGradient id="linear-gradient-5" x1="0.303" y1="-0.025" x2="0.661" y2="0.927" xlink:href="#linear-gradient-3"/>
    <linearGradient id="linear-gradient-6" x1="0.074" y1="0.119" x2="0.957" y2="1.706" gradientUnits="objectBoundingBox">
      <stop offset="0" stop-color="#f2f9ff"/>
      <stop offset="0.957" stop-color="#cfbbff"/>
      <stop offset="1" stop-color="#ceb9ff"/>
    </linearGradient>
    <linearGradient id="linear-gradient-7" x1="1.21" y1="0.193" x2="-1.836" y2="1.497" gradientUnits="objectBoundingBox">
      <stop offset="0.002" stop-color="#e0d4ff"/>
      <stop offset="0.016" stop-color="#c9baf5"/>
      <stop offset="0.03" stop-color="#baaaef"/>
      <stop offset="0.04" stop-color="#b6a5ed"/>
      <stop offset="0.176" stop-color="#a595e1"/>
      <stop offset="0.443" stop-color="#7a6dc4"/>
      <stop offset="0.534" stop-color="#6b5fba"/>
      <stop offset="0.718" stop-color="#6c60bb"/>
      <stop offset="0.784" stop-color="#7367bf"/>
      <stop offset="0.832" stop-color="#7f73c6"/>
      <stop offset="0.87" stop-color="#9084d0"/>
      <stop offset="0.903" stop-color="#a69add"/>
      <stop offset="0.931" stop-color="#c0b4ec"/>
      <stop offset="0.956" stop-color="#e0d4ff"/>
    </linearGradient>
    <linearGradient id="linear-gradient-8" x1="0.044" y1="0.807" x2="0.95" y2="0.153" gradientUnits="objectBoundingBox">
      <stop offset="0" stop-color="#e07cec"/>
      <stop offset="0.023" stop-color="#c86bda"/>
      <stop offset="0.064" stop-color="#a352bf"/>
      <stop offset="0.103" stop-color="#8940ab"/>
      <stop offset="0.137" stop-color="#7935a0"/>
      <stop offset="0.164" stop-color="#74329c"/>
      <stop offset="0.615" stop-color="#74329c"/>
      <stop offset="0.689" stop-color="#74329c"/>
      <stop offset="0.803" stop-color="#74329c"/>
      <stop offset="0.822" stop-color="#74329c"/>
      <stop offset="0.853" stop-color="#78359f"/>
      <stop offset="0.888" stop-color="#863ea9"/>
      <stop offset="0.926" stop-color="#9d4eba"/>
      <stop offset="0.965" stop-color="#bc63d1"/>
      <stop offset="1" stop-color="#e07cec"/>
    </linearGradient>
    <linearGradient id="linear-gradient-9" x1="0.264" y1="2.646" x2="0.499" y2="0.511" gradientUnits="objectBoundingBox">
      <stop offset="0.285" stop-color="#cb25df"/>
      <stop offset="0.994" stop-color="#e07cec"/>
    </linearGradient>
    <linearGradient id="linear-gradient-10" x1="0.563" y1="-0.08" x2="0.471" y2="0.766" xlink:href="#linear-gradient-3"/>
    <linearGradient id="linear-gradient-11" x1="0.975" y1="-0.386" x2="0.097" y2="0.991" gradientUnits="objectBoundingBox">
      <stop offset="0" stop-color="#32a5fc"/>
      <stop offset="0.019" stop-color="#2a96ee"/>
      <stop offset="0.073" stop-color="#1874cc"/>
      <stop offset="0.124" stop-color="#0a5bb4"/>
      <stop offset="0.17" stop-color="#024ca6"/>
      <stop offset="0.208" stop-color="#0047a1"/>
      <stop offset="0.251" stop-color="#00429b"/>
      <stop offset="0.305" stop-color="#00358b"/>
      <stop offset="0.346" stop-color="#00287b"/>
      <stop offset="0.505" stop-color="#002c80"/>
      <stop offset="0.708" stop-color="#003990"/>
      <stop offset="0.861" stop-color="#0047a1"/>
      <stop offset="0.886" stop-color="#024ca6"/>
      <stop offset="0.917" stop-color="#0b5cb5"/>
      <stop offset="0.951" stop-color="#1976ce"/>
      <stop offset="0.988" stop-color="#2c9af1"/>
      <stop offset="0.998" stop-color="#32a5fc"/>
    </linearGradient>
    <linearGradient id="linear-gradient-12" x1="0.024" y1="0.776" x2="0.999" y2="0.188" gradientUnits="objectBoundingBox">
      <stop offset="0" stop-color="#31ffae"/>
      <stop offset="0.003" stop-color="#2af3a6"/>
      <stop offset="0.01" stop-color="#1eda96"/>
      <stop offset="0.017" stop-color="#16cb8c"/>
      <stop offset="0.023" stop-color="#14c689"/>
      <stop offset="0.039" stop-color="#10bb83"/>
      <stop offset="0.079" stop-color="#0aa579"/>
      <stop offset="0.127" stop-color="#059470"/>
      <stop offset="0.187" stop-color="#02886b"/>
      <stop offset="0.27" stop-color="#008167"/>
      <stop offset="0.501" stop-color="#008067"/>
      <stop offset="0.799" stop-color="#008067"/>
      <stop offset="0.842" stop-color="#008067"/>
      <stop offset="0.86" stop-color="#018569"/>
      <stop offset="0.882" stop-color="#059370"/>
      <stop offset="0.906" stop-color="#0cac7c"/>
      <stop offset="0.925" stop-color="#14c689"/>
      <stop offset="0.943" stop-color="#17cb8b"/>
      <stop offset="0.967" stop-color="#21dc91"/>
      <stop offset="0.993" stop-color="#31f79b"/>
      <stop offset="1" stop-color="#36ff9f"/>
    </linearGradient>
    <linearGradient id="linear-gradient-13" x1="0.479" y1="1.728" x2="0.515" y2="-0.383" gradientUnits="objectBoundingBox">
      <stop offset="0" stop-color="#08bf8c"/>
      <stop offset="0.411" stop-color="#20e49f"/>
      <stop offset="0.673" stop-color="#31ffae"/>
      <stop offset="0.99" stop-color="#6effcd"/>
    </linearGradient>
    <linearGradient id="linear-gradient-14" x1="0.482" y1="-0.153" x2="0.518" y2="1.148" xlink:href="#linear-gradient-3"/>
  </defs>
  <g id="Grupo_872894" data-name="Grupo 872894" transform="translate(-500.055 -300.288)" style="isolation: isolate">
    <path id="Trazado_200" data-name="Trazado 200" d="M517.3,380.109l-15.985,27.952c-2.746,4.8-.862,10.221,4.216,12.109l94.927,35.3a12.068,12.068,0,0,0,14.15-5.279l15.986-27.951Z" fill="url(#linear-gradient)"/>
    <path id="Trazado_201" data-name="Trazado 201" d="M668.647,336.242c5.07,1.886,6.954,7.3,4.208,12.106L630.6,422.228,517.31,380.094l42.251-73.879a12.071,12.071,0,0,1,14.159-5.276Z" fill="url(#linear-gradient-2)"/>
    <path id="Trazado_202" data-name="Trazado 202" d="M668.647,336.242l-94.927-35.3a12.071,12.071,0,0,0-14.159,5.276L517.31,380.094l.45.186-.459-.171-15.985,27.952c-2.746,4.8-.862,10.221,4.216,12.109l94.927,35.3a12.068,12.068,0,0,0,14.15-5.279l15.986-27.951-.152-.056.16.041,42.252-73.88C675.6,343.547,673.717,338.128,668.647,336.242Zm3.938,11.953-42.251,73.877.146-.061-.085.272-.07-.195L614.34,450.04a11.847,11.847,0,0,1-10.184,5.771,10.257,10.257,0,0,1-3.589-.629l-94.927-35.3a7.891,7.891,0,0,1-4.824-4.683,8.249,8.249,0,0,1,.77-6.98l15.854-27.723.211.079.228-.579-.124-.051,42.076-73.572a11.848,11.848,0,0,1,10.184-5.771,10.285,10.285,0,0,1,3.6.632l94.927,35.3a7.884,7.884,0,0,1,4.816,4.677A8.258,8.258,0,0,1,672.585,348.2Z" fill="url(#linear-gradient-3)" style="mix-blend-mode: overlay;isolation: isolate"/>
    <g id="Grupo_143" data-name="Grupo 143" opacity="0.8" style="mix-blend-mode: multiply;isolation: isolate">
      <path id="Trazado_203" data-name="Trazado 203" d="M615.6,340.212c-14.795-5.5-33.292,1.4-41.3,15.408s-2.516,29.842,12.279,35.344,33.3-1.395,41.316-15.413S630.4,345.717,615.6,340.212Z" fill="#d7c8ff" opacity="0"/>
      <path id="Trazado_204" data-name="Trazado 204" d="M615.585,340.188c-14.8-5.5-33.292,1.4-41.3,15.408s-2.516,29.843,12.279,35.345,33.3-1.4,41.316-15.413S630.387,345.693,615.585,340.188Z" fill="#d6c7fe" opacity="0.006"/>
      <path id="Trazado_205" data-name="Trazado 205" d="M615.568,340.164c-14.795-5.5-33.292,1.4-41.3,15.408s-2.516,29.843,12.279,35.345,33.3-1.395,41.316-15.413S630.37,345.67,615.568,340.164Z" fill="#d5c6fe" opacity="0.013"/>
      <path id="Trazado_206" data-name="Trazado 206" d="M615.551,340.141c-14.8-5.5-33.292,1.4-41.3,15.408s-2.516,29.842,12.279,35.344,33.3-1.4,41.316-15.413S630.353,345.646,615.551,340.141Z" fill="#d4c6fd" opacity="0.019"/>
      <path id="Trazado_207" data-name="Trazado 207" d="M615.534,340.117c-14.795-5.5-33.292,1.4-41.3,15.408s-2.516,29.843,12.279,35.344,33.3-1.395,41.316-15.412S630.336,345.622,615.534,340.117Z" fill="#d3c5fc" opacity="0.025"/>
      <path id="Trazado_208" data-name="Trazado 208" d="M615.517,340.093c-14.8-5.5-33.292,1.4-41.3,15.408s-2.516,29.843,12.279,35.345,33.3-1.4,41.316-15.413S630.319,345.6,615.517,340.093Z" fill="#d2c4fb" opacity="0.032"/>
      <path id="Trazado_209" data-name="Trazado 209" d="M615.5,340.069c-14.795-5.5-33.292,1.4-41.3,15.409s-2.516,29.842,12.279,35.344,33.3-1.395,41.316-15.413S630.3,345.575,615.5,340.069Z" fill="#d1c3fb" opacity="0.038"/>
      <path id="Trazado_210" data-name="Trazado 210" d="M615.483,340.046c-14.795-5.5-33.292,1.4-41.3,15.408S571.663,385.3,586.458,390.8s33.3-1.395,41.316-15.413S630.285,345.551,615.483,340.046Z" fill="#d0c3fa" opacity="0.045"/>
      <path id="Trazado_211" data-name="Trazado 211" d="M615.466,340.022c-14.795-5.5-33.292,1.4-41.3,15.408s-2.516,29.843,12.279,35.344,33.3-1.395,41.316-15.412S630.268,345.527,615.466,340.022Z" fill="#cfc2f9" opacity="0.051"/>
      <path id="Trazado_212" data-name="Trazado 212" d="M615.449,340c-14.795-5.5-33.292,1.4-41.3,15.408s-2.516,29.843,12.279,35.345,33.3-1.4,41.316-15.413S630.251,345.5,615.449,340Z" fill="#cec1f9" opacity="0.057"/>
      <path id="Trazado_213" data-name="Trazado 213" d="M615.432,339.975c-14.795-5.5-33.292,1.4-41.3,15.407s-2.516,29.843,12.279,35.345,33.3-1.395,41.316-15.413S630.234,345.48,615.432,339.975Z" fill="#cdc0f8" opacity="0.064"/>
      <path id="Trazado_214" data-name="Trazado 214" d="M615.415,339.951c-14.795-5.5-33.292,1.4-41.3,15.408S571.595,385.2,586.389,390.7s33.3-1.395,41.317-15.413S630.217,345.456,615.415,339.951Z" fill="#ccc0f7" opacity="0.07"/>
      <path id="Trazado_215" data-name="Trazado 215" d="M615.4,339.927c-14.795-5.5-33.292,1.4-41.3,15.408s-2.516,29.843,12.278,35.345,33.3-1.4,41.317-15.413S630.2,345.432,615.4,339.927Z" fill="#cbbff6" opacity="0.076"/>
      <path id="Trazado_216" data-name="Trazado 216" d="M615.381,339.9c-14.795-5.5-33.292,1.4-41.3,15.408s-2.516,29.843,12.278,35.345,33.3-1.4,41.317-15.413S630.183,345.408,615.381,339.9Z" fill="#cabef6" opacity="0.083"/>
      <path id="Trazado_217" data-name="Trazado 217" d="M615.364,339.88c-14.8-5.5-33.292,1.4-41.3,15.408s-2.516,29.842,12.278,35.344,33.3-1.395,41.317-15.413S630.166,345.385,615.364,339.88Z" fill="#c9bdf5" opacity="0.089"/>
      <path id="Trazado_218" data-name="Trazado 218" d="M615.346,339.856c-14.794-5.5-33.291,1.4-41.3,15.408s-2.516,29.842,12.278,35.344,33.3-1.395,41.317-15.413S630.149,345.361,615.346,339.856Z" fill="#c8bdf4" opacity="0.096"/>
      <path id="Trazado_219" data-name="Trazado 219" d="M615.329,339.832c-14.794-5.5-33.291,1.4-41.3,15.408s-2.516,29.843,12.278,35.345,33.3-1.4,41.317-15.413S630.132,345.337,615.329,339.832Z" fill="#c7bcf3" opacity="0.102"/>
      <path id="Trazado_220" data-name="Trazado 220" d="M615.312,339.808c-14.794-5.5-33.291,1.4-41.3,15.408s-2.516,29.843,12.278,35.345,33.3-1.4,41.316-15.413S630.115,345.314,615.312,339.808Z" fill="#c6bbf3" opacity="0.108"/>
      <path id="Trazado_221" data-name="Trazado 221" d="M615.295,339.785c-14.794-5.5-33.291,1.4-41.3,15.408s-2.516,29.842,12.278,35.344,33.3-1.395,41.316-15.413S630.1,345.29,615.295,339.785Z" fill="#c5baf2" opacity="0.115"/>
      <path id="Trazado_222" data-name="Trazado 222" d="M615.278,339.761c-14.794-5.5-33.291,1.4-41.3,15.408s-2.516,29.843,12.278,35.344,33.3-1.395,41.316-15.412S630.081,345.266,615.278,339.761Z" fill="#c4b9f1" opacity="0.121"/>
      <path id="Trazado_223" data-name="Trazado 223" d="M615.261,339.737c-14.794-5.5-33.291,1.4-41.3,15.408s-2.516,29.843,12.278,35.345,33.3-1.4,41.316-15.413S630.064,345.242,615.261,339.737Z" fill="#c3b9f1" opacity="0.127"/>
      <path id="Trazado_224" data-name="Trazado 224" d="M615.244,339.713c-14.794-5.5-33.291,1.4-41.3,15.408s-2.515,29.843,12.279,35.345,33.3-1.395,41.316-15.413S630.047,345.219,615.244,339.713Z" fill="#c2b8f0" opacity="0.134"/>
      <path id="Trazado_225" data-name="Trazado 225" d="M615.227,339.69c-14.794-5.5-33.291,1.4-41.3,15.408s-2.515,29.842,12.279,35.344,33.3-1.395,41.316-15.413S630.03,345.2,615.227,339.69Z" fill="#c1b7ef" opacity="0.14"/>
      <path id="Trazado_226" data-name="Trazado 226" d="M615.21,339.666c-14.794-5.5-33.291,1.4-41.3,15.408s-2.515,29.843,12.279,35.344,33.3-1.395,41.316-15.412S630.013,345.171,615.21,339.666Z" fill="#c0b6ee" opacity="0.146"/>
      <path id="Trazado_227" data-name="Trazado 227" d="M615.193,339.642c-14.794-5.5-33.291,1.4-41.3,15.408s-2.515,29.843,12.279,35.345,33.3-1.4,41.316-15.413S630,345.147,615.193,339.642Z" fill="#bfb6ee" opacity="0.153"/>
      <path id="Trazado_228" data-name="Trazado 228" d="M615.176,339.619c-14.794-5.5-33.291,1.4-41.3,15.407s-2.515,29.843,12.279,35.345,33.3-1.395,41.316-15.413S629.979,345.124,615.176,339.619Z" fill="#beb5ed" opacity="0.159"/>
      <path id="Trazado_229" data-name="Trazado 229" d="M615.159,339.6c-14.794-5.5-33.292,1.4-41.3,15.408s-2.515,29.842,12.279,35.344,33.3-1.395,41.316-15.413S629.962,345.1,615.159,339.6Z" fill="#bdb4ec" opacity="0.166"/>
      <path id="Trazado_230" data-name="Trazado 230" d="M615.142,339.571c-14.794-5.5-33.292,1.4-41.3,15.408s-2.516,29.843,12.279,35.345,33.3-1.4,41.316-15.413S629.945,345.076,615.142,339.571Z" fill="#bcb3ec" opacity="0.172"/>
      <path id="Trazado_231" data-name="Trazado 231" d="M615.125,339.547c-14.794-5.5-33.292,1.4-41.3,15.408S571.3,384.8,586.1,390.3s33.3-1.395,41.316-15.413S629.928,345.052,615.125,339.547Z" fill="#bbb3eb" opacity="0.178"/>
      <path id="Trazado_232" data-name="Trazado 232" d="M615.108,339.524c-14.794-5.5-33.292,1.4-41.3,15.408s-2.516,29.842,12.279,35.344,33.3-1.395,41.316-15.413S629.911,345.029,615.108,339.524Z" fill="#bab2ea" opacity="0.185"/>
      <path id="Trazado_233" data-name="Trazado 233" d="M615.091,339.5c-14.794-5.5-33.292,1.4-41.3,15.408s-2.516,29.843,12.279,35.344,33.3-1.4,41.316-15.412S629.894,345.005,615.091,339.5Z" fill="#b9b1e9" opacity="0.191"/>
      <path id="Trazado_234" data-name="Trazado 234" d="M615.074,339.476c-14.795-5.5-33.292,1.4-41.3,15.408s-2.516,29.843,12.279,35.345,33.3-1.4,41.316-15.413S629.876,344.981,615.074,339.476Z" fill="#b8b0e9" opacity="0.197"/>
      <path id="Trazado_235" data-name="Trazado 235" d="M615.057,339.452c-14.795-5.5-33.292,1.4-41.3,15.408S571.237,384.7,586.032,390.2s33.3-1.395,41.316-15.413S629.859,344.958,615.057,339.452Z" fill="#b7b0e8" opacity="0.204"/>
      <path id="Trazado_236" data-name="Trazado 236" d="M615.04,339.429c-14.795-5.5-33.292,1.4-41.3,15.408s-2.516,29.842,12.279,35.344,33.3-1.395,41.316-15.413S629.842,344.934,615.04,339.429Z" fill="#b6afe7" opacity="0.21"/>
      <path id="Trazado_237" data-name="Trazado 237" d="M615.023,339.4c-14.795-5.5-33.292,1.4-41.3,15.408S571.2,384.656,586,390.157s33.3-1.4,41.316-15.412S629.825,344.91,615.023,339.4Z" fill="#b5aee7" opacity="0.217"/>
      <path id="Trazado_238" data-name="Trazado 238" d="M615.006,339.381c-14.795-5.5-33.292,1.4-41.3,15.408s-2.516,29.843,12.279,35.345,33.3-1.4,41.316-15.413S629.808,344.886,615.006,339.381Z" fill="#b4ade6" opacity="0.223"/>
      <path id="Trazado_239" data-name="Trazado 239" d="M614.989,339.358c-14.8-5.5-33.292,1.4-41.3,15.407s-2.516,29.843,12.279,35.345,33.3-1.395,41.316-15.413S629.791,344.863,614.989,339.358Z" fill="#b3ace5" opacity="0.229"/>
      <path id="Trazado_240" data-name="Trazado 240" d="M614.972,339.334c-14.795-5.5-33.292,1.4-41.3,15.408s-2.516,29.842,12.279,35.344,33.3-1.395,41.316-15.413S629.774,344.839,614.972,339.334Z" fill="#b2ace4" opacity="0.236"/>
      <path id="Trazado_241" data-name="Trazado 241" d="M614.955,339.31c-14.8-5.5-33.292,1.4-41.3,15.408s-2.516,29.843,12.279,35.345,33.3-1.4,41.316-15.413S629.757,344.815,614.955,339.31Z" fill="#b1abe4" opacity="0.242"/>
      <path id="Trazado_242" data-name="Trazado 242" d="M614.938,339.286c-14.795-5.5-33.292,1.4-41.3,15.408s-2.516,29.843,12.279,35.345,33.3-1.395,41.316-15.413S629.74,344.791,614.938,339.286Z" fill="#b0aae3" opacity="0.248"/>
      <path id="Trazado_243" data-name="Trazado 243" d="M614.921,339.263c-14.8-5.5-33.292,1.4-41.3,15.408S571.1,384.513,585.9,390.015s33.3-1.4,41.316-15.413S629.723,344.768,614.921,339.263Z" fill="#afa9e2" opacity="0.255"/>
      <path id="Trazado_244" data-name="Trazado 244" d="M614.9,339.239c-14.795-5.5-33.292,1.4-41.3,15.408s-2.516,29.842,12.279,35.344,33.3-1.395,41.316-15.413S629.706,344.744,614.9,339.239Z" fill="#aea9e1" opacity="0.261"/>
      <path id="Trazado_245" data-name="Trazado 245" d="M614.887,339.215c-14.8-5.5-33.292,1.4-41.3,15.408s-2.516,29.843,12.279,35.345,33.3-1.4,41.316-15.413S629.689,344.72,614.887,339.215Z" fill="#ada8e1" opacity="0.268"/>
      <path id="Trazado_246" data-name="Trazado 246" d="M614.87,339.191c-14.795-5.5-33.292,1.4-41.3,15.408s-2.516,29.843,12.278,35.345,33.3-1.395,41.317-15.413S629.672,344.7,614.87,339.191Z" fill="#aca7e0" opacity="0.274"/>
      <path id="Trazado_247" data-name="Trazado 247" d="M614.853,339.168c-14.8-5.5-33.292,1.4-41.3,15.408s-2.516,29.842,12.278,35.344,33.3-1.4,41.317-15.413S629.655,344.673,614.853,339.168Z" fill="#aba6df" opacity="0.28"/>
      <path id="Trazado_248" data-name="Trazado 248" d="M614.836,339.144c-14.795-5.5-33.292,1.4-41.3,15.408s-2.516,29.843,12.278,35.344,33.3-1.395,41.317-15.412S629.638,344.649,614.836,339.144Z" fill="#aaa6df" opacity="0.287"/>
      <path id="Trazado_249" data-name="Trazado 249" d="M614.819,339.12c-14.795-5.5-33.292,1.4-41.3,15.408S571,384.371,585.793,389.873s33.3-1.4,41.317-15.413S629.621,344.625,614.819,339.12Z" fill="#a9a5de" opacity="0.293"/>
      <path id="Trazado_250" data-name="Trazado 250" d="M614.8,339.1c-14.794-5.5-33.291,1.4-41.3,15.408s-2.516,29.843,12.278,35.345,33.3-1.395,41.317-15.413S629.6,344.6,614.8,339.1Z" fill="#a8a4dd" opacity="0.299"/>
      <path id="Trazado_251" data-name="Trazado 251" d="M614.784,339.073c-14.794-5.5-33.291,1.4-41.3,15.408s-2.516,29.842,12.278,35.344,33.3-1.4,41.317-15.413S629.587,344.578,614.784,339.073Z" fill="#a7a3dc" opacity="0.306"/>
      <path id="Trazado_252" data-name="Trazado 252" d="M614.767,339.049c-14.794-5.5-33.291,1.4-41.3,15.408S570.948,384.3,585.742,389.8s33.3-1.395,41.316-15.412S629.57,344.554,614.767,339.049Z" fill="#a6a3dc" opacity="0.312"/>
      <path id="Trazado_253" data-name="Trazado 253" d="M614.75,339.025c-14.794-5.5-33.291,1.4-41.3,15.408s-2.516,29.843,12.278,35.345,33.3-1.4,41.316-15.413S629.553,344.53,614.75,339.025Z" fill="#a5a2db" opacity="0.318"/>
      <path id="Trazado_254" data-name="Trazado 254" d="M614.733,339c-14.794-5.5-33.291,1.4-41.3,15.407s-2.516,29.843,12.278,35.345,33.3-1.395,41.316-15.413S629.536,344.507,614.733,339Z" fill="#a4a1da" opacity="0.325"/>
      <path id="Trazado_255" data-name="Trazado 255" d="M614.716,338.978c-14.794-5.5-33.291,1.4-41.3,15.408s-2.516,29.842,12.278,35.344,33.3-1.4,41.316-15.413S629.519,344.483,614.716,338.978Z" fill="#a3a0da" opacity="0.331"/>
      <path id="Trazado_256" data-name="Trazado 256" d="M614.7,338.954c-14.794-5.5-33.291,1.4-41.3,15.408s-2.515,29.843,12.279,35.345,33.3-1.4,41.316-15.413S629.5,344.459,614.7,338.954Z" fill="#a29fd9" opacity="0.338"/>
      <path id="Trazado_257" data-name="Trazado 257" d="M614.682,338.93c-14.794-5.5-33.291,1.4-41.3,15.408s-2.515,29.843,12.279,35.345,33.3-1.4,41.316-15.413S629.485,344.435,614.682,338.93Z" fill="#a19fd8" opacity="0.344"/>
      <path id="Trazado_258" data-name="Trazado 258" d="M614.665,338.907c-14.794-5.5-33.291,1.4-41.3,15.408s-2.515,29.842,12.279,35.344,33.3-1.395,41.316-15.413S629.468,344.412,614.665,338.907Z" fill="#a09ed7" opacity="0.35"/>
      <path id="Trazado_259" data-name="Trazado 259" d="M614.648,338.883c-14.794-5.5-33.291,1.4-41.3,15.408s-2.515,29.842,12.279,35.344,33.3-1.4,41.316-15.413S629.451,344.388,614.648,338.883Z" fill="#9f9dd7" opacity="0.357"/>
      <path id="Trazado_260" data-name="Trazado 260" d="M614.631,338.859c-14.794-5.5-33.291,1.4-41.3,15.408s-2.515,29.843,12.279,35.345,33.3-1.4,41.316-15.413S629.434,344.364,614.631,338.859Z" fill="#9e9cd6" opacity="0.363"/>
      <path id="Trazado_261" data-name="Trazado 261" d="M614.614,338.835c-14.794-5.5-33.292,1.4-41.3,15.408s-2.515,29.843,12.279,35.345,33.3-1.4,41.316-15.413S629.417,344.341,614.614,338.835Z" fill="#9d9cd5" opacity="0.369"/>
      <path id="Trazado_262" data-name="Trazado 262" d="M614.6,338.812c-14.794-5.5-33.292,1.4-41.3,15.408s-2.516,29.842,12.279,35.344,33.3-1.395,41.316-15.413S629.4,344.317,614.6,338.812Z" fill="#9c9bd5" opacity="0.376"/>
      <path id="Trazado_263" data-name="Trazado 263" d="M614.58,338.788c-14.794-5.5-33.292,1.4-41.3,15.408s-2.516,29.843,12.279,35.344,33.3-1.4,41.316-15.412S629.383,344.293,614.58,338.788Z" fill="#9b9ad4" opacity="0.382"/>
      <path id="Trazado_264" data-name="Trazado 264" d="M614.563,338.764c-14.794-5.5-33.292,1.4-41.3,15.408s-2.516,29.843,12.279,35.345,33.3-1.4,41.316-15.413S629.366,344.269,614.563,338.764Z" fill="#9a99d3" opacity="0.389"/>
      <path id="Trazado_265" data-name="Trazado 265" d="M614.546,338.74c-14.794-5.5-33.292,1.4-41.3,15.408s-2.516,29.843,12.279,35.345,33.3-1.4,41.316-15.413S629.349,344.246,614.546,338.74Z" fill="#9999d2" opacity="0.395"/>
      <path id="Trazado_266" data-name="Trazado 266" d="M614.529,338.717c-14.795-5.5-33.292,1.4-41.3,15.408s-2.516,29.842,12.279,35.344,33.3-1.395,41.316-15.413S629.331,344.222,614.529,338.717Z" fill="#9898d2" opacity="0.401"/>
      <path id="Trazado_267" data-name="Trazado 267" d="M614.512,338.693c-14.8-5.5-33.292,1.4-41.3,15.408s-2.516,29.843,12.279,35.344,33.3-1.4,41.316-15.412S629.314,344.2,614.512,338.693Z" fill="#9797d1" opacity="0.408"/>
      <path id="Trazado_268" data-name="Trazado 268" d="M614.495,338.669c-14.795-5.5-33.292,1.4-41.3,15.408s-2.516,29.843,12.279,35.345,33.3-1.4,41.316-15.413S629.3,344.174,614.495,338.669Z" fill="#9696d0" opacity="0.414"/>
      <path id="Trazado_269" data-name="Trazado 269" d="M614.478,338.646c-14.8-5.5-33.292,1.4-41.3,15.408S570.658,383.9,585.453,389.4s33.3-1.4,41.316-15.413S629.28,344.151,614.478,338.646Z" fill="#9596cf" opacity="0.42"/>
      <path id="Trazado_270" data-name="Trazado 270" d="M614.461,338.622c-14.795-5.5-33.292,1.4-41.3,15.408s-2.516,29.842,12.279,35.344,33.3-1.395,41.316-15.413S629.263,344.127,614.461,338.622Z" fill="#9495cf" opacity="0.427"/>
      <path id="Trazado_271" data-name="Trazado 271" d="M614.444,338.6c-14.795-5.5-33.292,1.4-41.3,15.408s-2.516,29.843,12.279,35.345,33.3-1.4,41.316-15.413S629.246,344.1,614.444,338.6Z" fill="#9394ce" opacity="0.433"/>
      <path id="Trazado_272" data-name="Trazado 272" d="M614.427,338.574c-14.795-5.5-33.292,1.4-41.3,15.408s-2.516,29.843,12.279,35.345,33.3-1.395,41.316-15.413S629.229,344.079,614.427,338.574Z" fill="#9293cd" opacity="0.439"/>
      <path id="Trazado_273" data-name="Trazado 273" d="M614.41,338.551c-14.795-5.5-33.292,1.4-41.3,15.408S570.59,383.8,585.385,389.3s33.3-1.4,41.316-15.413S629.212,344.056,614.41,338.551Z" fill="#9192cd" opacity="0.446"/>
      <path id="Trazado_274" data-name="Trazado 274" d="M614.393,338.527c-14.795-5.5-33.292,1.4-41.3,15.408s-2.516,29.843,12.279,35.344,33.3-1.395,41.316-15.412S629.2,344.032,614.393,338.527Z" fill="#9092cc" opacity="0.452"/>
      <path id="Trazado_275" data-name="Trazado 275" d="M614.376,338.5c-14.795-5.5-33.292,1.4-41.3,15.408s-2.516,29.843,12.279,35.345,33.3-1.4,41.316-15.413S629.178,344.008,614.376,338.5Z" fill="#8f91cb" opacity="0.459"/>
      <path id="Trazado_276" data-name="Trazado 276" d="M614.359,338.479c-14.795-5.5-33.292,1.4-41.3,15.408s-2.516,29.843,12.279,35.345,33.3-1.395,41.316-15.413S629.161,343.985,614.359,338.479Z" fill="#8e90ca" opacity="0.465"/>
      <path id="Trazado_277" data-name="Trazado 277" d="M614.342,338.456c-14.795-5.5-33.292,1.4-41.3,15.408s-2.516,29.842,12.279,35.344,33.3-1.4,41.316-15.413S629.144,343.961,614.342,338.456Z" fill="#8d8fca" opacity="0.471"/>
      <path id="Trazado_278" data-name="Trazado 278" d="M614.325,338.432c-14.795-5.5-33.292,1.4-41.3,15.408s-2.516,29.843,12.278,35.344,33.3-1.395,41.317-15.412S629.127,343.937,614.325,338.432Z" fill="#8c8fc9" opacity="0.478"/>
      <path id="Trazado_279" data-name="Trazado 279" d="M614.308,338.408c-14.795-5.5-33.292,1.4-41.3,15.408s-2.516,29.843,12.278,35.345,33.3-1.4,41.317-15.413S629.11,343.913,614.308,338.408Z" fill="#8b8ec8" opacity="0.484"/>
      <path id="Trazado_280" data-name="Trazado 280" d="M614.291,338.385c-14.8-5.5-33.292,1.4-41.3,15.407s-2.516,29.843,12.278,35.345,33.3-1.395,41.317-15.413S629.093,343.89,614.291,338.385Z" fill="#8a8dc8" opacity="0.49"/>
      <path id="Trazado_281" data-name="Trazado 281" d="M614.274,338.361c-14.795-5.5-33.292,1.4-41.3,15.408s-2.516,29.842,12.278,35.344,33.3-1.4,41.317-15.413S629.076,343.866,614.274,338.361Z" fill="#898cc7" opacity="0.497"/>
      <path id="Trazado_282" data-name="Trazado 282" d="M614.256,338.337c-14.794-5.5-33.291,1.4-41.3,15.408s-2.516,29.843,12.278,35.345,33.3-1.4,41.317-15.413S629.059,343.842,614.256,338.337Z" fill="#888cc6" opacity="0.503"/>
      <path id="Trazado_283" data-name="Trazado 283" d="M614.239,338.313c-14.794-5.5-33.291,1.4-41.3,15.408s-2.516,29.843,12.278,35.345,33.3-1.4,41.317-15.413S629.042,343.818,614.239,338.313Z" fill="#878bc5" opacity="0.51"/>
      <path id="Trazado_284" data-name="Trazado 284" d="M614.222,338.29c-14.794-5.5-33.291,1.4-41.3,15.408S570.4,383.54,585.2,389.042s33.3-1.395,41.316-15.413S629.025,343.8,614.222,338.29Z" fill="#868ac5" opacity="0.516"/>
      <path id="Trazado_285" data-name="Trazado 285" d="M614.205,338.266c-14.794-5.5-33.291,1.4-41.3,15.408s-2.516,29.842,12.278,35.344,33.3-1.4,41.316-15.413S629.008,343.771,614.205,338.266Z" fill="#8589c4" opacity="0.522"/>
      <path id="Trazado_286" data-name="Trazado 286" d="M614.188,338.242c-14.794-5.5-33.291,1.4-41.3,15.408s-2.516,29.843,12.278,35.345,33.3-1.4,41.316-15.413S628.991,343.747,614.188,338.242Z" fill="#8489c3" opacity="0.529"/>
      <path id="Trazado_287" data-name="Trazado 287" d="M614.171,338.218c-14.794-5.5-33.291,1.4-41.3,15.408s-2.516,29.843,12.278,35.345,33.3-1.4,41.316-15.413S628.974,343.724,614.171,338.218Z" fill="#8388c3" opacity="0.535"/>
      <path id="Trazado_288" data-name="Trazado 288" d="M614.154,338.2c-14.794-5.5-33.291,1.4-41.3,15.408s-2.515,29.842,12.279,35.344,33.3-1.395,41.316-15.413S628.957,343.7,614.154,338.2Z" fill="#8287c2" opacity="0.541"/>
      <path id="Trazado_289" data-name="Trazado 289" d="M614.137,338.171c-14.794-5.5-33.291,1.4-41.3,15.408s-2.515,29.843,12.279,35.344,33.3-1.395,41.316-15.412S628.94,343.676,614.137,338.171Z" fill="#8186c1" opacity="0.548"/>
      <path id="Trazado_290" data-name="Trazado 290" d="M614.12,338.147c-14.794-5.5-33.291,1.4-41.3,15.408S570.3,383.4,585.095,388.9s33.3-1.4,41.316-15.413S628.923,343.652,614.12,338.147Z" fill="#8086c0" opacity="0.554"/>
      <path id="Trazado_291" data-name="Trazado 291" d="M614.1,338.123c-14.794-5.5-33.291,1.4-41.3,15.408s-2.515,29.843,12.279,35.345,33.3-1.4,41.316-15.413S628.906,343.629,614.1,338.123Z" fill="#7f85c0" opacity="0.561"/>
      <path id="Trazado_292" data-name="Trazado 292" d="M614.086,338.1c-14.794-5.5-33.291,1.4-41.3,15.408s-2.515,29.842,12.279,35.344,33.3-1.395,41.316-15.413S628.889,343.605,614.086,338.1Z" fill="#7e84bf" opacity="0.567"/>
      <path id="Trazado_293" data-name="Trazado 293" d="M614.069,338.076c-14.794-5.5-33.292,1.4-41.3,15.408s-2.515,29.843,12.279,35.344,33.3-1.395,41.316-15.412S628.872,343.581,614.069,338.076Z" fill="#7d83be" opacity="0.573"/>
      <path id="Trazado_294" data-name="Trazado 294" d="M614.052,338.052c-14.794-5.5-33.292,1.4-41.3,15.408S570.232,383.3,585.027,388.8s33.3-1.4,41.316-15.413S628.855,343.557,614.052,338.052Z" fill="#7c82be" opacity="0.58"/>
      <path id="Trazado_295" data-name="Trazado 295" d="M614.035,338.029c-14.794-5.5-33.292,1.4-41.3,15.407s-2.516,29.843,12.279,35.345,33.3-1.4,41.316-15.413S628.838,343.534,614.035,338.029Z" fill="#7b82bd" opacity="0.586"/>
      <path id="Trazado_296" data-name="Trazado 296" d="M614.018,338.005c-14.794-5.5-33.292,1.4-41.3,15.408s-2.516,29.842,12.279,35.344,33.3-1.395,41.316-15.413S628.821,343.51,614.018,338.005Z" fill="#7a81bc" opacity="0.592"/>
      <path id="Trazado_297" data-name="Trazado 297" d="M614,337.981c-14.794-5.5-33.292,1.4-41.3,15.408s-2.516,29.843,12.279,35.345,33.3-1.4,41.316-15.413S628.8,343.486,614,337.981Z" fill="#7980bb" opacity="0.599"/>
      <path id="Trazado_298" data-name="Trazado 298" d="M613.984,337.957c-14.795-5.5-33.292,1.4-41.3,15.408s-2.516,29.843,12.279,35.345,33.3-1.395,41.316-15.413S628.786,343.462,613.984,337.957Z" fill="#787fbb" opacity="0.605"/>
      <path id="Trazado_299" data-name="Trazado 299" d="M613.967,337.934c-14.795-5.5-33.292,1.4-41.3,15.408s-2.516,29.842,12.279,35.344,33.3-1.4,41.316-15.413S628.769,343.439,613.967,337.934Z" fill="#777fba" opacity="0.611"/>
      <path id="Trazado_300" data-name="Trazado 300" d="M613.95,337.91c-14.795-5.5-33.292,1.4-41.3,15.408s-2.516,29.842,12.279,35.344,33.3-1.395,41.316-15.413S628.752,343.415,613.95,337.91Z" fill="#767eb9" opacity="0.618"/>
      <path id="Trazado_301" data-name="Trazado 301" d="M613.933,337.886c-14.795-5.5-33.292,1.4-41.3,15.408s-2.516,29.843,12.279,35.345,33.3-1.4,41.316-15.413S628.735,343.391,613.933,337.886Z" fill="#757db8" opacity="0.624"/>
      <path id="Trazado_302" data-name="Trazado 302" d="M613.916,337.862c-14.8-5.5-33.292,1.4-41.3,15.408s-2.516,29.843,12.279,35.345,33.3-1.4,41.316-15.413S628.718,343.368,613.916,337.862Z" fill="#747cb8" opacity="0.631"/>
      <path id="Trazado_303" data-name="Trazado 303" d="M613.9,337.839c-14.795-5.5-33.292,1.4-41.3,15.408s-2.516,29.842,12.279,35.344,33.3-1.395,41.316-15.413S628.7,343.344,613.9,337.839Z" fill="#737cb7" opacity="0.637"/>
      <path id="Trazado_304" data-name="Trazado 304" d="M613.882,337.815c-14.8-5.5-33.292,1.4-41.3,15.408s-2.516,29.843,12.279,35.344,33.3-1.395,41.316-15.412S628.684,343.32,613.882,337.815Z" fill="#727bb6" opacity="0.643"/>
      <path id="Trazado_305" data-name="Trazado 305" d="M613.865,337.791c-14.795-5.5-33.292,1.4-41.3,15.408s-2.516,29.843,12.279,35.345,33.3-1.4,41.316-15.413S628.667,343.3,613.865,337.791Z" fill="#717ab6" opacity="0.65"/>
      <path id="Trazado_306" data-name="Trazado 306" d="M613.848,337.767c-14.8-5.5-33.292,1.4-41.3,15.408s-2.516,29.843,12.279,35.345,33.3-1.395,41.316-15.413S628.65,343.273,613.848,337.767Z" fill="#7079b5" opacity="0.656"/>
      <path id="Trazado_307" data-name="Trazado 307" d="M613.831,337.744c-14.795-5.5-33.292,1.4-41.3,15.408s-2.516,29.842,12.279,35.344,33.3-1.395,41.316-15.413S628.633,343.249,613.831,337.744Z" fill="#6f79b4" opacity="0.662"/>
      <path id="Trazado_308" data-name="Trazado 308" d="M613.814,337.72c-14.8-5.5-33.292,1.4-41.3,15.408s-2.516,29.843,12.279,35.344,33.3-1.395,41.316-15.412S628.616,343.225,613.814,337.72Z" fill="#6e78b3" opacity="0.669"/>
      <path id="Trazado_309" data-name="Trazado 309" d="M613.8,337.7c-14.795-5.5-33.292,1.4-41.3,15.408s-2.516,29.843,12.279,35.345,33.3-1.4,41.316-15.413S628.6,343.2,613.8,337.7Z" fill="#6d77b3" opacity="0.675"/>
      <path id="Trazado_310" data-name="Trazado 310" d="M613.78,337.673c-14.8-5.5-33.292,1.4-41.3,15.408s-2.516,29.842,12.278,35.344,33.3-1.395,41.317-15.413S628.582,343.178,613.78,337.673Z" fill="#6c76b2" opacity="0.682"/>
      <path id="Trazado_311" data-name="Trazado 311" d="M613.763,337.649c-14.795-5.5-33.292,1.4-41.3,15.408S569.943,382.9,584.737,388.4s33.3-1.395,41.317-15.413S628.565,343.154,613.763,337.649Z" fill="#6b75b1" opacity="0.688"/>
      <path id="Trazado_312" data-name="Trazado 312" d="M613.746,337.625c-14.795-5.5-33.292,1.4-41.3,15.408s-2.516,29.843,12.278,35.345,33.3-1.4,41.317-15.413S628.548,343.13,613.746,337.625Z" fill="#6a75b1" opacity="0.694"/>
      <path id="Trazado_313" data-name="Trazado 313" d="M613.729,337.6c-14.795-5.5-33.292,1.4-41.3,15.408s-2.516,29.843,12.278,35.345,33.3-1.395,41.317-15.413S628.531,343.106,613.729,337.6Z" fill="#6974b0" opacity="0.701"/>
      <path id="Trazado_314" data-name="Trazado 314" d="M613.711,337.578c-14.794-5.5-33.291,1.4-41.3,15.408s-2.516,29.842,12.278,35.344,33.3-1.395,41.317-15.413S628.514,343.083,613.711,337.578Z" fill="#6873af" opacity="0.707"/>
      <path id="Trazado_315" data-name="Trazado 315" d="M613.694,337.554c-14.794-5.5-33.291,1.4-41.3,15.408s-2.516,29.843,12.278,35.344,33.3-1.395,41.317-15.412S628.5,343.059,613.694,337.554Z" fill="#6772ae" opacity="0.713"/>
      <path id="Trazado_316" data-name="Trazado 316" d="M613.677,337.53c-14.794-5.5-33.291,1.4-41.3,15.408s-2.516,29.843,12.278,35.345,33.3-1.4,41.316-15.413S628.48,343.035,613.677,337.53Z" fill="#6672ae" opacity="0.72"/>
      <path id="Trazado_317" data-name="Trazado 317" d="M613.66,337.506c-14.794-5.5-33.291,1.4-41.3,15.408s-2.516,29.843,12.278,35.345,33.3-1.395,41.316-15.413S628.463,343.012,613.66,337.506Z" fill="#6571ad" opacity="0.726"/>
      <path id="Trazado_318" data-name="Trazado 318" d="M613.643,337.483c-14.794-5.5-33.291,1.4-41.3,15.408s-2.516,29.842,12.278,35.344,33.3-1.395,41.316-15.413S628.446,342.988,613.643,337.483Z" fill="#6470ac" opacity="0.732"/>
      <path id="Trazado_319" data-name="Trazado 319" d="M613.626,337.459c-14.794-5.5-33.291,1.4-41.3,15.408s-2.516,29.843,12.278,35.344,33.3-1.395,41.316-15.412S628.429,342.964,613.626,337.459Z" fill="#636fac" opacity="0.739"/>
      <path id="Trazado_320" data-name="Trazado 320" d="M613.609,337.435c-14.794-5.5-33.291,1.4-41.3,15.408s-2.515,29.843,12.279,35.345,33.3-1.4,41.316-15.413S628.412,342.94,613.609,337.435Z" fill="#626fab" opacity="0.745"/>
      <path id="Trazado_321" data-name="Trazado 321" d="M613.592,337.412c-14.794-5.5-33.291,1.4-41.3,15.407s-2.515,29.843,12.279,35.345,33.3-1.395,41.316-15.413S628.4,342.917,613.592,337.412Z" fill="#616eaa" opacity="0.752"/>
      <path id="Trazado_322" data-name="Trazado 322" d="M613.575,337.388c-14.794-5.5-33.291,1.4-41.3,15.408s-2.515,29.842,12.279,35.344,33.3-1.4,41.316-15.413S628.378,342.893,613.575,337.388Z" fill="#606da9" opacity="0.758"/>
      <path id="Trazado_323" data-name="Trazado 323" d="M613.558,337.364c-14.794-5.5-33.291,1.4-41.3,15.408s-2.515,29.843,12.279,35.345,33.3-1.4,41.316-15.413S628.361,342.869,613.558,337.364Z" fill="#5f6ca9" opacity="0.764"/>
      <path id="Trazado_324" data-name="Trazado 324" d="M613.541,337.34c-14.794-5.5-33.291,1.4-41.3,15.408s-2.515,29.843,12.279,35.345,33.3-1.4,41.316-15.413S628.344,342.845,613.541,337.34Z" fill="#5e6ca8" opacity="0.771"/>
      <path id="Trazado_325" data-name="Trazado 325" d="M613.524,337.317c-14.794-5.5-33.292,1.4-41.3,15.408s-2.515,29.842,12.279,35.344,33.3-1.395,41.316-15.413S628.327,342.822,613.524,337.317Z" fill="#5d6ba7" opacity="0.777"/>
      <path id="Trazado_326" data-name="Trazado 326" d="M613.507,337.293c-14.794-5.5-33.292,1.4-41.3,15.408s-2.516,29.842,12.279,35.344,33.3-1.4,41.316-15.413S628.31,342.8,613.507,337.293Z" fill="#5c6aa6" opacity="0.783"/>
      <path id="Trazado_327" data-name="Trazado 327" d="M613.49,337.269c-14.794-5.5-33.292,1.4-41.3,15.408s-2.516,29.843,12.279,35.345,33.3-1.4,41.316-15.413S628.293,342.774,613.49,337.269Z" fill="#5b69a6" opacity="0.79"/>
      <path id="Trazado_328" data-name="Trazado 328" d="M613.473,337.245c-14.794-5.5-33.292,1.4-41.3,15.408S569.653,382.5,584.448,388s33.3-1.395,41.316-15.413S628.276,342.751,613.473,337.245Z" fill="#5a68a5" opacity="0.796"/>
      <path id="Trazado_329" data-name="Trazado 329" d="M613.456,337.222c-14.794-5.5-33.292,1.4-41.3,15.408s-2.516,29.842,12.279,35.344,33.3-1.395,41.316-15.413S628.259,342.727,613.456,337.222Z" fill="#5968a4" opacity="0.803"/>
      <path id="Trazado_330" data-name="Trazado 330" d="M613.439,337.2c-14.8-5.5-33.292,1.4-41.3,15.408s-2.516,29.843,12.279,35.344,33.3-1.4,41.316-15.412S628.241,342.7,613.439,337.2Z" fill="#5867a4" opacity="0.809"/>
      <path id="Trazado_331" data-name="Trazado 331" d="M613.422,337.174c-14.795-5.5-33.292,1.4-41.3,15.408S569.6,382.425,584.4,387.927s33.3-1.4,41.316-15.413S628.224,342.679,613.422,337.174Z" fill="#5766a3" opacity="0.815"/>
      <path id="Trazado_332" data-name="Trazado 332" d="M613.405,337.15c-14.8-5.5-33.292,1.4-41.3,15.408S569.585,382.4,584.38,387.9s33.3-1.4,41.316-15.413S628.207,342.656,613.405,337.15Z" fill="#5665a2" opacity="0.822"/>
      <path id="Trazado_333" data-name="Trazado 333" d="M613.388,337.127c-14.795-5.5-33.292,1.4-41.3,15.408s-2.516,29.842,12.279,35.344,33.3-1.395,41.316-15.413S628.19,342.632,613.388,337.127Z" fill="#5565a1" opacity="0.828"/>
      <path id="Trazado_334" data-name="Trazado 334" d="M613.371,337.1c-14.795-5.5-33.292,1.4-41.3,15.408s-2.516,29.843,12.279,35.344,33.3-1.4,41.316-15.412S628.173,342.608,613.371,337.1Z" fill="#5464a1" opacity="0.834"/>
      <path id="Trazado_335" data-name="Trazado 335" d="M613.354,337.079c-14.795-5.5-33.292,1.4-41.3,15.408s-2.516,29.843,12.279,35.345,33.3-1.4,41.316-15.413S628.156,342.584,613.354,337.079Z" fill="#5363a0" opacity="0.841"/>
      <path id="Trazado_336" data-name="Trazado 336" d="M613.337,337.056c-14.795-5.5-33.292,1.4-41.3,15.407s-2.516,29.843,12.279,35.345,33.3-1.4,41.316-15.413S628.139,342.561,613.337,337.056Z" fill="#52629f" opacity="0.847"/>
      <path id="Trazado_337" data-name="Trazado 337" d="M613.32,337.032c-14.795-5.5-33.292,1.4-41.3,15.408s-2.516,29.842,12.279,35.344,33.3-1.395,41.316-15.413S628.122,342.537,613.32,337.032Z" fill="#51629f" opacity="0.854"/>
      <path id="Trazado_338" data-name="Trazado 338" d="M613.3,337.008c-14.795-5.5-33.292,1.4-41.3,15.408s-2.516,29.843,12.279,35.345,33.3-1.4,41.316-15.413S628.1,342.513,613.3,337.008Z" fill="#50619e" opacity="0.86"/>
      <path id="Trazado_339" data-name="Trazado 339" d="M613.286,336.984c-14.795-5.5-33.292,1.4-41.3,15.408s-2.516,29.843,12.279,35.345,33.3-1.395,41.316-15.413S628.088,342.489,613.286,336.984Z" fill="#4f609d" opacity="0.866"/>
      <path id="Trazado_340" data-name="Trazado 340" d="M613.269,336.961c-14.795-5.5-33.292,1.4-41.3,15.408s-2.516,29.842,12.279,35.344,33.3-1.4,41.316-15.413S628.071,342.466,613.269,336.961Z" fill="#4e5f9c" opacity="0.873"/>
      <path id="Trazado_341" data-name="Trazado 341" d="M613.252,336.937c-14.8-5.5-33.292,1.4-41.3,15.408s-2.516,29.843,12.279,35.344,33.3-1.395,41.316-15.413S628.054,342.442,613.252,336.937Z" fill="#4d5f9c" opacity="0.879"/>
      <path id="Trazado_342" data-name="Trazado 342" d="M613.235,336.913c-14.795-5.5-33.292,1.4-41.3,15.408s-2.516,29.843,12.278,35.345,33.3-1.4,41.317-15.413S628.037,342.418,613.235,336.913Z" fill="#4c5e9b" opacity="0.885"/>
      <path id="Trazado_343" data-name="Trazado 343" d="M613.218,336.889c-14.8-5.5-33.292,1.4-41.3,15.408s-2.516,29.843,12.278,35.345,33.3-1.4,41.317-15.413S628.02,342.395,613.218,336.889Z" fill="#4b5d9a" opacity="0.892"/>
      <path id="Trazado_344" data-name="Trazado 344" d="M613.2,336.866c-14.795-5.5-33.292,1.4-41.3,15.408s-2.516,29.842,12.278,35.344,33.3-1.4,41.317-15.413S628,342.371,613.2,336.866Z" fill="#4a5c9a" opacity="0.898"/>
      <path id="Trazado_345" data-name="Trazado 345" d="M613.184,336.842c-14.8-5.5-33.292,1.4-41.3,15.408s-2.516,29.843,12.278,35.344,33.3-1.395,41.317-15.412S627.986,342.347,613.184,336.842Z" fill="#495b99" opacity="0.904"/>
      <path id="Trazado_346" data-name="Trazado 346" d="M613.166,336.818c-14.794-5.5-33.291,1.4-41.3,15.408s-2.516,29.843,12.278,35.345,33.3-1.4,41.317-15.413S627.969,342.323,613.166,336.818Z" fill="#485b98" opacity="0.911"/>
      <path id="Trazado_347" data-name="Trazado 347" d="M613.149,336.794c-14.794-5.5-33.291,1.4-41.3,15.408s-2.516,29.843,12.278,35.345,33.3-1.395,41.317-15.413S627.952,342.3,613.149,336.794Z" fill="#475a97" opacity="0.917"/>
      <path id="Trazado_348" data-name="Trazado 348" d="M613.132,336.771c-14.794-5.5-33.291,1.4-41.3,15.408s-2.516,29.842,12.278,35.344,33.3-1.4,41.316-15.413S627.935,342.276,613.132,336.771Z" fill="#465997" opacity="0.924"/>
      <path id="Trazado_349" data-name="Trazado 349" d="M613.115,336.747c-14.794-5.5-33.291,1.4-41.3,15.408S569.3,382,584.09,387.5s33.3-1.395,41.316-15.412S627.918,342.252,613.115,336.747Z" fill="#455896" opacity="0.93"/>
      <path id="Trazado_350" data-name="Trazado 350" d="M613.1,336.723c-14.794-5.5-33.291,1.4-41.3,15.408s-2.516,29.843,12.278,35.345,33.3-1.4,41.316-15.413S627.9,342.228,613.1,336.723Z" fill="#445895" opacity="0.936"/>
      <path id="Trazado_351" data-name="Trazado 351" d="M613.081,336.7c-14.794-5.5-33.291,1.4-41.3,15.408s-2.516,29.842,12.278,35.344,33.3-1.395,41.316-15.413S627.884,342.2,613.081,336.7Z" fill="#435794" opacity="0.943"/>
      <path id="Trazado_352" data-name="Trazado 352" d="M613.064,336.676c-14.794-5.5-33.291,1.4-41.3,15.408s-2.515,29.842,12.279,35.344,33.3-1.4,41.316-15.413S627.867,342.181,613.064,336.676Z" fill="#425694" opacity="0.949"/>
      <path id="Trazado_353" data-name="Trazado 353" d="M613.047,336.652c-14.794-5.5-33.291,1.4-41.3,15.408S569.228,381.9,584.022,387.4s33.3-1.4,41.316-15.413S627.85,342.157,613.047,336.652Z" fill="#415593" opacity="0.955"/>
      <path id="Trazado_354" data-name="Trazado 354" d="M613.03,336.628c-14.794-5.5-33.291,1.4-41.3,15.408s-2.515,29.843,12.279,35.345,33.3-1.4,41.316-15.413S627.833,342.133,613.03,336.628Z" fill="#405592" opacity="0.962"/>
      <path id="Trazado_355" data-name="Trazado 355" d="M613.013,336.605c-14.794-5.5-33.291,1.4-41.3,15.408s-2.515,29.842,12.279,35.344,33.3-1.395,41.316-15.413S627.816,342.11,613.013,336.605Z" fill="#3f5492" opacity="0.968"/>
      <path id="Trazado_356" data-name="Trazado 356" d="M613,336.581c-14.794-5.5-33.291,1.4-41.3,15.408s-2.515,29.843,12.279,35.344,33.3-1.4,41.316-15.412S627.8,342.086,613,336.581Z" fill="#3e5391" opacity="0.975"/>
      <path id="Trazado_357" data-name="Trazado 357" d="M612.979,336.557c-14.794-5.5-33.292,1.4-41.3,15.408s-2.515,29.843,12.279,35.345,33.3-1.4,41.316-15.413S627.782,342.062,612.979,336.557Z" fill="#3d5290" opacity="0.981"/>
      <path id="Trazado_358" data-name="Trazado 358" d="M612.962,336.533c-14.794-5.5-33.292,1.4-41.3,15.408s-2.516,29.843,12.279,35.345,33.3-1.4,41.316-15.413S627.765,342.039,612.962,336.533Z" fill="#3c528f" opacity="0.987"/>
      <path id="Trazado_359" data-name="Trazado 359" d="M612.945,336.51c-14.794-5.5-33.292,1.4-41.3,15.408s-2.516,29.842,12.279,35.344,33.3-1.395,41.316-15.413S627.748,342.015,612.945,336.51Z" fill="#3b518f" opacity="0.994"/>
      <path id="Trazado_360" data-name="Trazado 360" d="M612.928,336.486c-14.794-5.5-33.292,1.4-41.3,15.408s-2.516,29.843,12.279,35.344,33.3-1.4,41.316-15.412S627.731,341.991,612.928,336.486Z" fill="#3a508e"/>
    </g>
    <g id="Grupo_146" data-name="Grupo 146" style="isolation: isolate">
      <g id="Grupo_145" data-name="Grupo 145" clip-path="url(#clip-path)">
        <g id="Grupo_144" data-name="Grupo 144" style="isolation: isolate">
          <path id="Trazado_361" data-name="Trazado 361" d="M597.593,346.464l.887,2.015a.849.849,0,0,0-.389-.288,1.138,1.138,0,0,0-.617-.039l-.887-2.014a1.119,1.119,0,0,1,.617.039.843.843,0,0,1,.389.287" fill="#70166b"/>
          <path id="Trazado_362" data-name="Trazado 362" d="M596.587,346.138l.887,2.014a1.512,1.512,0,0,0-.16.044l-.886-2.014a1.247,1.247,0,0,1,.159-.044" fill="#74176f"/>
          <path id="Trazado_363" data-name="Trazado 363" d="M596.428,346.182l.886,2.014a1.328,1.328,0,0,0-.124.051l-.887-2.015a1.131,1.131,0,0,1,.125-.05" fill="#781873"/>
          <path id="Trazado_364" data-name="Trazado 364" d="M596.3,346.232l.887,2.015a1.144,1.144,0,0,0-.109.058l-.886-2.015c.035-.021.071-.04.108-.058" fill="#7d1977"/>
          <path id="Trazado_365" data-name="Trazado 365" d="M596.2,346.29l.886,2.015c-.033.02-.066.042-.1.065l-.886-2.015a1.106,1.106,0,0,1,.1-.065" fill="#811a7b"/>
          <path id="Trazado_366" data-name="Trazado 366" d="M596.1,346.355l.886,2.015a1.128,1.128,0,0,0-.092.076L596,346.431c.03-.027.061-.052.093-.076" fill="#851b7f"/>
          <path id="Trazado_367" data-name="Trazado 367" d="M596,346.431l.887,2.015a1.013,1.013,0,0,0-.092.094l-.887-2.015c.029-.033.06-.064.092-.094" fill="#8a1c83"/>
          <path id="Trazado_368" data-name="Trazado 368" d="M595.912,346.525l.887,2.015a1.1,1.1,0,0,0-.1.133l-.886-2.015a1.178,1.178,0,0,1,.1-.133" fill="#8e1c87"/>
          <path id="Trazado_369" data-name="Trazado 369" d="M595.813,346.658l.886,2.015c-.009.014-.018.029-.026.044l-.887-2.015.027-.044" fill="#921d8b"/>
        </g>
      </g>
    </g>
    <g id="Grupo_149" data-name="Grupo 149" style="isolation: isolate">
      <g id="Grupo_148" data-name="Grupo 148" clip-path="url(#clip-path-2)">
        <g id="Grupo_147" data-name="Grupo 147" style="isolation: isolate">
          <path id="Trazado_371" data-name="Trazado 371" d="M626.12,347.306l.887,2.015a24.141,24.141,0,0,0-14.042-12.8,32.355,32.355,0,0,0-17.744-1.179l-.887-2.015a32.355,32.355,0,0,1,17.744,1.18,24.137,24.137,0,0,1,14.042,12.8" fill="#616b85"/>
          <path id="Trazado_372" data-name="Trazado 372" d="M594.334,333.323l.887,2.015a36.591,36.591,0,0,0-4.614,1.265l-.887-2.014a36.479,36.479,0,0,1,4.614-1.266" fill="#656f8a"/>
          <path id="Trazado_373" data-name="Trazado 373" d="M589.72,334.589l.887,2.014a37.173,37.173,0,0,0-3.677,1.5l-.887-2.015a36.915,36.915,0,0,1,3.677-1.5" fill="#69738f"/>
          <path id="Trazado_374" data-name="Trazado 374" d="M586.043,336.086l.887,2.015q-1.642.772-3.2,1.706l-.886-2.014q1.559-.933,3.2-1.707" fill="#6c7794"/>
          <path id="Trazado_375" data-name="Trazado 375" d="M582.84,337.793l.886,2.014q-1.509.9-2.926,1.949l-.887-2.014q1.414-1.045,2.927-1.949" fill="#707b99"/>
          <path id="Trazado_376" data-name="Trazado 376" d="M579.913,339.742l.887,2.014a34.969,34.969,0,0,0-2.766,2.27l-.887-2.015a34.953,34.953,0,0,1,2.766-2.269" fill="#747f9e"/>
          <path id="Trazado_377" data-name="Trazado 377" d="M577.147,342.011l.887,2.015a33.5,33.5,0,0,0-2.728,2.785l-.887-2.014a33.678,33.678,0,0,1,2.728-2.786" fill="#7883a3"/>
          <path id="Trazado_378" data-name="Trazado 378" d="M574.419,344.8l.887,2.014a32.158,32.158,0,0,0-2.878,3.845l-.887-2.015a32.158,32.158,0,0,1,2.878-3.844" fill="#7b87a8"/>
          <path id="Trazado_379" data-name="Trazado 379" d="M571.541,348.641l.887,2.015q-.4.624-.767,1.269a26.22,26.22,0,0,0-3.589,15.389l-.887-2.015a26.223,26.223,0,0,1,3.589-15.388q.369-.645.767-1.27" fill="#7f8bad"/>
          <path id="Trazado_380" data-name="Trazado 380" d="M567.185,365.3l.887,2.015a22.959,22.959,0,0,0,.778,4.219l-.886-2.014a22.992,22.992,0,0,1-.779-4.22" fill="#7b87a8"/>
          <path id="Trazado_381" data-name="Trazado 381" d="M567.964,369.519l.886,2.014a22.526,22.526,0,0,0,1.058,2.94l-.887-2.014a22.485,22.485,0,0,1-1.057-2.94" fill="#7883a3"/>
        </g>
      </g>
    </g>
    <g id="Grupo_152" data-name="Grupo 152" style="isolation: isolate">
      <g id="Grupo_151" data-name="Grupo 151" clip-path="url(#clip-path-3)">
        <g id="Grupo_150" data-name="Grupo 150" style="isolation: isolate">
          <path id="Trazado_383" data-name="Trazado 383" d="M567.964,369.519l.886,2.014a22.526,22.526,0,0,0,1.058,2.94l-.887-2.014a22.485,22.485,0,0,1-1.057-2.94" fill="#7883a3"/>
        </g>
      </g>
    </g>
    <g id="Grupo_153" data-name="Grupo 153">
      <path id="Trazado_385" data-name="Trazado 385" d="M595.786,346.7l.887,2.015-11.8,20.632-.887-2.015Z" fill="#9d1f95"/>
    </g>
    <g id="Grupo_156" data-name="Grupo 156" style="isolation: isolate">
      <g id="Grupo_155" data-name="Grupo 155" clip-path="url(#clip-path-4)">
        <g id="Grupo_154" data-name="Grupo 154" style="isolation: isolate">
          <path id="Trazado_386" data-name="Trazado 386" d="M583.987,367.334l.886,2.015a.892.892,0,0,0-.123.526l-.887-2.014a.9.9,0,0,1,.124-.527" fill="#921d8b"/>
          <path id="Trazado_387" data-name="Trazado 387" d="M583.863,367.861l.887,2.014a.754.754,0,0,0,.026.143L583.89,368a.781.781,0,0,1-.027-.143" fill="#8e1c87"/>
          <path id="Trazado_388" data-name="Trazado 388" d="M583.89,368l.886,2.014a.673.673,0,0,0,.037.1l-.887-2.015a.694.694,0,0,1-.036-.1" fill="#8a1c83"/>
        </g>
      </g>
    </g>
    <g id="Grupo_159" data-name="Grupo 159" style="isolation: isolate">
      <g id="Grupo_158" data-name="Grupo 158" clip-path="url(#clip-path-5)">
        <g id="Grupo_157" data-name="Grupo 157" style="isolation: isolate">
          <path id="Trazado_390" data-name="Trazado 390" d="M584.935,368.6l.887,2.015a1.073,1.073,0,0,1-.528-.05.833.833,0,0,1-.481-.443l-.887-2.015a.833.833,0,0,0,.481.443,1.074,1.074,0,0,0,.528.05" fill="#767385"/>
        </g>
      </g>
    </g>
    <g id="Grupo_160" data-name="Grupo 160">
      <path id="Trazado_392" data-name="Trazado 392" d="M610.565,363.8l.887,2.015L598.48,348.479l-.887-2.015Z" fill="#6c1667"/>
    </g>
    <g id="Grupo_163" data-name="Grupo 163" style="isolation: isolate">
      <g id="Grupo_162" data-name="Grupo 162" clip-path="url(#clip-path-6)">
        <g id="Grupo_161" data-name="Grupo 161" style="isolation: isolate">
          <path id="Trazado_393" data-name="Trazado 393" d="M610.655,363.952l.887,2.015a.755.755,0,0,0-.09-.154l-.887-2.015a.755.755,0,0,1,.09.154" fill="#70166b"/>
        </g>
      </g>
    </g>
    <g id="Grupo_164" data-name="Grupo 164">
      <path id="Trazado_395" data-name="Trazado 395" d="M609.7,365.307l.887,2.015-24.767,3.29-.887-2.015Z" fill="#7c798c"/>
    </g>
    <g id="Grupo_167" data-name="Grupo 167" style="isolation: isolate">
      <g id="Grupo_166" data-name="Grupo 166" clip-path="url(#clip-path-7)">
        <g id="Grupo_165" data-name="Grupo 165" style="isolation: isolate">
          <path id="Trazado_396" data-name="Trazado 396" d="M610.655,363.952l.887,2.015a.716.716,0,0,1,.035.1l-.886-2.014a.829.829,0,0,0-.036-.1" fill="#918da3"/>
          <path id="Trazado_397" data-name="Trazado 397" d="M610.691,364.051l.886,2.014a.7.7,0,0,1,.026.142l-.886-2.014a.846.846,0,0,0-.026-.142" fill="#9592a8"/>
          <path id="Trazado_398" data-name="Trazado 398" d="M610.717,364.193l.886,2.014a.92.92,0,0,1-.151.57l-.886-2.014a.922.922,0,0,0,.151-.57" fill="#9a96ad"/>
          <path id="Trazado_399" data-name="Trazado 399" d="M610.566,364.763l.886,2.014a1.213,1.213,0,0,1-.1.137l-.887-2.015a1.168,1.168,0,0,0,.1-.136" fill="#9592a8"/>
          <path id="Trazado_400" data-name="Trazado 400" d="M610.464,364.9l.887,2.015c-.03.033-.062.066-.1.1L610.369,365a1.081,1.081,0,0,0,.095-.1" fill="#918da3"/>
          <path id="Trazado_401" data-name="Trazado 401" d="M610.369,365l.887,2.015c-.031.027-.063.054-.1.078l-.887-2.014c.034-.025.066-.052.1-.079" fill="#8c899e"/>
          <path id="Trazado_402" data-name="Trazado 402" d="M610.273,365.075l.887,2.014c-.032.024-.066.046-.1.067l-.887-2.015a1.147,1.147,0,0,0,.1-.066" fill="#888599"/>
          <path id="Trazado_403" data-name="Trazado 403" d="M610.173,365.141l.887,2.015c-.035.021-.072.04-.109.058l-.887-2.015a1.03,1.03,0,0,0,.109-.058" fill="#838094"/>
          <path id="Trazado_404" data-name="Trazado 404" d="M610.064,365.2l.887,2.015c-.04.019-.082.036-.124.051l-.887-2.015a1.254,1.254,0,0,0,.124-.051" fill="#7f7c8f"/>
          <path id="Trazado_405" data-name="Trazado 405" d="M609.94,365.25l.887,2.015a1.281,1.281,0,0,1-.164.044l-.887-2.014a1.412,1.412,0,0,0,.164-.045" fill="#7a778a"/>
          <path id="Trazado_406" data-name="Trazado 406" d="M609.776,365.3l.887,2.014c-.025.005-.049.01-.075.013l-.886-2.014.074-.013" fill="#767385"/>
        </g>
      </g>
    </g>
    <path id="Trazado_408" data-name="Trazado 408" d="M626.405,369.616q.3-.642.561-1.285c.07-.173.142-.344.208-.517.221-.576.428-1.152.607-1.729l.005-.015c.18-.583.332-1.166.469-1.748.041-.174.076-.346.113-.519q.138-.646.242-1.29c.028-.172.058-.344.082-.516.079-.57.145-1.139.185-1.705l0-.028c.04-.575.053-1.147.051-1.717,0-.168-.006-.336-.01-.5q-.015-.629-.062-1.251c-.008-.1-.006-.21-.016-.313-.005-.057-.017-.112-.023-.17-.061-.626-.144-1.248-.255-1.863-.02-.112-.046-.222-.068-.334q-.159-.811-.375-1.607c-.022-.081-.034-.164-.057-.245-.015-.053-.035-.105-.051-.158-.093-.319-.2-.634-.3-.948-.052-.154-.1-.309-.154-.461-.168-.461-.349-.918-.546-1.367l0,0-.887-2.015c.2.451.379.909.548,1.372.055.152.1.308.154.461.107.314.212.629.3.949.038.133.071.268.107.4q.216.795.376,1.608c.021.111.047.221.068.333q.165.922.255,1.864c.015.16.026.321.038.482q.048.622.063,1.252c0,.168.009.335.01.5,0,.57-.012,1.142-.051,1.717l0,.028c-.04.566-.1,1.135-.185,1.7-.024.172-.054.344-.081.516-.069.429-.15.86-.243,1.29-.037.173-.072.346-.112.519-.138.582-.289,1.165-.47,1.748l-.005.015c-.178.577-.385,1.154-.606,1.729-.067.172-.139.345-.209.517q-.262.643-.561,1.285c-.08.172-.158.344-.242.516-.282.577-.579,1.153-.907,1.725q-.372.651-.773,1.28c-.385.6-.8,1.189-1.221,1.764-.091.124-.182.248-.275.37-.423.557-.86,1.1-1.317,1.629-.094.109-.193.215-.289.323q-.445.5-.908.982c-.133.138-.268.275-.4.411q-.462.462-.942.907c-.12.112-.237.225-.359.335q-.562.509-1.147.991c-.036.03-.071.063-.108.093-.428.351-.866.689-1.31,1.02-.142.106-.288.206-.432.31-.3.217-.6.432-.911.639-.173.117-.348.23-.523.343q-.432.282-.872.551-.27.165-.542.325c-.323.19-.65.373-.979.553-.166.09-.33.183-.5.271q-.616.324-1.244.624c-.086.04-.169.085-.255.125-.539.254-1.085.491-1.635.718-.156.064-.314.124-.471.186-.41.163-.824.319-1.239.466q-.244.088-.491.172c-.659.224-1.323.432-1.993.618-.11.03-.221.057-.332.086q-.927.249-1.867.447c-.112.024-.224.051-.336.073q-.973.2-1.955.336c-.148.021-.3.039-.444.059-.582.076-1.165.139-1.75.185-.1.008-.206.02-.309.028-.658.046-1.316.07-1.974.079-.155,0-.309,0-.464,0-.6,0-1.2-.016-1.8-.049-.079,0-.159-.006-.239-.011-.657-.042-1.312-.108-1.964-.19-.157-.02-.313-.042-.469-.064-.619-.088-1.236-.189-1.848-.314l-.138-.025c-.646-.135-1.287-.3-1.924-.474-.155-.044-.31-.088-.464-.134-.64-.189-1.277-.392-1.905-.626a24.844,24.844,0,0,1-11.739-8.769,22.577,22.577,0,0,1-2.293-4.027h0l.887,2.014a24.12,24.12,0,0,0,14.032,12.8c.628.233,1.264.436,1.9.626l.465.134c.637.177,1.277.339,1.923.473.046.01.093.017.139.026.612.125,1.229.226,1.847.313.157.022.313.045.47.064.652.082,1.307.149,1.964.191.08.005.16.006.239.01q.9.05,1.8.049c.156,0,.311,0,.467,0,.657-.009,1.315-.033,1.973-.08.1-.007.206-.019.309-.027q.876-.07,1.748-.186c.149-.019.3-.037.447-.058.653-.1,1.3-.2,1.952-.336.036-.007.073-.011.109-.018.078-.016.154-.039.231-.056q.938-.2,1.865-.446c.11-.029.221-.056.331-.087q1-.279,1.994-.617c.064-.022.129-.038.192-.06.1-.034.2-.076.3-.112q.624-.222,1.24-.466c.157-.062.315-.122.471-.187q.825-.339,1.634-.717l.034-.015c.075-.035.148-.076.222-.111q.627-.3,1.242-.623c.168-.089.334-.182.5-.273q.492-.268.976-.551c.087-.051.176-.1.262-.148s.186-.12.28-.177c.294-.179.584-.363.873-.551.175-.114.35-.226.522-.343.309-.208.612-.423.914-.641.111-.08.227-.155.338-.237.031-.023.06-.048.091-.071.444-.331.882-.67,1.31-1.02.037-.03.072-.063.109-.093q.583-.483,1.147-.991c.036-.033.074-.063.11-.1.085-.078.164-.162.249-.24q.479-.445.942-.908c.135-.136.269-.272.4-.411q.463-.482.907-.982c.075-.083.155-.162.228-.246.022-.025.041-.052.062-.077.457-.527.894-1.071,1.317-1.628.093-.122.183-.246.275-.37.424-.575.835-1.16,1.22-1.764l.006-.009q.4-.625.768-1.271c.327-.572.625-1.148.907-1.725C626.247,369.96,626.325,369.788,626.405,369.616Z" fill="url(#linear-gradient-4)"/>
    <path id="Trazado_409" data-name="Trazado 409" d="M612.078,334.5c-14.794-5.5-33.291,1.4-41.3,15.408s-2.516,29.842,12.278,35.344,33.3-1.4,41.316-15.413S626.881,340.008,612.078,334.5Z" fill="url(#radial-gradient)"/>
    <path id="Trazado_410" data-name="Trazado 410" d="M612.078,334.5c-14.794-5.5-33.291,1.4-41.3,15.408s-2.516,29.842,12.278,35.344,33.3-1.4,41.316-15.413S626.881,340.008,612.078,334.5ZM624.1,369.688c-5.958,10.418-17.834,17.15-30.253,17.15a30.535,30.535,0,0,1-10.686-1.875,23.594,23.594,0,0,1-14.409-14.011c-2.414-6.663-1.6-14.081,2.292-20.886,5.957-10.416,17.83-17.146,30.248-17.146a30.527,30.527,0,0,1,10.678,1.874,23.611,23.611,0,0,1,14.419,14.018C628.8,355.473,627.989,362.887,624.1,369.688Z" fill="url(#linear-gradient-5)" style="mix-blend-mode: overlay;isolation: isolate"/>
    <g id="Grupo_168" data-name="Grupo 168">
      <path id="Trazado_411" data-name="Trazado 411" d="M597.2,346.177a.843.843,0,0,1,.389.287L610.565,363.8c.418.56-.059,1.394-.863,1.51L584.935,368.6a1.074,1.074,0,0,1-.528-.05.815.815,0,0,1-.42-1.213l11.8-20.632A1.208,1.208,0,0,1,597.2,346.177Z" fill="url(#linear-gradient-6)"/>
    </g>
    <path id="Trazado_412" data-name="Trazado 412" d="M674.719,347.933c.031-.118.063-.236.088-.354a8.525,8.525,0,0,0,.175-1.181l0-.008a8.151,8.151,0,0,0-.012-1.17c0-.042,0-.085,0-.127-.015-.165-.042-.327-.067-.489-.009-.063-.015-.126-.026-.189a7.6,7.6,0,0,0-.174-.767c-.005-.019-.014-.036-.019-.054a7.77,7.77,0,0,0-.343-.953l-.886-2.014a7.542,7.542,0,0,1,.342.952,7.823,7.823,0,0,1,.194.821c.011.063.016.127.026.189.031.2.052.409.068.616a8.287,8.287,0,0,1,.011,1.17v.008a8.878,8.878,0,0,1-.175,1.182c-.025.117-.058.235-.088.353a9.017,9.017,0,0,1-.275.886c-.043.119-.083.237-.132.355a10.008,10.008,0,0,1-.571,1.189L630.6,422.228l.887,2.014,42.251-73.879a9.933,9.933,0,0,0,.572-1.189c.049-.118.089-.236.132-.355A9.112,9.112,0,0,0,674.719,347.933Z" fill="url(#linear-gradient-7)"/>
    <g id="Grupo_169" data-name="Grupo 169">
      <path id="Trazado_413" data-name="Trazado 413" d="M585.217,434.757l-42.4-15.767a3.694,3.694,0,0,0-4.334,1.617,2.486,2.486,0,0,0,1.293,3.7l42.4,15.767a3.693,3.693,0,0,0,4.33-1.609A2.489,2.489,0,0,0,585.217,434.757Z" fill="#012b7e" opacity="0"/>
      <path id="Trazado_414" data-name="Trazado 414" d="M585.19,434.662l-42.4-15.768a3.7,3.7,0,0,0-4.334,1.617,2.486,2.486,0,0,0,1.293,3.7l42.4,15.768a3.692,3.692,0,0,0,4.33-1.61A2.488,2.488,0,0,0,585.19,434.662Z" fill="#012b7e" opacity="0.029"/>
      <path id="Trazado_415" data-name="Trazado 415" d="M585.163,434.566l-42.4-15.767a3.7,3.7,0,0,0-4.334,1.616,2.487,2.487,0,0,0,1.293,3.7l42.4,15.767a3.693,3.693,0,0,0,4.33-1.609A2.489,2.489,0,0,0,585.163,434.566Z" fill="#012b7e" opacity="0.059"/>
      <path id="Trazado_416" data-name="Trazado 416" d="M585.136,434.47l-42.4-15.767a3.694,3.694,0,0,0-4.334,1.617,2.486,2.486,0,0,0,1.293,3.7l42.4,15.768a3.693,3.693,0,0,0,4.329-1.61A2.488,2.488,0,0,0,585.136,434.47Z" fill="#012b7e" opacity="0.088"/>
      <path id="Trazado_417" data-name="Trazado 417" d="M585.109,434.375l-42.4-15.767a3.7,3.7,0,0,0-4.335,1.616,2.488,2.488,0,0,0,1.294,3.7l42.4,15.767a3.692,3.692,0,0,0,4.329-1.609A2.489,2.489,0,0,0,585.109,434.375Z" fill="#012b7e" opacity="0.118"/>
      <path id="Trazado_418" data-name="Trazado 418" d="M585.081,434.279l-42.4-15.767a3.7,3.7,0,0,0-4.335,1.617,2.487,2.487,0,0,0,1.294,3.7l42.4,15.767a3.693,3.693,0,0,0,4.33-1.609A2.488,2.488,0,0,0,585.081,434.279Z" fill="#012b7e" opacity="0.147"/>
      <path id="Trazado_419" data-name="Trazado 419" d="M585.054,434.183l-42.4-15.767a3.7,3.7,0,0,0-4.334,1.617,2.488,2.488,0,0,0,1.294,3.7l42.4,15.767a3.693,3.693,0,0,0,4.33-1.61A2.489,2.489,0,0,0,585.054,434.183Z" fill="#012b7e" opacity="0.176"/>
      <path id="Trazado_420" data-name="Trazado 420" d="M585.027,434.088l-42.4-15.767a3.7,3.7,0,0,0-4.334,1.616,2.488,2.488,0,0,0,1.293,3.7l42.4,15.767a3.693,3.693,0,0,0,4.33-1.609A2.488,2.488,0,0,0,585.027,434.088Z" fill="#012b7e" opacity="0.206"/>
      <path id="Trazado_421" data-name="Trazado 421" d="M585,433.992l-42.4-15.767a3.694,3.694,0,0,0-4.334,1.617,2.486,2.486,0,0,0,1.293,3.7l42.4,15.767a3.691,3.691,0,0,0,4.33-1.609A2.489,2.489,0,0,0,585,433.992Z" fill="#012b7e" opacity="0.235"/>
      <path id="Trazado_422" data-name="Trazado 422" d="M584.973,433.9l-42.4-15.768a3.7,3.7,0,0,0-4.334,1.617,2.487,2.487,0,0,0,1.293,3.7l42.4,15.767a3.693,3.693,0,0,0,4.33-1.609A2.488,2.488,0,0,0,584.973,433.9Z" fill="#012b7e" opacity="0.265"/>
      <path id="Trazado_423" data-name="Trazado 423" d="M584.946,433.8l-42.4-15.767a3.694,3.694,0,0,0-4.334,1.617,2.487,2.487,0,0,0,1.293,3.7l42.4,15.767a3.693,3.693,0,0,0,4.33-1.609A2.489,2.489,0,0,0,584.946,433.8Z" fill="#012b7e" opacity="0.294"/>
      <path id="Trazado_424" data-name="Trazado 424" d="M584.919,433.706l-42.4-15.768a3.7,3.7,0,0,0-4.334,1.617,2.486,2.486,0,0,0,1.293,3.7l42.4,15.768a3.692,3.692,0,0,0,4.33-1.61A2.488,2.488,0,0,0,584.919,433.706Z" fill="#012b7e" opacity="0.324"/>
      <path id="Trazado_425" data-name="Trazado 425" d="M584.892,433.61l-42.4-15.767a3.7,3.7,0,0,0-4.334,1.616,2.487,2.487,0,0,0,1.293,3.7l42.4,15.767a3.693,3.693,0,0,0,4.33-1.609A2.489,2.489,0,0,0,584.892,433.61Z" fill="#012b7e" opacity="0.353"/>
      <path id="Trazado_426" data-name="Trazado 426" d="M584.865,433.514l-42.4-15.767a3.694,3.694,0,0,0-4.334,1.617,2.486,2.486,0,0,0,1.293,3.7l42.4,15.768a3.693,3.693,0,0,0,4.33-1.61A2.489,2.489,0,0,0,584.865,433.514Z" fill="#012b7e" opacity="0.382"/>
      <path id="Trazado_427" data-name="Trazado 427" d="M584.838,433.419l-42.4-15.768a3.7,3.7,0,0,0-4.334,1.617,2.487,2.487,0,0,0,1.293,3.7l42.4,15.767a3.693,3.693,0,0,0,4.33-1.609A2.489,2.489,0,0,0,584.838,433.419Z" fill="#012b7e" opacity="0.412"/>
      <path id="Trazado_428" data-name="Trazado 428" d="M584.811,433.323l-42.4-15.767a3.694,3.694,0,0,0-4.334,1.617,2.486,2.486,0,0,0,1.293,3.7l42.4,15.767a3.693,3.693,0,0,0,4.33-1.609A2.489,2.489,0,0,0,584.811,433.323Z" fill="#012b7e" opacity="0.441"/>
      <path id="Trazado_429" data-name="Trazado 429" d="M584.784,433.228l-42.4-15.768a3.694,3.694,0,0,0-4.334,1.617,2.487,2.487,0,0,0,1.293,3.7l42.4,15.767a3.692,3.692,0,0,0,4.33-1.61A2.488,2.488,0,0,0,584.784,433.228Z" fill="#012b7e" opacity="0.471"/>
      <path id="Trazado_430" data-name="Trazado 430" d="M584.757,433.132l-42.4-15.767a3.7,3.7,0,0,0-4.334,1.616,2.487,2.487,0,0,0,1.293,3.7l42.4,15.767a3.693,3.693,0,0,0,4.33-1.609A2.489,2.489,0,0,0,584.757,433.132Z" fill="#012b7e" opacity="0.5"/>
      <path id="Trazado_431" data-name="Trazado 431" d="M584.73,433.036l-42.4-15.767A3.694,3.694,0,0,0,538,418.886a2.486,2.486,0,0,0,1.293,3.7l42.4,15.768a3.693,3.693,0,0,0,4.33-1.61A2.489,2.489,0,0,0,584.73,433.036Z" fill="#012b7e" opacity="0.529"/>
      <path id="Trazado_432" data-name="Trazado 432" d="M584.7,432.941l-42.4-15.767a3.693,3.693,0,0,0-4.334,1.616,2.487,2.487,0,0,0,1.293,3.7l42.4,15.767a3.691,3.691,0,0,0,4.329-1.609A2.489,2.489,0,0,0,584.7,432.941Z" fill="#012b7e" opacity="0.559"/>
      <path id="Trazado_433" data-name="Trazado 433" d="M584.676,432.845l-42.4-15.767a3.7,3.7,0,0,0-4.335,1.617,2.487,2.487,0,0,0,1.294,3.7l42.4,15.767a3.692,3.692,0,0,0,4.329-1.609A2.489,2.489,0,0,0,584.676,432.845Z" fill="#012b7e" opacity="0.588"/>
      <path id="Trazado_434" data-name="Trazado 434" d="M584.648,432.75l-42.4-15.768a3.7,3.7,0,0,0-4.335,1.617,2.488,2.488,0,0,0,1.294,3.7l42.4,15.767a3.692,3.692,0,0,0,4.33-1.61A2.488,2.488,0,0,0,584.648,432.75Z" fill="#012b7e" opacity="0.618"/>
      <path id="Trazado_435" data-name="Trazado 435" d="M584.621,432.654l-42.4-15.767a3.7,3.7,0,0,0-4.334,1.616,2.488,2.488,0,0,0,1.293,3.7l42.4,15.767a3.693,3.693,0,0,0,4.33-1.609A2.488,2.488,0,0,0,584.621,432.654Z" fill="#012b7e" opacity="0.647"/>
      <path id="Trazado_436" data-name="Trazado 436" d="M584.594,432.558l-42.4-15.767a3.694,3.694,0,0,0-4.334,1.617,2.487,2.487,0,0,0,1.293,3.7l42.4,15.768a3.693,3.693,0,0,0,4.33-1.61A2.489,2.489,0,0,0,584.594,432.558Z" fill="#012b7e" opacity="0.676"/>
      <path id="Trazado_437" data-name="Trazado 437" d="M584.567,432.463,542.17,416.7a3.7,3.7,0,0,0-4.334,1.617,2.487,2.487,0,0,0,1.293,3.7l42.4,15.767a3.693,3.693,0,0,0,4.33-1.609A2.488,2.488,0,0,0,584.567,432.463Z" fill="#012b7e" opacity="0.706"/>
      <path id="Trazado_438" data-name="Trazado 438" d="M584.54,432.367l-42.4-15.767a3.694,3.694,0,0,0-4.334,1.617,2.486,2.486,0,0,0,1.293,3.7l42.4,15.767a3.693,3.693,0,0,0,4.33-1.609A2.489,2.489,0,0,0,584.54,432.367Z" fill="#012b7e" opacity="0.735"/>
      <path id="Trazado_439" data-name="Trazado 439" d="M584.513,432.272l-42.4-15.768a3.694,3.694,0,0,0-4.334,1.617,2.487,2.487,0,0,0,1.293,3.7l42.4,15.767a3.692,3.692,0,0,0,4.33-1.61A2.488,2.488,0,0,0,584.513,432.272Z" fill="#012b7e" opacity="0.765"/>
      <path id="Trazado_440" data-name="Trazado 440" d="M584.486,432.176l-42.4-15.767a3.7,3.7,0,0,0-4.334,1.616,2.487,2.487,0,0,0,1.293,3.7l42.4,15.767a3.693,3.693,0,0,0,4.33-1.609A2.489,2.489,0,0,0,584.486,432.176Z" fill="#012b7e" opacity="0.794"/>
      <path id="Trazado_441" data-name="Trazado 441" d="M584.459,432.08l-42.4-15.767a3.694,3.694,0,0,0-4.334,1.617,2.486,2.486,0,0,0,1.293,3.7l42.4,15.768a3.693,3.693,0,0,0,4.33-1.61A2.489,2.489,0,0,0,584.459,432.08Z" fill="#012b7e" opacity="0.824"/>
      <path id="Trazado_442" data-name="Trazado 442" d="M584.432,431.985l-42.4-15.767a3.693,3.693,0,0,0-4.334,1.616,2.487,2.487,0,0,0,1.293,3.7l42.4,15.767a3.693,3.693,0,0,0,4.33-1.609A2.489,2.489,0,0,0,584.432,431.985Z" fill="#012b7e" opacity="0.853"/>
      <path id="Trazado_443" data-name="Trazado 443" d="M584.405,431.889l-42.4-15.767a3.694,3.694,0,0,0-4.334,1.617,2.487,2.487,0,0,0,1.293,3.7l42.4,15.767a3.693,3.693,0,0,0,4.33-1.609A2.489,2.489,0,0,0,584.405,431.889Z" fill="#012b7e" opacity="0.882"/>
      <path id="Trazado_444" data-name="Trazado 444" d="M584.378,431.794l-42.4-15.768a3.7,3.7,0,0,0-4.334,1.617,2.487,2.487,0,0,0,1.293,3.7l42.4,15.767a3.692,3.692,0,0,0,4.33-1.61A2.488,2.488,0,0,0,584.378,431.794Z" fill="#012b7e" opacity="0.912"/>
      <path id="Trazado_445" data-name="Trazado 445" d="M584.351,431.7l-42.4-15.767a3.7,3.7,0,0,0-4.334,1.616,2.487,2.487,0,0,0,1.293,3.7l42.4,15.767a3.693,3.693,0,0,0,4.33-1.609A2.489,2.489,0,0,0,584.351,431.7Z" fill="#012b7e" opacity="0.941"/>
      <path id="Trazado_446" data-name="Trazado 446" d="M584.324,431.6l-42.4-15.767a3.694,3.694,0,0,0-4.334,1.617,2.486,2.486,0,0,0,1.293,3.7l42.4,15.768a3.694,3.694,0,0,0,4.33-1.61A2.489,2.489,0,0,0,584.324,431.6Z" fill="#012b7e" opacity="0.971"/>
      <path id="Trazado_447" data-name="Trazado 447" d="M584.3,431.507,541.9,415.74a3.7,3.7,0,0,0-4.334,1.616,2.487,2.487,0,0,0,1.293,3.7l42.4,15.767a3.693,3.693,0,0,0,4.33-1.609A2.489,2.489,0,0,0,584.3,431.507Z" fill="#012b7e"/>
    </g>
    <path id="Trazado_448" data-name="Trazado 448" d="M585.994,434.047v0a2.619,2.619,0,0,0,0-.4c0-.04-.017-.078-.022-.117-.008-.057-.019-.112-.031-.168s-.015-.106-.029-.157a2.4,2.4,0,0,0-.111-.308l-.886-2.015a2.4,2.4,0,0,1,.139.466c.012.055.023.111.031.167a2.428,2.428,0,0,1,.026.513v0a2.741,2.741,0,0,1-.1.54q-.02.068-.042.135a2.983,2.983,0,0,1-.237.542,3.212,3.212,0,0,1-.324.458c-.016.021-.03.044-.047.064a3.6,3.6,0,0,1-.4.39l-.086.07a3.782,3.782,0,0,1-.448.308c-.025.014-.051.027-.077.04a3.864,3.864,0,0,1-.447.209c-.033.013-.066.029-.1.041a3.72,3.72,0,0,1-.555.156c-.027.006-.054.007-.081.012a3.682,3.682,0,0,1-.478.052c-.058,0-.116,0-.174,0a3.439,3.439,0,0,1-.405-.027c-.055-.007-.111-.012-.167-.022a3.2,3.2,0,0,1-.541-.142L538,419.091a2.606,2.606,0,0,1-1.234-.921,2.369,2.369,0,0,1-.241-.423h0l.887,2.015a2.534,2.534,0,0,0,1.475,1.344l42.4,15.767a2.994,2.994,0,0,0,.541.142c.056.01.111.016.167.023a3.413,3.413,0,0,0,.4.027c.059,0,.116,0,.175,0a3.817,3.817,0,0,0,.477-.052c.027-.005.055-.007.082-.012l.019,0a3.939,3.939,0,0,0,.484-.133c.017-.006.034-.015.052-.021l.1-.041c.078-.031.157-.059.233-.1s.143-.075.214-.114c.025-.014.051-.026.076-.041s.031-.015.045-.024c.106-.063.208-.131.306-.2.034-.026.065-.054.1-.08s.058-.046.086-.071.073-.056.107-.087a3.388,3.388,0,0,0,.284-.291l.009-.011c.018-.021.031-.044.048-.064a3.372,3.372,0,0,0,.244-.326c.027-.043.054-.087.079-.132a3.02,3.02,0,0,0,.238-.542q.023-.067.042-.135A2.743,2.743,0,0,0,585.994,434.047Z" fill="url(#linear-gradient-8)"/>
    <path id="Trazado_449" data-name="Trazado 449" d="M583.438,429.541l-42.4-15.767a3.694,3.694,0,0,0-4.334,1.617,2.486,2.486,0,0,0,1.293,3.7l42.4,15.768a3.693,3.693,0,0,0,4.33-1.61A2.489,2.489,0,0,0,583.438,429.541Z" fill="url(#linear-gradient-9)"/>
    <path id="Trazado_450" data-name="Trazado 450" d="M583.438,429.541l-42.4-15.767a3.694,3.694,0,0,0-4.334,1.617,2.486,2.486,0,0,0,1.293,3.7l42.4,15.768a3.693,3.693,0,0,0,4.33-1.61A2.489,2.489,0,0,0,583.438,429.541Zm1.019,3.553a3.447,3.447,0,0,1-2.926,1.653,2.917,2.917,0,0,1-1.026-.18l-42.4-15.767a2.206,2.206,0,0,1-1.349-1.306,2.3,2.3,0,0,1,.218-1.948,3.453,3.453,0,0,1,2.931-1.659,2.908,2.908,0,0,1,1.025.179l42.4,15.767a2.2,2.2,0,0,1,1.348,1.3A2.314,2.314,0,0,1,584.457,433.094Z" fill="url(#linear-gradient-10)" style="mix-blend-mode: overlay;isolation: isolate"/>
    <path id="Trazado_451" data-name="Trazado 451" d="M630.595,422.243l-15.986,27.951c-.112.2-.239.382-.363.569a10.925,10.925,0,0,1-.866,1.157c-.046.054-.1.1-.144.155q-.335.372-.7.714c-.1.093-.2.183-.306.273-.184.161-.372.316-.566.465-.113.086-.226.173-.342.256-.2.142-.4.276-.61.407-.111.069-.22.142-.333.208q-.444.261-.908.484c-.036.017-.069.038-.1.054-.369.174-.749.325-1.133.462-.094.034-.19.062-.285.093a12.3,12.3,0,0,1-1.3.356c-.049.011-.1.026-.148.036a12.067,12.067,0,0,1-1.348.187c-.109.01-.218.016-.327.022a11.249,11.249,0,0,1-1.285.008c-.033,0-.066,0-.1,0a11.022,11.022,0,0,1-1.343-.178c-.108-.021-.216-.044-.323-.068a10.105,10.105,0,0,1-1.318-.379h0l-94.927-35.3a9.358,9.358,0,0,1-1.609-.776,8.012,8.012,0,0,1-3.208-3.614l.887,2.015a8.276,8.276,0,0,0,4.817,4.39l94.926,35.3a10.333,10.333,0,0,0,1.319.379c.107.024.214.047.323.067a10.806,10.806,0,0,0,1.342.179c.033,0,.065,0,.1,0a11.261,11.261,0,0,0,1.286-.008c.109-.006.217-.013.326-.022a12.036,12.036,0,0,0,1.348-.187c.013,0,.026,0,.039-.006.037-.007.073-.022.11-.03a12.529,12.529,0,0,0,1.3-.356c.057-.018.115-.028.172-.047.038-.013.075-.033.114-.046.384-.137.763-.288,1.132-.462l.013,0c.033-.016.064-.036.1-.052q.462-.222.9-.482c.031-.018.064-.032.1-.051.081-.049.156-.107.236-.158.207-.13.412-.264.611-.406.05-.036.105-.066.155-.1.065-.048.123-.105.187-.154.193-.149.381-.3.566-.464.063-.055.132-.1.194-.16.04-.036.073-.077.112-.114.243-.227.476-.466.7-.714.04-.044.085-.082.124-.126.008-.009.013-.019.021-.028a11.034,11.034,0,0,0,.866-1.157c.031-.047.07-.086.1-.133q.137-.214.263-.436l15.985-27.951Z" fill="url(#linear-gradient-11)"/>
    <g id="Grupo_170" data-name="Grupo 170">
      <path id="Trazado_452" data-name="Trazado 452" d="M608.961,432l-79.085-29.509a3.7,3.7,0,0,0-4.334,1.617,2.488,2.488,0,0,0,1.293,3.7l79.085,29.508a3.694,3.694,0,0,0,4.33-1.61A2.488,2.488,0,0,0,608.961,432Z" fill="#012b7e" opacity="0"/>
      <path id="Trazado_453" data-name="Trazado 453" d="M608.934,431.9l-79.085-29.508a3.694,3.694,0,0,0-4.334,1.617,2.487,2.487,0,0,0,1.293,3.7l79.085,29.508a3.693,3.693,0,0,0,4.33-1.609A2.489,2.489,0,0,0,608.934,431.9Z" fill="#012b7e" opacity="0.029"/>
      <path id="Trazado_454" data-name="Trazado 454" d="M608.907,431.8,529.822,402.3a3.7,3.7,0,0,0-4.334,1.617,2.486,2.486,0,0,0,1.293,3.7l79.085,29.508a3.69,3.69,0,0,0,4.329-1.609A2.488,2.488,0,0,0,608.907,431.8Z" fill="#012b7e" opacity="0.059"/>
      <path id="Trazado_455" data-name="Trazado 455" d="M608.88,431.709,529.795,402.2a3.7,3.7,0,0,0-4.334,1.616,2.487,2.487,0,0,0,1.293,3.7l79.085,29.508a3.692,3.692,0,0,0,4.329-1.609A2.489,2.489,0,0,0,608.88,431.709Z" fill="#012b7e" opacity="0.088"/>
      <path id="Trazado_456" data-name="Trazado 456" d="M608.852,431.613l-79.084-29.508a3.694,3.694,0,0,0-4.334,1.617,2.486,2.486,0,0,0,1.293,3.7l79.085,29.508a3.692,3.692,0,0,0,4.329-1.609A2.489,2.489,0,0,0,608.852,431.613Z" fill="#012b7e" opacity="0.118"/>
      <path id="Trazado_457" data-name="Trazado 457" d="M608.825,431.517,529.741,402.01a3.7,3.7,0,0,0-4.334,1.616,2.487,2.487,0,0,0,1.293,3.7l79.084,29.508a3.692,3.692,0,0,0,4.33-1.61A2.489,2.489,0,0,0,608.825,431.517Z" fill="#012b7e" opacity="0.147"/>
      <path id="Trazado_458" data-name="Trazado 458" d="M608.8,431.422l-79.084-29.508a3.694,3.694,0,0,0-4.334,1.617,2.486,2.486,0,0,0,1.293,3.7l79.084,29.508a3.693,3.693,0,0,0,4.33-1.609A2.488,2.488,0,0,0,608.8,431.422Z" fill="#012b7e" opacity="0.176"/>
      <path id="Trazado_459" data-name="Trazado 459" d="M608.771,431.326l-79.084-29.508a3.694,3.694,0,0,0-4.334,1.617,2.487,2.487,0,0,0,1.293,3.7l79.084,29.508a3.694,3.694,0,0,0,4.33-1.61A2.489,2.489,0,0,0,608.771,431.326Z" fill="#012b7e" opacity="0.206"/>
      <path id="Trazado_460" data-name="Trazado 460" d="M608.744,431.231,529.66,401.723a3.7,3.7,0,0,0-4.334,1.616,2.487,2.487,0,0,0,1.293,3.7L605.7,436.548a3.693,3.693,0,0,0,4.33-1.609A2.488,2.488,0,0,0,608.744,431.231Z" fill="#012b7e" opacity="0.235"/>
      <path id="Trazado_461" data-name="Trazado 461" d="M608.717,431.135l-79.084-29.508a3.694,3.694,0,0,0-4.334,1.617,2.486,2.486,0,0,0,1.293,3.7l79.084,29.508a3.693,3.693,0,0,0,4.33-1.609A2.488,2.488,0,0,0,608.717,431.135Z" fill="#012b7e" opacity="0.265"/>
      <path id="Trazado_462" data-name="Trazado 462" d="M608.69,431.04l-79.084-29.508a3.693,3.693,0,0,0-4.334,1.616,2.487,2.487,0,0,0,1.293,3.7l79.084,29.508a3.693,3.693,0,0,0,4.33-1.61A2.488,2.488,0,0,0,608.69,431.04Z" fill="#012b7e" opacity="0.294"/>
      <path id="Trazado_463" data-name="Trazado 463" d="M608.663,430.944l-79.084-29.508a3.694,3.694,0,0,0-4.334,1.617,2.486,2.486,0,0,0,1.293,3.7l79.084,29.508a3.693,3.693,0,0,0,4.33-1.609A2.489,2.489,0,0,0,608.663,430.944Z" fill="#012b7e" opacity="0.324"/>
      <path id="Trazado_464" data-name="Trazado 464" d="M608.636,430.848,529.552,401.34a3.7,3.7,0,0,0-4.334,1.617,2.487,2.487,0,0,0,1.293,3.7l79.084,29.507a3.691,3.691,0,0,0,4.33-1.609A2.489,2.489,0,0,0,608.636,430.848Z" fill="#012b7e" opacity="0.353"/>
      <path id="Trazado_465" data-name="Trazado 465" d="M608.609,430.753l-79.084-29.508a3.7,3.7,0,0,0-4.334,1.616,2.487,2.487,0,0,0,1.293,3.7l79.084,29.508a3.693,3.693,0,0,0,4.33-1.609A2.489,2.489,0,0,0,608.609,430.753Z" fill="#012b7e" opacity="0.382"/>
      <path id="Trazado_466" data-name="Trazado 466" d="M608.582,430.657,529.5,401.149a3.7,3.7,0,0,0-4.335,1.617,2.487,2.487,0,0,0,1.294,3.7l79.084,29.508a3.693,3.693,0,0,0,4.33-1.609A2.489,2.489,0,0,0,608.582,430.657Z" fill="#012b7e" opacity="0.412"/>
      <path id="Trazado_467" data-name="Trazado 467" d="M608.555,430.561,529.47,401.054a3.7,3.7,0,0,0-4.334,1.616,2.488,2.488,0,0,0,1.294,3.7l79.084,29.508a3.692,3.692,0,0,0,4.33-1.61A2.489,2.489,0,0,0,608.555,430.561Z" fill="#012b7e" opacity="0.441"/>
      <path id="Trazado_468" data-name="Trazado 468" d="M608.528,430.466l-79.085-29.508a3.7,3.7,0,0,0-4.334,1.617,2.487,2.487,0,0,0,1.293,3.7l79.085,29.508a3.693,3.693,0,0,0,4.33-1.609A2.489,2.489,0,0,0,608.528,430.466Z" fill="#012b7e" opacity="0.471"/>
      <path id="Trazado_469" data-name="Trazado 469" d="M608.5,430.37l-79.085-29.508a3.7,3.7,0,0,0-4.334,1.617,2.487,2.487,0,0,0,1.293,3.7l79.085,29.508a3.694,3.694,0,0,0,4.33-1.61A2.489,2.489,0,0,0,608.5,430.37Z" fill="#012b7e" opacity="0.5"/>
      <path id="Trazado_470" data-name="Trazado 470" d="M608.474,430.275l-79.085-29.508a3.7,3.7,0,0,0-4.334,1.616,2.487,2.487,0,0,0,1.293,3.7l79.085,29.508a3.691,3.691,0,0,0,4.329-1.609A2.488,2.488,0,0,0,608.474,430.275Z" fill="#012b7e" opacity="0.529"/>
      <path id="Trazado_471" data-name="Trazado 471" d="M608.447,430.179l-79.085-29.508a3.694,3.694,0,0,0-4.334,1.617,2.486,2.486,0,0,0,1.293,3.7L605.406,435.5a3.692,3.692,0,0,0,4.329-1.609A2.489,2.489,0,0,0,608.447,430.179Z" fill="#012b7e" opacity="0.559"/>
      <path id="Trazado_472" data-name="Trazado 472" d="M608.419,430.084l-79.084-29.508A3.694,3.694,0,0,0,525,402.192a2.487,2.487,0,0,0,1.293,3.7L605.379,435.4a3.691,3.691,0,0,0,4.329-1.61A2.488,2.488,0,0,0,608.419,430.084Z" fill="#012b7e" opacity="0.588"/>
      <path id="Trazado_473" data-name="Trazado 473" d="M608.392,429.988,529.308,400.48a3.694,3.694,0,0,0-4.334,1.617,2.487,2.487,0,0,0,1.293,3.7L605.351,435.3a3.693,3.693,0,0,0,4.33-1.609A2.488,2.488,0,0,0,608.392,429.988Z" fill="#012b7e" opacity="0.618"/>
      <path id="Trazado_474" data-name="Trazado 474" d="M608.365,429.892l-79.084-29.508A3.7,3.7,0,0,0,524.947,402a2.487,2.487,0,0,0,1.293,3.7l79.084,29.508a3.693,3.693,0,0,0,4.33-1.61A2.489,2.489,0,0,0,608.365,429.892Z" fill="#012b7e" opacity="0.647"/>
      <path id="Trazado_475" data-name="Trazado 475" d="M608.338,429.8l-79.084-29.508a3.7,3.7,0,0,0-4.334,1.616,2.487,2.487,0,0,0,1.293,3.7L605.3,435.114a3.693,3.693,0,0,0,4.33-1.609A2.488,2.488,0,0,0,608.338,429.8Z" fill="#012b7e" opacity="0.676"/>
      <path id="Trazado_476" data-name="Trazado 476" d="M608.311,429.7l-79.084-29.508a3.694,3.694,0,0,0-4.334,1.617,2.486,2.486,0,0,0,1.293,3.7l79.084,29.508a3.693,3.693,0,0,0,4.33-1.609A2.489,2.489,0,0,0,608.311,429.7Z" fill="#012b7e" opacity="0.706"/>
      <path id="Trazado_477" data-name="Trazado 477" d="M608.284,429.606,529.2,400.1a3.7,3.7,0,0,0-4.334,1.616,2.487,2.487,0,0,0,1.293,3.7l79.084,29.508a3.692,3.692,0,0,0,4.33-1.61A2.488,2.488,0,0,0,608.284,429.606Z" fill="#012b7e" opacity="0.735"/>
      <path id="Trazado_478" data-name="Trazado 478" d="M608.257,429.51,529.173,400a3.694,3.694,0,0,0-4.334,1.617,2.486,2.486,0,0,0,1.293,3.7l79.084,29.508a3.693,3.693,0,0,0,4.33-1.609A2.488,2.488,0,0,0,608.257,429.51Z" fill="#012b7e" opacity="0.765"/>
      <path id="Trazado_479" data-name="Trazado 479" d="M608.23,429.414l-79.084-29.508a3.7,3.7,0,0,0-4.334,1.617,2.487,2.487,0,0,0,1.293,3.7l79.084,29.508a3.693,3.693,0,0,0,4.33-1.61A2.489,2.489,0,0,0,608.23,429.414Z" fill="#012b7e" opacity="0.794"/>
      <path id="Trazado_480" data-name="Trazado 480" d="M608.2,429.319l-79.084-29.508a3.7,3.7,0,0,0-4.334,1.616,2.487,2.487,0,0,0,1.293,3.7l79.084,29.508a3.693,3.693,0,0,0,4.33-1.609A2.489,2.489,0,0,0,608.2,429.319Z" fill="#012b7e" opacity="0.824"/>
      <path id="Trazado_481" data-name="Trazado 481" d="M608.176,429.223l-79.084-29.508a3.694,3.694,0,0,0-4.334,1.617,2.486,2.486,0,0,0,1.293,3.7l79.084,29.508a3.693,3.693,0,0,0,4.33-1.609A2.489,2.489,0,0,0,608.176,429.223Z" fill="#012b7e" opacity="0.853"/>
      <path id="Trazado_482" data-name="Trazado 482" d="M608.149,429.128,529.065,399.62a3.7,3.7,0,0,0-4.335,1.616,2.488,2.488,0,0,0,1.294,3.7l79.084,29.508a3.692,3.692,0,0,0,4.33-1.61A2.488,2.488,0,0,0,608.149,429.128Z" fill="#012b7e" opacity="0.882"/>
      <path id="Trazado_483" data-name="Trazado 483" d="M608.122,429.032l-79.085-29.508a3.7,3.7,0,0,0-4.334,1.617,2.487,2.487,0,0,0,1.294,3.7l79.084,29.508a3.693,3.693,0,0,0,4.33-1.609A2.489,2.489,0,0,0,608.122,429.032Z" fill="#012b7e" opacity="0.912"/>
      <path id="Trazado_484" data-name="Trazado 484" d="M608.095,428.936,529.01,399.428a3.7,3.7,0,0,0-4.334,1.617,2.488,2.488,0,0,0,1.293,3.7l79.085,29.508a3.694,3.694,0,0,0,4.33-1.61A2.489,2.489,0,0,0,608.095,428.936Z" fill="#012b7e" opacity="0.941"/>
      <path id="Trazado_485" data-name="Trazado 485" d="M608.068,428.841l-79.085-29.508a3.7,3.7,0,0,0-4.334,1.616,2.487,2.487,0,0,0,1.293,3.7l79.085,29.508a3.693,3.693,0,0,0,4.33-1.609A2.489,2.489,0,0,0,608.068,428.841Z" fill="#012b7e" opacity="0.971"/>
      <path id="Trazado_486" data-name="Trazado 486" d="M608.041,428.745l-79.085-29.508a3.694,3.694,0,0,0-4.334,1.617,2.486,2.486,0,0,0,1.293,3.7L605,434.062a3.691,3.691,0,0,0,4.329-1.609A2.488,2.488,0,0,0,608.041,428.745Z" fill="#012b7e"/>
    </g>
    <g id="Grupo_172" data-name="Grupo 172">
      <path id="Trazado_487" data-name="Trazado 487" d="M609.862,431.241v0a2.478,2.478,0,0,0,0-.4c0-.04-.016-.078-.022-.117-.008-.057-.019-.113-.031-.168s-.015-.107-.029-.158a2.333,2.333,0,0,0-.111-.307l-.886-2.015a2.333,2.333,0,0,1,.139.465c.012.056.023.111.031.167a2.442,2.442,0,0,1,.026.514v0a2.746,2.746,0,0,1-.1.54q-.02.068-.042.135a3.009,3.009,0,0,1-.237.542,3.375,3.375,0,0,1-.322.456c-.018.022-.033.047-.052.069a3.6,3.6,0,0,1-.4.391c-.028.024-.057.047-.087.071a3.708,3.708,0,0,1-.448.308c-.025.015-.051.027-.075.04a3.964,3.964,0,0,1-.448.21c-.034.013-.067.029-.1.041a3.773,3.773,0,0,1-.556.157c-.025,0-.051.006-.077.011a3.543,3.543,0,0,1-.481.053c-.059,0-.117,0-.175,0a3.414,3.414,0,0,1-.4-.027c-.056-.007-.112-.013-.167-.022a3.192,3.192,0,0,1-.541-.142l-79.123-29.426a2.712,2.712,0,0,1-.9-.545,2.4,2.4,0,0,1-.567-.792h0l.887,2.014a2.519,2.519,0,0,0,1.466,1.338l79.122,29.425a3.093,3.093,0,0,0,.542.142c.055.01.111.016.166.022a3.229,3.229,0,0,0,.405.027c.058,0,.116,0,.174,0a3.725,3.725,0,0,0,.482-.052c.026-.005.051-.006.077-.011l.018,0a3.883,3.883,0,0,0,.483-.133c.018-.006.036-.016.054-.022.035-.013.068-.028.1-.041.077-.031.154-.059.229-.094s.146-.076.218-.116c.025-.014.051-.026.075-.04l.043-.023c.1-.063.208-.131.307-.2.034-.025.066-.055.1-.082s.058-.046.087-.071.071-.055.1-.085A3.445,3.445,0,0,0,609.1,433l.01-.013c.019-.021.033-.046.052-.068a3.472,3.472,0,0,0,.241-.323c.028-.044.055-.088.081-.133a3.023,3.023,0,0,0,.237-.543c.015-.045.029-.089.041-.135A2.65,2.65,0,0,0,609.862,431.241Z" fill="url(#linear-gradient-12)"/>
      <g id="Grupo_171" data-name="Grupo 171">
        <path id="Trazado_488" data-name="Trazado 488" d="M607.306,426.736a2.488,2.488,0,0,1,1.289,3.708,3.7,3.7,0,0,1-4.334,1.617l-79.123-29.426a2.487,2.487,0,0,1-1.281-3.705,3.7,3.7,0,0,1,4.326-1.62Z" fill="url(#linear-gradient-13)"/>
        <path id="Trazado_489" data-name="Trazado 489" d="M607.306,426.736,528.183,397.31a3.694,3.694,0,0,0-4.326,1.62,2.488,2.488,0,0,0,1.281,3.705l79.123,29.426a3.7,3.7,0,0,0,4.334-1.617A2.488,2.488,0,0,0,607.306,426.736Zm1.019,3.554a3.455,3.455,0,0,1-2.931,1.659,2.93,2.93,0,0,1-1.025-.179l-79.123-29.426a2.193,2.193,0,0,1-1.34-1.3,2.318,2.318,0,0,1,.221-1.96,3.457,3.457,0,0,1,2.931-1.661,2.913,2.913,0,0,1,1.017.178L607.2,427.027a2.208,2.208,0,0,1,1.348,1.3A2.314,2.314,0,0,1,608.325,430.29Z" fill="url(#linear-gradient-14)" style="mix-blend-mode: overlay;isolation: isolate"/>
      </g>
    </g>
  </g>
</svg>
