<svg xmlns="http://www.w3.org/2000/svg" xmlns:xlink="http://www.w3.org/1999/xlink" width="200" height="180.556" viewBox="0 0 200 180.556">
  <defs>
    <clipPath id="clip-path">
      <rect id="Rectángulo_1" data-name="Rectángulo 1" width="81.001" height="81.001" fill="#404040" stroke="#404040" stroke-width="1"/>
    </clipPath>
  </defs>
  <g id="Grupo_880851" data-name="Grupo 880851" transform="translate(-225.872 -440.165)">
    <path id="blob_4_" data-name="blob(4)" d="M127.992-1.889c7.736,28.418-16.735,62.519-50.52,88.095S.428,129.148-30.358,110.992C-61.3,92.836-79.773,39.474-65.88,2.531c13.893-37.1,60.309-57.467,103.409-56.52C80.629-52.883,120.414-30.149,127.992-1.889Z" transform="translate(296.444 501.13)" fill="#fff0e5"/>
    <path id="Trazado_605635" data-name="Trazado 605635" d="M-1.863-2.943V-7.8H-6.588v-3.321h4.725v-4.86H1.863v4.86H6.588V-7.8H1.863v4.86Z" transform="translate(324.817 503.054) rotate(180)" fill="#ff6b00"/>
    <path id="Trazado_605636" data-name="Trazado 605636" d="M-1.863-2.943V-7.8H-6.588v-3.321h4.725v-4.86H1.863v4.86H6.588V-7.8H1.863v4.86Z" transform="translate(408.15 480.831) rotate(180)" fill="#ff6b00"/>
    <path id="Trazado_605637" data-name="Trazado 605637" d="M-1.863-2.943V-7.8H-6.588v-3.321h4.725v-4.86H1.863v4.86H6.588V-7.8H1.863v4.86Z" transform="translate(297.039 597.498) rotate(180)" fill="#ff6b00"/>
    <path id="Trazado_605638" data-name="Trazado 605638" d="M5.556,0A5.556,5.556,0,1,1,0,5.556,5.556,5.556,0,0,1,5.556,0Z" transform="translate(421.706 592.942) rotate(180)" fill="#ff6b00"/>
    <path id="Trazado_605639" data-name="Trazado 605639" d="M5.556,0A5.556,5.556,0,1,1,0,5.556,5.556,5.556,0,0,1,5.556,0Z" transform="translate(384.206 463.775) rotate(180)" fill="#ff6b00"/>
    <path id="Trazado_605640" data-name="Trazado 605640" d="M5.556,0A5.556,5.556,0,1,1,0,5.556,5.556,5.556,0,0,1,5.556,0Z" transform="translate(278.65 469.331) rotate(180)" fill="#ff6b00"/>
    <path id="Trazado_605641" data-name="Trazado 605641" d="M13.889,0A13.889,13.889,0,1,1,0,13.889,13.889,13.889,0,0,1,13.889,0Z" transform="translate(366.15 609.609) rotate(180)" fill="#ff6b00" opacity="0.1"/>
    <path id="Trazado_605642" data-name="Trazado 605642" d="M13.889,0A13.889,13.889,0,1,1,0,13.889,13.889,13.889,0,0,1,13.889,0Z" transform="translate(278.65 517.942) rotate(180)" fill="#ff6b00" opacity="0.1"/>
    <path id="Trazado_605643" data-name="Trazado 605643" d="M9.722,0A9.722,9.722,0,1,1,0,9.722,9.722,9.722,0,0,1,9.722,0Z" transform="translate(256.428 620.721) rotate(180)" fill="#ff6b00" opacity="0.1"/>
    <path id="Trazado_605644" data-name="Trazado 605644" d="M9.722,0A9.722,9.722,0,1,1,0,9.722,9.722,9.722,0,0,1,9.722,0Z" transform="translate(423.095 459.609) rotate(180)" fill="#ff6b00" opacity="0.1"/>
    <path id="Trazado_605645" data-name="Trazado 605645" d="M13.889,0A13.889,13.889,0,1,1,0,13.889,13.889,13.889,0,0,1,13.889,0Z" transform="translate(370.317 477.665) rotate(180)" fill="#ff6b00" opacity="0.1"/>
    <g id="Trazado_605646" data-name="Trazado 605646" transform="translate(284.206 523.498) rotate(180)" fill="none">
      <path d="M5.556,0A5.556,5.556,0,1,1,0,5.556,5.556,5.556,0,0,1,5.556,0Z" stroke="none"/>
      <path d="M 5.55555534362793 1.999995231628418 C 3.595015525817871 1.999995231628418 1.999995231628418 3.595015525817871 1.999995231628418 5.55555534362793 C 1.999995231628418 7.516095161437988 3.595015525817871 9.111115455627441 5.55555534362793 9.111115455627441 C 7.516095161437988 9.111115455627441 9.111115455627441 7.516095161437988 9.111115455627441 5.55555534362793 C 9.111115455627441 3.595015525817871 7.516095161437988 1.999995231628418 5.55555534362793 1.999995231628418 M 5.55555534362793 -4.76837158203125e-06 C 8.623805046081543 -4.76837158203125e-06 11.11111545562744 2.487305641174316 11.11111545562744 5.55555534362793 C 11.11111545562744 8.623805046081543 8.623805046081543 11.11111545562744 5.55555534362793 11.11111545562744 C 2.487305641174316 11.11111545562744 -4.76837158203125e-06 8.623805046081543 -4.76837158203125e-06 5.55555534362793 C -4.76837158203125e-06 2.487305641174316 2.487305641174316 -4.76837158203125e-06 5.55555534362793 -4.76837158203125e-06 Z" stroke="none" fill="#ff6b00"/>
    </g>
    <g id="Trazado_605647" data-name="Trazado 605647" transform="translate(413.372 551.275) rotate(180)" fill="none">
      <path d="M5.556,0A5.556,5.556,0,1,1,0,5.556,5.556,5.556,0,0,1,5.556,0Z" stroke="none"/>
      <path d="M 5.55555534362793 1.999995231628418 C 3.595015525817871 1.999995231628418 1.999995231628418 3.595015525817871 1.999995231628418 5.55555534362793 C 1.999995231628418 7.516095161437988 3.595015525817871 9.111115455627441 5.55555534362793 9.111115455627441 C 7.516095161437988 9.111115455627441 9.111115455627441 7.516095161437988 9.111115455627441 5.55555534362793 C 9.111115455627441 3.595015525817871 7.516095161437988 1.999995231628418 5.55555534362793 1.999995231628418 M 5.55555534362793 -4.76837158203125e-06 C 8.623805046081543 -4.76837158203125e-06 11.11111545562744 2.487305641174316 11.11111545562744 5.55555534362793 C 11.11111545562744 8.623805046081543 8.623805046081543 11.11111545562744 5.55555534362793 11.11111545562744 C 2.487305641174316 11.11111545562744 -4.76837158203125e-06 8.623805046081543 -4.76837158203125e-06 5.55555534362793 C -4.76837158203125e-06 2.487305641174316 2.487305641174316 -4.76837158203125e-06 5.55555534362793 -4.76837158203125e-06 Z" stroke="none" fill="#ff6b00"/>
    </g>
    <g id="Grupo_10" data-name="Grupo 10" transform="translate(268.928 466.554)">
      <circle id="Elipse_13" data-name="Elipse 13" cx="18.056" cy="18.056" r="18.056" transform="translate(0)" fill="#fff"/>
      <g id="Icon_feather-check-circle" data-name="Icon feather-check-circle" transform="translate(1.216 0.981)">
        <path id="Trazado_18" data-name="Trazado 18" d="M36.24,18.092v1.529A16.62,16.62,0,1,1,26.385,4.43" transform="translate(-3 -2.991)" fill="none" stroke="#404040" stroke-linecap="round" stroke-linejoin="round" stroke-width="3"/>
        <path id="Trazado_19" data-name="Trazado 19" d="M26.684,6l-9.927,9.937" transform="translate(-5.1 5.653)" fill="none" stroke="#404040" stroke-linecap="round" stroke-linejoin="round" stroke-width="3"/>
        <path id="Trazado_41" data-name="Trazado 41" d="M9.927,0,0,9.937" transform="translate(21.589 11.658) rotate(90)" fill="none" stroke="#404040" stroke-linecap="round" stroke-linejoin="round" stroke-width="3"/>
      </g>
    </g>
    <g id="Grupo_16" data-name="Grupo 16" transform="translate(268.928 560.998)">
      <circle id="Elipse_13-2" data-name="Elipse 13" cx="18.056" cy="18.056" r="18.056" transform="translate(0)" fill="#fff"/>
      <g id="Icon_feather-check-circle-2" data-name="Icon feather-check-circle" transform="translate(1.216 1.451)">
        <path id="Trazado_18-2" data-name="Trazado 18" d="M36.24,18.092v1.529A16.62,16.62,0,1,1,26.385,4.43" transform="translate(-3 -2.991)" fill="none" stroke="#404040" stroke-linecap="round" stroke-linejoin="round" stroke-width="3"/>
        <path id="Trazado_19-2" data-name="Trazado 19" d="M26.684,6l-9.927,9.937" transform="translate(-5.1 5.653)" fill="none" stroke="#404040" stroke-linecap="round" stroke-linejoin="round" stroke-width="3"/>
        <path id="Trazado_41-2" data-name="Trazado 41" d="M9.927,0,0,9.937" transform="translate(21.589 11.658) rotate(90)" fill="none" stroke="#404040" stroke-linecap="round" stroke-linejoin="round" stroke-width="3"/>
      </g>
    </g>
    <g id="Grupo_11" data-name="Grupo 11" transform="translate(268.928 513.776)">
      <circle id="Elipse_13-3" data-name="Elipse 13" cx="18.056" cy="18.056" r="18.056" transform="translate(0)" fill="#fff"/>
      <g id="Icon_feather-check-circle-3" data-name="Icon feather-check-circle" transform="translate(1.216 1.216)">
        <path id="Trazado_18-3" data-name="Trazado 18" d="M36.24,18.092v1.529A16.62,16.62,0,1,1,26.385,4.43" transform="translate(-3 -2.991)" fill="none" stroke="#404040" stroke-linecap="round" stroke-linejoin="round" stroke-width="3"/>
        <path id="Trazado_19-3" data-name="Trazado 19" d="M35.106,6,18.486,22.637,13.5,17.651" transform="translate(-1.866 -2.666)" fill="none" stroke="#404040" stroke-linecap="round" stroke-linejoin="round" stroke-width="3"/>
      </g>
    </g>
    <path id="Trazado_40" data-name="Trazado 40" d="M905.655,115.74l5.256-16.558s58.3-61.3,60.144-61.5a57.653,57.653,0,0,1,6.086,0l6.57,6.57v6.57l-61.5,59.923Z" transform="translate(-591.373 456.308)" fill="#fff"/>
    <g id="Grupo_14" data-name="Grupo 14" transform="translate(311.983 492.72)">
      <g id="Grupo_8" data-name="Grupo 8" transform="translate(0 0)" clip-path="url(#clip-path)">
        <path id="Trazado_35" data-name="Trazado 35" d="M16.037,71.406a1.538,1.538,0,0,1-1.084-.448L3.621,59.626a1.537,1.537,0,0,1,0-2.171L54.444,6.633a1.577,1.577,0,0,1,2.169,0L67.945,17.965a1.532,1.532,0,0,1,0,2.169L17.122,70.958a1.539,1.539,0,0,1-1.085.448M6.876,58.54,16.037,67.7,64.69,19.048,55.527,9.885Z" transform="translate(2.174 4.248)" fill="#404040" stroke="#404040" stroke-width="1"/>
        <path id="Trazado_36" data-name="Trazado 36" d="M47.589,23.925a1.523,1.523,0,0,1-1.084-.45L33.189,10.161a1.537,1.537,0,0,1,0-2.171L37.979,3.2a1.58,1.58,0,0,1,2.169,0L53.462,16.518a1.532,1.532,0,0,1,0,2.169l-4.788,4.788a1.53,1.53,0,0,1-1.085.45M36.444,9.076,47.589,20.222,50.209,17.6,39.063,6.457Z" transform="translate(22.438 1.898)" fill="#404040" stroke="#404040" stroke-width="1"/>
        <path id="Trazado_37" data-name="Trazado 37" d="M49.036,20.043a1.535,1.535,0,0,1-1.084-.448L36.618,8.263a1.538,1.538,0,0,1,0-2.171l4.427-4.426a5.69,5.69,0,0,1,8.047,0L54.547,7.12a5.69,5.69,0,0,1,0,8.047L50.121,19.6a1.536,1.536,0,0,1-1.085.448M39.874,7.178l9.161,9.163L52.378,13a2.622,2.622,0,0,0,0-3.709L46.924,3.836a2.687,2.687,0,0,0-3.709,0Z" transform="translate(24.788 -0.001)" fill="#404040" stroke="#404040" stroke-width="1"/>
        <path id="Trazado_38" data-name="Trazado 38" d="M1.534,56.093a1.534,1.534,0,0,1-1.461-2L5.419,37.413A1.534,1.534,0,0,1,7.963,36.8L19.3,48.129a1.535,1.535,0,0,1-.617,2.547L2,56.019a1.5,1.5,0,0,1-.469.074m6.038-15.35L3.9,52.188,15.348,48.52Z" transform="translate(0 24.909)" fill="#404040" stroke="#404040" stroke-width="1"/>
        <path id="Trazado_39" data-name="Trazado 39" d="M8.068,63.444a1.534,1.534,0,0,1-1.085-2.619L57.808,10a1.533,1.533,0,0,1,2.167,2.169L9.151,62.994a1.523,1.523,0,0,1-1.084.45" transform="translate(4.478 6.546)" fill="#404040" stroke="#404040" stroke-width="1"/>
      </g>
    </g>
  </g>
</svg>
