<svg xmlns="http://www.w3.org/2000/svg" xmlns:xlink="http://www.w3.org/1999/xlink" width="166" height="130.546" viewBox="0 0 166 130.546">
  <defs>
    <linearGradient id="linear-gradient" x1="40.578" y1="-18.477" x2="41.844" y2="-1.528" gradientUnits="objectBoundingBox">
      <stop offset="0" stop-color="#f2f9ff"/>
      <stop offset="0.064" stop-color="#dbe9f5"/>
      <stop offset="0.32" stop-color="#b6d1e7"/>
      <stop offset="0.47" stop-color="#a6c7e2"/>
      <stop offset="0.618" stop-color="#88adcf"/>
      <stop offset="0.67" stop-color="#8aafd0"/>
      <stop offset="0.707" stop-color="#94b8d7"/>
      <stop offset="0.733" stop-color="#a0c4df"/>
      <stop offset="0.982" stop-color="#a6c7e2"/>
    </linearGradient>
    <linearGradient id="linear-gradient-2" x1="10.989" y1="-0.922" x2="11.11" y2="0.404" gradientUnits="objectBoundingBox">
      <stop offset="0" stop-color="#f2f9ff"/>
      <stop offset="0.064" stop-color="#dbe9f5"/>
      <stop offset="0.268" stop-color="#b6d1e7"/>
      <stop offset="0.388" stop-color="#a6c7e2"/>
      <stop offset="0.612" stop-color="#949fc3"/>
      <stop offset="0.772" stop-color="#7f6b55"/>
      <stop offset="0.786" stop-color="#7f6e5a"/>
      <stop offset="0.805" stop-color="#80776b"/>
      <stop offset="0.826" stop-color="#828687"/>
      <stop offset="0.849" stop-color="#859bad"/>
      <stop offset="0.866" stop-color="#88adcf"/>
      <stop offset="0.914" stop-color="#8aafd0"/>
      <stop offset="0.948" stop-color="#94b7d6"/>
      <stop offset="0.978" stop-color="#a3c4e0"/>
      <stop offset="0.982" stop-color="#a6c7e2"/>
    </linearGradient>
    <linearGradient id="linear-gradient-3" x1="0.764" y1="-0.018" x2="0.587" y2="0.923" gradientUnits="objectBoundingBox">
      <stop offset="0" stop-color="#f2f9ff"/>
      <stop offset="0.795" stop-color="#c0d6f2"/>
      <stop offset="0.999" stop-color="#b3cdec"/>
    </linearGradient>
    <linearGradient id="linear-gradient-4" x1="2.466" y1="-0.427" x2="2.001" y2="0.465" gradientUnits="objectBoundingBox">
      <stop offset="0.076" stop-color="#fff"/>
      <stop offset="1" stop-color="#fff" stop-opacity="0"/>
    </linearGradient>
    <linearGradient id="linear-gradient-5" x1="88.646" y1="-5.639" x2="88.93" y2="-4.464" gradientUnits="objectBoundingBox">
      <stop offset="0" stop-color="#53cc5b"/>
      <stop offset="0.1" stop-color="#46bf55"/>
      <stop offset="0.705" stop-color="#073"/>
      <stop offset="1" stop-color="#073"/>
    </linearGradient>
    <linearGradient id="linear-gradient-6" x1="88.57" y1="-5.002" x2="88.759" y2="-3.827" xlink:href="#linear-gradient-5"/>
    <linearGradient id="linear-gradient-7" x1="88.453" y1="-4.301" x2="88.729" y2="-3.171" xlink:href="#linear-gradient-5"/>
    <linearGradient id="linear-gradient-8" x1="4.153" y1="-0.341" x2="4.314" y2="-2.632" gradientUnits="objectBoundingBox">
      <stop offset="0.301" stop-color="#42c352"/>
      <stop offset="0.477" stop-color="#57ce5e"/>
      <stop offset="0.995" stop-color="#95ee81"/>
    </linearGradient>
    <linearGradient id="linear-gradient-9" x1="16.49" y1="-3.58" x2="15.889" y2="-2.383" xlink:href="#linear-gradient-4"/>
    <linearGradient id="linear-gradient-10" x1="16.53" y1="-3.806" x2="15.93" y2="-2.61" xlink:href="#linear-gradient-4"/>
    <linearGradient id="linear-gradient-11" x1="16.57" y1="-4.03" x2="15.97" y2="-2.834" xlink:href="#linear-gradient-4"/>
  </defs>
  <g id="Grupo_872891" data-name="Grupo 872891" transform="translate(-394.136 -184.339)">
    <path id="Trazado_490" data-name="Trazado 490" d="M401.8,342.431l24.071,6.8c.078.022.152.033.228.049a3.749,3.749,0,0,0,.753.1,3.127,3.127,0,0,0,1.576-.394l-5.2,2.914a3.135,3.135,0,0,1-1.576.394,3.747,3.747,0,0,1-.753-.1c-.028-.006-.053,0-.081-.01-.049-.012-.1-.025-.148-.039l-24.071-6.8Z" transform="translate(129.972 -46.259)" fill="url(#linear-gradient)"/>
    <path id="Trazado_491" data-name="Trazado 491" d="M454.672,280.32c-.085-.154-.164-.311-.248-.465-.119-.218-.234-.437-.35-.657q-.539-1.019-1.043-2.059c-.085-.175-.173-.348-.256-.524-.036-.076-.075-.149-.11-.226q-.563-1.2-1.077-2.433c-.013-.033-.029-.064-.043-.1q-.537-1.286-1.02-2.6c-.025-.07-.048-.142-.073-.212-.081-.225-.156-.454-.235-.681q-.367-1.045-.7-2.109c-.1-.309-.19-.62-.282-.932q-.3-1-.562-2.022c-.077-.293-.156-.584-.229-.88-.237-.959-.459-1.925-.654-2.9-.223-1.122-.4-2.234-.562-3.34-.02-.137-.05-.275-.069-.411-.029-.213-.049-.424-.077-.636-.035-.282-.07-.564-.1-.845-.021-.178-.046-.358-.065-.535-.021-.207-.03-.41-.05-.616q-.073-.775-.126-1.544c-.023-.345-.045-.69-.062-1.034-.026-.514-.043-1.026-.055-1.536-.008-.33-.018-.661-.02-.99,0-.543,0-1.081.017-1.618.006-.288.007-.578.018-.864.025-.679.066-1.353.115-2.025.009-.127.011-.255.022-.382,0-.013,0-.026,0-.039q.1-1.231.257-2.443c.03-.239.07-.475.1-.713.08-.569.165-1.135.262-1.7.017-.1.028-.2.046-.3s.047-.2.066-.3c.229-1.229.492-2.443.8-3.639.012-.047.019-.1.032-.142.028-.105.065-.206.093-.311q.413-1.53.911-3.023c.022-.065.038-.133.06-.2.008-.024.018-.047.027-.071.332-.97.7-1.924,1.086-2.868.042-.105.076-.214.12-.319s.1-.2.14-.306c.385-.905.788-1.8,1.223-2.682.01-.02.018-.04.028-.06.034-.069.074-.136.109-.205q.6-1.188,1.255-2.344c.064-.113.119-.231.184-.343.048-.085.1-.166.154-.25.486-.833.99-1.656,1.522-2.463.023-.034.042-.07.064-.1.059-.09.127-.174.187-.264q.734-1.1,1.526-2.157c.078-.1.146-.214.225-.318.045-.059.094-.113.139-.172q.921-1.21,1.912-2.373c.053-.062.1-.127.153-.19.077-.09.163-.173.241-.262.724-.833,1.469-1.652,2.246-2.448l.015-.016c.017-.017.035-.033.052-.049.833-.849,1.7-1.672,2.593-2.475.071-.064.134-.134.206-.2.051-.046.105-.089.157-.135.243-.215.492-.424.739-.637.3-.262.608-.524.92-.781.255-.211.517-.416.777-.623.236-.187.466-.38.7-.565.073-.056.149-.109.222-.165.351-.27.709-.532,1.067-.8.267-.2.531-.395.8-.587.381-.27.769-.532,1.157-.8.22-.149.434-.3.656-.452.04-.026.081-.05.121-.076.436-.286.882-.565,1.328-.842.224-.14.444-.284.671-.422q.987-.6,2-1.17l.057-.034,5.2-2.913q-1.046.586-2.061,1.2c-.221.135-.436.277-.656.414-.451.28-.9.56-1.341.85-.262.173-.519.352-.777.528-.388.263-.777.525-1.157.8-.271.192-.535.391-.8.587-.358.263-.717.526-1.067.8-.312.239-.617.484-.923.728-.261.208-.524.415-.781.627-.308.254-.609.514-.91.773-.25.214-.5.427-.748.644-.122.108-.238.22-.359.328-.893.806-1.763,1.631-2.6,2.482-.021.021-.042.04-.063.062-.778.8-1.522,1.615-2.247,2.448-.131.151-.264.3-.393.452q-.991,1.163-1.912,2.373c-.124.162-.242.327-.364.49q-.789,1.062-1.526,2.157c-.082.124-.169.244-.25.368-.532.808-1.037,1.631-1.523,2.464-.115.2-.226.394-.337.591-.437.772-.857,1.552-1.255,2.345-.045.089-.093.176-.137.265-.435.88-.838,1.777-1.223,2.683q-.133.311-.26.625c-.388.944-.754,1.9-1.086,2.868-.03.088-.057.18-.087.268q-.5,1.492-.911,3.024c-.041.151-.086.3-.125.451-.31,1.2-.575,2.41-.8,3.638-.037.2-.078.4-.113.6-.1.56-.181,1.125-.261,1.691-.034.24-.074.477-.1.719q-.154,1.212-.257,2.443c-.011.137-.015.276-.025.413-.05.673-.091,1.35-.116,2.032-.011.286-.012.577-.018.864-.012.538-.021,1.076-.017,1.618,0,.329.012.659.02.99.012.511.029,1.022.055,1.536.017.344.039.689.062,1.034.035.513.078,1.028.126,1.544.036.383.071.766.115,1.152.032.281.066.562.1.845.045.347.1.7.146,1.046.16,1.107.34,2.219.562,3.341.194.979.417,1.945.654,2.9.072.294.152.586.229.879q.266,1.019.562,2.022c.093.312.185.623.282.933q.333,1.063.7,2.108c.079.226.154.456.235.681.345.949.707,1.887,1.094,2.813.014.033.03.064.043.1q.565,1.345,1.188,2.658c.083.176.171.349.256.524q.5,1.04,1.043,2.059c.116.22.231.439.35.657.212.391.439.773.659,1.159q.606,1.063,1.248,2.1.346.558.7,1.108c.389.6.79,1.193,1.2,1.78.251.361.5.723.758,1.079.405.56.826,1.11,1.248,1.657.261.338.517.681.784,1.014.439.548.895,1.082,1.351,1.616.257.3.506.608.768.9.593.672,1.206,1.328,1.826,1.977.142.149.276.3.419.451q1.161,1.195,2.38,2.337c.215.2.441.395.659.594.618.567,1.241,1.128,1.88,1.675.295.252.6.494.9.743.615.509,1.234,1.012,1.866,1.5.334.259.673.513,1.011.767q1.025.767,2.078,1.5c.321.224.64.451.966.671,1.076.728,2.168,1.438,3.285,2.116.072.044.147.084.22.128,1.164.7,2.354,1.367,3.559,2.011.419.224.837.449,1.261.666.355.182.712.363,1.07.54q.862.425,1.737.831c.347.163.694.327,1.045.484.49.221.986.429,1.481.64.541.231,1.081.463,1.628.683.487.2.981.382,1.474.569.55.21,1.1.42,1.656.619.386.138.777.267,1.167.4q1.441.492,2.905.936c.37.112.739.227,1.111.335,1.3.375,2.6.729,3.927,1.046.062.016.125.027.186.041,1.391.33,2.8.619,4.213.884q.554.1,1.11.2c1.477.257,2.962.492,4.462.678l.1.01c1.471.18,2.953.313,4.442.423q.573.042,1.148.077c1.525.093,3.056.163,4.6.18q4.5.051,9.052-.339a80.46,80.46,0,0,0,32.475-9.6l-5.2,2.914a80.448,80.448,0,0,1-32.475,9.6q-4.555.393-9.052.34c-1.539-.017-3.069-.086-4.594-.18-.384-.023-.767-.049-1.15-.077-1.488-.11-2.971-.243-4.442-.423l-.1-.01c-1.5-.185-2.984-.42-4.462-.678q-.557-.1-1.11-.2c-1.417-.266-2.825-.554-4.218-.885-.048-.011-.1-.019-.146-.03l-.034-.009c-1.323-.317-2.63-.672-3.929-1.047-.371-.108-.739-.222-1.108-.334q-1.465-.444-2.906-.937c-.229-.078-.463-.143-.691-.223-.161-.057-.317-.121-.477-.178-.555-.2-1.1-.408-1.653-.618-.493-.187-.987-.374-1.475-.57-.547-.22-1.087-.452-1.628-.683-.353-.151-.712-.291-1.063-.446-.141-.063-.279-.131-.419-.195-.351-.158-.7-.321-1.045-.484q-.874-.407-1.737-.832c-.359-.177-.714-.357-1.069-.539-.256-.132-.516-.255-.771-.389-.167-.088-.325-.189-.492-.278-1.2-.645-2.394-1.311-3.558-2.011-.058-.035-.12-.065-.178-.1l-.042-.028c-1.118-.678-2.209-1.388-3.286-2.116-.112-.076-.232-.145-.344-.222-.211-.144-.41-.3-.619-.448q-1.054-.736-2.08-1.5c-.189-.142-.387-.272-.574-.416-.149-.113-.288-.236-.435-.35-.632-.49-1.252-.994-1.867-1.5-.219-.182-.448-.352-.666-.536-.079-.067-.154-.139-.233-.207-.639-.547-1.263-1.109-1.882-1.677-.189-.173-.388-.337-.575-.511-.028-.026-.053-.054-.081-.08q-1.218-1.144-2.38-2.338l-.031-.03c-.133-.137-.257-.282-.388-.421-.62-.649-1.232-1.305-1.826-1.977-.041-.046-.085-.09-.126-.136-.221-.251-.425-.514-.642-.768-.456-.535-.912-1.069-1.351-1.616-.067-.083-.14-.163-.207-.248-.2-.25-.382-.514-.578-.767-.422-.548-.842-1.1-1.248-1.657-.095-.131-.2-.255-.292-.388-.161-.226-.307-.463-.465-.692q-.612-.881-1.2-1.779c-.123-.19-.257-.371-.378-.562s-.212-.366-.324-.546q-.644-1.038-1.248-2.1C454.95,280.78,454.8,280.556,454.672,280.32Z" transform="translate(-52.46 -4.116)" fill="url(#linear-gradient-2)"/>
    <path id="Trazado_492" data-name="Trazado 492" d="M467.055,184.345q-4.606-.05-9.273.34c-41.614,3.5-70,32.557-62.42,69.8,7.024,34.462,41.008,57.064,79.01,57.477q4.606.05,9.275-.34c16.7-1.4,31.26-6.935,42.23-15.454l24.663,6.8a3.992,3.992,0,0,0,1.005.146c2.752.03,4.391-3.1,2.732-5.984L542.22,276.26c4.828-10.077,6.417-21.788,3.838-34.438C539.034,207.36,505.05,184.761,467.055,184.345Z" transform="translate(5.192)" fill="url(#linear-gradient-3)"/>
    <g id="Grupo_174" data-name="Grupo 174" transform="translate(440.237 236.05)">
      <path id="Trazado_493" data-name="Trazado 493" d="M468.288,266.444c-4.553.472-7.394,4.935-6.321,9.986,1,4.766,5.141,8.352,9.437,8.329q.371,0,.743-.04c4.565-.461,7.394-4.935,6.323-9.976-1.005-4.781-5.15-8.361-9.453-8.338Q468.653,266.407,468.288,266.444Zm27.321-2.75c4.3-.023,8.431,3.554,9.435,8.329,1.071,5.04-1.758,9.514-6.323,9.975-.248.025-.5.039-.743.04-4.3.023-8.434-3.563-9.437-8.329-1.07-5.041,1.768-9.514,6.323-9.976C495.112,263.708,495.361,263.7,495.609,263.694Zm26.575-2.721c4.3-.023,8.431,3.554,9.436,8.329,1.07,5.041-1.759,9.514-6.323,9.976-.249.026-.5.039-.746.04-4.3.023-8.431-3.554-9.436-8.329-1.07-5.041,1.768-9.514,6.323-9.976Q521.812,260.975,522.184,260.973Z" transform="translate(-461.74 -258.474)" fill="#eaf2fb" opacity="0"/>
      <path id="Trazado_494" data-name="Trazado 494" d="M468.23,266.362c-4.553.472-7.393,4.935-6.32,9.986,1,4.766,5.141,8.351,9.437,8.329q.371,0,.743-.04c4.565-.461,7.393-4.935,6.323-9.976-1.006-4.781-5.15-8.361-9.453-8.338Q468.6,266.325,468.23,266.362Zm27.322-2.75c4.3-.023,8.431,3.554,9.436,8.329,1.07,5.04-1.758,9.514-6.323,9.976q-.373.038-.743.04c-4.3.023-8.434-3.563-9.437-8.33-1.071-5.04,1.768-9.514,6.323-9.975C495.055,263.626,495.3,263.613,495.551,263.612Zm26.574-2.721c4.3-.023,8.431,3.554,9.436,8.329,1.071,5.04-1.758,9.514-6.323,9.976-.248.025-.5.039-.746.04-4.3.023-8.431-3.554-9.435-8.329-1.071-5.041,1.768-9.514,6.323-9.976A7.315,7.315,0,0,1,522.126,260.891Z" transform="translate(-461.642 -258.45)" fill="#e8f0f9" opacity="0.023" style="mix-blend-mode: multiply;isolation: isolate"/>
      <path id="Trazado_495" data-name="Trazado 495" d="M468.173,266.28c-4.553.471-7.394,4.935-6.321,9.986,1,4.766,5.141,8.351,9.437,8.329q.371,0,.743-.04c4.565-.461,7.394-4.935,6.323-9.976-1.005-4.781-5.15-8.361-9.453-8.338Q468.539,266.243,468.173,266.28Zm27.322-2.75c4.3-.023,8.431,3.553,9.435,8.329,1.071,5.04-1.758,9.514-6.323,9.976-.248.025-.5.039-.743.04-4.3.022-8.434-3.563-9.437-8.33-1.071-5.04,1.768-9.514,6.323-9.975C495,263.544,495.247,263.531,495.495,263.53Zm26.574-2.721c4.3-.023,8.431,3.554,9.435,8.329,1.071,5.04-1.758,9.514-6.323,9.976-.248.025-.5.039-.745.04-4.3.023-8.431-3.554-9.436-8.33-1.07-5.04,1.768-9.514,6.323-9.975A7.318,7.318,0,0,1,522.069,260.809Z" transform="translate(-461.544 -258.426)" fill="#e6eef8" opacity="0.046" style="mix-blend-mode: multiply;isolation: isolate"/>
      <path id="Trazado_496" data-name="Trazado 496" d="M468.116,266.2c-4.553.472-7.393,4.935-6.321,9.986,1,4.766,5.141,8.351,9.438,8.329q.371,0,.743-.04c4.565-.461,7.393-4.935,6.323-9.976-1.006-4.781-5.15-8.361-9.454-8.338C468.6,266.16,468.359,266.172,468.116,266.2Zm27.321-2.75c4.3-.023,8.431,3.553,9.436,8.329,1.07,5.04-1.758,9.514-6.323,9.976q-.372.038-.743.04c-4.3.022-8.434-3.564-9.437-8.33-1.071-5.04,1.767-9.514,6.322-9.976C494.941,263.461,495.19,263.448,495.437,263.447Zm26.575-2.721c4.3-.022,8.431,3.554,9.436,8.33,1.07,5.04-1.758,9.514-6.323,9.976-.248.025-.5.039-.746.04-4.3.023-8.431-3.554-9.435-8.329-1.071-5.04,1.768-9.514,6.323-9.976Q521.639,260.728,522.012,260.726Z" transform="translate(-461.446 -258.402)" fill="#e4ecf6" opacity="0.069" style="mix-blend-mode: multiply;isolation: isolate"/>
      <path id="Trazado_497" data-name="Trazado 497" d="M468.058,266.115c-4.553.472-7.394,4.935-6.321,9.986,1,4.766,5.141,8.351,9.437,8.329.248,0,.5-.014.743-.04,4.565-.461,7.394-4.935,6.323-9.975-1.005-4.781-5.15-8.361-9.453-8.338Q468.424,266.078,468.058,266.115Zm27.321-2.75c4.3-.022,8.431,3.554,9.436,8.33,1.071,5.04-1.758,9.514-6.323,9.976-.248.025-.5.039-.743.04-4.3.023-8.434-3.563-9.437-8.329-1.071-5.04,1.768-9.514,6.323-9.976C494.883,263.379,495.132,263.366,495.379,263.365Zm26.575-2.721c4.3-.023,8.431,3.554,9.435,8.329,1.071,5.04-1.758,9.514-6.323,9.976-.248.025-.5.039-.745.04-4.3.022-8.431-3.554-9.436-8.329-1.071-5.04,1.768-9.514,6.323-9.976C521.457,260.659,521.706,260.645,521.954,260.644Z" transform="translate(-461.348 -258.378)" fill="#e2ebf4" opacity="0.092" style="mix-blend-mode: multiply;isolation: isolate"/>
      <path id="Trazado_498" data-name="Trazado 498" d="M468,266.033c-4.553.472-7.393,4.935-6.321,9.986,1,4.766,5.141,8.351,9.437,8.329.248,0,.5-.014.743-.04,4.565-.461,7.394-4.935,6.323-9.975-1.005-4.781-5.15-8.361-9.453-8.339Q468.366,266,468,266.033Zm27.321-2.75c4.3-.022,8.431,3.554,9.436,8.33,1.07,5.04-1.759,9.514-6.323,9.975-.248.026-.5.039-.743.04-4.3.023-8.435-3.563-9.438-8.329-1.07-5.04,1.768-9.514,6.323-9.976Q494.95,263.285,495.322,263.283Zm26.575-2.721c4.3-.023,8.431,3.554,9.436,8.33,1.07,5.04-1.758,9.514-6.323,9.975a7.32,7.32,0,0,1-.746.04c-4.3.023-8.431-3.553-9.436-8.329-1.07-5.04,1.768-9.514,6.323-9.976Q521.524,260.564,521.9,260.562Z" transform="translate(-461.25 -258.354)" fill="#e0e9f3" opacity="0.115" style="mix-blend-mode: multiply;isolation: isolate"/>
      <path id="Trazado_499" data-name="Trazado 499" d="M467.943,265.951c-4.553.472-7.394,4.935-6.321,9.986,1,4.765,5.141,8.351,9.437,8.329.248,0,.5-.014.743-.04,4.565-.461,7.393-4.935,6.323-9.975-1.006-4.781-5.15-8.361-9.453-8.339C468.429,265.913,468.187,265.926,467.943,265.951Zm27.321-2.75c4.3-.023,8.431,3.554,9.436,8.33,1.071,5.04-1.758,9.514-6.323,9.975-.248.026-.5.039-.743.04-4.3.023-8.434-3.563-9.437-8.329-1.071-5.04,1.768-9.514,6.323-9.976C494.768,263.215,495.017,263.2,495.264,263.2Zm26.574-2.721c4.3-.023,8.431,3.554,9.436,8.329,1.071,5.04-1.758,9.514-6.323,9.975a7.306,7.306,0,0,1-.745.04c-4.3.023-8.431-3.554-9.436-8.329-1.071-5.04,1.768-9.514,6.323-9.976C521.342,260.495,521.591,260.481,521.839,260.48Z" transform="translate(-461.152 -258.33)" fill="#dee7f1" opacity="0.138" style="mix-blend-mode: multiply;isolation: isolate"/>
      <path id="Trazado_500" data-name="Trazado 500" d="M467.886,265.869c-4.553.472-7.393,4.935-6.321,9.986,1,4.766,5.141,8.352,9.437,8.33.248,0,.5-.015.743-.04,4.565-.461,7.394-4.935,6.323-9.976-1.005-4.781-5.15-8.361-9.453-8.338Q468.251,265.832,467.886,265.869Zm27.321-2.75c4.3-.023,8.431,3.554,9.435,8.33,1.071,5.04-1.758,9.514-6.323,9.975-.248.025-.5.039-.743.04-4.3.023-8.434-3.563-9.437-8.329-1.07-5.041,1.768-9.514,6.323-9.976C494.71,263.133,494.959,263.12,495.207,263.119Zm26.575-2.721c4.3-.023,8.431,3.554,9.436,8.329,1.07,5.041-1.759,9.514-6.323,9.976-.249.026-.5.039-.746.04-4.3.023-8.431-3.554-9.436-8.329-1.07-5.041,1.768-9.514,6.323-9.976C521.285,260.412,521.533,260.4,521.782,260.4Z" transform="translate(-461.054 -258.306)" fill="#dce5ef" opacity="0.16" style="mix-blend-mode: multiply;isolation: isolate"/>
      <path id="Trazado_501" data-name="Trazado 501" d="M467.828,265.787c-4.554.472-7.394,4.935-6.321,9.986,1,4.766,5.141,8.351,9.437,8.33q.371,0,.744-.04c4.565-.461,7.393-4.935,6.323-9.976-1.006-4.781-5.15-8.361-9.453-8.338Q468.193,265.75,467.828,265.787Zm27.321-2.75c4.3-.023,8.431,3.554,9.436,8.329,1.07,5.04-1.758,9.514-6.323,9.976q-.372.038-.743.04c-4.3.023-8.434-3.563-9.437-8.329-1.071-5.04,1.768-9.514,6.323-9.975C494.653,263.051,494.9,263.038,495.149,263.037Zm26.574-2.721c4.3-.023,8.431,3.554,9.436,8.329,1.071,5.04-1.758,9.514-6.323,9.976q-.373.038-.746.04c-4.3.023-8.431-3.554-9.435-8.329-1.071-5.041,1.768-9.514,6.323-9.976A7.306,7.306,0,0,1,521.724,260.316Z" transform="translate(-460.955 -258.282)" fill="#dae3ed" opacity="0.183" style="mix-blend-mode: multiply;isolation: isolate"/>
      <path id="Trazado_502" data-name="Trazado 502" d="M467.771,265.7c-4.553.471-7.394,4.935-6.321,9.986,1,4.766,5.141,8.351,9.437,8.329q.371,0,.743-.04c4.565-.461,7.394-4.935,6.323-9.976-1.005-4.781-5.15-8.361-9.453-8.338Q468.137,265.668,467.771,265.7Zm27.322-2.75c4.3-.023,8.431,3.553,9.435,8.329,1.071,5.04-1.758,9.514-6.323,9.976-.248.025-.5.039-.743.04-4.3.022-8.434-3.563-9.437-8.329-1.071-5.04,1.768-9.514,6.323-9.975C494.6,262.968,494.845,262.956,495.093,262.954Zm26.574-2.721c4.3-.022,8.431,3.555,9.435,8.329,1.071,5.04-1.758,9.514-6.323,9.976-.248.025-.5.039-.745.04-4.3.023-8.431-3.554-9.436-8.329-1.07-5.04,1.768-9.514,6.323-9.975C521.17,260.248,521.419,260.234,521.667,260.233Z" transform="translate(-460.858 -258.258)" fill="#d8e1ec" opacity="0.206" style="mix-blend-mode: multiply;isolation: isolate"/>
      <path id="Trazado_503" data-name="Trazado 503" d="M467.714,265.622c-4.553.472-7.393,4.935-6.321,9.986,1,4.766,5.141,8.351,9.438,8.329q.371,0,.743-.04c4.565-.461,7.393-4.935,6.323-9.976-1.006-4.781-5.15-8.361-9.454-8.338Q468.079,265.585,467.714,265.622Zm27.321-2.75c4.3-.023,8.431,3.553,9.436,8.329,1.07,5.04-1.758,9.514-6.323,9.976q-.373.038-.743.04c-4.3.023-8.434-3.563-9.437-8.329-1.071-5.04,1.767-9.514,6.322-9.976C494.539,262.886,494.787,262.873,495.035,262.872Zm26.575-2.721c4.3-.022,8.431,3.554,9.436,8.33,1.07,5.04-1.758,9.514-6.323,9.976-.248.025-.5.039-.746.04-4.3.023-8.431-3.554-9.435-8.33-1.071-5.04,1.768-9.514,6.323-9.976C521.113,260.166,521.362,260.152,521.61,260.151Z" transform="translate(-460.76 -258.234)" fill="#d6dfea" opacity="0.229" style="mix-blend-mode: multiply;isolation: isolate"/>
      <path id="Trazado_504" data-name="Trazado 504" d="M467.656,265.54c-4.553.472-7.394,4.935-6.321,9.986,1,4.766,5.141,8.351,9.437,8.329.248,0,.5-.014.744-.04,4.565-.461,7.394-4.935,6.323-9.975-1.005-4.781-5.15-8.361-9.453-8.338Q468.022,265.5,467.656,265.54Zm27.321-2.75c4.3-.022,8.431,3.554,9.436,8.329,1.071,5.04-1.758,9.514-6.323,9.976-.248.025-.5.039-.743.04-4.3.023-8.434-3.563-9.437-8.329-1.071-5.04,1.768-9.514,6.323-9.976C494.481,262.8,494.73,262.791,494.977,262.79Zm26.575-2.721c4.3-.023,8.431,3.554,9.435,8.329,1.071,5.04-1.758,9.514-6.323,9.976-.248.025-.5.039-.745.04-4.3.022-8.431-3.554-9.436-8.329-1.071-5.04,1.768-9.514,6.323-9.976Q521.179,260.071,521.552,260.069Z" transform="translate(-460.662 -258.21)" fill="#d4dee8" opacity="0.252" style="mix-blend-mode: multiply;isolation: isolate"/>
      <path id="Trazado_505" data-name="Trazado 505" d="M467.6,265.458c-4.553.472-7.393,4.935-6.321,9.986,1,4.766,5.141,8.351,9.438,8.329.248,0,.5-.014.743-.04,4.565-.461,7.394-4.935,6.323-9.975-1.006-4.781-5.15-8.361-9.454-8.339Q467.964,265.421,467.6,265.458Zm27.322-2.75c4.3-.023,8.431,3.554,9.436,8.329,1.07,5.04-1.758,9.514-6.323,9.975-.248.026-.5.039-.743.04-4.3.023-8.435-3.563-9.438-8.329-1.07-5.04,1.768-9.514,6.323-9.976Q494.548,262.71,494.92,262.708Zm26.574-2.721c4.3-.023,8.431,3.554,9.436,8.33,1.07,5.04-1.758,9.514-6.323,9.975a7.327,7.327,0,0,1-.746.04c-4.3.023-8.431-3.553-9.436-8.329-1.07-5.04,1.768-9.514,6.323-9.976Q521.122,259.989,521.495,259.987Z" transform="translate(-460.563 -258.186)" fill="#d2dce7" opacity="0.275" style="mix-blend-mode: multiply;isolation: isolate"/>
      <path id="Trazado_506" data-name="Trazado 506" d="M467.542,265.376c-4.553.472-7.394,4.935-6.321,9.986,1,4.765,5.141,8.351,9.437,8.329.248,0,.5-.014.744-.04,4.565-.461,7.393-4.935,6.323-9.975-1.005-4.781-5.15-8.361-9.453-8.339Q467.906,265.339,467.542,265.376Zm27.321-2.75c4.3-.023,8.431,3.554,9.436,8.329,1.071,5.04-1.758,9.514-6.323,9.975-.248.026-.5.039-.743.04-4.3.023-8.434-3.563-9.437-8.329-1.071-5.041,1.768-9.514,6.323-9.976C494.366,262.64,494.615,262.627,494.862,262.626Zm26.574-2.721c4.3-.023,8.431,3.554,9.436,8.329,1.071,5.04-1.758,9.514-6.323,9.975-.248.026-.5.039-.745.04-4.3.023-8.431-3.554-9.436-8.329-1.071-5.04,1.768-9.514,6.323-9.976C520.94,259.92,521.189,259.906,521.437,259.9Z" transform="translate(-460.465 -258.162)" fill="#d0dae5" opacity="0.298" style="mix-blend-mode: multiply;isolation: isolate"/>
      <path id="Trazado_507" data-name="Trazado 507" d="M467.484,265.294c-4.553.472-7.393,4.935-6.321,9.986,1,4.766,5.141,8.352,9.437,8.329q.372,0,.743-.04c4.565-.461,7.394-4.935,6.323-9.976-1.005-4.781-5.15-8.361-9.453-8.338Q467.849,265.257,467.484,265.294Zm27.322-2.75c4.3-.023,8.431,3.554,9.436,8.329,1.07,5.04-1.759,9.514-6.323,9.975-.248.025-.5.039-.743.04-4.3.023-8.435-3.563-9.438-8.329-1.07-5.041,1.768-9.514,6.323-9.976C494.308,262.558,494.557,262.545,494.805,262.544Zm26.574-2.721c4.3-.023,8.431,3.554,9.436,8.329,1.07,5.041-1.759,9.514-6.323,9.976-.249.026-.5.039-.746.04-4.3.023-8.431-3.554-9.436-8.329-1.07-5.041,1.768-9.514,6.323-9.976C520.883,259.837,521.131,259.824,521.38,259.823Z" transform="translate(-460.367 -258.138)" fill="#ced8e3" opacity="0.321" style="mix-blend-mode: multiply;isolation: isolate"/>
      <path id="Trazado_508" data-name="Trazado 508" d="M467.427,265.212c-4.554.472-7.394,4.935-6.321,9.986,1,4.766,5.141,8.351,9.437,8.329q.371,0,.743-.04c4.565-.461,7.393-4.935,6.323-9.976-1.006-4.781-5.15-8.361-9.453-8.338Q467.791,265.175,467.427,265.212Zm27.321-2.75c4.3-.023,8.431,3.554,9.436,8.329,1.07,5.04-1.758,9.514-6.323,9.976q-.372.038-.743.04c-4.3.023-8.434-3.563-9.437-8.33-1.071-5.04,1.768-9.514,6.323-9.975C494.251,262.476,494.5,262.463,494.747,262.462Zm26.574-2.721c4.3-.023,8.431,3.554,9.436,8.329,1.071,5.04-1.758,9.514-6.323,9.976-.248.025-.5.039-.746.04-4.3.023-8.431-3.554-9.435-8.33-1.071-5.04,1.768-9.514,6.323-9.975A7.3,7.3,0,0,1,521.322,259.741Z" transform="translate(-460.269 -258.114)" fill="#ccd6e2" opacity="0.344" style="mix-blend-mode: multiply;isolation: isolate"/>
      <path id="Trazado_509" data-name="Trazado 509" d="M467.369,265.129c-4.553.472-7.394,4.935-6.321,9.986,1,4.766,5.141,8.351,9.437,8.329q.371,0,.743-.04c4.565-.461,7.394-4.935,6.323-9.976-1.005-4.781-5.15-8.361-9.453-8.338Q467.734,265.093,467.369,265.129Zm27.322-2.75c4.3-.023,8.431,3.553,9.435,8.329,1.071,5.04-1.758,9.514-6.323,9.976-.248.025-.5.039-.743.04-4.3.022-8.434-3.563-9.437-8.329-1.07-5.04,1.768-9.514,6.323-9.975C494.193,262.393,494.442,262.381,494.69,262.379Zm26.574-2.721c4.3-.022,8.431,3.555,9.436,8.33,1.07,5.04-1.759,9.514-6.323,9.976q-.372.038-.745.04c-4.3.023-8.431-3.554-9.436-8.33-1.07-5.04,1.768-9.514,6.323-9.975C520.767,259.673,521.016,259.659,521.265,259.658Z" transform="translate(-460.171 -258.09)" fill="#cad4e0" opacity="0.367" style="mix-blend-mode: multiply;isolation: isolate"/>
      <path id="Trazado_510" data-name="Trazado 510" d="M467.312,265.047c-4.554.472-7.393,4.935-6.321,9.986,1,4.766,5.141,8.351,9.438,8.329q.371,0,.743-.04c4.565-.461,7.393-4.935,6.323-9.976-1.006-4.781-5.15-8.361-9.453-8.338Q467.677,265.01,467.312,265.047Zm27.321-2.75c4.3-.023,8.431,3.553,9.436,8.329,1.07,5.04-1.758,9.514-6.323,9.976q-.372.038-.743.04c-4.3.023-8.434-3.563-9.437-8.329-1.071-5.04,1.767-9.514,6.322-9.976C494.136,262.311,494.385,262.3,494.633,262.3Zm26.574-2.721c4.3-.022,8.431,3.554,9.436,8.33,1.07,5.04-1.758,9.514-6.323,9.976-.248.026-.5.039-.746.04-4.3.023-8.431-3.554-9.435-8.33-1.071-5.04,1.768-9.514,6.323-9.976C520.711,259.591,520.96,259.577,521.208,259.576Z" transform="translate(-460.073 -258.066)" fill="#c8d2de" opacity="0.39" style="mix-blend-mode: multiply;isolation: isolate"/>
      <path id="Trazado_511" data-name="Trazado 511" d="M467.255,264.965c-4.554.472-7.394,4.935-6.321,9.986,1,4.766,5.141,8.351,9.437,8.329.248,0,.5-.014.743-.04,4.565-.461,7.394-4.935,6.323-9.975-1.005-4.781-5.15-8.361-9.453-8.338Q467.62,264.928,467.255,264.965Zm27.321-2.75c4.3-.022,8.431,3.554,9.435,8.329,1.071,5.04-1.758,9.514-6.323,9.976-.248.025-.5.039-.743.04-4.3.023-8.434-3.563-9.437-8.329-1.071-5.04,1.768-9.514,6.323-9.976C494.079,262.229,494.328,262.216,494.576,262.215Zm26.574-2.721c4.3-.023,8.431,3.554,9.435,8.33,1.071,5.04-1.758,9.514-6.323,9.976-.248.025-.5.039-.745.04-4.3.022-8.431-3.554-9.436-8.329-1.07-5.04,1.768-9.514,6.323-9.976C520.653,259.509,520.9,259.5,521.15,259.494Z" transform="translate(-459.975 -258.042)" fill="#c6d1dc" opacity="0.413" style="mix-blend-mode: multiply;isolation: isolate"/>
      <path id="Trazado_512" data-name="Trazado 512" d="M467.2,264.883c-4.553.472-7.393,4.935-6.321,9.986,1,4.766,5.141,8.351,9.438,8.329.248,0,.5-.014.743-.04,4.564-.461,7.393-4.935,6.323-9.975-1.006-4.781-5.15-8.361-9.453-8.339Q467.562,264.846,467.2,264.883Zm27.321-2.75c4.3-.023,8.431,3.554,9.436,8.329,1.07,5.04-1.758,9.514-6.323,9.975-.248.026-.5.039-.743.04-4.3.023-8.435-3.563-9.438-8.329-1.07-5.04,1.768-9.514,6.323-9.976Q494.146,262.135,494.518,262.133Zm26.574-2.721c4.3-.023,8.431,3.554,9.436,8.33,1.07,5.04-1.758,9.514-6.323,9.975a7.3,7.3,0,0,1-.746.04c-4.3.023-8.431-3.553-9.436-8.329-1.07-5.04,1.768-9.514,6.323-9.976Q520.72,259.414,521.093,259.412Z" transform="translate(-459.877 -258.018)" fill="#c4cfdb" opacity="0.436" style="mix-blend-mode: multiply;isolation: isolate"/>
      <path id="Trazado_513" data-name="Trazado 513" d="M467.14,264.8c-4.553.472-7.394,4.935-6.321,9.986,1,4.765,5.141,8.351,9.437,8.329.248,0,.5-.014.743-.04,4.565-.461,7.394-4.935,6.323-9.976-1.005-4.781-5.15-8.361-9.453-8.338Q467.5,264.764,467.14,264.8Zm27.321-2.75c4.3-.023,8.431,3.554,9.436,8.329,1.071,5.04-1.758,9.514-6.323,9.975-.248.026-.5.039-.743.04-4.3.023-8.434-3.563-9.437-8.329-1.071-5.041,1.768-9.514,6.323-9.976C493.964,262.065,494.213,262.052,494.46,262.051Zm26.574-2.721c4.3-.023,8.431,3.554,9.436,8.33,1.071,5.04-1.758,9.514-6.323,9.975-.248.026-.5.039-.745.04-4.3.023-8.431-3.554-9.436-8.329-1.071-5.041,1.768-9.514,6.323-9.976C520.538,259.345,520.787,259.331,521.035,259.33Z" transform="translate(-459.779 -257.994)" fill="#c2cdd9" opacity="0.459" style="mix-blend-mode: multiply;isolation: isolate"/>
      <path id="Trazado_514" data-name="Trazado 514" d="M467.082,264.719c-4.554.472-7.393,4.935-6.321,9.986,1,4.766,5.141,8.352,9.437,8.329q.372,0,.743-.04c4.565-.461,7.394-4.935,6.323-9.976-1.005-4.781-5.15-8.361-9.453-8.338Q467.447,264.682,467.082,264.719Zm27.321-2.75c4.3-.023,8.431,3.554,9.436,8.329,1.07,5.041-1.759,9.514-6.323,9.976-.248.026-.5.039-.743.04-4.3.023-8.435-3.563-9.438-8.329-1.07-5.041,1.768-9.514,6.323-9.976C493.906,261.983,494.155,261.97,494.4,261.969Zm26.574-2.721c4.3-.023,8.431,3.554,9.436,8.329,1.07,5.041-1.759,9.514-6.323,9.976-.249.026-.5.039-.746.04-4.3.023-8.431-3.554-9.436-8.329-1.07-5.041,1.768-9.514,6.323-9.976C520.481,259.262,520.729,259.249,520.978,259.248Z" transform="translate(-459.681 -257.97)" fill="#c0cbd7" opacity="0.481" style="mix-blend-mode: multiply;isolation: isolate"/>
      <path id="Trazado_515" data-name="Trazado 515" d="M467.024,264.637c-4.553.472-7.394,4.935-6.321,9.986,1,4.766,5.141,8.351,9.437,8.329q.371,0,.743-.04c4.565-.461,7.393-4.935,6.323-9.976-1.006-4.781-5.15-8.361-9.453-8.338Q467.389,264.6,467.024,264.637Zm27.321-2.75c4.3-.023,8.431,3.554,9.436,8.329,1.071,5.04-1.758,9.514-6.323,9.976-.248.025-.5.039-.743.04-4.3.023-8.434-3.563-9.437-8.329-1.071-5.04,1.768-9.514,6.323-9.975C493.849,261.9,494.1,261.888,494.345,261.887Zm26.574-2.721c4.3-.023,8.431,3.554,9.436,8.329,1.071,5.04-1.758,9.514-6.323,9.976-.248.025-.5.039-.745.04-4.3.023-8.431-3.554-9.436-8.329-1.071-5.04,1.768-9.514,6.323-9.975A7.315,7.315,0,0,1,520.92,259.166Z" transform="translate(-459.583 -257.946)" fill="#bfc9d6" opacity="0.504" style="mix-blend-mode: multiply;isolation: isolate"/>
      <path id="Trazado_516" data-name="Trazado 516" d="M466.967,264.554c-4.553.472-7.394,4.935-6.321,9.986,1,4.766,5.141,8.351,9.437,8.329q.371,0,.743-.04c4.565-.461,7.394-4.935,6.323-9.976-1.005-4.781-5.15-8.361-9.453-8.338Q467.332,264.518,466.967,264.554Zm27.321-2.75c4.3-.023,8.431,3.553,9.435,8.329,1.071,5.04-1.758,9.514-6.323,9.976-.248.025-.5.039-.743.04-4.3.022-8.434-3.563-9.437-8.329-1.07-5.04,1.768-9.514,6.323-9.976C493.791,261.818,494.04,261.8,494.288,261.8Zm26.575-2.721c4.3-.022,8.431,3.555,9.436,8.329,1.07,5.04-1.759,9.514-6.323,9.976q-.374.038-.746.04c-4.3.023-8.431-3.554-9.436-8.329-1.07-5.04,1.768-9.514,6.323-9.975C520.365,259.1,520.615,259.084,520.863,259.083Z" transform="translate(-459.485 -257.921)" fill="#bdc7d4" opacity="0.527" style="mix-blend-mode: multiply;isolation: isolate"/>
      <path id="Trazado_517" data-name="Trazado 517" d="M466.909,264.472c-4.553.472-7.393,4.935-6.32,9.986,1,4.766,5.141,8.351,9.437,8.329.248,0,.5-.014.743-.04,4.565-.462,7.393-4.935,6.323-9.976-1.006-4.781-5.15-8.361-9.454-8.338Q467.274,264.435,466.909,264.472Zm27.321-2.75c4.3-.023,8.431,3.553,9.436,8.329,1.07,5.04-1.758,9.514-6.323,9.976q-.372.038-.743.04c-4.3.023-8.434-3.563-9.437-8.329-1.071-5.04,1.768-9.514,6.323-9.976C493.734,261.736,493.983,261.723,494.231,261.722ZM520.805,259c4.3-.022,8.431,3.554,9.436,8.329,1.07,5.04-1.758,9.514-6.323,9.976-.248.025-.5.039-.746.04-4.3.022-8.431-3.554-9.435-8.329-1.071-5.04,1.768-9.514,6.323-9.976C520.308,259.016,520.557,259,520.805,259Z" transform="translate(-459.387 -257.897)" fill="#bbc5d2" opacity="0.55" style="mix-blend-mode: multiply;isolation: isolate"/>
      <path id="Trazado_518" data-name="Trazado 518" d="M466.852,264.39c-4.553.472-7.394,4.935-6.321,9.986,1,4.766,5.141,8.351,9.437,8.329.248,0,.5-.014.743-.04,4.565-.461,7.394-4.935,6.323-9.975-1.005-4.781-5.15-8.361-9.453-8.338Q467.218,264.353,466.852,264.39Zm27.322-2.75c4.3-.022,8.431,3.554,9.435,8.329,1.071,5.04-1.758,9.514-6.323,9.975-.248.026-.5.039-.743.04-4.3.023-8.434-3.563-9.437-8.329-1.071-5.04,1.768-9.514,6.323-9.976Q493.8,261.642,494.174,261.64Zm26.574-2.721c4.3-.023,8.431,3.554,9.435,8.329,1.071,5.04-1.758,9.514-6.323,9.976-.248.025-.5.039-.745.04-4.3.022-8.431-3.554-9.436-8.329-1.07-5.04,1.768-9.514,6.323-9.976C520.251,258.934,520.5,258.92,520.748,258.919Z" transform="translate(-459.289 -257.873)" fill="#b9c3d1" opacity="0.573" style="mix-blend-mode: multiply;isolation: isolate"/>
      <path id="Trazado_519" data-name="Trazado 519" d="M466.795,264.308c-4.553.472-7.393,4.935-6.321,9.986,1,4.766,5.141,8.351,9.438,8.329.248,0,.5-.014.743-.04,4.564-.461,7.393-4.935,6.323-9.975-1.006-4.781-5.15-8.361-9.454-8.339Q467.16,264.271,466.795,264.308Zm27.322-2.75c4.3-.023,8.431,3.554,9.436,8.329,1.07,5.04-1.758,9.514-6.323,9.975-.248.026-.5.039-.743.04-4.3.023-8.435-3.563-9.437-8.329-1.071-5.04,1.767-9.514,6.322-9.976Q493.744,261.56,494.116,261.558Zm26.574-2.721c4.3-.023,8.431,3.554,9.436,8.329,1.07,5.04-1.758,9.514-6.323,9.975a7.309,7.309,0,0,1-.746.04c-4.3.023-8.431-3.554-9.435-8.329-1.071-5.04,1.768-9.514,6.323-9.976Q520.318,258.839,520.691,258.837Z" transform="translate(-459.191 -257.849)" fill="#b7c2cf" opacity="0.596" style="mix-blend-mode: multiply;isolation: isolate"/>
      <path id="Trazado_520" data-name="Trazado 520" d="M466.737,264.226c-4.553.472-7.394,4.935-6.321,9.986,1,4.765,5.141,8.351,9.437,8.329.248,0,.5-.014.744-.04,4.565-.461,7.394-4.935,6.323-9.976-1.005-4.781-5.15-8.361-9.453-8.338Q467.1,264.189,466.737,264.226Zm27.321-2.75c4.3-.023,8.431,3.554,9.436,8.329,1.071,5.04-1.758,9.514-6.323,9.975-.248.026-.5.039-.743.04-4.3.023-8.434-3.563-9.437-8.329-1.071-5.041,1.768-9.514,6.323-9.976C493.562,261.49,493.811,261.477,494.058,261.476Zm26.575-2.721c4.3-.023,8.431,3.554,9.435,8.329,1.071,5.04-1.758,9.514-6.323,9.975-.248.026-.5.039-.745.04-4.3.023-8.431-3.554-9.436-8.329-1.071-5.041,1.768-9.514,6.323-9.976C520.136,258.77,520.385,258.756,520.633,258.755Z" transform="translate(-459.092 -257.825)" fill="#b5c0cd" opacity="0.619" style="mix-blend-mode: multiply;isolation: isolate"/>
      <path id="Trazado_521" data-name="Trazado 521" d="M466.68,264.144c-4.553.472-7.393,4.935-6.321,9.986,1,4.766,5.141,8.352,9.437,8.329q.372,0,.743-.04c4.565-.461,7.394-4.935,6.323-9.976-1.005-4.781-5.15-8.361-9.453-8.338Q467.045,264.107,466.68,264.144ZM494,261.394c4.3-.023,8.431,3.554,9.436,8.329,1.07,5.041-1.759,9.514-6.323,9.976-.248.025-.5.039-.743.04-4.3.023-8.435-3.563-9.438-8.329-1.07-5.041,1.768-9.514,6.323-9.976C493.5,261.408,493.753,261.395,494,261.394Zm26.575-2.721c4.3-.023,8.431,3.554,9.436,8.329,1.07,5.041-1.758,9.514-6.323,9.976-.249.026-.5.039-.746.04-4.3.023-8.431-3.554-9.436-8.329-1.07-5.041,1.768-9.514,6.323-9.976C520.079,258.687,520.327,258.674,520.576,258.673Z" transform="translate(-458.994 -257.801)" fill="#b3becb" opacity="0.642" style="mix-blend-mode: multiply;isolation: isolate"/>
      <path id="Trazado_522" data-name="Trazado 522" d="M466.622,264.062c-4.554.472-7.394,4.935-6.321,9.986,1,4.766,5.141,8.351,9.437,8.329q.371,0,.743-.04c4.565-.461,7.393-4.935,6.323-9.976-1.006-4.781-5.15-8.361-9.453-8.338Q466.987,264.025,466.622,264.062Zm27.321-2.75c4.3-.023,8.431,3.554,9.436,8.329,1.071,5.04-1.758,9.514-6.323,9.976-.248.025-.5.039-.743.04-4.3.023-8.434-3.563-9.437-8.33-1.071-5.04,1.768-9.514,6.323-9.975C493.447,261.326,493.7,261.313,493.943,261.312Zm26.574-2.721c4.3-.023,8.431,3.554,9.436,8.329,1.071,5.04-1.758,9.514-6.323,9.976-.248.025-.5.039-.745.04-4.3.023-8.431-3.554-9.436-8.329-1.071-5.04,1.768-9.514,6.323-9.975A7.3,7.3,0,0,1,520.518,258.591Z" transform="translate(-458.896 -257.777)" fill="#b1bcca" opacity="0.665" style="mix-blend-mode: multiply;isolation: isolate"/>
      <path id="Trazado_523" data-name="Trazado 523" d="M466.565,263.979c-4.553.472-7.393,4.935-6.321,9.986,1,4.766,5.141,8.351,9.437,8.329.248,0,.5-.014.744-.04,4.565-.461,7.394-4.935,6.323-9.976-1.005-4.781-5.15-8.361-9.453-8.338Q466.93,263.943,466.565,263.979Zm27.322-2.75c4.3-.023,8.431,3.553,9.435,8.329,1.071,5.04-1.758,9.514-6.323,9.976-.248.025-.5.039-.743.04-4.3.022-8.434-3.564-9.437-8.329-1.07-5.04,1.768-9.514,6.323-9.976C493.389,261.243,493.638,261.23,493.886,261.229Zm26.574-2.721c4.3-.022,8.431,3.554,9.436,8.33,1.07,5.04-1.759,9.514-6.323,9.976q-.374.038-.746.04c-4.3.023-8.431-3.554-9.436-8.329-1.07-5.04,1.768-9.514,6.323-9.976Q520.089,258.51,520.461,258.508Z" transform="translate(-458.798 -257.753)" fill="#afbac8" opacity="0.688" style="mix-blend-mode: multiply;isolation: isolate"/>
      <path id="Trazado_524" data-name="Trazado 524" d="M466.507,263.9c-4.553.472-7.393,4.935-6.32,9.986,1,4.766,5.141,8.351,9.437,8.329.248,0,.5-.014.743-.04,4.565-.461,7.393-4.935,6.323-9.975-1.006-4.781-5.15-8.361-9.453-8.338Q466.872,263.86,466.507,263.9Zm27.322-2.75c4.3-.022,8.431,3.554,9.436,8.329,1.07,5.04-1.758,9.514-6.323,9.976q-.372.038-.743.04c-4.3.023-8.434-3.563-9.437-8.329-1.071-5.04,1.768-9.514,6.323-9.976C493.332,261.161,493.581,261.148,493.828,261.147Zm26.575-2.721c4.3-.022,8.431,3.554,9.436,8.329,1.071,5.04-1.758,9.514-6.323,9.976-.248.025-.5.039-.746.04-4.3.022-8.431-3.554-9.435-8.329-1.071-5.04,1.768-9.514,6.323-9.976C519.906,258.441,520.155,258.427,520.4,258.426Z" transform="translate(-458.7 -257.729)" fill="#adb8c6" opacity="0.711" style="mix-blend-mode: multiply;isolation: isolate"/>
      <path id="Trazado_525" data-name="Trazado 525" d="M466.451,263.815c-4.554.472-7.394,4.935-6.321,9.986,1,4.766,5.141,8.351,9.437,8.329.248,0,.5-.014.743-.04,4.565-.461,7.394-4.935,6.323-9.975-1.005-4.781-5.15-8.361-9.453-8.339Q466.816,263.778,466.451,263.815Zm27.321-2.75c4.3-.022,8.431,3.554,9.435,8.329,1.071,5.04-1.758,9.514-6.323,9.975-.248.026-.5.039-.743.04-4.3.023-8.434-3.563-9.437-8.329-1.071-5.04,1.768-9.514,6.323-9.976C493.275,261.079,493.524,261.066,493.772,261.065Zm26.574-2.721c4.3-.023,8.431,3.554,9.435,8.33,1.071,5.04-1.758,9.514-6.323,9.976-.248.025-.5.039-.745.04-4.3.022-8.431-3.554-9.436-8.33-1.07-5.04,1.768-9.514,6.323-9.976C519.849,258.359,520.1,258.345,520.346,258.344Z" transform="translate(-458.603 -257.705)" fill="#abb6c5" opacity="0.734" style="mix-blend-mode: multiply;isolation: isolate"/>
      <path id="Trazado_526" data-name="Trazado 526" d="M466.393,263.733c-4.553.472-7.393,4.935-6.321,9.986,1,4.766,5.141,8.351,9.438,8.329.248,0,.5-.014.743-.04,4.565-.461,7.393-4.935,6.323-9.975-1.006-4.781-5.15-8.361-9.454-8.339Q466.758,263.7,466.393,263.733Zm27.321-2.75c4.3-.023,8.431,3.554,9.436,8.329,1.07,5.04-1.758,9.514-6.323,9.975-.248.026-.5.039-.743.04-4.3.023-8.434-3.563-9.437-8.329-1.071-5.04,1.767-9.514,6.322-9.976Q493.342,260.985,493.714,260.983Zm26.574-2.721c4.3-.023,8.431,3.554,9.436,8.329,1.07,5.04-1.758,9.514-6.323,9.975a7.317,7.317,0,0,1-.746.04c-4.3.023-8.431-3.554-9.435-8.329-1.071-5.04,1.768-9.514,6.323-9.976C519.792,258.277,520.041,258.263,520.289,258.262Z" transform="translate(-458.504 -257.681)" fill="#a9b5c3" opacity="0.757" style="mix-blend-mode: multiply;isolation: isolate"/>
      <path id="Trazado_527" data-name="Trazado 527" d="M466.335,263.651c-4.553.472-7.394,4.935-6.321,9.986,1,4.765,5.141,8.351,9.437,8.329.248,0,.5-.014.743-.04,4.565-.461,7.394-4.935,6.323-9.976-1.005-4.781-5.15-8.361-9.453-8.338Q466.7,263.614,466.335,263.651Zm27.321-2.75c4.3-.023,8.431,3.554,9.436,8.33,1.071,5.04-1.758,9.514-6.323,9.975-.248.026-.5.039-.743.04-4.3.023-8.434-3.563-9.437-8.329-1.071-5.041,1.768-9.514,6.323-9.976C493.16,260.915,493.409,260.9,493.656,260.9Zm26.575-2.721c4.3-.023,8.431,3.554,9.435,8.33,1.071,5.04-1.758,9.514-6.323,9.975-.248.026-.5.039-.745.04-4.3.023-8.431-3.554-9.436-8.329-1.071-5.041,1.768-9.514,6.323-9.976C519.734,258.195,519.983,258.181,520.231,258.18Z" transform="translate(-458.406 -257.657)" fill="#a7b3c1" opacity="0.78" style="mix-blend-mode: multiply;isolation: isolate"/>
      <path id="Trazado_528" data-name="Trazado 528" d="M466.278,263.569c-4.553.472-7.393,4.935-6.321,9.986,1,4.766,5.141,8.351,9.437,8.329q.373,0,.744-.04c4.565-.461,7.394-4.935,6.323-9.976-1.006-4.781-5.15-8.361-9.454-8.338Q466.643,263.532,466.278,263.569Zm27.321-2.75c4.3-.023,8.431,3.554,9.436,8.329,1.07,5.04-1.758,9.514-6.323,9.976-.248.025-.5.039-.743.04-4.3.023-8.435-3.563-9.438-8.329-1.07-5.041,1.768-9.514,6.323-9.976C493.1,260.833,493.351,260.82,493.6,260.819Zm26.574-2.721c4.3-.023,8.431,3.554,9.436,8.329,1.07,5.041-1.758,9.514-6.323,9.976-.249.026-.5.039-.746.04-4.3.023-8.431-3.554-9.436-8.329-1.07-5.041,1.768-9.514,6.323-9.976C519.677,258.112,519.925,258.1,520.174,258.1Z" transform="translate(-458.308 -257.633)" fill="#a5b1c0" opacity="0.802" style="mix-blend-mode: multiply;isolation: isolate"/>
      <path id="Trazado_529" data-name="Trazado 529" d="M466.22,263.487c-4.553.472-7.394,4.935-6.321,9.986,1,4.766,5.141,8.351,9.437,8.329q.371,0,.744-.04c4.565-.461,7.393-4.935,6.323-9.976-1.006-4.781-5.15-8.361-9.453-8.338C466.706,263.449,466.464,263.462,466.22,263.487Zm27.321-2.75c4.3-.023,8.431,3.553,9.436,8.329,1.071,5.04-1.758,9.514-6.323,9.976-.248.025-.5.039-.743.04-4.3.022-8.434-3.563-9.437-8.33-1.071-5.04,1.768-9.514,6.323-9.975C493.045,260.751,493.294,260.738,493.541,260.737Zm26.575-2.721c4.3-.023,8.431,3.554,9.436,8.329,1.071,5.04-1.758,9.514-6.323,9.976-.248.025-.5.039-.745.04-4.3.023-8.431-3.554-9.436-8.329-1.071-5.04,1.768-9.514,6.323-9.975A7.316,7.316,0,0,1,520.116,258.016Z" transform="translate(-458.21 -257.609)" fill="#a3afbe" opacity="0.825" style="mix-blend-mode: multiply;isolation: isolate"/>
      <path id="Trazado_530" data-name="Trazado 530" d="M466.163,263.4c-4.553.472-7.393,4.935-6.321,9.986,1,4.766,5.141,8.351,9.437,8.329q.372,0,.743-.04c4.565-.461,7.394-4.935,6.323-9.976-1.005-4.781-5.15-8.361-9.453-8.338C466.649,263.367,466.406,263.379,466.163,263.4Zm27.321-2.75c4.3-.023,8.431,3.553,9.436,8.329,1.07,5.04-1.759,9.514-6.323,9.976-.248.025-.5.039-.743.04-4.3.022-8.434-3.564-9.437-8.33-1.07-5.04,1.768-9.514,6.323-9.976C492.987,260.668,493.236,260.655,493.484,260.654Zm26.575-2.721c4.3-.022,8.431,3.554,9.436,8.33,1.07,5.04-1.759,9.514-6.323,9.976q-.374.038-.746.04c-4.3.023-8.431-3.554-9.436-8.329-1.07-5.04,1.768-9.514,6.323-9.976Q519.686,257.935,520.059,257.933Z" transform="translate(-458.112 -257.585)" fill="#a1adbc" opacity="0.848" style="mix-blend-mode: multiply;isolation: isolate"/>
      <path id="Trazado_531" data-name="Trazado 531" d="M466.106,263.322c-4.554.472-7.394,4.935-6.321,9.986,1,4.766,5.141,8.351,9.437,8.329.248,0,.5-.014.743-.04,4.565-.461,7.393-4.935,6.323-9.975-1.006-4.781-5.15-8.361-9.453-8.338Q466.47,263.285,466.106,263.322Zm27.321-2.75c4.3-.022,8.431,3.554,9.436,8.329,1.07,5.04-1.758,9.514-6.323,9.976q-.373.038-.743.04c-4.3.023-8.434-3.563-9.437-8.329-1.071-5.04,1.768-9.514,6.323-9.976C492.93,260.586,493.179,260.573,493.426,260.572ZM520,257.851c4.3-.022,8.431,3.554,9.436,8.33,1.071,5.04-1.758,9.514-6.323,9.976-.248.025-.5.039-.746.04-4.3.022-8.431-3.554-9.435-8.33-1.071-5.04,1.768-9.514,6.323-9.976C519.5,257.866,519.753,257.852,520,257.851Z" transform="translate(-458.014 -257.561)" fill="#9fabba" opacity="0.871" style="mix-blend-mode: multiply;isolation: isolate"/>
      <path id="Trazado_532" data-name="Trazado 532" d="M466.048,263.24c-4.553.472-7.394,4.935-6.321,9.986,1,4.766,5.141,8.351,9.437,8.329.248,0,.5-.014.743-.04,4.565-.461,7.394-4.935,6.323-9.975-1.005-4.781-5.15-8.361-9.453-8.339Q466.414,263.2,466.048,263.24Zm27.322-2.75c4.3-.022,8.431,3.554,9.435,8.33,1.071,5.04-1.758,9.514-6.323,9.975-.248.026-.5.039-.743.04-4.3.023-8.434-3.563-9.437-8.329-1.07-5.04,1.768-9.514,6.323-9.976C492.873,260.5,493.122,260.491,493.37,260.49Zm26.574-2.721c4.3-.023,8.431,3.554,9.435,8.33,1.071,5.04-1.758,9.514-6.323,9.975q-.372.039-.745.041c-4.3.022-8.431-3.554-9.436-8.329-1.07-5.04,1.768-9.514,6.323-9.976Q519.571,257.771,519.944,257.769Z" transform="translate(-457.916 -257.537)" fill="#9da9b9" opacity="0.894" style="mix-blend-mode: multiply;isolation: isolate"/>
      <path id="Trazado_533" data-name="Trazado 533" d="M465.991,263.158c-4.553.472-7.393,4.935-6.321,9.986,1,4.766,5.141,8.351,9.438,8.329.248,0,.5-.014.743-.04,4.565-.461,7.393-4.935,6.323-9.975-1.006-4.781-5.15-8.361-9.454-8.339Q466.356,263.121,465.991,263.158Zm27.321-2.75c4.3-.023,8.431,3.554,9.436,8.33,1.07,5.04-1.758,9.514-6.323,9.975-.248.026-.5.039-.743.04-4.3.023-8.434-3.563-9.437-8.329-1.071-5.04,1.767-9.514,6.322-9.976C492.815,260.422,493.064,260.409,493.312,260.408Zm26.575-2.721c4.3-.023,8.431,3.554,9.436,8.33,1.07,5.04-1.758,9.514-6.323,9.975a7.316,7.316,0,0,1-.746.04c-4.3.023-8.431-3.554-9.435-8.329-1.071-5.04,1.768-9.514,6.323-9.976C519.39,257.7,519.639,257.688,519.887,257.687Z" transform="translate(-457.818 -257.513)" fill="#9ba8b7" opacity="0.917" style="mix-blend-mode: multiply;isolation: isolate"/>
      <path id="Trazado_534" data-name="Trazado 534" d="M465.933,263.076c-4.553.472-7.394,4.935-6.321,9.986,1,4.765,5.141,8.351,9.437,8.329q.371,0,.743-.04c4.565-.461,7.394-4.935,6.323-9.976-1.005-4.781-5.15-8.361-9.453-8.338Q466.3,263.039,465.933,263.076Zm27.321-2.75c4.3-.023,8.431,3.554,9.436,8.33,1.071,5.04-1.758,9.514-6.323,9.975-.248.026-.5.039-.743.04-4.3.023-8.434-3.563-9.437-8.329-1.071-5.041,1.768-9.514,6.323-9.976C492.758,260.34,493.007,260.327,493.254,260.326Zm26.575-2.721c4.3-.023,8.431,3.554,9.435,8.33,1.071,5.04-1.758,9.514-6.323,9.975-.248.026-.5.039-.745.04-4.3.023-8.431-3.554-9.436-8.329-1.071-5.041,1.768-9.514,6.323-9.976C519.332,257.62,519.581,257.606,519.829,257.6Z" transform="translate(-457.72 -257.489)" fill="#99a6b5" opacity="0.94" style="mix-blend-mode: multiply;isolation: isolate"/>
      <path id="Trazado_535" data-name="Trazado 535" d="M465.876,262.994c-4.553.472-7.393,4.935-6.321,9.986,1,4.766,5.141,8.351,9.438,8.33q.371,0,.743-.04c4.564-.461,7.393-4.935,6.323-9.976-1.006-4.781-5.15-8.361-9.454-8.338Q466.241,262.957,465.876,262.994Zm27.321-2.75c4.3-.023,8.431,3.554,9.436,8.329,1.07,5.04-1.758,9.514-6.323,9.976-.248.025-.5.039-.743.04-4.3.023-8.435-3.563-9.438-8.329-1.07-5.041,1.768-9.514,6.323-9.976C492.7,260.258,492.949,260.245,493.2,260.244Zm26.575-2.721c4.3-.023,8.431,3.554,9.436,8.329,1.07,5.041-1.758,9.514-6.323,9.976-.248.026-.5.039-.746.04-4.3.023-8.431-3.554-9.436-8.329-1.07-5.041,1.768-9.514,6.323-9.976C519.275,257.537,519.523,257.524,519.772,257.523Z" transform="translate(-457.622 -257.465)" fill="#97a4b4" opacity="0.963" style="mix-blend-mode: multiply;isolation: isolate"/>
      <path id="Trazado_536" data-name="Trazado 536" d="M465.818,262.912c-4.553.471-7.394,4.935-6.321,9.986,1,4.766,5.141,8.351,9.437,8.33q.371,0,.743-.04c4.565-.461,7.393-4.935,6.323-9.976-1.005-4.781-5.15-8.361-9.453-8.338C466.3,262.874,466.062,262.887,465.818,262.912Zm27.321-2.75c4.3-.023,8.431,3.553,9.436,8.329,1.071,5.04-1.758,9.514-6.323,9.976-.248.025-.5.039-.743.04-4.3.022-8.434-3.563-9.437-8.329-1.071-5.04,1.768-9.514,6.323-9.975C492.643,260.176,492.892,260.163,493.139,260.162Zm26.574-2.721c4.3-.023,8.431,3.554,9.436,8.329,1.071,5.04-1.758,9.514-6.323,9.976-.248.025-.5.039-.745.04-4.3.023-8.431-3.554-9.436-8.329-1.071-5.04,1.768-9.514,6.323-9.975A7.315,7.315,0,0,1,519.714,257.441Z" transform="translate(-457.523 -257.441)" fill="#95a2b2" opacity="0.986" style="mix-blend-mode: multiply;isolation: isolate"/>
    </g>
    <path id="Trazado_537" data-name="Trazado 537" d="M395.362,254.487c-7.582-37.246,20.806-66.3,62.42-69.8q4.666-.393,9.273-.34c37.995.416,71.978,23.016,79,57.477,2.58,12.65.991,24.36-3.838,34.438l12.057,20.87c1.66,2.88.02,6.014-2.732,5.984a3.992,3.992,0,0,1-1.005-.146l-24.663-6.8c-10.97,8.519-25.533,14.049-42.23,15.454q-4.667.392-9.275.339C436.371,311.552,402.386,288.949,395.362,254.487ZM474.377,311.6c3.057.035,6.166-.079,9.238-.337a84.812,84.812,0,0,0,29.855-7.875,68.125,68.125,0,0,0,12.173-7.5l.151-.118,24.849,6.849a3.539,3.539,0,0,0,.906.132,2.889,2.889,0,0,0,1.3-.283,3.017,3.017,0,0,0,1.55-1.848,4.107,4.107,0,0,0-.451-3.3L541.8,276.276l.082-.172a53.7,53.7,0,0,0,3.81-34.21c-6.774-33.235-39.111-56.748-78.637-57.181-3.061-.033-6.169.08-9.236.338a84.859,84.859,0,0,0-29.895,7.882c-25.109,12.111-37.442,35.67-32.188,61.483C402.507,287.652,434.847,311.166,474.377,311.6Z" transform="translate(5.192)" opacity="0.7" fill="url(#linear-gradient-4)" style="mix-blend-mode: overlay;isolation: isolate"/>
    <path id="Trazado_538" data-name="Trazado 538" d="M538.216,277.936c-.04-.074-.074-.151-.112-.226-.055-.105-.108-.211-.158-.318-.028-.057-.058-.112-.084-.17s-.052-.139-.081-.206c-.081-.188-.156-.378-.226-.572-.024-.066-.055-.13-.078-.2-.015-.044-.023-.091-.037-.135a10.913,10.913,0,0,1-.307-1.119,10.433,10.433,0,0,1-.194-1.378c-.011-.151,0-.3-.008-.444-.008-.25-.025-.5-.014-.745,0-.054.013-.105.016-.159.007-.112.023-.221.034-.332.017-.17.025-.344.052-.511s.063-.326.1-.487c.011-.049.018-.1.03-.148.008-.031.011-.064.019-.1q.077-.308.173-.6c.051-.155.108-.307.166-.458.006-.013.01-.028.016-.042l.011-.031q.1-.245.212-.482c.073-.151.151-.3.232-.445.023-.041.049-.081.074-.121s.03-.051.046-.076c.043-.072.085-.146.131-.217q.129-.2.27-.388c.09-.121.183-.238.28-.354l.006-.007.006-.007q.152-.18.316-.35t.344-.332c.051-.046.1-.088.156-.132l.077-.064c.049-.041.1-.084.146-.124.139-.108.281-.212.428-.31q.186-.124.381-.237l1.883-1.088a6.891,6.891,0,0,0-.955.671l-.078.065a7.212,7.212,0,0,0-.821.821l0,.007a7.392,7.392,0,0,0-.681.959c-.016.025-.032.051-.047.077a7.927,7.927,0,0,0-.529,1.078c0,.014-.009.028-.015.042a8.377,8.377,0,0,0-.358,1.158c-.011.048-.019.1-.03.147a9.133,9.133,0,0,0-.151,1c-.011.11-.026.22-.034.332-.018.3-.011.6,0,.9,0,.149,0,.294.008.445a10.313,10.313,0,0,0,.194,1.377,10.973,10.973,0,0,0,.307,1.12c.036.111.075.221.115.33.07.194.146.385.226.573.054.125.107.252.166.375q.076.161.158.32c.079.156.161.309.248.459.044.076.088.153.133.228.127.209.259.416.4.615l.021.033c.149.211.307.414.469.613l.116.14c.163.192.33.381.5.561l.033.032c.169.173.344.337.523.5.039.035.077.07.117.1.185.161.375.315.569.461.038.029.077.056.115.083q.255.186.519.354c.046.03.092.06.139.089.209.129.421.25.637.361.051.027.1.049.156.075q.253.124.51.233c.1.04.194.076.291.114.134.05.267.1.4.141.153.05.308.094.464.135.115.03.231.062.347.087.2.043.393.075.591.1.094.013.187.032.282.042a7.79,7.79,0,0,0,.881.05q.372,0,.744-.04a7.39,7.39,0,0,0,.764-.117,6.946,6.946,0,0,0,2.066-.785h0l-1.883,1.088a7.028,7.028,0,0,1-2.829.9c-.248.026-.5.039-.743.04a7.81,7.81,0,0,1-.882-.049c-.094-.01-.187-.028-.282-.042-.2-.028-.4-.061-.591-.1-.04-.008-.081-.012-.122-.021-.076-.018-.149-.045-.225-.065-.155-.042-.31-.085-.463-.135-.052-.017-.107-.028-.159-.047-.083-.028-.163-.064-.245-.1-.1-.036-.193-.073-.289-.112-.045-.019-.092-.034-.136-.054-.127-.056-.251-.119-.376-.18-.052-.025-.1-.048-.155-.074l-.045-.022c-.174-.091-.346-.187-.516-.29-.026-.016-.051-.033-.077-.05-.046-.028-.091-.059-.137-.088-.086-.055-.174-.108-.259-.166s-.175-.126-.263-.19l-.113-.082-.064-.047c-.14-.107-.279-.218-.415-.333-.031-.026-.061-.054-.091-.081l-.117-.1c-.063-.056-.127-.11-.187-.167-.115-.108-.226-.219-.337-.332l-.031-.03-.012-.012c-.125-.129-.247-.262-.366-.4-.043-.05-.084-.1-.127-.153l-.115-.139c-.038-.046-.077-.091-.115-.137-.12-.153-.237-.31-.35-.47l0-.007c-.006-.008-.012-.018-.018-.027q-.168-.238-.324-.487c-.027-.043-.051-.089-.078-.133-.045-.075-.088-.151-.132-.226S538.26,278.016,538.216,277.936Z" transform="translate(-95.542 -23.55)" fill="url(#linear-gradient-5)"/>
    <path id="Trazado_539" data-name="Trazado 539" d="M500.649,274.094c-.04-.074-.074-.151-.112-.226-.055-.106-.108-.212-.159-.32-.027-.057-.057-.111-.083-.168s-.052-.139-.081-.207c-.08-.187-.156-.378-.226-.571-.024-.067-.055-.13-.078-.2-.015-.044-.023-.091-.037-.135a10.916,10.916,0,0,1-.307-1.119,10.353,10.353,0,0,1-.193-1.374c-.011-.15,0-.294-.008-.442-.007-.249-.025-.5-.013-.746,0-.054.013-.105.016-.159.007-.112.023-.219.033-.33.018-.171.026-.345.052-.512s.063-.326.1-.488c.011-.048.018-.1.029-.146.008-.032.012-.065.02-.1.05-.205.108-.407.173-.6.05-.155.107-.306.166-.456.006-.014.01-.029.016-.043l.012-.033c.066-.163.137-.325.212-.482s.151-.3.232-.445c.023-.041.049-.079.072-.119l.046-.076c.044-.074.086-.149.132-.22q.129-.2.27-.388c.088-.12.181-.236.277-.349l.008-.01.006-.008q.153-.18.316-.349t.343-.332c.05-.045.1-.087.155-.131l.076-.064c.05-.042.1-.085.148-.125q.207-.162.427-.309c.124-.083.251-.161.381-.237l1.882-1.087a6.969,6.969,0,0,0-.954.67l-.077.065a7.183,7.183,0,0,0-.82.821l-.008.009a7.555,7.555,0,0,0-.678.957l-.045.075a7.856,7.856,0,0,0-.528,1.079l-.016.042a8.507,8.507,0,0,0-.357,1.157c-.011.049-.019.1-.03.148a8.947,8.947,0,0,0-.15,1c-.011.11-.027.219-.034.332-.019.295-.011.6,0,.9,0,.148,0,.293.008.443a10.383,10.383,0,0,0,.194,1.375,10.98,10.98,0,0,0,.307,1.12c.037.111.075.221.115.33q.105.292.227.574c.053.125.106.25.163.372s.1.216.159.322c.08.155.161.308.248.458.045.077.088.153.134.229.127.209.259.416.4.615l.021.031c.149.211.307.415.469.613l.116.139c.163.192.33.381.5.561l.034.033c.168.172.343.337.521.5.04.035.078.071.118.105q.277.241.569.461l.115.083q.256.186.521.354c.045.03.091.06.137.088.209.129.422.25.638.361.052.027.1.05.156.075q.253.125.51.233c.1.04.195.077.291.114.133.051.267.1.4.141.154.05.309.094.465.135.115.03.231.062.347.087.195.043.391.075.589.1.095.013.189.032.284.042a7.8,7.8,0,0,0,.881.049c.248,0,.5-.015.744-.04a7.041,7.041,0,0,0,2.83-.9l-1.883,1.088a7.041,7.041,0,0,1-2.829.9q-.372.038-.743.04a7.644,7.644,0,0,1-.881-.049c-.1-.011-.189-.028-.284-.042-.2-.028-.394-.061-.59-.1-.04-.009-.081-.012-.122-.022-.076-.018-.149-.045-.224-.065-.156-.041-.312-.085-.466-.135-.052-.017-.106-.028-.158-.046-.082-.029-.162-.065-.243-.1-.1-.037-.2-.074-.291-.115-.045-.018-.091-.033-.137-.053-.126-.056-.25-.118-.373-.18-.052-.025-.1-.049-.156-.075l-.045-.022c-.175-.091-.347-.187-.516-.29-.026-.016-.051-.033-.076-.049-.047-.029-.092-.059-.139-.089-.086-.055-.173-.108-.258-.166s-.175-.126-.263-.19c-.038-.028-.076-.054-.113-.082l-.064-.046c-.14-.108-.279-.219-.414-.333-.03-.026-.06-.055-.091-.081l-.117-.105c-.062-.055-.126-.109-.187-.166-.114-.107-.225-.217-.335-.33l-.033-.033-.011-.011c-.125-.129-.247-.262-.366-.4-.043-.05-.084-.1-.127-.153l-.115-.138c-.038-.046-.077-.091-.114-.138q-.181-.229-.351-.469l0-.007-.021-.03c-.11-.158-.219-.319-.322-.484-.027-.044-.051-.09-.077-.134-.046-.075-.089-.151-.133-.227S500.693,274.173,500.649,274.094Z" transform="translate(-30.703 -22.428)" fill="url(#linear-gradient-6)"/>
    <path id="Trazado_540" data-name="Trazado 540" d="M463.084,270.254c-.04-.074-.074-.152-.112-.226-.055-.107-.108-.214-.16-.323-.026-.056-.057-.11-.082-.166s-.052-.137-.081-.205c-.081-.189-.157-.381-.227-.575-.024-.066-.054-.129-.077-.2-.015-.044-.023-.091-.037-.135A10.809,10.809,0,0,1,462,267.3a10.357,10.357,0,0,1-.193-1.374c-.011-.151,0-.3-.008-.445-.007-.248-.025-.5-.013-.743,0-.054.013-.1.016-.158.007-.113.023-.221.034-.332.017-.17.025-.345.052-.511s.063-.326.1-.487c.011-.049.018-.1.03-.148.007-.031.011-.064.019-.1.05-.205.108-.407.173-.6.05-.155.107-.306.165-.456.006-.014.01-.028.016-.042s.008-.022.012-.033q.1-.245.212-.482c.073-.151.151-.3.232-.445.023-.04.049-.079.072-.12l.045-.075c.045-.074.087-.149.133-.22q.129-.2.27-.388c.088-.12.181-.236.277-.349l.008-.011.007-.008c.1-.12.207-.236.315-.349s.225-.226.343-.332c.049-.045.1-.087.155-.131l.076-.064c.05-.041.1-.084.147-.124q.207-.163.427-.31c.124-.083.251-.161.381-.236l1.882-1.088a7.027,7.027,0,0,0-.954.67l-.076.065a7.132,7.132,0,0,0-.82.821l-.008.011a7.458,7.458,0,0,0-.678.955c-.016.025-.032.051-.047.077a7.927,7.927,0,0,0-.528,1.078l-.016.043a8.468,8.468,0,0,0-.357,1.156c-.011.049-.019.1-.03.149a8.959,8.959,0,0,0-.15,1c-.011.11-.026.219-.034.331-.019.3-.011.6,0,.9,0,.148,0,.293.008.442a10.383,10.383,0,0,0,.194,1.375,10.814,10.814,0,0,0,.308,1.123c.036.112.075.223.115.332q.105.291.226.573c.053.125.106.25.163.373s.105.215.16.322c.079.155.161.309.248.46.044.076.087.151.132.226.126.207.256.412.394.61l.026.039c.149.211.306.413.468.611.038.047.077.093.116.139.163.193.33.382.5.562l.032.031c.169.173.345.338.523.5.04.035.078.07.117.1.185.161.374.315.569.461.037.028.077.055.115.083q.256.187.521.355c.045.029.091.059.137.088q.312.192.636.359c.054.028.108.052.163.078.166.081.333.158.5.229.1.041.2.079.294.115.132.05.265.1.4.14.155.05.311.095.467.136.114.03.228.061.344.086.2.043.395.076.594.1.094.013.187.032.282.042a7.815,7.815,0,0,0,.883.049c.248,0,.5-.015.745-.04a7.149,7.149,0,0,0,2.182-.572,6.792,6.792,0,0,0,.648-.33h0l-1.882,1.087a7.048,7.048,0,0,1-2.83.9c-.248.025-.5.039-.746.04a7.828,7.828,0,0,1-.882-.049c-.095-.01-.188-.028-.283-.042-.2-.029-.4-.061-.591-.1-.041-.009-.083-.013-.124-.022-.076-.018-.149-.045-.224-.065-.154-.041-.308-.085-.461-.134-.054-.018-.109-.029-.162-.047-.081-.028-.16-.064-.241-.094-.1-.037-.195-.074-.291-.114-.046-.02-.093-.035-.139-.055-.124-.054-.246-.117-.369-.177-.052-.025-.106-.049-.158-.076l-.048-.023q-.261-.137-.515-.289l-.075-.048-.134-.086c-.088-.057-.177-.11-.263-.169s-.173-.125-.259-.187c-.038-.028-.077-.054-.115-.083-.021-.016-.044-.03-.065-.047q-.21-.16-.414-.332c-.03-.025-.059-.054-.09-.08s-.078-.069-.117-.1c-.063-.056-.127-.11-.188-.168-.114-.107-.225-.217-.335-.33l-.031-.031-.013-.013c-.125-.129-.247-.261-.366-.4-.043-.05-.084-.1-.127-.154s-.076-.091-.114-.137-.077-.091-.115-.138q-.18-.229-.349-.468l-.006-.008c-.007-.011-.014-.023-.022-.033-.11-.157-.216-.316-.318-.48-.028-.044-.052-.09-.079-.134-.045-.076-.089-.153-.133-.229S463.126,270.333,463.084,270.254Z" transform="translate(34.137 -21.303)" fill="url(#linear-gradient-7)"/>
    <path id="Trazado_541" data-name="Trazado 541" d="M463.07,261.282c-4.553.472-7.394,4.935-6.321,9.986,1,4.766,5.141,8.352,9.437,8.329q.371,0,.743-.04c4.565-.461,7.394-4.935,6.323-9.976-1.005-4.781-5.15-8.361-9.453-8.338Q463.435,261.245,463.07,261.282Zm27.321-2.75c4.3-.023,8.431,3.554,9.436,8.329,1.071,5.041-1.758,9.514-6.323,9.976-.248.025-.5.039-.744.04-4.3.023-8.434-3.563-9.437-8.329-1.071-5.041,1.768-9.514,6.323-9.976C489.894,258.546,490.143,258.533,490.39,258.532Zm26.575-2.721c4.3-.023,8.431,3.554,9.435,8.329,1.071,5.041-1.758,9.514-6.323,9.976-.248.026-.5.039-.745.04-4.3.023-8.431-3.554-9.436-8.329-1.071-5.041,1.768-9.514,6.323-9.976C516.468,255.825,516.717,255.812,516.965,255.811Z" transform="translate(-12.473 -20.913)" fill="url(#linear-gradient-8)"/>
    <g id="Grupo_175" data-name="Grupo 175" transform="translate(444.048 234.897)" opacity="0.7" style="mix-blend-mode: overlay;isolation: isolate">
      <path id="Trazado_542" data-name="Trazado 542" d="M463.07,255.851c.248-.026.5-.039.745-.04,4.3-.023,8.432,3.554,9.436,8.33,1.071,5.04-1.758,9.514-6.323,9.975-.248.025-.5.039-.745.04-4.3.023-8.431-3.554-9.436-8.329C455.677,260.786,458.516,256.313,463.07,255.851Zm3.111,17.937q.353,0,.708-.038a6.746,6.746,0,0,0,2.314-.657c3.016-1.491,4.5-5.059,3.688-8.877-.952-4.528-4.938-8.059-9.074-8.037-.235,0-.473.014-.709.04a6.684,6.684,0,0,0-2.305.655c-3.021,1.493-4.5,5.061-3.7,8.878C458.06,270.279,462.046,273.809,466.182,273.788Z" transform="translate(-403.372 -255.811)" fill="url(#linear-gradient-9)"/>
      <path id="Trazado_543" data-name="Trazado 543" d="M500.637,259.7c.248-.026.5-.039.745-.04,4.3-.023,8.431,3.554,9.436,8.329,1.071,5.041-1.758,9.514-6.323,9.976-.248.025-.5.039-.743.04-4.3.023-8.434-3.563-9.437-8.329C493.244,264.632,496.083,260.159,500.637,259.7Zm3.113,17.936c.236,0,.472-.014.707-.038a6.711,6.711,0,0,0,2.313-.656c3.017-1.491,4.5-5.059,3.688-8.876-.952-4.529-4.938-8.059-9.074-8.038-.234,0-.471.014-.708.039a6.7,6.7,0,0,0-2.307.656c-3.02,1.493-4.505,5.061-3.694,8.877C495.628,274.125,499.615,277.655,503.75,277.633Z" transform="translate(-467.514 -256.936)" fill="url(#linear-gradient-10)"/>
      <path id="Trazado_544" data-name="Trazado 544" d="M531.882,273.514c-1.072-5.051,1.768-9.514,6.321-9.986q.365-.037.729-.039c4.3-.023,8.447,3.557,9.453,8.338,1.071,5.04-1.758,9.514-6.323,9.976q-.372.038-.743.04C537.023,281.867,532.885,278.28,531.882,273.514Zm9.435,7.962a6.966,6.966,0,0,0,.708-.039,6.712,6.712,0,0,0,2.312-.656c3.017-1.491,4.5-5.059,3.688-8.877-.954-4.534-4.947-8.068-9.091-8.047-.232,0-.464.014-.7.037a6.745,6.745,0,0,0-2.3.657c-3.023,1.494-4.51,5.065-3.7,8.887C533.2,277.967,537.182,281.5,541.317,281.476Z" transform="translate(-531.656 -258.058)" fill="url(#linear-gradient-11)"/>
    </g>
  </g>
</svg>
