<svg xmlns="http://www.w3.org/2000/svg" xmlns:xlink="http://www.w3.org/1999/xlink" width="153" height="153" viewBox="0 0 153 153">
  <defs>
    <filter id="Trazado_605622" x="0" y="0" width="153" height="153" filterUnits="userSpaceOnUse">
      <feOffset dy="3" input="SourceAlpha"/>
      <feGaussianBlur stdDeviation="3" result="blur"/>
      <feFlood flood-opacity="0.161"/>
      <feComposite operator="in" in2="blur"/>
      <feComposite in="SourceGraphic"/>
    </filter>
  </defs>
  <g id="Grupo_880823" data-name="Grupo 880823" transform="translate(3929 10045.999)">
    <g transform="matrix(1, 0, 0, 1, -3929, -10046)" filter="url(#Trazado_605622)">
      <g id="Trazado_605622-2" data-name="Trazado 605622" transform="translate(9 6)" fill="#fff">
        <path d="M 67.5 133.5 C 58.58940124511719 133.5 49.94612884521484 131.7551879882812 41.8102912902832 128.3139953613281 C 37.89983749389648 126.6600341796875 34.12808990478516 124.6127853393555 30.59981727600098 122.2291259765625 C 27.10469055175781 119.8678512573242 23.81796455383301 117.1560516357422 20.83094596862793 114.1690521240234 C 17.84394454956055 111.1820373535156 15.13214588165283 107.8953094482422 12.77087306976318 104.4001846313477 C 10.3872184753418 100.8719100952148 8.339963912963867 97.10016632080078 6.685999870300293 93.18971252441406 C 3.244818210601807 85.05387115478516 1.5 76.41059875488281 1.5 67.5 C 1.5 58.61076354980469 3.295436382293701 49.97203826904297 6.83643627166748 41.82379913330078 C 8.534109115600586 37.91730880737305 10.63401794433594 34.14565277099609 13.07787227630615 30.61358261108398 C 15.49478149414062 27.12045478820801 18.26789093017578 23.83269119262695 21.32016372680664 20.84163665771484 C 24.36785507202148 17.85505485534668 27.71685409545898 15.14176368713379 31.27409172058105 12.77712726593018 C 34.86061859130859 10.39301776885986 38.68745422363281 8.344472885131836 42.6483268737793 6.688381671905518 C 50.8824348449707 3.245618104934692 59.58018112182617 1.5 68.5 1.5 C 77.40134429931641 1.5 85.99008941650391 3.243981838226318 94.02765655517578 6.68352746963501 C 97.88768768310547 8.335363388061523 101.6043090820312 10.38125419616699 105.0742874145508 12.76441860198975 C 108.5073852539062 15.12223625183105 111.7318572998047 17.83250999450684 114.6581420898438 20.81992721557617 C 117.5799789428711 23.80281829833984 120.2305068969727 27.08850860595703 122.5361251831055 30.58572769165039 C 124.8596572875977 34.110107421875 126.8542556762695 37.88198089599609 128.4645385742188 41.79660034179688 C 131.8058319091797 49.91921997070312 133.5 58.56708908081055 133.5 67.5 C 133.5 76.41059875488281 131.7551879882812 85.05387115478516 128.3139953613281 93.18971252441406 C 126.6600341796875 97.10016632080078 124.6127853393555 100.8719100952148 122.2291259765625 104.4001846313477 C 119.8678512573242 107.8953094482422 117.1560516357422 111.1820373535156 114.1690521240234 114.1690521240234 C 111.1820373535156 117.1560516357422 107.8953094482422 119.8678512573242 104.4001846313477 122.2291259765625 C 100.8719100952148 124.6127853393555 97.10016632080078 126.6600341796875 93.18971252441406 128.3139953613281 C 85.05387115478516 131.7551879882812 76.41059875488281 133.5 67.5 133.5 Z" stroke="none"/>
        <path d="M 68.5 3 C 59.77987670898438 3 51.27680206298828 4.706558227539062 43.22695922851562 8.072303771972656 C 39.3538818359375 9.691658020019531 35.61174011230469 11.69487762451172 32.10446166992188 14.02629852294922 C 28.62561798095703 16.33883666992188 25.35047912597656 18.99230194091797 22.37001800537109 21.91300201416016 C 19.38558197021484 24.83757781982422 16.67426300048828 28.05201721191406 14.31137847900391 31.46705627441406 C 11.92301940917969 34.91893768310547 9.870941162109375 38.60459899902344 8.212158203125 42.42163848876953 C 4.753616333007812 50.38009643554688 3 58.81768035888672 3 67.5 C 3 76.20875549316406 4.7049560546875 84.65544128417969 8.067497253417969 92.60537719726562 C 9.683738708496094 96.4266357421875 11.68437957763672 100.1124572753906 14.01380157470703 103.5604782104492 C 16.32164001464844 106.9765014648438 18.97212219238281 110.1888809204102 21.89161682128906 113.1083831787109 C 24.81111907958984 116.0278778076172 28.02349853515625 118.6783599853516 31.43952178955078 120.986198425293 C 34.88754272460938 123.3156204223633 38.57335662841797 125.3162612915039 42.39462280273438 126.932502746582 C 50.34455871582031 130.2950439453125 58.79123687744141 132 67.5 132 C 76.20875549316406 132 84.65544128417969 130.2950439453125 92.60537719726562 126.932502746582 C 96.4266357421875 125.3162612915039 100.1124572753906 123.3156204223633 103.5604782104492 120.986198425293 C 106.9765014648438 118.6783599853516 110.1888809204102 116.0278778076172 113.1083831787109 113.1083831787109 C 116.0278778076172 110.1888809204102 118.6783599853516 106.9765014648438 120.986198425293 103.5604782104492 C 123.3156204223633 100.1124572753906 125.3162612915039 96.4266357421875 126.932502746582 92.60537719726562 C 130.2950439453125 84.65544128417969 132 76.20875549316406 132 67.5 C 132 58.76380157470703 130.3437805175781 50.30792236328125 127.0773391723633 42.36724090576172 C 125.5036163330078 38.54155731201172 123.5543975830078 34.85546112060547 121.2837982177734 31.41136169433594 C 119.0309829711914 27.99423980712891 116.4412612915039 24.78392028808594 113.5865631103516 21.86956024169922 C 110.7280426025391 18.95130157470703 107.5783843994141 16.30390167236328 104.2250823974609 14.00087738037109 C 100.8363800048828 11.67353820800781 97.20692443847656 9.67559814453125 93.43751525878906 8.06256103515625 C 85.5875244140625 4.703292846679688 77.19734191894531 3 68.5 3 M 68.5 0 C 105.7792205810547 0 135 30.22077941894531 135 67.5 C 135 104.7792205810547 104.7792205810547 135 67.5 135 C 30.22077941894531 135 0 104.7792205810547 0 67.5 C 0 30.22077941894531 31.22077941894531 0 68.5 0 Z" stroke="none" fill="#fecb2f"/>
      </g>
    </g>
    <g id="votacion" transform="translate(-3883.5 -10007.433)">
      <path id="Trazado_593275" data-name="Trazado 593275" d="M124.937,0H81.464a1.106,1.106,0,0,0,0,2.211h43.472A3.369,3.369,0,0,1,128.3,5.577V58.318a1.106,1.106,0,1,0,2.211,0V5.577A5.584,5.584,0,0,0,124.937,0Zm0,0" transform="translate(-68.546 0)" fill="#3f3f3f"/>
      <path id="Trazado_593276" data-name="Trazado 593276" d="M60.862,61.855a1.105,1.105,0,0,0-1.106,1.106v3.995a3.37,3.37,0,0,1-3.366,3.366H6.077a3.37,3.37,0,0,1-3.366-3.366V5.577A3.37,3.37,0,0,1,6.077,2.211H8.165A1.106,1.106,0,1,0,8.165,0H6.077A5.583,5.583,0,0,0,.5,5.577V66.956a5.583,5.583,0,0,0,5.576,5.576H56.391a5.583,5.583,0,0,0,5.576-5.576V62.961a1.105,1.105,0,0,0-1.105-1.106Zm0,0" fill="#3f3f3f"/>
      <path id="Trazado_593277" data-name="Trazado 593277" d="M58.277,50.363a8.391,8.391,0,1,0,8.391,8.39A8.4,8.4,0,0,0,58.277,50.363Zm0,14.57a6.179,6.179,0,1,1,6.18-6.179A6.186,6.186,0,0,1,58.277,64.933Zm0,0" transform="translate(-42.39 -43.229)" fill="#3f3f3f"/>
      <path id="Trazado_593278" data-name="Trazado 593278" d="M198.031,67.129h24.1a1.106,1.106,0,1,0,0-2.211h-24.1a1.106,1.106,0,0,0,0,2.211Zm0,0" transform="translate(-168.599 -55.722)" fill="#3f3f3f"/>
      <path id="Trazado_593279" data-name="Trazado 593279" d="M198.031,104h17.444a1.106,1.106,0,0,0,0-2.211H198.031a1.106,1.106,0,0,0,0,2.211Zm0,0" transform="translate(-168.599 -87.366)" fill="#3f3f3f"/>
      <path id="Trazado_593280" data-name="Trazado 593280" d="M198.031,140.868h21.036a1.106,1.106,0,0,0,0-2.211H198.031a1.106,1.106,0,0,0,0,2.211Zm0,0" transform="translate(-168.599 -119.014)" fill="#3f3f3f"/>
      <path id="Trazado_593281" data-name="Trazado 593281" d="M198.031,213.657h24.1a1.106,1.106,0,1,0,0-2.211h-24.1a1.106,1.106,0,0,0,0,2.211Zm0,0" transform="translate(-168.599 -181.491)" fill="#3f3f3f"/>
      <path id="Trazado_593282" data-name="Trazado 593282" d="M198.031,250.524h17.444a1.106,1.106,0,0,0,0-2.211H198.031a1.106,1.106,0,0,0,0,2.211Zm0,0" transform="translate(-168.599 -213.136)" fill="#3f3f3f"/>
      <path id="Trazado_593283" data-name="Trazado 593283" d="M198.031,287.395h21.036a1.106,1.106,0,0,0,0-2.211H198.031a1.106,1.106,0,0,0,0,2.211Zm0,0" transform="translate(-168.599 -244.783)" fill="#3f3f3f"/>
      <path id="Trazado_593284" data-name="Trazado 593284" d="M58.277,343.418a8.391,8.391,0,1,0,8.391,8.39A8.4,8.4,0,0,0,58.277,343.418Zm0,14.57a6.179,6.179,0,1,1,6.18-6.18A6.187,6.187,0,0,1,58.277,357.988Zm0,0" transform="translate(-42.39 -294.768)" fill="#3f3f3f"/>
      <path id="Trazado_593285" data-name="Trazado 593285" d="M198.031,360.184h24.1a1.106,1.106,0,1,0,0-2.211h-24.1a1.106,1.106,0,0,0,0,2.211Zm0,0" transform="translate(-168.599 -307.261)" fill="#3f3f3f"/>
      <path id="Trazado_593286" data-name="Trazado 593286" d="M198.031,397.054h17.444a1.105,1.105,0,1,0,0-2.211H198.031a1.105,1.105,0,0,0,0,2.211Zm0,0" transform="translate(-168.599 -338.908)" fill="#3f3f3f"/>
      <path id="Trazado_593287" data-name="Trazado 593287" d="M198.031,433.922h21.036a1.106,1.106,0,0,0,0-2.211H198.031a1.106,1.106,0,0,0,0,2.211Zm0,0" transform="translate(-168.599 -370.553)" fill="#3f3f3f"/>
      <path id="Trazado_593288" data-name="Trazado 593288" d="M56.754,201.038A1.106,1.106,0,0,0,55.19,202.6l2.727,2.727a1.106,1.106,0,0,0,1.564,0l5.7-5.7.016-.016,3.787-3.787a1.106,1.106,0,0,0-1.564-1.563l-2.892,2.892a8.392,8.392,0,1,0,2.135,5.594,1.106,1.106,0,1,0-2.211,0,6.183,6.183,0,1,1-1.492-4.025L58.7,202.983Zm0,0" transform="translate(-42.39 -166.46)" fill="#3f3f3f"/>
    </g>
  </g>
</svg>
