<svg xmlns="http://www.w3.org/2000/svg" xmlns:xlink="http://www.w3.org/1999/xlink" width="153" height="153" viewBox="0 0 153 153">
  <defs>
    <filter id="Elipse_4758" x="0" y="0" width="153" height="153" filterUnits="userSpaceOnUse">
      <feOffset dy="3" input="SourceAlpha"/>
      <feGaussianBlur stdDeviation="3" result="blur"/>
      <feFlood flood-opacity="0.161"/>
      <feComposite operator="in" in2="blur"/>
      <feComposite in="SourceGraphic"/>
    </filter>
  </defs>
  <g id="Grupo_880825" data-name="Grupo 880825" transform="translate(3919 9685)">
    <g transform="matrix(1, 0, 0, 1, -3919, -9685)" filter="url(#Elipse_4758)">
      <g id="Elipse_4758-2" data-name="Elipse 4758" transform="translate(9 6)" fill="#fff" stroke="#fecb2f" stroke-width="3">
        <circle cx="67.5" cy="67.5" r="67.5" stroke="none"/>
        <circle cx="67.5" cy="67.5" r="66" fill="none"/>
      </g>
    </g>
    <g id="entrevista" transform="translate(-3881 -9684.515)">
      <path id="Trazado_599795" data-name="Trazado 599795" d="M10.483,66.05l2.074,4.5,5.762,2.3L24.082,71.7l4.725-5.647V57.521L22.7,56.484l-5.532-1.5-2.881-1.729-3.8,4.264L9.1,63.054Z" fill="#fff"/>
      <path id="Trazado_599796" data-name="Trazado 599796" d="M8.408,63.054s-1.728,0-2.074-3.572a19.111,19.111,0,0,1,0-5.187S3.8,52.565,3.8,50.03s-1.152-4.378,1.729-6.568S10.6,40,12.672,40.926s4.61,3.919,4.61,3.919,10.372-1.037,12.562,6.8,1.383,8.528,1.383,8.528a17.055,17.055,0,0,0-1.383,2.881C28.692,65.7,8.408,63.054,8.408,63.054Z" fill="#fff"/>
      <path id="Trazado_593289" data-name="Trazado 593289" d="M112.056,209.088a1.136,1.136,0,0,0,.57,1.5,7.357,7.357,0,0,0,5.789,0,1.136,1.136,0,0,0-.932-2.072,5.093,5.093,0,0,1-3.925,0A1.136,1.136,0,0,0,112.056,209.088Z" transform="translate(-94.997 -142.837)"/>
      <path id="Trazado_593290" data-name="Trazado 593290" d="M105.077,171.825a1.136,1.136,0,0,0,1.136-1.136v-1.214a1.136,1.136,0,0,0-2.272,0v1.214A1.136,1.136,0,0,0,105.077,171.825Z" transform="translate(-88.196 -108.83)"/>
      <path id="Trazado_593291" data-name="Trazado 593291" d="M153.174,171.825a1.136,1.136,0,0,0,1.136-1.136v-1.214a1.136,1.136,0,0,0-2.272,0v1.214A1.136,1.136,0,0,0,153.174,171.825Z" transform="translate(-129.008 -108.83)"/>
      <path id="Trazado_599797" data-name="Trazado 599797" d="M13.71,71.582s-3,2.767,0,5.187S20.855,78.5,20.855,78.5s2.3-2.536,2.3-3.112v-3.8Z" fill="#fff"/>
      <path id="Trazado_593292" data-name="Trazado 593292" d="M131.824,352.709a3.565,3.565,0,1,0,3.565,3.565A3.569,3.569,0,0,0,131.824,352.709Zm0,4.857a1.292,1.292,0,1,1,1.292-1.293A1.294,1.294,0,0,1,131.824,357.566Z" transform="translate(-108.831 -265.272)"/>
      <path id="Trazado_593293" data-name="Trazado 593293" d="M73.914,86.7V79.431a5.96,5.96,0,0,0-3.313-5.36l-5.685-2.843a1.285,1.285,0,0,1-.714-1.156l0-5.129a6,6,0,0,0,3.643-5.512v-8.5A9.647,9.647,0,0,0,58.206,41.3H48.492A7.216,7.216,0,0,0,41.285,48.5a3.57,3.57,0,0,0,2.428,3.378v7.551A10.839,10.839,0,0,0,51,69.67v1.809l-7.615,3.808a5.961,5.961,0,0,0-3.313,5.36V98.366H37.2a3.663,3.663,0,0,0,.281-1.411V85.049A3.687,3.687,0,0,0,33.8,81.366H30.2v-.078a7.218,7.218,0,0,0-6.072-7.117v-1.38A10.879,10.879,0,0,0,30.037,64.7a9.364,9.364,0,0,0,2.551-6.484A15.4,15.4,0,0,0,29,48.024a12.66,12.66,0,0,0-9.693-4.3A14.62,14.62,0,0,0,17.8,43.8a8.422,8.422,0,1,0-12.574,11,14.478,14.478,0,0,0-.407,3.412,9.4,9.4,0,0,0,4.044,7.774,10.867,10.867,0,0,0,3.282,5.219v2.93A10.865,10.865,0,0,0,2.429,84.93V98.366H1.136a1.136,1.136,0,1,0,0,2.272H40.071v3.721a1.136,1.136,0,0,0,2.272,0V80.647a3.733,3.733,0,0,1,.261-1.371l4.191,3.493A4.922,4.922,0,0,1,48.57,86.56v17.8a1.136,1.136,0,0,0,2.272,0V92.216a3.725,3.725,0,0,1,3.721-3.721h17a3.725,3.725,0,0,1,3.721,3.721v12.143a1.136,1.136,0,0,0,2.272,0V92.216A6,6,0,0,0,73.914,86.7ZM4.66,48.5a6.146,6.146,0,0,1,10.626-4.21,14.561,14.561,0,0,0-9.245,8.1A6.111,6.111,0,0,1,4.66,48.5ZM8.473,62.491a7.059,7.059,0,0,1-1.384-4.274A12.235,12.235,0,0,1,19.309,46a10.283,10.283,0,0,1,7.982,3.524,13.136,13.136,0,0,1,3.024,8.7,7.579,7.579,0,0,1-.156,1.539v-.07a3.538,3.538,0,0,0-3.207-3.546c-2.853-.271-8.186-1.114-11.843-3.707a1.136,1.136,0,0,0-1.5.164l-1.938,2.14a12.392,12.392,0,0,0-3.2,7.754Zm2.258.581a10.125,10.125,0,0,1,2.625-6.81l1.284-1.418c4.007,2.462,9.225,3.285,12.1,3.558a1.275,1.275,0,0,1,1.15,1.284v3.388a8.578,8.578,0,1,1-17.156,0ZM21.857,73.619V74a3.721,3.721,0,0,1-7.442,0v-1.25a10.8,10.8,0,0,0,7.442.867ZM35.214,96.954A1.413,1.413,0,0,1,33.8,98.366H12.183a1.413,1.413,0,0,1-1.411-1.411V91A1.136,1.136,0,1,0,8.5,91v5.953a3.663,3.663,0,0,0,.281,1.411H4.7V84.93a8.588,8.588,0,0,1,7.935-8.551,5.991,5.991,0,0,0,10.994.016,4.942,4.942,0,0,1,4.3,4.893v.078H12.183A3.687,3.687,0,0,0,8.5,85.049v1.1a1.136,1.136,0,1,0,2.272,0v-1.1a1.413,1.413,0,0,1,1.411-1.411H33.8a1.413,1.413,0,0,1,1.411,1.411ZM45.986,59.431V52.067h.078a2.51,2.51,0,0,1,2.507,2.507v3.643a7.216,7.216,0,0,0,7.207,7.207h1.214a1.136,1.136,0,1,0,0-2.272H55.778a4.941,4.941,0,0,1-4.935-4.935V54.574A4.784,4.784,0,0,0,46.064,49.8H44.85A1.294,1.294,0,0,1,43.557,48.5a4.941,4.941,0,0,1,4.935-4.935h9.714a7.372,7.372,0,0,1,7.364,7.364v8.5a3.725,3.725,0,0,1-3.721,3.721,1.136,1.136,0,1,0,0,2.272l.078,0v4.651a3.567,3.567,0,0,0,.368,1.578H53.271V68.827a1.136,1.136,0,0,0-.852-1.1,8.568,8.568,0,0,1-6.433-8.3ZM71.641,86.225l-.078,0h-17a5.961,5.961,0,0,0-3.721,1.3V86.56a7.188,7.188,0,0,0-2.593-5.537l-4.2-3.5a3.778,3.778,0,0,1,.352-.2l6.789-3.395H65.226L69.585,76.1a3.7,3.7,0,0,1,2.057,3.328Z"/>
    </g>
  </g>
</svg>
