<svg xmlns="http://www.w3.org/2000/svg" width="604.728" height="627.444" viewBox="0 0 604.728 627.444">
  <g id="Grupo_877453" data-name="Grupo 877453" transform="translate(-26.283 -24.694)">
    <path id="Trazado_601420" data-name="Trazado 601420" d="M593.028,196.948C541.755,104.8,443.719,42.257,330.986,41.4c-.78-.005-1.557-.03-2.339-.03-112.883,0-211.3,61.868-263.241,153.534a302.619,302.619,0,0,0,3.928,304.4c52.877,87.95,149.217,146.8,259.313,146.8.782,0,1.558-.023,2.339-.029,109.952-.836,205.924-60.349,258.163-148.782a302.588,302.588,0,0,0,3.879-300.342Z" transform="translate(0 6.037)" fill="#e6e7e8" style="mix-blend-mode: multiply;isolation: isolate"/>
    <path id="Trazado_601421" data-name="Trazado 601421" d="M320.587,24.724c-.78-.005-1.557-.03-2.339-.03-112.883,0-211.3,61.868-263.241,153.534L320.587,331.561Z" transform="translate(10.398 0)" fill="#0a5997"/>
    <path id="Trazado_601422" data-name="Trazado 601422" d="M65.406,137.421a302.619,302.619,0,0,0,3.928,304.4L330.986,290.754Z" transform="translate(0 40.807)" fill="#8c9eac"/>
    <path id="Trazado_601423" data-name="Trazado 601423" d="M512.042,180.263C460.77,88.113,362.733,25.573,250,24.716V331.553Z" transform="translate(80.986 0.008)" fill="#ed3c79"/>
    <path id="Trazado_601424" data-name="Trazado 601424" d="M57.892,401.064c52.877,87.95,149.217,146.8,259.313,146.8.782,0,1.558-.023,2.339-.029V250Z" transform="translate(11.442 81.561)" fill="#acd036"/>
    <path id="Trazado_601425" data-name="Trazado 601425" d="M250,547.833C359.952,547,455.924,487.484,508.163,399.051L250,250Z" transform="translate(80.986 81.561)" fill="#22c9ac"/>
    <path id="Trazado_601426" data-name="Trazado 601426" d="M512.042,138.921,250,290.211,508.163,439.261a302.585,302.585,0,0,0,3.879-300.34Z" transform="translate(80.986 41.35)" fill="#fbc92f"/>
    <circle id="Elipse_4942" data-name="Elipse 4942" cx="133.538" cy="133.538" r="133.538" transform="translate(195.108 193.521)" fill="#fff"/>
    <path id="Trazado_601427" data-name="Trazado 601427" d="M283.776,178.335A133.551,133.551,0,0,1,416.488,297.029a133.538,133.538,0,1,0-265.425,0A133.551,133.551,0,0,1,283.776,178.335Z" transform="translate(44.871 44.872)" fill="#e6e7e8" style="mix-blend-mode: multiply;isolation: isolate"/>
    <path id="Trazado_601428" data-name="Trazado 601428" d="M250,24.716,312.129,109.1,250,193.481Z" transform="translate(80.986 0.008)" fill="#ed3c79" opacity="0.6" style="isolation: isolate"/>
    <path id="Trazado_601429" data-name="Trazado 601429" d="M250,24.716,300.438,109.1,250,193.481Z" transform="translate(80.986 0.008)" fill="#0a5997" opacity="0.6" style="isolation: isolate"/>
    <path id="Trazado_601430" data-name="Trazado 601430" d="M266.085,513.528l-60.52-85.449,60.52-83.317Z" transform="translate(64.9 115.865)" fill="#9fc032"/>
    <path id="Trazado_601431" data-name="Trazado 601431" d="M263.406,513.528l-50.438-84.383,50.438-84.383Z" transform="translate(67.58 115.865)" fill="#147967"/>
    <path id="Trazado_601432" data-name="Trazado 601432" d="M55.008,140.132l104.226-10.187,41.929,94.57Z" transform="translate(10.399 38.101)" fill="#083760" opacity="0.8" style="isolation: isolate"/>
    <path id="Trazado_601433" data-name="Trazado 601433" d="M55.008,137.82l98.3-1.49L201.163,222.2Z" transform="translate(10.399 40.412)" fill="#a6b4c5"/>
    <path id="Trazado_601434" data-name="Trazado 601434" d="M478.393,381.846,374.18,391.983l-41.943-94.521Z" transform="translate(110.756 98.742)" fill="#22c9ac" opacity="0.15" style="isolation: isolate"/>
    <path id="Trazado_601435" data-name="Trazado 601435" d="M478.393,381.846l-98.3,1.49-47.858-85.872Z" transform="translate(110.756 98.742)" fill="#97791c"/>
    <path id="Trazado_601436" data-name="Trazado 601436" d="M57.893,386.242l42.753-95.3,103.4,10.915Z" transform="translate(11.443 96.383)" fill="#7c8c99"/>
    <path id="Trazado_601437" data-name="Trazado 601437" d="M57.893,383.737l47.858-85.872,98.3,1.49Z" transform="translate(11.443 98.888)" fill="#d3de3e"/>
    <path id="Trazado_601438" data-name="Trazado 601438" d="M481.241,138.921l-43.4,95.032L335.086,223.3Z" transform="translate(111.787 41.35)" fill="#f6981e"/>
    <path id="Trazado_601439" data-name="Trazado 601439" d="M481.241,138.921l-47.858,85.872-98.3-1.489Z" transform="translate(111.787 41.35)" fill="#8e2449"/>
    <rect id="Rectángulo_294824" data-name="Rectángulo 294824" width="109.407" height="27.24" rx="3" transform="translate(401.144 130.65)" fill="#fff"/>
    <text id="Cliente" transform="translate(454.798 148.827)" fill="#e7313c" font-size="21" font-family="Roboto-Bold, Roboto" font-weight="700"><tspan x="-33.218" y="0">Cliente</tspan></text>
    <rect id="Rectángulo_294825" data-name="Rectángulo 294825" width="109.407" height="27.24" rx="3" transform="translate(487.961 331.561)" fill="#fff"/>
    <text id="Líder" transform="translate(542.148 349.738)" fill="#c9a126" font-size="21" font-family="Roboto-Bold, Roboto" font-weight="700"><tspan x="-23.984" y="0">Líder</tspan></text>
    <rect id="Rectángulo_294826" data-name="Rectángulo 294826" width="109.195" height="54.48" rx="3" transform="translate(361.898 498.127)" fill="#fff"/>
    <text id="Equipo_de_desarrollo" data-name="Equipo de
desarrollo" transform="translate(415.463 517.506)" fill="#00a6af" font-size="21" font-family="Roboto-Bold, Roboto" font-weight="700"><tspan x="-46.553" y="0">Equipo de</tspan><tspan x="-47.537" y="25">desarrollo</tspan></text>
    <path id="Rectángulo_294827" data-name="Rectángulo 294827" d="M3.232,0H106.174a3.233,3.233,0,0,1,3.233,3.233V24.007a3.233,3.233,0,0,1-3.233,3.233H3.232A3.232,3.232,0,0,1,0,24.008V3.232A3.232,3.232,0,0,1,3.232,0Z" transform="translate(134.522 493.503)" fill="#fff"/>
    <text id="Analista" transform="translate(187.727 512.338)" fill="#acd036" font-size="21" font-family="Roboto-Bold, Roboto" font-weight="700"><tspan x="-38.473" y="0">Analista</tspan></text>
    <path id="Rectángulo_294828" data-name="Rectángulo 294828" d="M3.232,0H106.174a3.233,3.233,0,0,1,3.233,3.233V24.008a3.233,3.233,0,0,1-3.233,3.233H3.232A3.232,3.232,0,0,1,0,24.008V3.232A3.232,3.232,0,0,1,3.232,0Z" transform="translate(56.888 292.256)" fill="#fff"/>
    <text id="Usuario" transform="translate(109.455 310.433)" fill="#8c9eac" font-size="21" font-family="Roboto-Bold, Roboto" font-weight="700"><tspan x="-36.365" y="0">Usuario</tspan></text>
    <rect id="Rectángulo_294829" data-name="Rectángulo 294829" width="136.2" height="27.24" rx="3.233" transform="translate(163.609 114.378)" fill="#fff"/>
    <text id="Stakeholder" transform="translate(230.142 132.555)" fill="#0a5997" font-size="21" font-family="Roboto-Bold, Roboto" font-weight="700"><tspan x="-56.935" y="0">Stakeholder</tspan></text>
  </g>
</svg>
