<svg xmlns="http://www.w3.org/2000/svg" xmlns:xlink="http://www.w3.org/1999/xlink" width="153" height="153" viewBox="0 0 153 153">
  <defs>
    <filter id="Elipse_4752" x="0" y="0" width="153" height="153" filterUnits="userSpaceOnUse">
      <feOffset dy="3" input="SourceAlpha"/>
      <feGaussianBlur stdDeviation="3" result="blur"/>
      <feFlood flood-opacity="0.161"/>
      <feComposite operator="in" in2="blur"/>
      <feComposite in="SourceGraphic"/>
    </filter>
  </defs>
  <g id="Grupo_880822" data-name="Grupo 880822" transform="translate(3931 10283.999)">
    <g transform="matrix(1, 0, 0, 1, -3931, -10284)" filter="url(#Elipse_4752)">
      <g id="Elipse_4752-2" data-name="Elipse 4752" transform="translate(9 6)" fill="#fff" stroke="#fecb2f" stroke-width="3">
        <circle cx="67.5" cy="67.5" r="67.5" stroke="none"/>
        <circle cx="67.5" cy="67.5" r="66" fill="none"/>
      </g>
    </g>
    <g id="Grupo_873676" data-name="Grupo 873676" transform="translate(-4119.172 -11956.725)">
      <g id="Grupo_873675" data-name="Grupo 873675" transform="translate(222.172 1703.127)">
        <path id="Trazado_599757" data-name="Trazado 599757" d="M194.617,524.972a47.376,47.376,0,0,1-25.515-7.427,90.337,90.337,0,0,1-17.6-14.42c-.828-.845-.812-1.4.009-2.223a102.4,102.4,0,0,1,12.744-11.186c6.536-4.652,13.538-8.354,21.654-9.91,10.187-1.953,19.622.07,28.574,4.76a71.4,71.4,0,0,1,13.829,9.747c2.421,2.119,4.57,4.514,6.863,6.765a1.117,1.117,0,0,1,.048,1.844c-6.6,6.982-13.811,13.259-22.727,17.558A41.494,41.494,0,0,1,194.617,524.972Zm-1.3-2.978c11.652-.035,21.164-8.986,21.166-19.918,0-11.072-9.563-20.036-21.325-20.016-11.827.021-21.087,9.235-21.091,20.106C172.06,513.1,181.687,522.029,193.314,521.994Zm1.65-41.715-.069.372c13.776,1.4,21.973,12.086,20.9,23.36-1.043,10.924-10.993,19.466-22.668,19.4-11.608-.064-21.46-8.658-22.391-19.542-.974-11.382,7.141-21.75,20.909-23.27a8.436,8.436,0,0,0-1.415-.037,41.219,41.219,0,0,0-12.657,3.172c-8.051,3.355-14.791,8.457-21.012,14.226-1.393,1.292-2.712,2.654-4.035,3.954a3.163,3.163,0,0,0,.286.482c6.107,6.3,12.8,11.944,20.778,16.085a43.5,43.5,0,0,0,18.913,5.152,41.452,41.452,0,0,0,20.091-4.727c8.216-4.133,14.977-9.946,21.114-16.462a3.393,3.393,0,0,0,.311-.482c-.327-.36-.633-.719-.962-1.057a92.689,92.689,0,0,0-12.705-11.041,50.664,50.664,0,0,0-18.022-8.437C199.916,480.872,197.42,480.653,194.964,480.279Z" transform="translate(-150.69 -438.777)"/>
        <path id="Trazado_599758" data-name="Trazado 599758" d="M277.422,359.049a9.879,9.879,0,1,1,9.86-9.94A9.81,9.81,0,0,1,277.422,359.049Zm8.467-9.888a8.481,8.481,0,0,0-8.554-8.52,8.531,8.531,0,1,0,.147,17.062A8.486,8.486,0,0,0,285.889,349.161Z" transform="translate(-235.381 -339.291)"/>
        <path id="Trazado_599759" data-name="Trazado 599759" d="M182.543,394.113a9.869,9.869,0,1,1,10.022-9.6A9.736,9.736,0,0,1,182.543,394.113Zm-8.348-9.929a8.511,8.511,0,0,0,8.474,8.608,8.528,8.528,0,0,0,.153-17.055A8.487,8.487,0,0,0,174.2,384.183Z" transform="translate(-167.039 -365.477)"/>
        <path id="Trazado_599760" data-name="Trazado 599760" d="M371.607,394.1a9.873,9.873,0,1,1,9.839-9.925A9.866,9.866,0,0,1,371.607,394.1Zm-8.536-9.844a8.5,8.5,0,0,0,8.426,8.519,8.528,8.528,0,1,0,.105-17.055A8.484,8.484,0,0,0,363.071,384.258Z" transform="translate(-303.233 -365.463)"/>
        <path id="Trazado_599761" data-name="Trazado 599761" d="M178.871,468.606a1.435,1.435,0,0,1-2.123-.149,10.2,10.2,0,0,0-6.945-2.671c-3.368-.027-6.751,0-10.1.309-2.677.244-4.742,1.889-6.493,3.87a6.428,6.428,0,0,0-1.77,4.721c.112,2.614.059,5.237,0,7.854-.01.436-.41.863-.63,1.294-.238-.417-.675-.831-.684-1.253-.059-2.871-.014-5.743-.028-8.615-.014-2.937,1.823-4.812,3.8-6.57a10.118,10.118,0,0,1,6.135-2.777,94.569,94.569,0,0,1,11.491.015A10.908,10.908,0,0,1,178.871,468.606Z" transform="translate(-150.095 -430.228)"/>
        <path id="Trazado_599762" data-name="Trazado 599762" d="M350.453,467.709a12.6,12.6,0,0,1,8.664-3.836,79.2,79.2,0,0,1,8.238.007,12.666,12.666,0,0,1,10.612,6.4,6.518,6.518,0,0,1,.862,2.982c.121,3.039.063,6.084.077,9.126,0,.607.034,1.331-.81,1.221-.233-.03-.51-.83-.519-1.282-.057-3.035.018-6.075-.1-9.107a5.314,5.314,0,0,0-.874-2.58,11.02,11.02,0,0,0-9.276-5.352,79.553,79.553,0,0,0-10.355.36,11.49,11.49,0,0,0-4.3,1.979A1.834,1.834,0,0,1,350.453,467.709Z" transform="translate(-294.865 -429.714)"/>
        <path id="Trazado_599763" data-name="Trazado 599763" d="M264.539,428.509c1.852.1,3.719.1,5.554.333a12.3,12.3,0,0,1,8.368,4.975c.252.327.158.92.225,1.39-.409-.177-.955-.241-1.2-.548a11.774,11.774,0,0,0-9.062-4.629c-2.654-.088-5.318-.1-7.97.02a11.432,11.432,0,0,0-8.716,4.508c-.348.434-.7,1.184-1.35.538-.186-.185.022-1.029.3-1.373a12.918,12.918,0,0,1,9.8-5.062c1.347-.071,2.7-.011,4.051-.011Z" transform="translate(-222.555 -404.411)"/>
        <path id="Trazado_599764" data-name="Trazado 599764" d="M249.724,530.8A19.967,19.967,0,1,1,269.7,510.884,19.994,19.994,0,0,1,249.724,530.8Zm4.317-29.312a9.99,9.99,0,0,0-12.451,2.8,10.4,10.4,0,0,0,13.871,15.167c3.791-2.482,5.655-7.805,4-11.58-1.986,1.028-3.9,1.063-5.5-.716C252.6,505.642,252.645,504,254.042,501.491Z" transform="translate(-207.092 -447.585)" fill="#fff"/>
        <path id="Trazado_599765" data-name="Trazado 599765" d="M199.493,483.845c2.462.374,4.964.593,7.378,1.151a50.831,50.831,0,0,1,18.063,8.437,92.842,92.842,0,0,1,12.734,11.041c.33.338.636.7.964,1.057a3.394,3.394,0,0,1-.311.482c-6.151,6.516-12.928,12.329-21.162,16.462a41.624,41.624,0,0,1-20.137,4.727,43.679,43.679,0,0,1-18.956-5.152c-8-4.141-14.7-9.782-20.825-16.085a3.164,3.164,0,0,1-.286-.482c1.326-1.3,2.648-2.663,4.044-3.954,6.235-5.769,12.991-10.871,21.06-14.226a41.392,41.392,0,0,1,12.686-3.172,8.474,8.474,0,0,1,1.418.037c-13.8,1.521-21.933,11.888-20.956,23.27.934,10.884,10.808,19.477,22.443,19.542,11.7.064,21.675-8.478,22.72-19.4,1.079-11.274-7.138-21.962-20.945-23.36Z" transform="translate(-155.214 -442.343)" fill="#fff"/>
        <path id="Trazado_599766" data-name="Trazado 599766" d="M289.734,353.135a8.486,8.486,0,0,1-8.406,8.542,8.531,8.531,0,1,1-.147-17.062A8.481,8.481,0,0,1,289.734,353.135Z" transform="translate(-239.227 -343.264)" fill="#fff"/>
        <path id="Trazado_599767" data-name="Trazado 599767" d="M178.309,388.187a8.532,8.532,0,0,1,17.064.091,8.6,8.6,0,0,1-8.59,8.517A8.511,8.511,0,0,1,178.309,388.187Z" transform="translate(-171.153 -369.48)" fill="#fff"/>
        <path id="Trazado_599768" data-name="Trazado 599768" d="M367.21,388.277a8.53,8.53,0,1,1,17.06.04,8.586,8.586,0,0,1-8.633,8.479A8.5,8.5,0,0,1,367.21,388.277Z" transform="translate(-307.372 -369.482)" fill="#fff"/>
        <path id="Trazado_599769" data-name="Trazado 599769" d="M282.313,529.509c-1.4,2.509-1.439,4.151-.074,5.668,1.6,1.779,3.509,1.744,5.5.716,1.653,3.774-.211,9.1-4,11.58a10.4,10.4,0,0,1-13.871-15.167A9.99,9.99,0,0,1,282.313,529.509Z" transform="translate(-235.368 -476.609)"/>
      </g>
    </g>
  </g>
</svg>
